<svg xmlns="http://www.w3.org/2000/svg" xmlns:xlink="http://www.w3.org/1999/xlink" width="48.318" height="166.686" viewBox="0 0 48.318 166.686">
  <defs>
    <clipPath id="clip-path">
      <rect id="長方形_23550" data-name="長方形 23550" width="28.318" height="126.686" transform="translate(0 0)" fill="none"/>
    </clipPath>
  </defs>
  <g id="story-tag3" transform="translate(-1689 -5933)">
    <rect id="長方形_23559" data-name="長方形 23559" width="166.686" height="48.318" transform="translate(1737.318 5933) rotate(90)" fill="#f2f2ed"/>
    <g id="グループ_7117" data-name="グループ 7117" transform="translate(1699 5953)">
      <g id="グループ_7114" data-name="グループ 7114">
        <g id="グループ_7113" data-name="グループ 7113" clip-path="url(#clip-path)">
          <path id="パス_5363" data-name="パス 5363" d="M7.819,17.746c-3.624,0-5.174-4.1-5.174-8.823C2.645,4.174,4.52,0,7.669,0c3.5,0,5.2,4.1,5.2,8.8,0,4.724-1.8,8.948-5.049,8.948M7.669.6C5.444.6,4.7,4.849,4.7,8.9c0,3.9.5,8.2,3.149,8.2,2.274,0,2.949-4.3,2.949-8.223C10.793,4.8,10.294.6,7.669.6" fill="#333"/>
          <path id="パス_5364" data-name="パス 5364" d="M18.669,19c-2.7,0-2.725-1.2-2.725-1.35a.922.922,0,0,1,1-.95h.1c.975.2,1.15,1.351,2.6,1.351,2.149,0,4.874-2.25,4.874-5.8,0-2.324-1.125-4.074-3.05-4.074a2.435,2.435,0,0,0-1.3.4.7.7,0,0,1-.4.176c-.125,0-.225-.1-.225-.351,0-.224.125-1,.7-1.174.3-.1,3.374-1.075,3.374-3.849,0-1.475-.825-2.074-1.75-2.074-1.675,0-3.124,1.7-3.449,2.174a.7.7,0,0,1-.55.375.31.31,0,0,1-.3-.325c0-.7,2.35-3.524,4.949-3.524a2.805,2.805,0,0,1,3.024,2.749A5.469,5.469,0,0,1,23.118,6.9c-.025.025-.075.05-.075.1,0,.025.025.075.1.075a4.085,4.085,0,0,1,3.374,4.4c0,4.324-4.3,7.523-7.848,7.523" fill="#333"/>
        </g>
      </g>
      <line id="線_82" data-name="線 82" x2="20" transform="translate(4.72 34.989)" fill="none" stroke="#ccc" stroke-width="1"/>
      <g id="グループ_7116" data-name="グループ 7116">
        <g id="グループ_7115" data-name="グループ 7115" clip-path="url(#clip-path)">
          <path id="パス_5365" data-name="パス 5365" d="M13.727,60.447c0,.288-.384.48-.672.672-.544.352-.576.576-.576,1.312v.416c0,1.536.128,4.192.192,5.376v.064a1.2,1.2,0,0,1-1.216,1.152.781.781,0,0,1-.832-.864V68.1H4.767v3.359c0,5.376.064,11.2.129,13.887A1.342,1.342,0,0,1,3.52,86.589a.924.924,0,0,1-.96-1.023v-.1c.288-4.831.416-12.287.416-18.3,0-1.664-.033-3.2-.033-4.544a28.647,28.647,0,0,0-.352-4.032.743.743,0,0,1-.031-.224c0-.1.031-.128.1-.128a13.167,13.167,0,0,1,2.976,1.312l.16.128h4.16a.551.551,0,0,0,.448-.256c.16-.256.64-.735.864-.735.32,0,2.464,1.215,2.464,1.759m-8.9,3.744c-.032.928-.032,1.952-.032,3.072h5.856c.032-.9.032-1.984.032-3.072Zm5.792-3.3a.346.346,0,0,0-.352-.352h-4.8c-.544.256-.64.416-.64,2.816h5.856c0-.928-.032-1.824-.064-2.464M22.59,77.982c0,.192-.16.384-.608.384H15.135a8.288,8.288,0,0,1-.224.928h.064c1.759.224,5.663,1.28,5.663,3.231a.925.925,0,0,1-.864,1.024c-.352,0-.736-.223-1.12-.8a13.868,13.868,0,0,0-3.807-3.232c-1.376,4.031-5.6,5.152-8.1,5.152-.352,0-.512-.064-.512-.128,0-.1.32-.225.7-.289a7.577,7.577,0,0,0,6.4-5.919h-.288c-1.44,0-2.784.192-4.256.32H8.767c-.48,0-1.408-1.12-1.408-1.536a45.084,45.084,0,0,0,5.824.48h.288a8.967,8.967,0,0,0,.031-.928v-.608a12.027,12.027,0,0,0-.063-1.28c-1.248.032-2.976.16-4,.256H9.407c-.384,0-1.216-.992-1.216-1.408a58.7,58.7,0,0,0,6.08.384h.448a17.512,17.512,0,0,0,2.015-4.287c.033-.192.033-.256.1-.256s2.431,1.247,2.431,1.791c0,.192-.192.385-.64.385h-.256a.848.848,0,0,0-.639.287c-.513.448-1.537,1.408-2.336,2.08h2.623c.16,0,.224-.128.321-.288a5.526,5.526,0,0,1,.959-1.216.346.346,0,0,1,.224-.1.24.24,0,0,1,.16.032c1.984,1.056,2.08,1.76,2.08,1.952s-.128.352-.576.352l-5.439.032c.128.064.192.128.192.224,0,.16-.161.352-.416.48-.161.1-.256.032-.256.832v.576a5.185,5.185,0,0,1-.032.7h3.263a.491.491,0,0,0,.384-.288A7.425,7.425,0,0,1,19.9,75.966c.032-.064.128-.064.192-.064a.475.475,0,0,1,.224.032c.9.384,2.272,1.376,2.272,2.048m-8.735-5.76a1,1,0,0,1-.928,1.056,1.168,1.168,0,0,1-.992-.735A8.7,8.7,0,0,0,9.983,70.4c-.16-.128-.224-.192-.224-.256s.128-.1.384-.1h.1c1.6,0,3.616.864,3.616,2.176M27.773,60.447c0,.288-.383.48-.671.672-.64.384-.64.416-.64,4.288,0,4.512.128,11.647.192,14.3,0,.512.1,2.528.1,2.976,0,3.263-3.392,3.679-3.84,3.679-.32,0-.416-.192-.608-.48-.48-.768-3.872-1.984-3.872-2.208a.143.143,0,0,1,.1-.031,3.153,3.153,0,0,1,.416.064,23.412,23.412,0,0,0,3.552.416c1.472,0,2.176-.449,2.208-1.76.032-.737.032-2.208.032-4.032,0-2.944-.032-6.848-.064-10.239H18.4v.159a1.168,1.168,0,0,1-1.215,1.057.854.854,0,0,1-.9-.9v-.128c.192-2.112.223-3.424.223-4.416a27.651,27.651,0,0,0-.351-5.216.721.721,0,0,1-.032-.224c0-.1.032-.128.063-.128a10.809,10.809,0,0,1,2.88,1.248l.161.128h4.607a.551.551,0,0,0,.448-.256c.16-.256.64-.735.864-.735.288,0,2.623,1.151,2.623,1.759M24.51,60.9a.346.346,0,0,0-.352-.352H18.91c-.512.256-.544.256-.575,1.152,0,.352-.033.928-.033,1.664h6.272c-.032-1.216-.032-2.08-.064-2.464m.1,3.3H18.3c0,.9.033,1.952.064,3.072h6.272c0-1.12,0-2.176-.032-3.072" fill="#333"/>
          <path id="パス_5366" data-name="パス 5366" d="M17.119,121.5a1,1,0,0,1-1.056,1.024c-.608,0-3.871-1.248-5.632-6.048A59.313,59.313,0,0,1,2.3,120.768c-.224.1-.384.447-.576.447A5.344,5.344,0,0,1,0,119.007c0-.064.1-.031.288-.064a15.082,15.082,0,0,0,2.56-.384l.288-.1v-5.151c0-10.879-.064-11.647-.352-12.927a.563.563,0,0,1-.032-.192c0-.064,0-.1.064-.1a12.317,12.317,0,0,1,2.848,1.344,46.73,46.73,0,0,0,6.592-2.592,3.655,3.655,0,0,0,1.023-.832c.1-.1.128-.192.192-.192a6.236,6.236,0,0,1,2.016,2.24c0,.224-.192.416-.544.416a2.2,2.2,0,0,1-.416-.064,1.361,1.361,0,0,0-.352-.064,3.234,3.234,0,0,0-.544.1c-.928.256-1.952.512-2.976.736.544.128,1.024.288,1.024.608,0,.192-.159.384-.48.544-.511.288-.544.16-.575,1.12-.033,1.024-.064,2.08-.064,3.135,0,.672,0,1.313.031,1.985h1.665a.6.6,0,0,0,.416-.256c.863-1.344,1.247-1.7,1.5-1.7.1,0,.16.032.224.032a5.466,5.466,0,0,1,2.464,2.336c0,.223-.16.416-.672.416H10.655c.608,8.9,4.256,10.3,4.384,10.3.448,0,.864-.832,1.792-3.456a1.571,1.571,0,0,1,.224-.512h.032c.032,0,.064.128.064.32,0,.8-.32,3.073-.32,4.128a1.405,1.405,0,0,0,.064.48,1.909,1.909,0,0,1,.224.832m-3.168,2.272c0,.224-.128.415-.608.415H7.392a38.056,38.056,0,0,0-5.216.288H2.144c-.544,0-1.536-1.119-1.536-1.535a46.979,46.979,0,0,0,6.912.448H9.856a.54.54,0,0,0,.447-.288c.96-1.44,1.057-1.568,1.248-1.568.513,0,2.4,1.568,2.4,2.24M8.64,101.632c-.96.192-1.952.352-2.816.48a1.665,1.665,0,0,1-.544.448c-.288.192-.352.128-.352.96,0,.64-.032,2.624-.032,5.056h4.16c-.288-6.08-.321-6.368-.416-6.944m.48,7.776H4.9v8.575a39.55,39.55,0,0,0,5.407-1.92,28.044,28.044,0,0,1-1.183-6.655m19.2-7.68c0,.32-.384.576-.864.736-.256.1-.448.16-.832.736-.064.128-2.944,4.511-2.944,5.695,0,.545.321.96.9,1.6,1.345,1.439,3.392,3.327,3.392,6.431,0,3.328-2.24,5.056-4.288,5.056a.558.558,0,0,1-.575-.32c-.352-.7-2.432-2.176-2.432-2.432,0-.032,0-.032.064-.032a.577.577,0,0,1,.288.065,6.31,6.31,0,0,0,2.175.447c2.432,0,2.688-2.272,2.688-3.584,0-2.112-.991-3.52-2.047-5.12a3.854,3.854,0,0,1-.9-2.175,5.983,5.983,0,0,1,.255-1.44c1.024-3.488,1.537-5.472,1.537-5.6s-.1-.224-.289-.224H20.991l-.128.1c-.384.288-.48.352-.48,1.568-.032,3.2-.032,6.943-.032,10.815,0,3.84,0,7.808.032,11.424a1.3,1.3,0,0,1-1.312,1.215c-.448,0-.864-.288-.864-.992v-.1c.192-3.712.288-9.216.288-14.048,0-2.687-.032-5.151-.064-7.039a37.4,37.4,0,0,0-.416-5.024.625.625,0,0,1-.032-.224c0-.032,0-.032.032-.032a16.349,16.349,0,0,1,3.136,1.408l.1.1h3.135a.582.582,0,0,0,.48-.192c.225-.224.448-.512.608-.64a.46.46,0,0,1,.32-.128c.64,0,2.528,1.44,2.528,1.952" fill="#333"/>
        </g>
      </g>
    </g>
  </g>
</svg>
