<svg xmlns="http://www.w3.org/2000/svg" xmlns:xlink="http://www.w3.org/1999/xlink" width="50.366" height="206.685" viewBox="0 0 50.366 206.685">
  <defs>
    <clipPath id="clip-path">
      <rect id="長方形_23546" data-name="長方形 23546" width="30.366" height="166.685" fill="none"/>
    </clipPath>
  </defs>
  <g id="story-tag1" transform="translate(-1639 -5968)">
    <rect id="長方形_23239" data-name="長方形 23239" width="206.685" height="50.366" transform="translate(1689.366 5968) rotate(90)" fill="#f2f2ed"/>
    <g id="グループ_7107" data-name="グループ 7107" transform="translate(1649 5988)">
      <g id="グループ_7104" data-name="グループ 7104">
        <g id="グループ_7103" data-name="グループ 7103" clip-path="url(#clip-path)">
          <path id="パス_5353" data-name="パス 5353" d="M7.819,17.746c-3.624,0-5.174-4.1-5.174-8.823C2.645,4.174,4.52,0,7.669,0c3.5,0,5.2,4.1,5.2,8.8,0,4.724-1.8,8.948-5.049,8.948M7.669.6C5.444.6,4.7,4.849,4.7,8.9c0,3.9.5,8.2,3.149,8.2,2.274,0,2.949-4.3,2.949-8.223C10.793,4.8,10.294.6,7.669.6" fill="#333"/>
          <path id="パス_5354" data-name="パス 5354" d="M25.792,17.171c0,.149-.1.274-.35.274,0,0-2-.149-4.224-.149a27.014,27.014,0,0,0-3.249.149h-.05c-.175,0-.3-.1-.3-.25a.6.6,0,0,1,.3-.449c3.124-.375,2.9-.65,3.024-3.4.05-.9.1-3.124.1-5.4,0-1.7-.024-3.449-.125-4.749a.393.393,0,0,0-.3-.4,14.551,14.551,0,0,0-2.425.45h-.025a.371.371,0,0,1-.4-.349.556.556,0,0,1,.225-.375A12.438,12.438,0,0,0,22.293.25.643.643,0,0,1,22.718,0c.175,0,.325.15.325.5V.65c-.225,1.95-.275,6.124-.275,9.448,0,1.274,0,2.449.025,3.223.075,2.8.025,3.125,2.724,3.425a.6.6,0,0,1,.275.425" fill="#333"/>
        </g>
      </g>
      <line id="線_80" data-name="線 80" x2="20" transform="translate(4.72 34.989)" fill="none" stroke="#ccc" stroke-width="1"/>
      <g id="グループ_7106" data-name="グループ 7106">
        <g id="グループ_7105" data-name="グループ 7105" clip-path="url(#clip-path)">
          <path id="パス_5355" data-name="パス 5355" d="M11.967,66.655c0,.192-.128.352-.608.352H7.135c0,3.168.032,6.816.032,8.831,1.664-.544,3.392-1.088,4.576-1.568a1.1,1.1,0,0,1,.384-.095c.1,0,.128.031.128.095,0,.449-5.952,3.584-9.823,5.12-.288.128-.352.416-.544.416A5.788,5.788,0,0,1,.16,77.374c0-.064.064-.1.16-.1.16,0,.32.032.512.032.863,0,1.471-.032,4.415-.864.032-2.335.064-6.3.064-9.439-1.152.032-2.079.224-3.359.32H1.92c-.48,0-1.44-1.152-1.44-1.568,2.368.288,3.615.448,4.831.48,0-1.12-.032-2.112-.032-2.816a29.619,29.619,0,0,0-.383-4.8.337.337,0,0,1-.033-.159.086.086,0,0,1,.1-.1s3.647.608,3.647,1.345c0,.287-.352.544-.8.736-.576.255-.672.511-.672,5.791h.8c.192,0,.256-.128.352-.288.128-.224.96-1.568,1.344-1.568.48,0,2.336,1.568,2.336,2.272m18.4,17.407c0,.256-2.463.48-3.359,1.407a.364.364,0,0,1-.256.1c-.032,0-3.456-1.12-6.592-5.952A19.475,19.475,0,0,1,8.415,86.238c-.128,0-.192-.033-.192-.064,0-.128.384-.32,1.088-.577a19.624,19.624,0,0,0,9.92-7.551A24.575,24.575,0,0,1,16.382,68.7H15.167c-.224,6.432-1.7,13.343-9.119,16.671a4.341,4.341,0,0,1-1.121.351c-.064,0-.128,0-.128-.031,0-.1.289-.32.928-.705,6.272-3.679,7.52-10.27,7.52-16.7a42.445,42.445,0,0,0-.64-8.16.406.406,0,0,1-.032-.192c0-.1.032-.128.1-.128a13.475,13.475,0,0,1,3.231,1.5.691.691,0,0,1,.192.128h7.36a.653.653,0,0,0,.448-.256c.928-1.312,1.216-1.695,1.6-1.695.96,0,2.816,1.919,2.816,2.367,0,.224-.16.416-.7.416H15.9a2.162,2.162,0,0,1-.287.192c-.384.224-.448.288-.448,1.024v.7c.032.832.032,1.7.032,2.56v1.088h7.455a.7.7,0,0,0,.544-.224,2.2,2.2,0,0,1,.544-.544.455.455,0,0,1,.192-.064c.48,0,2.5,1.248,2.5,1.856,0,.224-.192.48-.608.7-.448.256-.608.128-.8.735a29.2,29.2,0,0,1-3.808,7.9,15.8,15.8,0,0,0,8.864,5.728c.192.064.287.1.287.128M23.006,68.927c0-.16-.064-.224-.352-.224H16.831a26.547,26.547,0,0,0,3.3,7.967,24.4,24.4,0,0,0,2.88-7.743" fill="#333"/>
          <path id="パス_5356" data-name="パス 5356" d="M27.294,103.2c0,.384-.447.672-1.055.928-.672.32-.7.352-.7,4.48,0,4.255.16,10.912.288,14.88v.063a1.479,1.479,0,0,1-1.5,1.376.832.832,0,0,1-.928-.9V124c0-.576.032-1.152.032-1.759H6.016v1.727c0,.9-.928,1.184-1.44,1.184a.907.907,0,0,1-.992-.992v-.1c.256-3.68.32-7.551.32-11.263,0-8.1-.32-10.656-.544-11.648a.638.638,0,0,1-.031-.223c0-.064.031-.1.064-.1a15.928,15.928,0,0,1,3.455,1.5l.16.1H22.559a.765.765,0,0,0,.544-.288c.192-.256.928-1.12,1.28-1.12.288,0,2.911,1.472,2.911,2.176m-3.775,9.376c0-3.584-.032-6.752-.128-8.768a.43.43,0,0,0-.416-.448H6.88a2.247,2.247,0,0,1-.288.192c-.576.352-.608.512-.608,1.376,0,1.7-.032,5.5-.032,9.824,0,2.143,0,4.415.032,6.591H23.455c.032-2.944.064-5.984.064-8.767" fill="#333"/>
          <path id="パス_5357" data-name="パス 5357" d="M17.119,161.5a1,1,0,0,1-1.056,1.025c-.608,0-3.871-1.248-5.632-6.048A59.213,59.213,0,0,1,2.3,160.766c-.224.1-.384.447-.576.447A5.337,5.337,0,0,1,0,159.005c0-.063.1-.031.288-.063a15.082,15.082,0,0,0,2.56-.384l.288-.1V153.31c0-10.879-.064-11.647-.352-12.927a.56.56,0,0,1-.032-.192c0-.064,0-.1.064-.1a12.317,12.317,0,0,1,2.848,1.344,46.673,46.673,0,0,0,6.591-2.592,3.645,3.645,0,0,0,1.024-.832c.1-.1.128-.191.192-.191a6.232,6.232,0,0,1,2.016,2.239c0,.225-.192.416-.544.416a2.2,2.2,0,0,1-.416-.064,1.361,1.361,0,0,0-.352-.064,3.232,3.232,0,0,0-.544.1c-.928.257-1.952.512-2.976.736.544.128,1.024.288,1.024.608,0,.192-.159.384-.48.544-.511.288-.544.16-.575,1.12-.033,1.024-.064,2.08-.064,3.135,0,.672,0,1.313.031,1.985h1.664a.6.6,0,0,0,.417-.256c.863-1.344,1.247-1.7,1.5-1.7.1,0,.16.032.224.032a5.466,5.466,0,0,1,2.464,2.336c0,.223-.16.416-.672.416H10.655c.608,8.9,4.256,10.3,4.384,10.3.448,0,.864-.832,1.792-3.455a1.571,1.571,0,0,1,.224-.512h.032c.032,0,.064.128.064.32,0,.8-.32,3.071-.32,4.128a1.394,1.394,0,0,0,.064.479,1.916,1.916,0,0,1,.224.832m-3.168,2.273c0,.224-.128.415-.608.415H7.392a38.054,38.054,0,0,0-5.216.288H2.144c-.544,0-1.536-1.119-1.536-1.535a46.953,46.953,0,0,0,6.912.447H9.856a.54.54,0,0,0,.447-.288c.96-1.439,1.057-1.567,1.248-1.567.513,0,2.4,1.567,2.4,2.24M8.64,141.631c-.96.192-1.952.352-2.816.48a1.665,1.665,0,0,1-.544.448c-.288.191-.352.128-.352.96,0,.64-.032,2.624-.032,5.056h4.16c-.288-6.08-.321-6.369-.416-6.944m.48,7.776H4.9v8.575a39.547,39.547,0,0,0,5.407-1.92,28.044,28.044,0,0,1-1.183-6.655m19.2-7.68c0,.32-.384.576-.864.736-.256.1-.448.16-.832.736-.064.128-2.944,4.511-2.944,5.7,0,.544.321.959.9,1.6,1.345,1.439,3.392,3.327,3.392,6.431,0,3.327-2.24,5.056-4.288,5.056a.56.56,0,0,1-.575-.32c-.352-.705-2.432-2.176-2.432-2.432,0-.032,0-.032.064-.032a.584.584,0,0,1,.288.064,6.31,6.31,0,0,0,2.175.447c2.432,0,2.688-2.271,2.688-3.583,0-2.112-.991-3.52-2.047-5.12a3.854,3.854,0,0,1-.9-2.175,5.983,5.983,0,0,1,.255-1.44c1.024-3.488,1.537-5.472,1.537-5.6s-.1-.224-.289-.224H20.991l-.128.1c-.384.288-.48.352-.48,1.568-.032,3.2-.032,6.943-.032,10.815,0,3.84,0,7.808.032,11.423a1.3,1.3,0,0,1-1.312,1.216c-.448,0-.864-.288-.864-.992v-.1c.192-3.712.288-9.215.288-14.047,0-2.687-.032-5.151-.064-7.039a37.411,37.411,0,0,0-.416-5.024.622.622,0,0,1-.032-.224c0-.032,0-.032.032-.032a16.349,16.349,0,0,1,3.136,1.408l.1.1h3.135a.579.579,0,0,0,.48-.192c.225-.224.448-.512.608-.64a.46.46,0,0,1,.32-.128c.64,0,2.528,1.44,2.528,1.952" fill="#333"/>
        </g>
      </g>
    </g>
  </g>
</svg>
