<svg xmlns="http://www.w3.org/2000/svg" xmlns:xlink="http://www.w3.org/1999/xlink" width="51.485" height="288.659" viewBox="0 0 51.485 288.659">
  <defs>
    <clipPath id="clip-path">
      <rect id="長方形_23556" data-name="長方形 23556" width="31.485" height="248.659" fill="none"/>
    </clipPath>
  </defs>
  <g id="story-tag6" transform="translate(-1914 -5930)">
    <rect id="長方形_23560" data-name="長方形 23560" width="288.659" height="51.485" transform="translate(1965.485 5930) rotate(90)" fill="#f2f2ed"/>
    <g id="グループ_7132" data-name="グループ 7132" transform="translate(1924 5950)">
      <g id="グループ_7129" data-name="グループ 7129">
        <g id="グループ_7128" data-name="グループ 7128" clip-path="url(#clip-path)">
          <path id="パス_5377" data-name="パス 5377" d="M8.651,19.27c-3.624,0-5.173-4.1-5.173-8.823C3.478,5.7,5.352,1.524,8.5,1.524c3.5,0,5.2,4.1,5.2,8.8,0,4.724-1.8,8.948-5.049,8.948M8.5,2.124c-2.225,0-2.974,4.249-2.974,8.3,0,3.9.5,8.2,3.149,8.2,2.274,0,2.949-4.3,2.949-8.223,0-4.074-.5-8.273-3.124-8.273" fill="#333"/>
          <path id="パス_5378" data-name="パス 5378" d="M22.626,19.245c-3.35,0-5.049-3-5.049-6.1C17.577,4.073,26.625,0,27.1,0a.357.357,0,0,1,.35.349.441.441,0,0,1-.3.4c-4.473,1.825-7.672,7.424-7.672,12.4,0,3.775,1.8,5.524,3.174,5.524,2.649,0,3.3-3.1,3.3-4.624,0-2.424-1.1-3.874-2.524-3.874a3.487,3.487,0,0,0-2.374,1.2.36.36,0,0,1-.25.1.39.39,0,0,1-.4-.375,3.964,3.964,0,0,1,3.475-2c2.049,0,3.924,1.7,3.924,4.873a5.116,5.116,0,0,1-5.174,5.274" fill="#333"/>
        </g>
      </g>
      <line id="線_85" data-name="線 85" x2="20" transform="translate(5.552 36.513)" fill="none" stroke="#ccc" stroke-width="1"/>
      <g id="グループ_7131" data-name="グループ 7131">
        <g id="グループ_7130" data-name="グループ 7130" clip-path="url(#clip-path)">
          <path id="パス_5379" data-name="パス 5379" d="M11.135,70.644c0,.256-.288.512-.992.64-.48.1-.64.1-.927.672-2.529,5.12-7.456,8.7-8.288,8.7A.069.069,0,0,1,.864,80.6c0-.1.128-.256.288-.416C3.424,78.1,7.04,72.948,7.712,68.949c.031-.129,0-.226.1-.226.128,0,3.328,1.216,3.328,1.921m5.952-6.367c-.1,1.44-.128,4.638-.128,7.9,0,2.944.032,5.888.063,7.679.033.927.129,3.1.129,3.744,0,2.463-2.656,3.616-4.256,3.616-.32,0-.385-.192-.576-.448-.48-.576-4.287-2.016-4.287-2.24,0-.032.031-.032.1-.032a2,2,0,0,1,.383.032,24.343,24.343,0,0,0,3.873.416c2.111,0,2.559-.672,2.591-1.663.064-1.666.1-4.481.1-7.52,0-3.872-.032-8.16-.1-10.976a20.167,20.167,0,0,0-.384-3.711.35.35,0,0,1-.032-.16c0-.1.032-.129.127-.129.321,0,3.777.513,3.777,1.185,0,.224-.193.448-.544.672-.641.416-.737.16-.832,1.632M29.822,77.139c0,.96-.479,1.6-1.088,1.6-.544,0-1.184-.512-1.727-1.792-.993-2.369-3.905-5.7-5.889-7.52-.16-.129-.224-.224-.224-.289,0-.032.032-.062.1-.062.672,0,8.831,4.095,8.831,8.062" fill="#333"/>
          <path id="パス_5380" data-name="パス 5380" d="M9.759,102.1c0,.16-.159.352-.576.576-.671.352-.8.352-.8,1.248v.512c.031,1.856.031,3.616.031,5.248,0,8.735-.735,14.5-7.2,18.4a2.787,2.787,0,0,1-1.119.48c-.065,0-.1-.032-.1-.064,0-.128.224-.352.736-.768,4.7-3.68,5.632-8.768,5.632-17.183,0-7.1-.352-9.184-.448-9.6a.625.625,0,0,1-.032-.224c0-.032,0-.032.032-.032.384,0,3.839.7,3.839,1.408m7.007,2.368c-.1,1.568-.16,4.416-.16,7.455,0,4.416.1,9.312.193,11.616v.064a1.215,1.215,0,0,1-1.312,1.184c-.48,0-.928-.288-.928-1.056v-.064c.127-3.424.224-9.7.224-14.239a49.08,49.08,0,0,0-.352-8,.563.563,0,0,1-.032-.192c0-.032,0-.064.065-.064.191,0,3.615.544,3.615,1.312,0,.224-.16.416-.48.608-.672.384-.737.128-.833,1.376m8.9-.8c-.1,1.472-.128,4.32-.128,7.583,0,5.12.1,11.328.16,15.04v.032a1.327,1.327,0,0,1-1.344,1.216.919.919,0,0,1-.959-1.056v-.065c.127-4.479.255-11.774.255-16.927a66.349,66.349,0,0,0-.383-8.863.547.547,0,0,1-.033-.192c0-.032,0-.064.064-.064.192,0,3.68.512,3.68,1.312,0,.224-.16.416-.48.608-.672.384-.735.128-.832,1.376" fill="#333"/>
          <path id="パス_5381" data-name="パス 5381" d="M31.486,166.387c0,.256-2.4.768-2.879,1.344a.339.339,0,0,1-.288.16.463.463,0,0,1-.193-.064c-3.455-1.6-5.471-5.152-6.463-9.12a1.4,1.4,0,0,0-.48.352,15.216,15.216,0,0,1-1.28,1.152c.032,0,.064.033.1.033.256.1.352.191.352.287,0,.129-.16.288-.416.448-.384.256-.448.448-.448,3.04v.928c1.088-.288,2.3-.64,3.52-1.056a1.736,1.736,0,0,1,.543-.128c.1,0,.16.032.16.1,0,.032-.351.672-7.839,4.063-.256.128-.352.416-.544.416-.48,0-1.792-2.111-1.792-2.239,0-.064.064-.1.16-.1h.353a23.29,23.29,0,0,0,3.871-.639c.031-1.281.031-2.4.031-2.5,0-.48,0-.928-.031-1.312a26.019,26.019,0,0,1-4.959,2.3c-.064.032-.1.064-.16.064l.063,2.048v.064a1.243,1.243,0,0,1-1.151,1.28c-.416,0-.768-.288-.768-1.025v-1.759H4.32c0,.8.033,1.6.033,2.3a1.224,1.224,0,0,1-1.185,1.185c-.416,0-.8-.257-.8-.96v-.1c.161-2.975.192-7.327.192-11.1,0-7.136-.1-8.128-.352-9.632a1.126,1.126,0,0,0-.031-.191c0-.065.031-.1.063-.1a13,13,0,0,1,2.72,1.408l.031.032h.45a32.8,32.8,0,0,0-.129-4.736c-.9.064-1.92.129-2.944.225-.351,0-1.248-1.216-1.248-1.5,2.272.256,5.024.448,6.047.448H9.536a.5.5,0,0,0,.352-.192c.031-.065,1.023-1.6,1.375-1.6a4.705,4.705,0,0,1,2.432,2.207c0,.16-.127.352-.543.352h-3.04c.063.064.1.1.1.161,0,.128-.16.256-.416.351-.16.065-.256.225-.256.832,0,.737-.033,2.016-.033,3.456h.769a.54.54,0,0,0,.416-.288c.383-.639.672-.9.8-.9.225,0,2.272.96,2.272,1.728,0,.352-.384.576-.607.736-.416.352-.449.288-.481,1.056-.031.832-.063,2.144-.063,3.711,0,3.1.063,7.136.159,10.08.033,0,.064-.032.1-.032a25.269,25.269,0,0,0,6.656-5.12c.064-.064.129-.191.224-.288-1.5,0-3.488.1-5.439.288h-.033c-.543,0-1.471-1.088-1.471-1.472,1.728.225,3.775.321,5.471.384.032-.7.064-1.695.064-2.623-.7.031-1.536.1-2.72.224h-.032c-.544,0-1.439-1.056-1.439-1.409,1.631.193,2.975.288,4.159.353v-2.273c-.864.033-1.856.1-3.167.225H15.1c-.543,0-1.44-1.057-1.44-1.408,1.7.224,3.3.32,4.64.384a13.579,13.579,0,0,0-.256-3.072.428.428,0,0,1-.032-.16c0-.064.032-.1.064-.1.128,0,2.879.383,2.879.959,0,.128-.159.288-.415.448-.576.32-.673.16-.7,1.471v.481h2.783a13.968,13.968,0,0,0-.256-3.1.441.441,0,0,1-.031-.16c0-.064.031-.1.064-.1.128,0,2.879.383,2.879.959,0,.128-.16.288-.416.448-.576.32-.671.16-.7,1.471v.481h.9a.543.543,0,0,0,.449-.288c.256-.32.928-1.216,1.248-1.216.383,0,2.176,1.28,2.176,1.855,0,.193-.129.385-.608.385H24.126v2.367h.513a.543.543,0,0,0,.448-.288c.768-.96.991-1.119,1.151-1.119.384,0,2.144,1.119,2.144,1.76,0,.191-.127.384-.607.384H24.126c0,1.12,0,2.143.033,2.719h1.856a.54.54,0,0,0,.447-.288c.672-.864,1.057-1.343,1.313-1.343.447,0,2.336,1.471,2.336,1.983,0,.192-.129.384-.609.384H22.4a.233.233,0,0,1,.128.192c0,.128-.192.256-.416.321a11.609,11.609,0,0,0,1.824,3.391,10.21,10.21,0,0,0,3.231-3.1c.032-.065.065-.128.128-.128.352,0,2.08,1.6,2.08,2.111,0,.192-.191.32-.544.32a2.2,2.2,0,0,1-.416-.064,1.651,1.651,0,0,0-.352-.064.848.848,0,0,0-.383.1c-.481.224-1.824.736-3.424,1.248a11.92,11.92,0,0,0,7.007,3.9c.16.033.224.065.224.1M11.007,154.58a2.239,2.239,0,0,1-1.471.511c-1.28,0-1.472-.607-1.472-1.6v-.352c.032-.48.032-2.849.032-4.96H6.911c-.127,4.128-.927,6.592-2.623,8.512v2.495h6.719Zm-6.016-6.4-.222.192c-.416.288-.416.416-.449,1.536-.032.864-.032,3.2-.032,6.015a19.826,19.826,0,0,0,1.28-7.743Zm5.985,11.871H4.32v3.615h6.656ZM8.1,144.756c0-.351-.064-1.439-.1-2.176H7.456a.23.23,0,0,1,.1.193.383.383,0,0,1-.225.287c-.382.192-.416.128-.416.736v3.584H8.1Zm2.848,3.808c0-.16-.064-.384-.256-.384H9.312c-.033,1.5-.033,3.071-.033,4.064,0,1.215,0,1.343.289,1.343.511,0,.64-.479.767-1.983.033-.256.033-.353.065-.353.064,0,.191,1.5.383,1.632a1.444,1.444,0,0,1,.224.225c0-1.92-.031-3.552-.063-4.544m9.471-2.688c0,.161-.16.32-.576.32h-.064c-.1,0-.161-.032-.224-.032-.128,0-.224.064-.448.224-1.5,1.056-4.383,2.656-5.663,2.656-.1,0-.128,0-.128-.032,0-.064.128-.16.416-.32a10.217,10.217,0,0,0,4.416-3.9c.063-.1.1-.16.159-.16.288,0,2.112.8,2.112,1.248m9.151-2.175c0,.191-.127.383-.608.383H20.831a49.981,49.981,0,0,0-5.984.321h-.031c-.545,0-1.473-1.153-1.473-1.536a68.45,68.45,0,0,0,6.943.479,15.225,15.225,0,0,0-.351-3.615.729.729,0,0,1-.032-.225c0-.031,0-.031.032-.031.1,0,3.519.384,3.519,1.151,0,.193-.191.384-.511.544-.7.384-.8.128-.864,1.632,0,.193-.033.353-.033.544h3.232a.545.545,0,0,0,.449-.288c.991-1.279,1.216-1.439,1.407-1.439.448,0,2.432,1.408,2.432,2.08m-6.944,7.807H19.807v2.367h2.815Zm-2.815,3.1c0,1.12,0,2.143.032,2.719h2.752c.031-.7.064-1.759.064-2.719Zm8.159-7.136c0,.512-.287.928-.7.928a1.157,1.157,0,0,1-.864-.544,12.61,12.61,0,0,0-3.777-2.72c-.127-.063-.191-.1-.191-.128,0-.063.1-.063.191-.063,1.153,0,5.344.544,5.344,2.527" fill="#333"/>
          <path id="パス_5382" data-name="パス 5382" d="M30.814,203.7c.064,0,.1.033.1.065,0,.288-2.208,1.727-2.656,2.687a.83.83,0,0,1-.609.512,77.969,77.969,0,0,1-8.383.513c-3.3,0-10.016-.032-11.486-5.344-.769,1.056-2.752,3.136-4.16,4.671-.1.129-.161.736-.481.736C2.689,207.539.7,205.4.7,205.268c0-.065.065-.128.225-.16a16.4,16.4,0,0,0,5.15-2.945c.513-.447.545-1.183.545-6.815v-1.184a.345.345,0,0,0-.384-.351l-.577.031c-.543.032-1.982.32-2.591.353H3.04c-.511,0-1.408-1.249-1.408-1.7,1.057.16,3.233.448,3.968.448h.1l.511-.032a.7.7,0,0,0,.512-.288c.672-.8.832-.8.928-.8.32,0,2.624,1.088,2.624,1.857,0,.351-.48.607-.8.735-.448.193-.8.128-.864.864-.128,1.152-.159,3.168-.159,4.768v1.28a2.852,2.852,0,0,0,.159.96c1.088,2.495,4.256,3.167,8.735,3.167A50.916,50.916,0,0,0,30.431,203.8a1.575,1.575,0,0,1,.383-.1M9.28,184.725a1.2,1.2,0,0,1-1.088,1.312,1.776,1.776,0,0,1-1.407-.992A11.8,11.8,0,0,0,3.3,181.814c-.128-.1-.191-.16-.191-.193,0-.064.1-.1.256-.1,1.088,0,5.919.767,5.919,3.2m20.03,6.432c0,.192-.16.352-.735.352H18.751c-1.28,0-5.439.031-7.423.287H11.3c-.416,0-1.343-1.183-1.343-1.535a76.646,76.646,0,0,0,8.574.447v-4.319H14.3c-1.793,2.784-3.1,3.775-3.264,3.775-.033,0-.033-.031-.033-.063a1.493,1.493,0,0,1,.289-.576c.959-1.5,2.656-5.76,2.656-7.36,0-.383.063-.383.127-.383.128,0,2.913.863,2.913,1.6,0,.224-.288.448-.832.544-.289.065-.544.1-.672.384-.193.384-.416.832-.672,1.28h3.711c0-.832-.032-1.5-.032-1.824a21.818,21.818,0,0,0-.32-3.583.422.422,0,0,1-.031-.192c0-.065.031-.065.127-.065.16,0,3.392.481,3.392,1.152,0,.193-.16.416-.48.577-.672.351-.768.128-.832,1.183-.031.448-.064,1.5-.064,2.752h2.3a.653.653,0,0,0,.447-.256c1.122-1.728,1.409-1.728,1.5-1.728a.408.408,0,0,1,.193.032c1.088.384,2.655,1.92,2.655,2.4,0,.192-.159.352-.735.352H20.287v4.319h4a.655.655,0,0,0,.448-.256c1.151-1.759,1.44-1.823,1.6-1.823a.42.42,0,0,1,.192.031,5.871,5.871,0,0,1,2.783,2.5m-2.719,4.383c0,.352-.416.609-.736.8a1,1,0,0,0-.641,1.12c0,.7,0,.992.256,4.48v.1a1.168,1.168,0,0,1-1.215,1.088.879.879,0,0,1-.927-.96v-.735H15.616c0,.32.032.64.032.992v.031c0,.865-.992.993-1.248.993-.481,0-.9-.224-.9-.8v-.128c.193-2.176.225-3.68.225-5.248a15.561,15.561,0,0,0-.385-3.52.638.638,0,0,1-.031-.223c0-.033,0-.065.031-.065a16.1,16.1,0,0,1,3.072,1.376l.033.032h6.143a.593.593,0,0,0,.447-.255c.193-.321.769-.9,1.057-.9.128,0,2.5.96,2.5,1.824m-3.2,2.3c0-.607-.032-1.184-.063-1.728a.435.435,0,0,0-.481-.383H16.383l-.192.159c-.512.352-.543.257-.575,1.217,0,.544-.033,1.088-.033,1.663s.033,1.184.033,1.824h7.712c.031-.9.063-1.824.063-2.752" fill="#333"/>
          <path id="パス_5383" data-name="パス 5383" d="M3.391,241.171c-.256.128-.32.447-.512.447-.447,0-1.951-2.143-1.951-2.3,0-.1.031-.1.128-.1,1.569-.063,2.048-.192,4.671-1.216.032-2.336.065-6.271.065-9.439-1.087.064-1.985.192-3.2.288H2.559c-.479,0-1.439-1.152-1.439-1.569a46.089,46.089,0,0,0,4.672.449c0-1.12-.033-2.08-.033-2.783a29.5,29.5,0,0,0-.383-4.8.35.35,0,0,1-.032-.16.085.085,0,0,1,.1-.1s3.646.607,3.646,1.344c0,.288-.351.544-.8.735-.576.256-.672.513-.672,5.792h.959c.192,0,.256-.128.352-.288.129-.224.96-1.568,1.344-1.568.7,0,2.336,1.856,2.336,2.272,0,.192-.128.352-.608.352H7.616c0,3.1.031,6.656.031,8.7,1.729-.737,3.552-1.536,4.768-2.176a1.057,1.057,0,0,1,.448-.129c.063,0,.1,0,.1.064,0,.609-6.719,4.672-9.568,6.176M30.366,233.4c0,.191-.129.351-.641.351H18.143a.231.231,0,0,1,.127.193c0,.16-.256.319-.543.416-.416.128-.352.128-.736.639a19.919,19.919,0,0,1-1.5,1.825h9.375a.61.61,0,0,0,.544-.288c.608-.609.672-.609.7-.609.288,0,2.5,1.28,2.5,1.888,0,.224-.225.416-.736.64-.64.289-.737.576-.832,1.344-.512,3.36-1.376,8.383-5.631,8.383-.449,0-.9,0-1.121-.416-.256-.64-1.7-1.695-2.3-2.207a13.818,13.818,0,0,1-6.272,3.1c-.16,0-.224-.033-.224-.1s.191-.225.64-.385a17.792,17.792,0,0,0,9.439-10.591H19.55a.23.23,0,0,1,.128.193c0,.159-.224.319-.416.351-.447.128-.416.288-.767.832A19.953,19.953,0,0,1,6.3,247.25c-.128,0-.191-.032-.191-.1,0-.1.191-.224.607-.384,5.92-2.273,9.76-7.2,10.336-9.184H14.75c-3.328,3.264-6.847,4.9-7.615,4.9-.1,0-.159,0-.159-.064s.191-.257.607-.448c3.584-1.824,7.488-6.592,7.968-8.224-1.633.033-3.679.1-5.472.288h-.032c-.511,0-1.439-1.183-1.439-1.536,2.943.353,7.23.449,8.862.449h8.32a.6.6,0,0,0,.416-.256c.224-.384,1.12-1.7,1.5-1.7.065,0,.129.033.193.033.864.351,2.464,1.824,2.464,2.368M25.31,221.813c0,.351-.416.575-.7.767-.544.321-.544.48-.544,1.888,0,1.472.128,3.744.224,5.664v.064A1.111,1.111,0,0,1,23.1,231.22a.8.8,0,0,1-.863-.864v-.416H16.254v.927c0,.577-.639.96-1.183.96a.721.721,0,0,1-.8-.735v-.128c.193-2.4.225-4.32.225-5.792a26.61,26.61,0,0,0-.384-5.151,1.149,1.149,0,0,0-.032-.193c0-.063.032-.1.064-.1a11.323,11.323,0,0,1,2.783,1.376l.033.031h4.607a.551.551,0,0,0,.448-.256c.512-.8.736-.9.928-.9.288,0,2.368,1.12,2.368,1.824m-3.071.575a.388.388,0,0,0-.416-.384H16.9l-.16.128c-.481.353-.448.16-.512,1.28-.033.512-.033,1.056-.033,1.632H22.3c0-.992,0-1.887-.063-2.656m-6.049,3.488c0,1.056,0,2.176.033,3.232h6.016c.031-1.152.063-2.24.063-3.232Zm9.248,12.095c0-.256-.1-.384-.48-.384h-.864a.292.292,0,0,1,.128.256c0,.1-.1.224-.384.288-.511.128-.511.256-.768.832a18.66,18.66,0,0,1-4.863,6.4,11.847,11.847,0,0,0,3.231.7c1.632,0,3.328-1.088,4-7.968Z" fill="#333"/>
        </g>
      </g>
    </g>
  </g>
</svg>
