<svg xmlns="http://www.w3.org/2000/svg" xmlns:xlink="http://www.w3.org/1999/xlink" width="49.694" height="208.235" viewBox="0 0 49.694 208.235">
  <defs>
    <clipPath id="clip-path">
      <rect id="長方形_23552" data-name="長方形 23552" width="29.694" height="168.235" fill="none"/>
    </clipPath>
  </defs>
  <g id="story-tag4" transform="translate(-1794 -5944)">
    <rect id="長方形_23561" data-name="長方形 23561" width="208.235" height="49.694" transform="translate(1843.694 5944) rotate(90)" fill="#f2f2ed"/>
    <g id="グループ_7122" data-name="グループ 7122" transform="translate(1804 5964)">
      <g id="グループ_7119" data-name="グループ 7119">
        <g id="グループ_7118" data-name="グループ 7118" clip-path="url(#clip-path)">
          <path id="パス_5367" data-name="パス 5367" d="M8.651,19.3c-3.624,0-5.173-4.1-5.173-8.823C3.478,5.724,5.352,1.55,8.5,1.55c3.5,0,5.2,4.1,5.2,8.8,0,4.724-1.8,8.948-5.049,8.948M8.5,2.15c-2.225,0-2.974,4.249-2.974,8.3,0,3.9.5,8.2,3.149,8.2,2.274,0,2.949-4.3,2.949-8.223,0-4.074-.5-8.273-3.124-8.273" fill="#333"/>
          <path id="パス_5368" data-name="パス 5368" d="M27.125,13.946c-.35,0-.85,0-1.35-.024a.159.159,0,0,0-.15.149c0,.2.025.675.025.9.1,2.124-.25,3.075,1.975,3.3a.642.642,0,0,1,.175.45.25.25,0,0,1-.276.275,26.555,26.555,0,0,0-3.1-.2A12.7,12.7,0,0,0,22,19h-.075a.231.231,0,0,1-.225-.25.643.643,0,0,1,.25-.475c1.975-.224,1.975-.649,1.975-3.774,0-.574-.05-.6-.125-.6-.325-.024-.9-.024-1.55-.024a18.511,18.511,0,0,0-4.1.3,2.248,2.248,0,0,1-.5.1c-.15,0-1.125-.275-1.125-.724,0-.2.225-.425.451-.651a46.808,46.808,0,0,0,4.3-6.4c1.575-2.6,3-5.1,3.45-5.849C25.051.05,25.525,0,26.4,0c.325.025.475.175.475.4A.86.86,0,0,1,26.7.825c-1.075,1.424-2.075,2.924-2.949,4.349-1.774,2.8-3.25,4.923-4.85,7.2a1.009,1.009,0,0,0-.174.45c0,.149.1.274.4.274h.1c1.6-.1,3.274-.1,4.6-.149.051,0,.1-.025.1-.15v-.75c0-1.05-.026-2.85-.075-3.7V8.2c0-.85,1.474-1.325,1.649-1.325.15,0,.325.075.325.25V7.2c-.175.649-.2,5.023-.2,5.6,0,.049.05.125.1.125h.024c.2,0,.675-.05,1.725-.175.224-.026.375-.05.5-.05.174,0,.275.05.275.25a1.686,1.686,0,0,1-.075.425c-.125.5-.151.574-1.05.574" fill="#333"/>
        </g>
      </g>
      <line id="線_83" data-name="線 83" x2="20" transform="translate(5.552 36.539)" fill="none" stroke="#ccc" stroke-width="1"/>
      <g id="グループ_7121" data-name="グループ 7121">
        <g id="グループ_7120" data-name="グループ 7120" clip-path="url(#clip-path)">
          <path id="パス_5369" data-name="パス 5369" d="M29.694,63.533c0,.192-.16.384-.7.384H16.7c.192.064.256.16.256.256,0,.192-.256.352-.48.448-.384.16-.416.256-.448,2.112,0,.768-.032,1.824-.032,3.008,3.424.416,9.567,2.208,9.567,4.991a1.248,1.248,0,0,1-1.12,1.376,2.059,2.059,0,0,1-1.567-1.024A19.884,19.884,0,0,0,16,70.253c0,1.663-.032,3.583-.032,5.567,0,3.936.032,8.128.128,10.783v.033a1.374,1.374,0,0,1-1.44,1.183.938.938,0,0,1-1.023-1.024v-.064c.223-4.767.288-12.9.288-17.214V67.6c0-1.152,0-2.88-.1-3.68H12.511c-1.792,0-6.4.064-9.279.352H3.2c-.609,0-1.5-1.248-1.5-1.664,3.3.416,9.119.512,10.976.512H24.127a.667.667,0,0,0,.544-.288c.319-.512,1.471-2.176,1.919-2.176.576,0,3.1,2.112,3.1,2.88" fill="#333"/>
          <path id="パス_5370" data-name="パス 5370" d="M9.76,102.126c0,.16-.16.352-.577.576-.671.352-.8.352-.8,1.248v.512c.032,1.856.032,3.616.032,5.248,0,8.735-.736,14.5-7.2,18.4a2.8,2.8,0,0,1-1.12.48c-.065,0-.1-.032-.1-.064,0-.128.225-.352.736-.768,4.7-3.68,5.632-8.768,5.632-17.183,0-7.1-.352-9.184-.448-9.6a.625.625,0,0,1-.032-.224c0-.032,0-.032.032-.032.384,0,3.84.7,3.84,1.408m7.007,2.368c-.1,1.568-.16,4.416-.16,7.455,0,4.416.1,9.312.192,11.616v.064a1.215,1.215,0,0,1-1.312,1.184c-.479,0-.928-.288-.928-1.056v-.064c.128-3.424.224-9.7.224-14.239a49.24,49.24,0,0,0-.351-8,.547.547,0,0,1-.033-.192c0-.032,0-.064.065-.064.191,0,3.615.544,3.615,1.312,0,.224-.16.416-.48.608-.672.384-.736.128-.832,1.376m8.9-.8c-.1,1.472-.128,4.32-.128,7.583,0,5.12.1,11.328.16,15.04v.032a1.326,1.326,0,0,1-1.344,1.216.919.919,0,0,1-.959-1.056v-.065c.127-4.479.255-11.774.255-16.927a66.349,66.349,0,0,0-.383-8.863.547.547,0,0,1-.033-.192c0-.032,0-.064.065-.064.191,0,3.679.512,3.679,1.312,0,.224-.16.416-.48.608-.672.384-.735.128-.832,1.376" fill="#333"/>
          <path id="パス_5371" data-name="パス 5371" d="M17.951,163.051a1,1,0,0,1-1.056,1.025c-.608,0-3.872-1.248-5.632-6.048a59.23,59.23,0,0,1-8.128,4.288c-.223.1-.383.447-.575.447a5.337,5.337,0,0,1-1.728-2.208c0-.063.1-.031.288-.063a15.082,15.082,0,0,0,2.56-.384l.287-.1V154.86c0-10.879-.063-11.647-.351-12.927a.56.56,0,0,1-.032-.192c0-.064,0-.1.064-.1A12.336,12.336,0,0,1,6.5,142.989a46.72,46.72,0,0,0,6.591-2.592,3.66,3.66,0,0,0,1.024-.832c.1-.1.128-.191.192-.191a6.233,6.233,0,0,1,2.016,2.239c0,.225-.192.416-.544.416a2.2,2.2,0,0,1-.416-.064,1.361,1.361,0,0,0-.352-.064,3.234,3.234,0,0,0-.544.1c-.928.257-1.952.512-2.976.736.544.128,1.024.288,1.024.608,0,.192-.16.384-.48.544-.512.288-.544.16-.575,1.12-.033,1.024-.065,2.08-.065,3.135,0,.672,0,1.313.032,1.985h1.664a.6.6,0,0,0,.417-.256c.863-1.344,1.247-1.7,1.5-1.7.1,0,.16.032.224.032a5.466,5.466,0,0,1,2.464,2.336c0,.223-.16.416-.672.416H11.487c.608,8.9,4.256,10.3,4.384,10.3.448,0,.864-.832,1.792-3.455a1.581,1.581,0,0,1,.223-.512h.033c.032,0,.064.128.064.32,0,.8-.32,3.071-.32,4.128a1.393,1.393,0,0,0,.064.479,1.93,1.93,0,0,1,.224.832m-3.168,2.273c0,.224-.128.415-.608.415H8.223a38.071,38.071,0,0,0-5.216.288H2.976c-.544,0-1.536-1.119-1.536-1.535a46.941,46.941,0,0,0,6.911.447h2.336a.541.541,0,0,0,.448-.288c.96-1.439,1.056-1.567,1.248-1.567.512,0,2.4,1.567,2.4,2.24M9.471,143.181c-.96.192-1.952.352-2.815.48a1.676,1.676,0,0,1-.544.448c-.288.191-.353.128-.353.96,0,.64-.031,2.624-.031,5.056H9.887c-.288-6.08-.32-6.369-.416-6.944m.481,7.776H5.728v8.575a39.549,39.549,0,0,0,5.407-1.92,27.993,27.993,0,0,1-1.183-6.655m19.2-7.68c0,.32-.384.576-.864.736-.256.1-.448.16-.832.736-.064.128-2.944,4.511-2.944,5.7,0,.544.321.959.9,1.6,1.345,1.439,3.392,3.327,3.392,6.431,0,3.327-2.24,5.056-4.288,5.056a.561.561,0,0,1-.576-.32c-.351-.705-2.431-2.176-2.431-2.432,0-.032,0-.032.063-.032a.584.584,0,0,1,.288.064,6.32,6.32,0,0,0,2.176.447c2.432,0,2.688-2.271,2.688-3.583,0-2.112-.992-3.52-2.047-5.12a3.856,3.856,0,0,1-.9-2.175,5.993,5.993,0,0,1,.256-1.44c1.024-3.488,1.536-5.472,1.536-5.6s-.1-.224-.288-.224H21.823l-.128.1c-.385.288-.481.352-.481,1.568-.032,3.2-.032,6.943-.032,10.815,0,3.84,0,7.808.032,11.423a1.3,1.3,0,0,1-1.311,1.216c-.448,0-.864-.288-.864-.992v-.1c.192-3.712.288-9.215.288-14.047,0-2.687-.032-5.151-.065-7.039a37.247,37.247,0,0,0-.416-5.024.641.641,0,0,1-.031-.224c0-.032,0-.032.031-.032a16.349,16.349,0,0,1,3.136,1.408l.1.1h3.135a.58.58,0,0,0,.48-.192c.225-.224.448-.512.608-.64a.458.458,0,0,1,.32-.128c.64,0,2.528,1.44,2.528,1.952" fill="#333"/>
        </g>
      </g>
    </g>
  </g>
</svg>
