<svg xmlns="http://www.w3.org/2000/svg" xmlns:xlink="http://www.w3.org/1999/xlink" width="51.069" height="206.685" viewBox="0 0 51.069 206.685">
  <defs>
    <clipPath id="clip-path">
      <rect id="長方形_23554" data-name="長方形 23554" width="31.069" height="166.685" fill="none"/>
    </clipPath>
  </defs>
  <g id="story-tag5" transform="translate(-1773 -5941)">
    <rect id="長方形_23562" data-name="長方形 23562" width="206.685" height="51.069" transform="translate(1824.069 5941) rotate(90)" fill="#f2f2ed"/>
    <g id="グループ_7127" data-name="グループ 7127" transform="translate(1783 5961)">
      <g id="グループ_7124" data-name="グループ 7124">
        <g id="グループ_7123" data-name="グループ 7123" clip-path="url(#clip-path)">
          <path id="パス_5372" data-name="パス 5372" d="M8.618,17.746c-3.624,0-5.173-4.1-5.173-8.823C3.445,4.174,5.32,0,8.469,0c3.5,0,5.2,4.1,5.2,8.8,0,4.724-1.8,8.948-5.049,8.948M8.469.6C6.244.6,5.494,4.849,5.494,8.9c0,3.9.5,8.2,3.15,8.2,2.274,0,2.949-4.3,2.949-8.223C11.593,4.8,11.093.6,8.469.6" fill="#333"/>
          <path id="パス_5373" data-name="パス 5373" d="M27.042,10.847c0,6.074-8.423,8.573-9.348,8.573a.432.432,0,0,1-.474-.4c0-.176.125-.325.375-.4,2.374-.574,7.448-2.6,7.472-7.448,0-2.6-1.674-3.973-4.423-3.973a7.891,7.891,0,0,0-1.05.049c-.2.026-.5.125-.8.175-.375.075-.3.325-.75.325-.149,0-.475-.049-.475-.174,0-.151.2-.375.276-.55A30.013,30.013,0,0,0,19.294,1.65c.025-.1-.05-.4.3-.4h.1a57.8,57.8,0,0,0,6.1-1.124A.671.671,0,0,1,26.067.05c.125,0,.2.05.2.2,0,.4-.776,1.749-1.326,1.85-1.449.25-3.048.475-4.448.725a.534.534,0,0,0-.475.375c-.225.7-.375,1.549-.575,2.124a.27.27,0,0,0-.025.125c0,.174.15.2.275.2h.125a6.3,6.3,0,0,1,1.2-.1c3.774,0,6.023,2.3,6.023,5.3" fill="#333"/>
        </g>
      </g>
      <line id="線_84" data-name="線 84" x2="20" transform="translate(5.52 34.989)" fill="none" stroke="#ccc" stroke-width="1"/>
      <g id="グループ_7126" data-name="グループ 7126">
        <g id="グループ_7125" data-name="グループ 7125" clip-path="url(#clip-path)">
          <path id="パス_5374" data-name="パス 5374" d="M31.07,70.111c0,.288-2.784.832-3.52,1.536a.517.517,0,0,1-.351.159c-.9,0-7.424-4.191-11.488-11.039l-.1.16C9.631,70.143,1.664,73.695.544,73.695c-.064,0-.1,0-.1-.033,0-.1.16-.224.512-.447A36.814,36.814,0,0,0,13.311,60.127a9.09,9.09,0,0,0,.672-2.207c.032-.128,0-.224.064-.224.128,0,3.552,1.376,3.552,1.983,0,.256-.32.48-1.056.608l-.352.064c2.559,3.424,8.863,8.672,14.591,9.632.192.032.288.064.288.128M28.638,84.382c0,.191-.128.352-.672.352H11.807c-1.76,0-5.375.064-8.191.352H3.583c-.575,0-1.5-1.216-1.5-1.632,3.264.384,7.935.512,9.791.512h2.688V75.294H12.607a67.079,67.079,0,0,0-6.976.32H5.6c-.576,0-1.5-1.216-1.5-1.6a80.545,80.545,0,0,0,8.639.48h1.824V73.023a17.947,17.947,0,0,0-.192-3.072c-1.376.064-2.976.16-3.9.256h-.032c-.48,0-1.344-1.12-1.344-1.5a59.591,59.591,0,0,0,7.008.448h1.439a.414.414,0,0,0,.384-.256c.448-.64,1.12-1.568,1.376-1.568.065,0,.128.032.193.032.511.224,2.24,1.5,2.24,2.208,0,.16-.128.319-.576.319h-4c.192.065.288.193.288.289,0,.16-.128.32-.416.448-.576.287-.544.287-.608,1.856,0,.384-.032,1.088-.032,2.015H21.63a.654.654,0,0,0,.513-.288c.063-.1,1.023-1.6,1.567-1.6.1,0,.16.031.224.031a5.2,5.2,0,0,1,2.56,2.24c0,.224-.16.416-.7.416H16.383c0,2.688,0,6.5.032,8.672h1.119l.033-.064a36.658,36.658,0,0,0,2.624-4.768,9.236,9.236,0,0,0,.511-1.792c.065-.224.065-.32.128-.32.128,0,3.1,1.408,3.1,2.176,0,.288-.384.48-1.088.48-.48,0-.575.128-.863.448a30.851,30.851,0,0,1-3.84,3.84h5.439a.592.592,0,0,0,.48-.289c.257-.415,1.28-1.823,1.7-1.823.1,0,.16.032.224.032.64.256,2.656,1.824,2.656,2.5M12.1,81.406a1.182,1.182,0,0,1-1.056,1.312c-.48,0-1.024-.384-1.44-1.312a12.632,12.632,0,0,0-2.464-3.328c-.159-.16-.256-.256-.256-.32,0-.032.032-.032.1-.032,1.151,0,5.119,1.184,5.119,3.68" fill="#333"/>
          <path id="パス_5375" data-name="パス 5375" d="M14.751,111.518c0,.193-.128.384-.576.384H9.759l-.064,2.944h.32c1.856,0,4.32.832,4.32,2.56a.956.956,0,0,1-.864,1.056,1.576,1.576,0,0,1-1.152-.8,9.32,9.32,0,0,0-2.624-2.623c-.032,1.535-.032,3.231-.032,4.992,0,1.792,0,3.647.032,5.535a1.208,1.208,0,0,1-1.312,1.12.822.822,0,0,1-.9-.9v-.1c.224-3.423.449-6.816.544-9.888A18.478,18.478,0,0,1,.1,122.655c-.064,0-.1,0-.1-.033,0-.1.16-.256.512-.511,2.431-1.888,6.88-7.553,7.551-10.209a34.863,34.863,0,0,0-4.8.288H3.231c-.383,0-1.28-1.183-1.28-1.535A42.791,42.791,0,0,0,8.1,111.1v-.095a20.123,20.123,0,0,0-.224-4.288.563.563,0,0,1-.032-.192.069.069,0,0,1,.064-.064c.736,0,3.3.672,3.3,1.152,0,.16-.192.32-.576.512-.7.32-.7.32-.832,2.975h.736a.545.545,0,0,0,.384-.256c.288-.479,1.088-1.631,1.44-1.631.48,0,2.4,1.728,2.4,2.3m.64-9.119c0,.16-.128.32-.609.32H7.2c-3.071,4.192-5.695,5.792-5.983,5.792-.065,0-.065-.032-.065-.064,0-.064.065-.192.288-.416,1.441-1.376,5.376-7.1,5.568-9.791.032-.256,0-.353.1-.353.223,0,3.3,1.024,3.3,1.889,0,.255-.448.415-.992.447-.48.033-.512.033-.8.48-.255.416-.544.832-.832,1.248h3.552a.548.548,0,0,0,.384-.256c.192-.32.928-1.5,1.311-1.5.544,0,2.369,1.569,2.369,2.208m-3.36,3.04a1.229,1.229,0,0,1-1.088,1.248c-.416,0-.8-.288-1.056-.96a7.09,7.09,0,0,0-1.568-2.272c-.16-.16-.224-.256-.224-.288,0-.064.064-.064.192-.064.736,0,3.744.608,3.744,2.336m16.9-3.1c0,.192-.128.384-.609.384H18.047c-3.616,5.024-5.184,5.631-5.408,5.631-.033,0-.064,0-.064-.031a.917.917,0,0,1,.288-.416c1.632-1.632,3.488-5.44,4.575-7.84a5.875,5.875,0,0,0,.449-1.76c.031-.255,0-.352.1-.352.288,0,3.264,1.185,3.264,1.825,0,.255-.384.383-.992.415a1.091,1.091,0,0,0-.416.065,11.22,11.22,0,0,0-1.247,1.695h5.727a.548.548,0,0,0,.384-.256c1.279-1.727,1.376-1.76,1.568-1.76a5.3,5.3,0,0,1,2.656,2.4M27.9,109.279c0,.319-.416.544-.735.735-.608.321-.641.384-.641,2.561,0,3.167.129,9.664.257,12.191v.064a1.2,1.2,0,0,1-1.217,1.152.848.848,0,0,1-.9-.928v-1.12H17.759v1.344c0,.608-.672,1.024-1.248,1.024a.756.756,0,0,1-.832-.832v-.1c.223-3.232.256-9.312.256-12.287a27.522,27.522,0,0,0-.416-5.536.547.547,0,0,1-.033-.192c0-.064,0-.064.033-.064a12.9,12.9,0,0,1,3.007,1.28l.065.032h5.343a.559.559,0,0,0,.448-.224c.128-.161.639-.832.992-.832.384,0,2.527,1.024,2.527,1.728m-10.174,4.928v3.615H24.7c0-1.248.032-2.5.032-3.615Zm0,4.447c0,1.537.032,3.1.032,4.448H24.67c0-1.344.032-2.879.032-4.448Zm6.943-8.831a.4.4,0,0,0-.352-.353H18.431a2.4,2.4,0,0,1-.288.193c-.289.16-.384.128-.384.928v2.784h6.975c0-1.632-.032-2.945-.064-3.552m-1.5-4a1.249,1.249,0,0,1-1.088,1.312c-.416,0-.8-.288-1.056-.992a7.407,7.407,0,0,0-1.568-2.368c-.16-.16-.224-.256-.224-.32s.064-.064.224-.064c.864,0,3.712.576,3.712,2.432" fill="#333"/>
          <path id="パス_5376" data-name="パス 5376" d="M17.918,161.5a1,1,0,0,1-1.056,1.025c-.607,0-3.871-1.248-5.632-6.048A59.213,59.213,0,0,1,3.1,160.766c-.223.1-.383.447-.576.447A5.335,5.335,0,0,1,.8,159.005c0-.063.095-.031.288-.063a15.072,15.072,0,0,0,2.559-.384l.288-.1V153.31c0-10.879-.064-11.647-.352-12.927a.576.576,0,0,1-.031-.192c0-.064,0-.1.063-.1a12.3,12.3,0,0,1,2.848,1.344,46.683,46.683,0,0,0,6.592-2.592,3.674,3.674,0,0,0,1.024-.832c.1-.1.128-.191.191-.191a6.232,6.232,0,0,1,2.016,2.239c0,.225-.191.416-.544.416a2.2,2.2,0,0,1-.416-.064,1.361,1.361,0,0,0-.352-.064,3.25,3.25,0,0,0-.544.1c-.927.257-1.952.512-2.975.736.544.128,1.023.288,1.023.608,0,.192-.159.384-.479.544-.512.288-.544.16-.576,1.12-.033,1.024-.064,2.08-.064,3.135,0,.672,0,1.313.031,1.985h1.665a.6.6,0,0,0,.416-.256c.864-1.344,1.248-1.7,1.5-1.7.1,0,.161.032.224.032a5.461,5.461,0,0,1,2.464,2.336c0,.223-.159.416-.672.416H11.455c.607,8.9,4.256,10.3,4.384,10.3.447,0,.863-.832,1.792-3.455a1.557,1.557,0,0,1,.223-.512h.033c.031,0,.063.128.063.32,0,.8-.319,3.071-.319,4.128a1.4,1.4,0,0,0,.063.479,1.916,1.916,0,0,1,.224.832m-3.167,2.273c0,.224-.128.415-.609.415H8.191a38.054,38.054,0,0,0-5.216.288H2.943c-.544,0-1.536-1.119-1.536-1.535a46.953,46.953,0,0,0,6.912.447h2.336a.54.54,0,0,0,.447-.288c.96-1.439,1.057-1.567,1.248-1.567.513,0,2.4,1.567,2.4,2.24M9.439,141.631c-.96.192-1.952.352-2.816.48a1.665,1.665,0,0,1-.544.448c-.288.191-.352.128-.352.96,0,.64-.032,2.624-.032,5.056h4.16c-.288-6.08-.32-6.369-.416-6.944m.48,7.776H5.7v8.575a39.547,39.547,0,0,0,5.407-1.92,28.094,28.094,0,0,1-1.183-6.655m19.2-7.68c0,.32-.384.576-.863.736-.256.1-.449.16-.832.736-.065.128-2.945,4.511-2.945,5.7,0,.544.321.959.9,1.6,1.344,1.439,3.391,3.327,3.391,6.431,0,3.327-2.24,5.056-4.288,5.056a.56.56,0,0,1-.575-.32c-.352-.705-2.432-2.176-2.432-2.432,0-.032,0-.032.064-.032a.584.584,0,0,1,.288.064,6.316,6.316,0,0,0,2.176.447c2.431,0,2.687-2.271,2.687-3.583,0-2.112-.991-3.52-2.047-5.12a3.854,3.854,0,0,1-.9-2.175,5.943,5.943,0,0,1,.256-1.44c1.023-3.488,1.536-5.472,1.536-5.6s-.1-.224-.288-.224H21.79l-.128.1c-.384.288-.48.352-.48,1.568-.032,3.2-.032,6.943-.032,10.815,0,3.84,0,7.808.032,11.423a1.3,1.3,0,0,1-1.312,1.216c-.448,0-.863-.288-.863-.992v-.1c.191-3.712.287-9.215.287-14.047,0-2.687-.031-5.151-.064-7.039a37.411,37.411,0,0,0-.416-5.024.622.622,0,0,1-.032-.224c0-.032,0-.032.032-.032a16.349,16.349,0,0,1,3.136,1.408l.1.1h3.135a.582.582,0,0,0,.481-.192c.224-.224.447-.512.607-.64a.462.462,0,0,1,.321-.128c.639,0,2.527,1.44,2.527,1.952" fill="#333"/>
        </g>
      </g>
    </g>
  </g>
</svg>
