<svg xmlns="http://www.w3.org/2000/svg" xmlns:xlink="http://www.w3.org/1999/xlink" width="50.813" height="206.71" viewBox="0 0 50.813 206.71">
  <defs>
    <clipPath id="clip-path">
      <rect id="長方形_23548" data-name="長方形 23548" width="30.813" height="166.71" fill="none"/>
    </clipPath>
  </defs>
  <g id="story-tag2" transform="translate(-1653 -5941)">
    <rect id="長方形_23558" data-name="長方形 23558" width="206.71" height="50.813" transform="translate(1703.813 5941) rotate(90)" fill="#f2f2ed"/>
    <g id="グループ_7112" data-name="グループ 7112" transform="translate(1663 5961)">
      <g id="グループ_7109" data-name="グループ 7109">
        <g id="グループ_7108" data-name="グループ 7108" clip-path="url(#clip-path)">
          <path id="パス_5358" data-name="パス 5358" d="M8.747,17.771c-3.624,0-5.174-4.1-5.174-8.823C3.573,4.2,5.448.025,8.6.025c3.5,0,5.2,4.1,5.2,8.8,0,4.724-1.8,8.948-5.049,8.948M8.6.625c-2.225,0-2.974,4.249-2.974,8.3,0,3.9.5,8.2,3.149,8.2,2.274,0,2.949-4.3,2.949-8.223,0-4.074-.5-8.273-3.124-8.273" fill="#333"/>
          <path id="パス_5359" data-name="パス 5359" d="M26.871,17.22a.41.41,0,0,1-.225.25s-2.4-.1-5-.1c-1.45,0-2.949.025-4.149.125-.2,0-.725-.3-.725-.549,0-.05.05-.1.125-.151,2.15-1.224,8.273-7.722,8.273-12.4,0-1.475-.6-2.75-2.6-2.75-1.675,0-3.024,1.2-3.949,2.849a.368.368,0,0,1-.325.225.384.384,0,0,1-.375-.374S19.323,0,23,0a4.121,4.121,0,0,1,4.25,4.4A7.765,7.765,0,0,1,25.8,8.722c-1.675,2.5-4.349,4.55-5.724,6.724-.025.049-.05.075-.05.1,0,.124.15.225.25.275.6.049,1.1.1,1.75.1,2.374,0,4.349-.125,5.074-2.1a.192.192,0,0,1,.174-.076c.176,0,.375.076.375.2v.024c-.349,1.875-.674,2.524-.774,3.249" fill="#333"/>
        </g>
      </g>
      <line id="線_81" data-name="線 81" x2="20" transform="translate(5.648 35.014)" fill="none" stroke="#ccc" stroke-width="1"/>
      <g id="グループ_7111" data-name="グループ 7111">
        <g id="グループ_7110" data-name="グループ 7110" clip-path="url(#clip-path)">
          <path id="パス_5360" data-name="パス 5360" d="M10.944,67.032c0,.192-.257.384-.9.416-.352.032-.416.1-.768.48l-1.568,1.6c.48.1.928.192.928.512,0,.192-.224.416-.576.576-.672.32-.672.32-.736,1.312-.1,1.759-.128,4.384-.128,6.943,0,2.3.032,4.608.064,6.208v.064a1.319,1.319,0,0,1-1.376,1.248c-.448,0-.864-.288-.864-1.024v-.192c.32-3.328.544-9.216.544-11.807V71.576C2.176,74.616.1,75.16.1,75.16c-.064,0-.1-.033-.1-.064,0-.065.161-.224.48-.449,2.88-2.015,7.456-7.359,8.032-9.343.032-.1.032-.16.1-.16.16,0,2.336,1.376,2.336,1.888m.287-6.528c0,.225-.192.416-.735.416h-.289c-.255,0-.352.064-.639.352-2.72,2.3-7.584,5.312-8.863,5.312-.065,0-.1,0-.1-.032,0-.064.128-.192.416-.352,1.632-.96,7.072-5.344,7.807-7.807.033-.1.033-.128.065-.128.064,0,2.335,1.631,2.335,2.239m1.44,19.391c0,2.144-1.248,4.448-2.88,4.448A1.027,1.027,0,0,1,8.7,83.319a1.6,1.6,0,0,1,.928-1.376,5.61,5.61,0,0,0,2.592-3.3c.031-.16.1-.224.128-.224.319,0,.319,1.408.319,1.472M29.5,63.224c0,.224-.16.416-.736.416H20.191c0,1.248-.032,2.656-.032,3.424h4.319c.161,0,.225-.032.353-.192.7-.832.8-.832.9-.832.16,0,2.271,1.12,2.271,1.824,0,.32-.352.544-.671.736-.48.288-.609.448-.609,1.568s.129,2.88.193,4.063v.064a1.058,1.058,0,0,1-1.057,1.024c-.416,0-.768-.256-.768-.863v-.544H13.471c0,.288.032.575.032.8a1.029,1.029,0,0,1-1.088.929.728.728,0,0,1-.8-.768v-.1c.159-1.92.223-4.191.223-5.471a15.877,15.877,0,0,0-.287-3.264.547.547,0,0,1-.033-.192c0-.064,0-.064.064-.064a9.543,9.543,0,0,1,2.528,1.248l.033.032H18.4V63.64h-1.76a51.317,51.317,0,0,0-5.663.288h-.032c-.544,0-1.217-1.184-1.217-1.535a60.023,60.023,0,0,0,7.008.447h1.632v-.672a24.058,24.058,0,0,0-.256-3.871c-.032-.129-.064-.193-.064-.224a.031.031,0,0,1,.032-.032c.192,0,3.456.448,3.456,1.184,0,.191-.224.416-.576.64-.768.48-.64.351-.736,1.471,0,.161-.032.736-.032,1.5H24.7a.714.714,0,0,0,.447-.288c.449-.7,1.088-1.7,1.536-1.7a.4.4,0,0,1,.192.033c.7.256,2.624,1.727,2.624,2.335M16.255,67.9H14.08l-.257.192c-.384.288-.352.16-.384.832v1.056c0,.928,0,2.08.032,3.1h2.848c.032-.928.032-2.848.032-3.552a11.46,11.46,0,0,0-.1-1.632m9.408,15.711c0,.8-1.28,2.143-6.592,2.143-3.552,0-4.416-.991-4.416-2.623v-.16c.032-.96.064-2.176.064-2.944a12.788,12.788,0,0,0-.223-2.656.772.772,0,0,1-.033-.256c0-.1.033-.128.16-.128.352,0,3.072.512,3.072,1.152,0,.16-.224.352-.576.544-.64.288-.576.352-.608,1.216-.032.48-.1,2.016-.1,2.528,0,.992,0,1.664,2.912,1.664,3.616,0,3.808-.512,4.544-4.7.032-.224.064-.352.127-.352.192,0,.449,3.2,1.057,3.616a1.212,1.212,0,0,1,.608.96m-3.552-5.376a1.092,1.092,0,0,1-.992,1.184c-.384,0-.832-.256-1.184-.928A9.876,9.876,0,0,0,17.6,75.832c-.192-.161-.288-.256-.288-.321s.064-.064.16-.064c.48,0,4.64.64,4.64,2.784M20.639,72.12c0-1.312-.1-4.16-.1-4.224H18.527a.326.326,0,0,1,.16.256c0,.192-.224.384-.544.48-.192.064-.224.288-.224.608-.032.384-.032.832-.032,1.28,0,.928.032,1.888.032,2.56h2.72Zm4.511-1.568c0-.8,0-1.568-.064-2.336a.408.408,0,0,0-.351-.32h-1.92a.326.326,0,0,1,.16.256c0,.192-.224.384-.544.48-.192.064-.224.288-.224.608v1.024c0,.928,0,2.08.032,2.816h2.88c.031-.9.031-1.728.031-2.528m5.056,11.135A1.2,1.2,0,0,1,29.15,83c-.448,0-.928-.32-1.344-1.088a15.263,15.263,0,0,0-2.592-3.392c-.192-.16-.256-.288-.256-.32,0-.064.033-.064.128-.064.737,0,5.12,1.088,5.12,3.552" fill="#333"/>
          <path id="パス_5361" data-name="パス 5361" d="M12.927,111.353c0,.351-.416.511-.672.671a1.438,1.438,0,0,0-.864.992c-1.792,4.927-4.639,9.5-9.983,11.776a2.3,2.3,0,0,1-.864.255c-.064,0-.1-.031-.1-.063,0-.1.192-.288.64-.544,6.208-3.776,8.48-12.64,8.48-12.864,0-.16-.128-.256-.321-.256H8.7s-3.167.1-4.831.321H3.84c-.416,0-1.376-1.248-1.376-1.664a48.6,48.6,0,0,0,5.984.479h.735a.759.759,0,0,0,.48-.319c.321-.353.7-.7.865-.7.128,0,2.4,1.12,2.4,1.92m17.887,11.679c0,.32-2.912.544-3.744,1.344a.514.514,0,0,1-.352.16c-.576,0-8-4.96-9.855-17.472-.448.256-.48.481-.48,3.424,0,1.44.032,3.36.256,9.761.032.575.128,1.727.128,2.431v.064c0,3.328-3.232,3.807-4.128,3.807a.457.457,0,0,1-.48-.383c-.32-.865-3.872-2.208-3.872-2.4,0-.032.033-.032.065-.032a1.1,1.1,0,0,1,.287.032,24.3,24.3,0,0,0,3.809.416c1.727,0,2.143-.544,2.175-1.728.032-1.7.064-4.192.064-6.88,0-2.975-.032-6.24-.16-8.863a.482.482,0,0,0-.448-.448h-.864a33.065,33.065,0,0,0-4.127.32H9.055c-.416,0-1.376-1.248-1.376-1.664a39.8,39.8,0,0,0,5.472.48h.832a.772.772,0,0,0,.512-.288c.256-.32.7-.9,1.024-.9.224,0,2.592,1.216,2.592,1.984,0,.256-.288.415-.736.64a27.4,27.4,0,0,0,1.984,5.919,26.081,26.081,0,0,0,4.544-3.968,5.4,5.4,0,0,0,.863-1.663c.033-.128.064-.225.161-.225.416,0,3.2,2.145,3.2,2.689,0,.256-.32.447-.992.447H26.59a1.458,1.458,0,0,0-.864.256,56.775,56.775,0,0,1-6.079,3.04,17.85,17.85,0,0,0,10.879,9.536c.192.064.288.128.288.16M18.3,100.793a1.165,1.165,0,0,1-1.12,1.248,1.741,1.741,0,0,1-1.248-.64,15.627,15.627,0,0,0-4.96-3.1c-.16-.064-.255-.128-.255-.16,0-.064.159-.128,1.119-.128.928,0,6.464.224,6.464,2.784" fill="#333"/>
          <path id="パス_5362" data-name="パス 5362" d="M18.047,161.526a1,1,0,0,1-1.056,1.025c-.608,0-3.871-1.248-5.632-6.048a59.213,59.213,0,0,1-8.127,4.288c-.224.1-.384.447-.576.447A5.337,5.337,0,0,1,.928,159.03c0-.063.1-.031.288-.063a15.081,15.081,0,0,0,2.56-.384l.288-.1v-5.151c0-10.879-.064-11.647-.352-12.927a.56.56,0,0,1-.032-.192c0-.064,0-.1.064-.1a12.317,12.317,0,0,1,2.848,1.344,46.73,46.73,0,0,0,6.592-2.592,3.655,3.655,0,0,0,1.023-.832c.1-.1.128-.191.192-.191a6.232,6.232,0,0,1,2.016,2.239c0,.225-.192.416-.544.416a2.2,2.2,0,0,1-.416-.064,1.361,1.361,0,0,0-.352-.064,3.234,3.234,0,0,0-.544.1c-.928.257-1.952.512-2.976.736.544.128,1.024.288,1.024.608,0,.192-.159.384-.48.544-.511.288-.544.16-.575,1.12-.033,1.024-.064,2.08-.064,3.135,0,.672,0,1.313.031,1.985h1.665a.6.6,0,0,0,.416-.256c.863-1.344,1.247-1.7,1.5-1.7.1,0,.16.032.224.032a5.466,5.466,0,0,1,2.464,2.336c0,.223-.16.416-.672.416H11.583c.608,8.895,4.256,10.3,4.384,10.3.448,0,.864-.832,1.792-3.455a1.571,1.571,0,0,1,.224-.512h.032c.032,0,.064.128.064.32,0,.8-.32,3.071-.32,4.128a1.394,1.394,0,0,0,.064.479,1.916,1.916,0,0,1,.224.832M14.879,163.8c0,.224-.128.415-.608.415H8.32A38.056,38.056,0,0,0,3.1,164.5H3.072c-.544,0-1.536-1.119-1.536-1.535a46.953,46.953,0,0,0,6.912.447h2.336a.54.54,0,0,0,.447-.288c.96-1.439,1.057-1.567,1.248-1.567.513,0,2.4,1.567,2.4,2.24M9.568,141.656c-.96.192-1.952.352-2.816.48a1.665,1.665,0,0,1-.544.448c-.288.191-.352.128-.352.96,0,.64-.032,2.624-.032,5.056h4.16c-.288-6.08-.321-6.369-.416-6.944m.48,7.776H5.824v8.575a39.551,39.551,0,0,0,5.407-1.92,28.044,28.044,0,0,1-1.183-6.655m19.2-7.68c0,.32-.384.576-.864.736-.256.1-.448.16-.832.736-.064.128-2.944,4.511-2.944,5.7,0,.544.321.959.9,1.6,1.345,1.439,3.392,3.327,3.392,6.431,0,3.327-2.24,5.056-4.288,5.056a.56.56,0,0,1-.575-.32c-.352-.705-2.432-2.176-2.432-2.432,0-.032,0-.032.064-.032a.584.584,0,0,1,.288.064,6.31,6.31,0,0,0,2.175.447c2.432,0,2.688-2.271,2.688-3.583,0-2.112-.991-3.52-2.047-5.12a3.854,3.854,0,0,1-.9-2.175,5.983,5.983,0,0,1,.255-1.44c1.024-3.488,1.537-5.472,1.537-5.6s-.1-.224-.289-.224H21.919l-.128.1c-.384.288-.48.352-.48,1.568-.032,3.2-.032,6.943-.032,10.815,0,3.84,0,7.808.032,11.423A1.3,1.3,0,0,1,20,166.71c-.448,0-.864-.288-.864-.992v-.1c.192-3.712.288-9.215.288-14.047,0-2.687-.032-5.151-.064-7.039a37.411,37.411,0,0,0-.416-5.024.622.622,0,0,1-.032-.224c0-.032,0-.032.032-.032a16.349,16.349,0,0,1,3.136,1.408l.1.1H25.31a.579.579,0,0,0,.48-.192c.225-.224.448-.512.608-.64a.46.46,0,0,1,.32-.128c.64,0,2.528,1.44,2.528,1.952" fill="#333"/>
        </g>
      </g>
    </g>
  </g>
</svg>
