<svg xmlns="http://www.w3.org/2000/svg" width="184.001" height="86.219" viewBox="0 0 184.001 86.219">
  <g id="グループ_7096" data-name="グループ 7096" transform="translate(-80.218 -243.484)">
    <g id="グループ_7027" data-name="グループ 7027" transform="translate(80.218 243.484)">
      <g id="グループ_7021" data-name="グループ 7021" transform="translate(0.323 81.513)">
        <path id="パス_5182" data-name="パス 5182" d="M84.038,340.949a2.573,2.573,0,0,0-.257-.434,2.074,2.074,0,0,0-.365-.382,1.807,1.807,0,0,0-.461-.269,1.468,1.468,0,0,0-.552-.1,1.579,1.579,0,0,0-.718.143.524.524,0,0,0-.281.512.591.591,0,0,0,.127.378,1.177,1.177,0,0,0,.338.283,3.277,3.277,0,0,0,.479.225l.549.208q.28.106.549.228a2.268,2.268,0,0,1,.48.294,1.4,1.4,0,0,1,.338.4,1.088,1.088,0,0,1,.126.539,1.143,1.143,0,0,1-.138.577,1.18,1.18,0,0,1-.373.4,1.683,1.683,0,0,1-.545.232,2.82,2.82,0,0,1-.664.075,2.625,2.625,0,0,1-.4-.031c-.138-.021-.272-.045-.4-.07l-.349-.07a1.348,1.348,0,0,0-.249-.032.557.557,0,0,0-.161.024l-.161.052c-.047-.259-.1-.511-.161-.758s-.126-.5-.192-.757l.1-.048a4.943,4.943,0,0,0,.334.5,3.1,3.1,0,0,0,.441.472,2.41,2.41,0,0,0,.541.356,1.455,1.455,0,0,0,.641.143,2.044,2.044,0,0,0,.43-.044,1.175,1.175,0,0,0,.365-.139.731.731,0,0,0,.249-.249.722.722,0,0,0,.092-.378.713.713,0,0,0-.222-.535,2.094,2.094,0,0,0-.553-.374,6.807,6.807,0,0,0-.717-.3,5.6,5.6,0,0,1-.718-.307,2.062,2.062,0,0,1-.553-.4.81.81,0,0,1-.222-.586,1.022,1.022,0,0,1,.115-.484,1.153,1.153,0,0,1,.311-.372,1.455,1.455,0,0,1,.453-.235,1.8,1.8,0,0,1,.549-.081,3.423,3.423,0,0,1,.51.034c.151.023.3.048.441.076l.438.078a2.637,2.637,0,0,0,.461.037q0,.307.012.6c.008.193.024.388.049.583Z" transform="translate(-80.599 -339.544)" fill="#3b3938"/>
        <path id="パス_5183" data-name="パス 5183" d="M89.165,343.867c.046.009.1.019.169.027s.138.019.215.027.156.018.238.025.158.01.23.01a4.492,4.492,0,0,0,.826-.069,2.55,2.55,0,0,0,.668-.218,2.754,2.754,0,0,0,.572-.382,4.98,4.98,0,0,0,.545-.559l.085.061-.7,1.371c-.087-.009-.177-.016-.268-.02s-.182-.007-.269-.007H88.588c-.149,0-.3,0-.446.007s-.3.011-.445.02v-.082a1.7,1.7,0,0,0,.429-.075.446.446,0,0,0,.231-.171.668.668,0,0,0,.1-.3c.013-.126.019-.283.019-.474v-2.278c0-.191-.006-.349-.019-.474a.669.669,0,0,0-.1-.3.443.443,0,0,0-.238-.171,1.813,1.813,0,0,0-.437-.075v-.081l.495.014.484.01q.249,0,.53,0h.634q.537,0,1.074-.007c.358-.005.722-.011,1.09-.02-.005.05-.008.1-.011.149s0,.1,0,.143v.273c0,.1.005.2.015.3s.02.215.031.338l-.1.027a1.619,1.619,0,0,0-.265-.535,1.211,1.211,0,0,0-.384-.324,1.519,1.519,0,0,0-.479-.157,3.592,3.592,0,0,0-.553-.041q-.537,0-1.074.041v1.7c.1,0,.2,0,.3-.006s.193-.008.3-.008a1.615,1.615,0,0,0,.841-.188.885.885,0,0,0,.38-.685h.092q0,.244-.008.49t-.008.485q0,.246.008.491t.008.49h-.092a1.9,1.9,0,0,0-.169-.467.756.756,0,0,0-.249-.277.96.96,0,0,0-.373-.129,3.52,3.52,0,0,0-.53-.035h-.491Z" transform="translate(-81.672 -339.564)" fill="#3b3938"/>
        <path id="パス_5184" data-name="パス 5184" d="M97.115,343.056c0,.191.007.349.02.474a.639.639,0,0,0,.1.3.468.468,0,0,0,.243.171,1.846,1.846,0,0,0,.445.075v.082q-.291-.014-.583-.02c-.2-.005-.389-.007-.584-.007s-.376,0-.56.007-.369.011-.553.02v-.082a1.718,1.718,0,0,0,.43-.075.47.47,0,0,0,.234-.171.64.64,0,0,0,.1-.3c.013-.126.02-.283.02-.474v-2.278c0-.191-.007-.349-.02-.474a.64.64,0,0,0-.1-.3.465.465,0,0,0-.242-.171,1.829,1.829,0,0,0-.438-.075v-.081c.215.009.423.015.625.02s.411.007.626.007c.169,0,.338,0,.507-.007s.335-.011.5-.02v.081a1.686,1.686,0,0,0-.423.075.44.44,0,0,0-.23.171.669.669,0,0,0-.1.3c-.013.126-.02.283-.02.474v1.152l1.167-.845q.162-.116.307-.243a2.361,2.361,0,0,0,.257-.255,1.544,1.544,0,0,0,.177-.246.438.438,0,0,0,.064-.211.3.3,0,0,0-.049-.174.382.382,0,0,0-.131-.115.625.625,0,0,0-.181-.065.994.994,0,0,0-.2-.02v-.081c.194.009.385.015.572.02s.378.007.572.007.408,0,.61-.007.406-.011.611-.02v.081a2.3,2.3,0,0,0-.373.068,1.9,1.9,0,0,0-.353.14,3.551,3.551,0,0,0-.384.232c-.136.093-.293.208-.472.345l-.952.723,1.551,2.026a3.025,3.025,0,0,0,.541.532,1.285,1.285,0,0,0,.71.259v.082c-.22-.009-.44-.016-.66-.02s-.44-.007-.66-.007c-.2,0-.4,0-.595.007s-.4.011-.595.02v-.082a1.345,1.345,0,0,0,.479-.1.316.316,0,0,0,.2-.314.34.34,0,0,0-.085-.2l-.238-.307-1.159-1.514-.737.512Z" transform="translate(-82.875 -339.564)" fill="#3b3938"/>
        <path id="パス_5185" data-name="パス 5185" d="M104.218,344.079a1.718,1.718,0,0,0,.43-.075.47.47,0,0,0,.234-.171.64.64,0,0,0,.1-.3c.013-.126.02-.283.02-.474v-2.278c0-.191-.007-.349-.02-.474a.64.64,0,0,0-.1-.3.465.465,0,0,0-.242-.171,1.829,1.829,0,0,0-.438-.075v-.081c.215.009.423.015.625.02s.411.007.626.007c.169,0,.338,0,.507-.007s.335-.011.5-.02v.081a1.686,1.686,0,0,0-.423.075.44.44,0,0,0-.23.171.669.669,0,0,0-.1.3c-.013.126-.02.283-.02.474v2.278c0,.191.007.349.02.474a.64.64,0,0,0,.1.3.47.47,0,0,0,.242.171,1.862,1.862,0,0,0,.445.075v.082q-.291-.014-.583-.02c-.2-.005-.389-.007-.584-.007s-.376,0-.561.007-.368.011-.552.02Z" transform="translate(-84.173 -339.564)" fill="#3b3938"/>
        <path id="パス_5186" data-name="パス 5186" d="M114.92,343.056c0,.191.007.349.02.474a.631.631,0,0,0,.1.3.463.463,0,0,0,.242.171,1.846,1.846,0,0,0,.445.075v.082q-.291-.014-.583-.02c-.194-.005-.389-.007-.584-.007s-.376,0-.56.007-.368.011-.553.02v-.082a1.71,1.71,0,0,0,.43-.075.463.463,0,0,0,.234-.171.649.649,0,0,0,.1-.3c.013-.126.019-.283.019-.474v-2.278c0-.191-.006-.349-.019-.474a.649.649,0,0,0-.1-.3.458.458,0,0,0-.242-.171,1.829,1.829,0,0,0-.438-.075v-.081c.216.009.423.015.626.02s.411.007.625.007c.169,0,.338,0,.507-.007s.335-.011.5-.02v.081a1.671,1.671,0,0,0-.422.075.439.439,0,0,0-.231.171.669.669,0,0,0-.1.3c-.013.126-.02.283-.02.474v1.152l1.168-.845q.16-.116.307-.243a2.525,2.525,0,0,0,.257-.255,1.589,1.589,0,0,0,.176-.246.44.44,0,0,0,.065-.211.3.3,0,0,0-.05-.174.374.374,0,0,0-.131-.115.625.625,0,0,0-.181-.065.987.987,0,0,0-.2-.02v-.081c.194.009.385.015.572.02s.378.007.572.007.408,0,.611-.007.406-.011.61-.02v.081a2.3,2.3,0,0,0-.373.068,1.9,1.9,0,0,0-.353.14,3.552,3.552,0,0,0-.384.232c-.135.093-.293.208-.472.345l-.952.723,1.551,2.026a3.03,3.03,0,0,0,.541.532,1.28,1.28,0,0,0,.709.259v.082q-.33-.014-.66-.02c-.22-.005-.44-.007-.66-.007-.2,0-.4,0-.595.007s-.4.011-.595.02v-.082a1.341,1.341,0,0,0,.479-.1.316.316,0,0,0,.2-.314.343.343,0,0,0-.084-.2l-.238-.307-1.159-1.514-.737.512Z" transform="translate(-85.571 -339.564)" fill="#3b3938"/>
        <path id="パス_5187" data-name="パス 5187" d="M122.026,341.9a2.113,2.113,0,0,1,.227-.989,2.26,2.26,0,0,1,.61-.74,2.74,2.74,0,0,1,.9-.464,3.863,3.863,0,0,1,2.2,0,2.735,2.735,0,0,1,.9.464,2.252,2.252,0,0,1,.611.74,2.28,2.28,0,0,1,0,1.978,2.252,2.252,0,0,1-.611.74,2.735,2.735,0,0,1-.9.464,3.882,3.882,0,0,1-2.2,0,2.74,2.74,0,0,1-.9-.464,2.26,2.26,0,0,1-.61-.74A2.117,2.117,0,0,1,122.026,341.9Zm.814,0a2.341,2.341,0,0,0,.138.8,2.031,2.031,0,0,0,.4.672,1.938,1.938,0,0,0,.637.463,2.174,2.174,0,0,0,1.7,0,1.939,1.939,0,0,0,.637-.463,2.031,2.031,0,0,0,.4-.672,2.386,2.386,0,0,0,0-1.6,2.031,2.031,0,0,0-.4-.672,1.94,1.94,0,0,0-.637-.464,2.174,2.174,0,0,0-1.7,0,1.94,1.94,0,0,0-.637.464,2.031,2.031,0,0,0-.4.672A2.336,2.336,0,0,0,122.84,341.9Z" transform="translate(-86.872 -339.544)" fill="#3b3938"/>
        <path id="パス_5188" data-name="パス 5188" d="M131.951,340.362a.831.831,0,0,0-.042-.3.371.371,0,0,0-.126-.167.569.569,0,0,0-.207-.089c-.082-.018-.177-.036-.284-.054v-.081c.215.009.426.015.633.02s.418.007.634.007c.154,0,.305,0,.457-.007s.3-.011.457-.02v.081a2.082,2.082,0,0,0-.406.068.621.621,0,0,0-.254.137.494.494,0,0,0-.131.229,1.328,1.328,0,0,0-.038.345v2.223a1.138,1.138,0,0,0,.119.542,1.007,1.007,0,0,0,.327.362,1.448,1.448,0,0,0,.479.2,2.5,2.5,0,0,0,.58.065,2.132,2.132,0,0,0,.806-.13,1.472,1.472,0,0,0,.5-.317,1.013,1.013,0,0,0,.254-.4,1.267,1.267,0,0,0,.069-.378v-1.91a3.36,3.36,0,0,0-.026-.461.725.725,0,0,0-.108-.306.493.493,0,0,0-.227-.181,1.4,1.4,0,0,0-.376-.089v-.081c.159.009.316.015.472.02s.314.007.473.007c.133,0,.263,0,.391-.007s.259-.011.392-.02v.081a2.606,2.606,0,0,0-.3.054.508.508,0,0,0-.227.123.578.578,0,0,0-.142.256,1.646,1.646,0,0,0-.05.453v2.039a1.441,1.441,0,0,1-.165.707,1.464,1.464,0,0,1-.45.494,2,2,0,0,1-.664.294,3.319,3.319,0,0,1-.81.1,3.043,3.043,0,0,1-.752-.092,2.034,2.034,0,0,1-.642-.28,1.471,1.471,0,0,1-.449-.467,1.229,1.229,0,0,1-.169-.648Z" transform="translate(-88.275 -339.564)" fill="#3b3938"/>
        <path id="パス_5189" data-name="パス 5189" d="M144.562,339.673c.184.009.368.015.552.02s.368.007.552.007c.164,0,.327,0,.488-.007s.323-.011.487-.02v.081a1.365,1.365,0,0,0-.53.164.472.472,0,0,0-.207.444,4.325,4.325,0,0,0,.058.556q.057.386.146.842t.184.915q.1.457.18.777a1.833,1.833,0,0,0,.085.238.536.536,0,0,0,.131.181.633.633,0,0,0,.238.13,2.011,2.011,0,0,0,.407.078v.082c-.205-.009-.408-.016-.611-.02s-.406-.007-.61-.007-.385,0-.572.007-.378.011-.572.02v-.082c.108-.014.21-.031.307-.051a.917.917,0,0,0,.257-.092.449.449,0,0,0,.173-.167.564.564,0,0,0,.061-.283c0-.054,0-.127-.008-.218a2.078,2.078,0,0,0-.046-.314l-.53-2.749h-.015q-.215.491-.452.972t-.468.966q-.23.484-.45.978t-.4,1.013h-.015a20.294,20.294,0,0,0-.832-2.037q-.465-.979-.995-1.961h-.015c-.041.25-.082.528-.123.832s-.078.6-.111.89-.06.552-.081.792-.031.417-.031.535a1.864,1.864,0,0,0,.035.389.565.565,0,0,0,.134.272.6.6,0,0,0,.272.164,1.8,1.8,0,0,0,.449.068v.082q-.322-.014-.63-.02c-.2-.005-.414-.007-.629-.007-.159,0-.316,0-.473.007s-.313.011-.472.02v-.082a1.861,1.861,0,0,0,.318-.054,1.24,1.24,0,0,0,.288-.112.815.815,0,0,0,.219-.171.458.458,0,0,0,.112-.235q.046-.238.084-.5t.077-.521l.368-2.429a1.455,1.455,0,0,0-.384-.191,2.654,2.654,0,0,0-.445-.109v-.081c.22.009.439.015.656.02s.436.007.657.007c.159,0,.316,0,.472-.007s.314-.011.473-.02v.081a.849.849,0,0,0-.269.113.273.273,0,0,0-.123.249.619.619,0,0,0,.042.225c.028.073.06.149.1.226l1.083,2.36q.391-.723.744-1.449t.645-1.49a.655.655,0,0,0-.2-.143,1.479,1.479,0,0,0-.238-.089Z" transform="translate(-89.577 -339.564)" fill="#3b3938"/>
        <path id="パス_5190" data-name="パス 5190" d="M151.412,340.362a.831.831,0,0,0-.042-.3.371.371,0,0,0-.126-.167.567.567,0,0,0-.208-.089c-.081-.018-.176-.036-.283-.054v-.081c.215.009.426.015.633.02s.418.007.633.007c.154,0,.306,0,.457-.007s.3-.011.457-.02v.081a2.082,2.082,0,0,0-.406.068.616.616,0,0,0-.254.137.494.494,0,0,0-.131.229,1.327,1.327,0,0,0-.038.345v2.223a1.138,1.138,0,0,0,.119.542,1.007,1.007,0,0,0,.327.362,1.448,1.448,0,0,0,.479.2,2.5,2.5,0,0,0,.58.065,2.132,2.132,0,0,0,.806-.13,1.48,1.48,0,0,0,.5-.317,1.013,1.013,0,0,0,.254-.4,1.267,1.267,0,0,0,.069-.378v-1.91a3.36,3.36,0,0,0-.026-.461.737.737,0,0,0-.108-.306.493.493,0,0,0-.227-.181,1.406,1.406,0,0,0-.376-.089v-.081c.159.009.316.015.472.02s.314.007.473.007c.132,0,.263,0,.391-.007s.258-.011.391-.02v.081a2.624,2.624,0,0,0-.3.054.508.508,0,0,0-.227.123.577.577,0,0,0-.142.256,1.644,1.644,0,0,0-.05.453v2.039a1.432,1.432,0,0,1-.165.707,1.453,1.453,0,0,1-.449.494,2,2,0,0,1-.664.294,3.319,3.319,0,0,1-.81.1,3.049,3.049,0,0,1-.753-.092,2.038,2.038,0,0,1-.641-.28,1.462,1.462,0,0,1-.449-.467,1.229,1.229,0,0,1-.169-.648Z" transform="translate(-91.222 -339.564)" fill="#3b3938"/>
        <path id="パス_5191" data-name="パス 5191" d="M160.74,344.079a1.718,1.718,0,0,0,.43-.075.47.47,0,0,0,.234-.171.64.64,0,0,0,.1-.3c.013-.126.02-.283.02-.474v-3.165q-.407,0-.68.027a1.174,1.174,0,0,0-.472.14,1.016,1.016,0,0,0-.35.344,3.162,3.162,0,0,0-.3.634l-.1-.027.108-1.336c.215.009.427.015.637.02s.422.007.637.007h1.8q.307,0,.606-.007c.2-.005.4-.011.607-.02l.108,1.336-.1.027a3.213,3.213,0,0,0-.3-.634,1.016,1.016,0,0,0-.35-.344,1.19,1.19,0,0,0-.479-.14q-.28-.027-.695-.027v3.165c0,.191.007.349.02.474a.64.64,0,0,0,.1.3.47.47,0,0,0,.242.171,1.862,1.862,0,0,0,.446.075v.082q-.291-.014-.584-.02c-.194-.005-.389-.007-.583-.007s-.377,0-.561.007-.368.011-.552.02Z" transform="translate(-92.566 -339.564)" fill="#3b3938"/>
        <path id="パス_5192" data-name="パス 5192" d="M168.8,343.867c.047.009.1.019.17.027s.137.019.215.027.156.018.238.025.159.01.231.01a4.476,4.476,0,0,0,.825-.069,2.529,2.529,0,0,0,.668-.218,2.71,2.71,0,0,0,.572-.382,4.91,4.91,0,0,0,.546-.559l.084.061-.7,1.371c-.087-.009-.176-.016-.269-.02s-.182-.007-.268-.007h-2.887c-.148,0-.3,0-.445.007s-.3.011-.445.02v-.082a1.71,1.71,0,0,0,.43-.075.446.446,0,0,0,.231-.171.679.679,0,0,0,.1-.3c.013-.126.019-.283.019-.474v-2.278c0-.191-.006-.349-.019-.474a.679.679,0,0,0-.1-.3.443.443,0,0,0-.238-.171,1.829,1.829,0,0,0-.438-.075v-.081l.5.014.484.01q.25,0,.53,0h.634q.537,0,1.074-.007c.358-.005.722-.011,1.09-.02-.005.05-.009.1-.012.149s0,.1,0,.143v.273c0,.1.005.2.015.3s.02.215.031.338l-.1.027a1.6,1.6,0,0,0-.266-.535,1.2,1.2,0,0,0-.384-.324,1.526,1.526,0,0,0-.479-.157,3.6,3.6,0,0,0-.553-.041q-.537,0-1.075.041v1.7c.1,0,.2,0,.3-.006s.193-.008.3-.008a1.617,1.617,0,0,0,.841-.188.887.887,0,0,0,.38-.685h.092q0,.244-.008.49t-.008.485q0,.246.008.491t.008.49h-.092a1.934,1.934,0,0,0-.169-.467.756.756,0,0,0-.249-.277.96.96,0,0,0-.373-.129,3.52,3.52,0,0,0-.53-.035H168.8Z" transform="translate(-93.731 -339.564)" fill="#3b3938"/>
        <path id="パス_5193" data-name="パス 5193" d="M175.1,339.673c.179.009.35.015.511.02s.349.007.564.007c.112,0,.222,0,.33-.007s.217-.011.33-.02q.1.122.33.372l.526.569q.3.321.633.682t.653.706q.314.345.58.641c.177.2.316.361.418.488h.015c0-.137,0-.272,0-.406s0-.27,0-.406v-.791a7.327,7.327,0,0,0-.034-.76,1.708,1.708,0,0,0-.138-.542.768.768,0,0,0-.292-.334,1.074,1.074,0,0,0-.5-.137v-.081c.179.009.36.015.541.02s.362.007.541.007c.164,0,.33,0,.5-.007s.335-.011.5-.02v.081a1.062,1.062,0,0,0-.664.249.854.854,0,0,0-.181.6v3.615h-.284q-.423-.585-.894-1.139t-.937-1.051q-.465-.5-.9-.924t-.779-.761c-.006.119-.009.235-.012.348s0,.23,0,.348v1.194q0,.607.027.958a1.35,1.35,0,0,0,.131.539.517.517,0,0,0,.307.253,2.768,2.768,0,0,0,.564.1v.082c-.261-.009-.514-.016-.76-.02s-.5-.007-.76-.007c-.148,0-.294,0-.437.007s-.289.011-.438.02v-.082c.174-.022.327-.044.457-.064a.955.955,0,0,0,.322-.1.47.47,0,0,0,.193-.205.931.931,0,0,0,.072-.372l.092-3.13a2.075,2.075,0,0,0-.537-.28,5.438,5.438,0,0,0-.6-.171Z" transform="translate(-94.909 -339.564)" fill="#3b3938"/>
        <path id="パス_5194" data-name="パス 5194" d="M189.967,343.172a2.308,2.308,0,0,0,.031.427.431.431,0,0,0,.127.242.645.645,0,0,0,.28.137c.123.031.289.066.5.1v.082c-.22-.009-.438-.016-.653-.02s-.433-.007-.653-.007c-.189,0-.378,0-.564.007s-.375.011-.564.02v-.082A1.772,1.772,0,0,0,188.9,344a.484.484,0,0,0,.242-.171.642.642,0,0,0,.108-.3,4.051,4.051,0,0,0,.023-.474v-2.278a4.052,4.052,0,0,0-.023-.474.642.642,0,0,0-.108-.3.479.479,0,0,0-.242-.171,1.765,1.765,0,0,0-.434-.075v-.081c.071,0,.166.009.284.014l.364.01c.126,0,.246,0,.361,0h1.946q.392,0,.691-.01t.63-.017c-.01.1-.018.19-.023.283s-.008.186-.008.277q0,.177.008.351c.005.116.013.233.023.351h-.122a1.609,1.609,0,0,0-.319-.6,1.182,1.182,0,0,0-.461-.314,2.1,2.1,0,0,0-.6-.119c-.225-.014-.471-.02-.737-.02-.087,0-.175,0-.261.007s-.179.007-.277.007v1.691h.614a1.269,1.269,0,0,0,.714-.171,1.158,1.158,0,0,0,.407-.559h.092c-.015.31-.023.619-.023.928,0,.163,0,.315,0,.453s.008.288.019.446H191.7a2.69,2.69,0,0,0-.161-.419.861.861,0,0,0-.2-.269.733.733,0,0,0-.288-.15,2.26,2.26,0,0,0-.415-.069c-.046,0-.094-.008-.146-.01s-.1,0-.161,0h-.361Z" transform="translate(-96.934 -339.564)" fill="#3b3938"/>
        <path id="パス_5195" data-name="パス 5195" d="M201.327,344.126h-1.381a12.26,12.26,0,0,1-.894-.966,7.723,7.723,0,0,1-.733-1.046,1.931,1.931,0,0,1-.2-.014c-.08-.009-.161-.02-.246-.031s-.166-.025-.245-.041-.145-.031-.2-.044v1.064c0,.191.007.349.02.474a.639.639,0,0,0,.1.3.469.469,0,0,0,.242.171,1.863,1.863,0,0,0,.445.075v.082q-.291-.014-.583-.02c-.2-.005-.389-.007-.584-.007s-.376,0-.56.007-.369.011-.553.02v-.082a1.719,1.719,0,0,0,.43-.075.47.47,0,0,0,.234-.171.64.64,0,0,0,.1-.3c.013-.126.02-.283.02-.474V340.77c0-.191-.007-.349-.02-.474a.64.64,0,0,0-.1-.3.465.465,0,0,0-.234-.171,1.713,1.713,0,0,0-.43-.076v-.081c.164.009.328.015.491.02s.328.007.491.007c.072,0,.161,0,.269-.01l.341-.024c.12-.009.242-.017.365-.025s.233-.01.33-.01a3.166,3.166,0,0,1,.675.076,2.062,2.062,0,0,1,.622.238,1.444,1.444,0,0,1,.453.417,1.018,1.018,0,0,1,.176.6.9.9,0,0,1-.1.423,1.042,1.042,0,0,1-.257.321,1.385,1.385,0,0,1-.38.225,2.184,2.184,0,0,1-.457.13c.071.109.156.232.253.368s.206.275.327.417.248.281.384.419a3.565,3.565,0,0,0,.43.375,2.847,2.847,0,0,0,.464.28,1.4,1.4,0,0,0,.484.132Zm-3.892-2.374a2.212,2.212,0,0,0,.714.116,1.529,1.529,0,0,0,.928-.245.929.929,0,0,0,.33-.8.844.844,0,0,0-.1-.406.981.981,0,0,0-.265-.314,1.253,1.253,0,0,0-.388-.2,1.464,1.464,0,0,0-.457-.072c-.128,0-.254.005-.376.014a1.913,1.913,0,0,0-.362.061q-.015.327-.023.662t-.008.723Z" transform="translate(-98.069 -339.556)" fill="#3b3938"/>
        <path id="パス_5196" data-name="パス 5196" d="M204.339,341.9a2.113,2.113,0,0,1,.227-.989,2.249,2.249,0,0,1,.61-.74,2.744,2.744,0,0,1,.9-.464,3.866,3.866,0,0,1,2.2,0,2.744,2.744,0,0,1,.9.464,2.26,2.26,0,0,1,.61.74,2.272,2.272,0,0,1,0,1.978,2.26,2.26,0,0,1-.61.74,2.744,2.744,0,0,1-.9.464,3.885,3.885,0,0,1-2.2,0,2.744,2.744,0,0,1-.9-.464,2.249,2.249,0,0,1-.61-.74A2.116,2.116,0,0,1,204.339,341.9Zm.814,0a2.321,2.321,0,0,0,.138.8,2.015,2.015,0,0,0,.4.672,1.947,1.947,0,0,0,.637.463,2.176,2.176,0,0,0,1.7,0,1.948,1.948,0,0,0,.637-.463,2.015,2.015,0,0,0,.4-.672,2.372,2.372,0,0,0,0-1.6,2.015,2.015,0,0,0-.4-.672,1.95,1.95,0,0,0-.637-.464,2.176,2.176,0,0,0-1.7,0,1.949,1.949,0,0,0-.637.464,2.015,2.015,0,0,0-.4.672A2.316,2.316,0,0,0,205.153,341.9Z" transform="translate(-99.337 -339.544)" fill="#3b3938"/>
        <path id="パス_5197" data-name="パス 5197" d="M217.9,339.673c.184.009.369.015.553.02s.368.007.552.007c.164,0,.327,0,.488-.007s.323-.011.487-.02v.081a1.365,1.365,0,0,0-.53.164.472.472,0,0,0-.207.444,4.282,4.282,0,0,0,.057.556q.059.386.146.842t.184.915q.1.457.181.777a1.611,1.611,0,0,0,.085.238.546.546,0,0,0,.13.181.644.644,0,0,0,.238.13,1.99,1.99,0,0,0,.406.078v.082q-.307-.014-.61-.02c-.2-.005-.406-.007-.61-.007s-.385,0-.572.007-.378.011-.572.02v-.082c.107-.014.21-.031.307-.051a.937.937,0,0,0,.257-.092.447.447,0,0,0,.172-.167.555.555,0,0,0,.062-.283c0-.054,0-.127-.008-.218a2.09,2.09,0,0,0-.047-.314l-.53-2.749h-.015q-.215.491-.453.972t-.468.966q-.23.484-.449.978t-.4,1.013h-.015a20.291,20.291,0,0,0-.833-2.037q-.465-.979-.994-1.961h-.015q-.062.376-.123.832t-.111.89c-.034.288-.06.552-.081.792s-.031.417-.031.535a1.926,1.926,0,0,0,.034.389.566.566,0,0,0,.135.272.6.6,0,0,0,.272.164,1.79,1.79,0,0,0,.449.068v.082c-.215-.009-.425-.016-.63-.02s-.414-.007-.63-.007c-.159,0-.316,0-.472.007s-.314.011-.473.02v-.082a1.857,1.857,0,0,0,.319-.054,1.255,1.255,0,0,0,.288-.112.816.816,0,0,0,.219-.171.457.457,0,0,0,.111-.235q.046-.238.085-.5t.076-.521l.368-2.429a1.436,1.436,0,0,0-.384-.191,2.664,2.664,0,0,0-.445-.109v-.081c.221.009.439.015.657.02s.436.007.656.007c.159,0,.317,0,.473-.007s.313-.011.472-.02v.081a.853.853,0,0,0-.268.113.273.273,0,0,0-.123.249.6.6,0,0,0,.042.225c.028.073.059.149.1.226l1.082,2.36q.392-.723.745-1.449t.645-1.49a.665.665,0,0,0-.2-.143,1.489,1.489,0,0,0-.238-.089Z" transform="translate(-100.683 -339.564)" fill="#3b3938"/>
        <path id="パス_5198" data-name="パス 5198" d="M227.889,339.673c.179.009.35.015.511.02s.35.007.564.007c.112,0,.222,0,.33-.007s.217-.011.33-.02q.1.122.33.372l.526.569q.3.321.633.682t.653.706q.314.345.58.641c.177.2.317.361.418.488h.015c0-.137,0-.272,0-.406s0-.27,0-.406v-.791a7.326,7.326,0,0,0-.034-.76,1.684,1.684,0,0,0-.138-.542.767.767,0,0,0-.292-.334,1.073,1.073,0,0,0-.495-.137v-.081c.179.009.359.015.541.02s.362.007.541.007c.164,0,.33,0,.5-.007s.335-.011.5-.02v.081a1.062,1.062,0,0,0-.664.249.854.854,0,0,0-.181.6v3.615h-.284q-.421-.585-.894-1.139t-.936-1.051q-.465-.5-.9-.924t-.779-.761c-.005.119-.009.235-.012.348s0,.23,0,.348v1.194q0,.607.026.958a1.35,1.35,0,0,0,.131.539.52.52,0,0,0,.307.253,2.769,2.769,0,0,0,.564.1v.082c-.261-.009-.514-.016-.76-.02s-.5-.007-.759-.007c-.148,0-.294,0-.438.007s-.289.011-.438.02v-.082c.174-.022.327-.044.457-.064a.968.968,0,0,0,.322-.1.473.473,0,0,0,.192-.205.929.929,0,0,0,.073-.372l.092-3.13a2.075,2.075,0,0,0-.537-.28,5.386,5.386,0,0,0-.6-.171Z" transform="translate(-102.904 -339.564)" fill="#3b3938"/>
        <path id="パス_5199" data-name="パス 5199" d="M238.562,342.143l-.507,1.235c-.015.036-.029.068-.042.1a.207.207,0,0,0-.02.089.306.306,0,0,0,.081.211.659.659,0,0,0,.2.147,1.346,1.346,0,0,0,.238.092,1.8,1.8,0,0,0,.208.048v.082q-.23-.014-.461-.02c-.154-.005-.31-.007-.468-.007s-.3,0-.449.007-.3.011-.465.02v-.082a1.18,1.18,0,0,0,.4-.146,1.015,1.015,0,0,0,.265-.236,1.66,1.66,0,0,0,.188-.3c.053-.109.106-.223.157-.341l1.329-2.9c.015-.031.029-.061.042-.088a.181.181,0,0,0,.02-.076.317.317,0,0,0-.027-.1.547.547,0,0,0-.065-.123,1.936,1.936,0,0,0,.346-.088c.1-.036.2-.076.322-.116l1.6,3.9a1,1,0,0,0,.3.419,1.089,1.089,0,0,0,.569.194v.082c-.205-.009-.406-.016-.6-.02s-.4-.007-.619-.007h-.361c-.1,0-.194,0-.277,0s-.16.005-.234.01l-.242.014v-.082a1.525,1.525,0,0,0,.541-.146.34.34,0,0,0,.219-.3.248.248,0,0,0-.027-.109.784.784,0,0,1-.042-.1l-.5-1.255Zm.829-1.937-.753,1.732h1.443Z" transform="translate(-104.264 -339.544)" fill="#3b3938"/>
        <path id="パス_5200" data-name="パス 5200" d="M250.046,341.113q-.145-.26-.311-.5a2.291,2.291,0,0,0-.38-.436,1.742,1.742,0,0,0-.495-.307,1.717,1.717,0,0,0-.657-.116,1.568,1.568,0,0,0-.779.191,1.939,1.939,0,0,0-.584.5,2.236,2.236,0,0,0-.368.689,2.4,2.4,0,0,0-.126.764,2.584,2.584,0,0,0,.126.815,1.986,1.986,0,0,0,.368.672,1.813,1.813,0,0,0,.584.457,1.719,1.719,0,0,0,.779.171,3.973,3.973,0,0,0,.721-.064,1.81,1.81,0,0,0,.661-.263v-.88q0-.463-.791-.484v-.082c.194.005.373.01.537.017s.348.01.552.01.379,0,.569-.007.378-.011.568-.02v.082a1.98,1.98,0,0,0-.3.034.666.666,0,0,0-.234.088.449.449,0,0,0-.154.167.553.553,0,0,0-.058.27v.955c-.353.105-.7.2-1.048.29a4.046,4.046,0,0,1-1,.132,3.369,3.369,0,0,1-1.006-.153,2.782,2.782,0,0,1-.879-.454,2.277,2.277,0,0,1-.622-.737,2.1,2.1,0,0,1-.234-1.01,1.929,1.929,0,0,1,.234-.931,2.448,2.448,0,0,1,.622-.747,3.068,3.068,0,0,1,.879-.495,2.891,2.891,0,0,1,1.006-.181c.21,0,.4.008.569.024s.322.036.461.062.263.051.376.078.22.053.322.075a2.688,2.688,0,0,0,.02.29c.012.12.029.245.049.375s.041.255.062.375.038.217.053.29Z" transform="translate(-105.568 -339.544)" fill="#3b3938"/>
        <path id="パス_5201" data-name="パス 5201" d="M255.517,342.143l-.507,1.235c-.015.036-.03.068-.042.1a.206.206,0,0,0-.019.089.306.306,0,0,0,.081.211.66.66,0,0,0,.2.147,1.32,1.32,0,0,0,.238.092,1.785,1.785,0,0,0,.207.048v.082q-.23-.014-.461-.02c-.153-.005-.31-.007-.468-.007s-.3,0-.45.007-.3.011-.464.02v-.082a1.18,1.18,0,0,0,.4-.146,1.043,1.043,0,0,0,.265-.236,1.753,1.753,0,0,0,.188-.3c.053-.109.106-.223.157-.341l1.328-2.9.042-.088a.181.181,0,0,0,.02-.076.318.318,0,0,0-.027-.1.583.583,0,0,0-.065-.123,1.907,1.907,0,0,0,.345-.088c.1-.036.2-.076.322-.116l1.6,3.9a1,1,0,0,0,.3.419,1.088,1.088,0,0,0,.568.194v.082c-.2-.009-.406-.016-.6-.02s-.4-.007-.618-.007h-.361c-.1,0-.2,0-.277,0s-.16.005-.234.01l-.242.014v-.082a1.531,1.531,0,0,0,.541-.146.34.34,0,0,0,.219-.3.248.248,0,0,0-.027-.109.8.8,0,0,1-.042-.1l-.5-1.255Zm.829-1.937-.752,1.732h1.443Z" transform="translate(-106.832 -339.544)" fill="#3b3938"/>
        <path id="パス_5202" data-name="パス 5202" d="M262.133,339.673c.179.009.35.015.511.02s.35.007.564.007c.113,0,.222,0,.33-.007s.217-.011.33-.02q.1.122.33.372l.526.569q.3.321.633.682t.653.706q.316.345.58.641c.177.2.316.361.419.488h.015c0-.137,0-.272,0-.406s0-.27,0-.406v-.791a7.286,7.286,0,0,0-.035-.76,1.663,1.663,0,0,0-.138-.542.762.762,0,0,0-.292-.334,1.073,1.073,0,0,0-.495-.137v-.081c.179.009.359.015.541.02s.362.007.541.007c.164,0,.33,0,.5-.007s.334-.011.5-.02v.081a1.067,1.067,0,0,0-.664.249.854.854,0,0,0-.181.6v3.615h-.283q-.423-.585-.894-1.139t-.937-1.051q-.465-.5-.9-.924t-.779-.761c-.005.119-.009.235-.012.348s0,.23,0,.348v1.194c0,.4.008.725.027.958a1.352,1.352,0,0,0,.13.539.52.52,0,0,0,.307.253,2.78,2.78,0,0,0,.564.1v.082c-.26-.009-.514-.016-.759-.02s-.5-.007-.76-.007c-.148,0-.294,0-.438.007s-.289.011-.438.02v-.082c.174-.022.327-.044.457-.064a.961.961,0,0,0,.323-.1.468.468,0,0,0,.192-.205.929.929,0,0,0,.073-.372l.092-3.13a2.075,2.075,0,0,0-.537-.28,5.333,5.333,0,0,0-.6-.171Z" transform="translate(-108.089 -339.564)" fill="#3b3938"/>
        <path id="パス_5203" data-name="パス 5203" d="M272.175,340.362a.834.834,0,0,0-.042-.3.367.367,0,0,0-.127-.167.557.557,0,0,0-.207-.089c-.081-.018-.176-.036-.284-.054v-.081c.216.009.427.015.634.02s.418.007.633.007c.154,0,.306,0,.457-.007s.3-.011.457-.02v.081a2.1,2.1,0,0,0-.407.068.618.618,0,0,0-.253.137.487.487,0,0,0-.131.229,1.328,1.328,0,0,0-.038.345v2.223a1.128,1.128,0,0,0,.119.542,1,1,0,0,0,.326.362,1.453,1.453,0,0,0,.48.2,2.5,2.5,0,0,0,.58.065,2.132,2.132,0,0,0,.806-.13,1.489,1.489,0,0,0,.5-.317,1.023,1.023,0,0,0,.254-.4A1.267,1.267,0,0,0,276,342.7v-1.91a3.215,3.215,0,0,0-.027-.461.724.724,0,0,0-.107-.306.5.5,0,0,0-.227-.181,1.414,1.414,0,0,0-.376-.089v-.081c.158.009.316.015.472.02s.313.007.472.007c.133,0,.264,0,.392-.007s.258-.011.391-.02v.081a2.588,2.588,0,0,0-.3.054.5.5,0,0,0-.227.123.577.577,0,0,0-.142.256,1.612,1.612,0,0,0-.05.453v2.039a1.432,1.432,0,0,1-.165.707,1.462,1.462,0,0,1-.449.494,1.992,1.992,0,0,1-.664.294,3.307,3.307,0,0,1-.81.1,3.049,3.049,0,0,1-.753-.092,2.037,2.037,0,0,1-.641-.28,1.462,1.462,0,0,1-.449-.467,1.229,1.229,0,0,1-.17-.648Z" transform="translate(-109.51 -339.564)" fill="#3b3938"/>
        <path id="パス_5204" data-name="パス 5204" d="M284.786,339.673c.184.009.368.015.553.02s.368.007.552.007c.164,0,.327,0,.488-.007s.323-.011.487-.02v.081a1.366,1.366,0,0,0-.53.164.473.473,0,0,0-.208.444,4.32,4.32,0,0,0,.058.556q.059.386.146.842t.184.915q.1.457.181.777a1.611,1.611,0,0,0,.085.238.546.546,0,0,0,.13.181.644.644,0,0,0,.238.13,1.99,1.99,0,0,0,.406.078v.082q-.307-.014-.61-.02c-.2-.005-.406-.007-.61-.007s-.385,0-.572.007-.378.011-.572.02v-.082c.107-.014.21-.031.307-.051a.937.937,0,0,0,.257-.092.446.446,0,0,0,.172-.167.563.563,0,0,0,.062-.283c0-.054,0-.127-.008-.218a2.086,2.086,0,0,0-.047-.314l-.529-2.749h-.015q-.215.491-.453.972t-.468.966q-.23.484-.449.978t-.4,1.013h-.015a20.472,20.472,0,0,0-.833-2.037q-.465-.979-.994-1.961h-.015q-.062.376-.123.832t-.111.89c-.034.288-.06.552-.081.792s-.031.417-.031.535a1.919,1.919,0,0,0,.035.389.566.566,0,0,0,.135.272.6.6,0,0,0,.272.164,1.79,1.79,0,0,0,.449.068v.082c-.215-.009-.425-.016-.63-.02s-.414-.007-.63-.007c-.159,0-.316,0-.472.007s-.314.011-.473.02v-.082a1.857,1.857,0,0,0,.319-.054,1.27,1.27,0,0,0,.288-.112.815.815,0,0,0,.219-.171.457.457,0,0,0,.111-.235q.046-.238.085-.5t.076-.521l.368-2.429a1.436,1.436,0,0,0-.384-.191,2.664,2.664,0,0,0-.446-.109v-.081c.221.009.439.015.657.02s.436.007.656.007c.159,0,.316,0,.473-.007s.313-.011.472-.02v.081a.853.853,0,0,0-.268.113.273.273,0,0,0-.123.249.6.6,0,0,0,.042.225c.028.073.059.149.1.226l1.082,2.36q.392-.723.745-1.449t.645-1.49a.676.676,0,0,0-.2-.143,1.488,1.488,0,0,0-.238-.089Z" transform="translate(-110.812 -339.564)" fill="#3b3938"/>
        <path id="パス_5205" data-name="パス 5205" d="M292.268,342.143l-.507,1.235c-.016.036-.03.068-.042.1a.207.207,0,0,0-.02.089.306.306,0,0,0,.081.211.661.661,0,0,0,.2.147,1.346,1.346,0,0,0,.238.092,1.8,1.8,0,0,0,.208.048v.082q-.23-.014-.461-.02c-.154-.005-.31-.007-.468-.007s-.3,0-.449.007-.3.011-.465.02v-.082a1.18,1.18,0,0,0,.4-.146,1.014,1.014,0,0,0,.265-.236,1.655,1.655,0,0,0,.188-.3c.053-.109.106-.223.157-.341l1.329-2.9.042-.088a.181.181,0,0,0,.02-.076.317.317,0,0,0-.027-.1.545.545,0,0,0-.065-.123,1.937,1.937,0,0,0,.346-.088c.1-.036.2-.076.322-.116l1.6,3.9a1,1,0,0,0,.3.419,1.089,1.089,0,0,0,.569.194v.082c-.205-.009-.406-.016-.6-.02s-.4-.007-.619-.007h-.361c-.1,0-.194,0-.277,0s-.16.005-.234.01l-.242.014v-.082a1.526,1.526,0,0,0,.541-.146.34.34,0,0,0,.219-.3.248.248,0,0,0-.027-.109.783.783,0,0,1-.042-.1l-.5-1.255Zm.829-1.937-.753,1.732h1.443Z" transform="translate(-112.397 -339.544)" fill="#3b3938"/>
      </g>
      <g id="グループ_7025" data-name="グループ 7025" transform="translate(0.398 54.178)">
        <g id="グループ_7022" data-name="グループ 7022" transform="translate(0 0.339)">
          <path id="パス_5206" data-name="パス 5206" d="M92.5,315.5a3.171,3.171,0,0,0-1.084-.676h0a5.572,5.572,0,0,0-.722-.266,2.106,2.106,0,0,0-.42-.09s-.143-.021-.178.041a.159.159,0,0,0-.009.157,1.783,1.783,0,0,0,.127.2s.782,1.029,1.031,1.361a6.835,6.835,0,0,0,.539.694.51.51,0,0,0,.355.148c.314,0,.632-.345.634-.871A.976.976,0,0,0,92.5,315.5Z" transform="translate(-82.107 -308.75)" fill="#3b3938"/>
          <path id="パス_5207" data-name="パス 5207" d="M94,320.327c.036,0,.125-.01.3-.01h4.856a6.219,6.219,0,0,0,.881-.035,1.3,1.3,0,0,0,.25-.062.175.175,0,0,0,.115-.2.522.522,0,0,0-.181-.252,3.012,3.012,0,0,0-.631-.407,1.85,1.85,0,0,0-.619-.205.512.512,0,0,0-.377.223.821.821,0,0,1-.389.238,2.893,2.893,0,0,1-.574.053c-.309.012-1.155.015-1.469.015H94.351a2.259,2.259,0,0,1-.318-.024.133.133,0,0,1-.124-.162c.014-.161.089-1.024.111-1.2v0c.014-.227.084-.317.2-.37a1.366,1.366,0,0,1,.512-.055h3.734a6.516,6.516,0,0,0,.874-.033.67.67,0,0,0,.263-.072.231.231,0,0,0,.115-.177.249.249,0,0,0-.07-.158,2.626,2.626,0,0,0-.583-.418,1.917,1.917,0,0,0-.644-.251c-.2-.015-.331.178-.386.23a.855.855,0,0,1-.556.212c-.232.015-.95.032-1.3.031l-.706,0h-.383l-.173-.007h0c.045-.04.139-.119.26-.215.239-.189.591-.454.926-.682a3.424,3.424,0,0,1,.821-.456,3.024,3.024,0,0,0,.557-.16l.109-.1.025-.142-.07-.132a5.019,5.019,0,0,0-.762-.613c-.152-.106-.3-.2-.419-.273l-.153-.085-.107-.036-.121.047-.063.128h0a2.8,2.8,0,0,1-.461,1.029v0a11.839,11.839,0,0,1-1.278,1.437,1.076,1.076,0,0,1-.813.262H92.085c-1.054,0-2.523-.019-3.6-.059h0c-.149,0-.843-.042-1.007-.042l-.085.028-.035.083.02.064.066.036-.038.386v.021l.014-.048.1.1.124.053h.3l.42.063.262-.013h0c.514-.02,2.276-.039,2.7-.039a4.516,4.516,0,0,1,1,.056.269.269,0,0,1,.145.108.563.563,0,0,1,.04.259c0,.188-.057.98-.068,1.083a.37.37,0,0,1-.057.2.163.163,0,0,1-.076.062,6.927,6.927,0,0,1-1.273.047c-.713,0-2.814-.052-3.4-.08-.106-.005-.758-.042-.8-.038s-.056,0-.085.027a.1.1,0,0,0-.036.076.1.1,0,0,0,.014.053c.015.028.064.047.069.079a.2.2,0,0,1,0,.047l.057.276a.139.139,0,0,0,.006.065.087.087,0,0,0,.047.037,1.419,1.419,0,0,0,.2.128c.048.015,1.043.005,1.043.005h0c.9-.039,3.37-.038,3.464-.039s.281,0,.384.013c.187.023.161.12.134.2a3.965,3.965,0,0,1-.306.631h0l0,0a8.4,8.4,0,0,1-3.5,3.04c-.153.077-.649.3-.715.333-.09.05-.092.14.007.153a3.612,3.612,0,0,0,.778-.105,8.146,8.146,0,0,0,4.758-2.941,4.3,4.3,0,0,0,.314-.429c.077-.113.166-.076.23,0,.046.053.064.075.456.486h0A31.431,31.431,0,0,0,96.6,323.97a9.362,9.362,0,0,0,.814.6,1.123,1.123,0,0,0,.462.217.31.31,0,0,0,.175-.036.875.875,0,0,0,.332-.409c.1-.143.228-.442,1.075-.7.122-.037.35-.061.367-.189s-.2-.169-.2-.169h0c-.425-.08-1.159-.262-1.565-.388a12.894,12.894,0,0,1-2.608-1.228c-.433-.249-.992-.614-1.2-.765a3.07,3.07,0,0,1-.322-.275.2.2,0,0,1-.073-.212A.149.149,0,0,1,94,320.327Z" transform="translate(-81.599 -308.729)" fill="#3b3938"/>
          <path id="パス_5208" data-name="パス 5208" d="M107.176,308.5c-.267-.148-.583-.322-.884-.457-.186-.082-.381-.169-.507-.217a.981.981,0,0,0-.374-.093.526.526,0,0,0-.314.121l-.261.176s-.13.1-.253.185a1.077,1.077,0,0,1-.542.092H99.832a3.237,3.237,0,0,1-.783-.1c-.168-.038-.465-.086-.609-.1a4.05,4.05,0,0,0-.647-.031s-.2.017-.264.123a.465.465,0,0,0-.059.239c0,.341.09,1.485.09,1.777l.016,2.311a.57.57,0,0,0,.106.379.786.786,0,0,0,.52.2c.086.007.27.01.412.01s.258-.009.388-.02a.689.689,0,0,0,.34-.118.831.831,0,0,1,.413-.112c.137-.008.3,0,.515-.005h3.668a1.544,1.544,0,0,1,.594.061c.116.058.178.16.18.421v6.452c0,1.3,0,1.721,0,2.123,0,.572.041.975-.2,1.281a.847.847,0,0,1-.552.244,8.219,8.219,0,0,1-1.74-.07s-.216-.014-.263-.011a.176.176,0,0,0-.092.02.079.079,0,0,0-.031.09.112.112,0,0,0,.053.06c.1.06.5.163.849.342a2.952,2.952,0,0,1,.59.442,2.116,2.116,0,0,1,.389.423,1.082,1.082,0,0,0,1.019.524,2.258,2.258,0,0,0,.574-.1,2.606,2.606,0,0,0,.74-.316,2.21,2.21,0,0,0,.878-1.125,5.013,5.013,0,0,0,.185-1.721c0-1.74-.12-9.155-.12-10.717a12.07,12.07,0,0,1,.043-1.23,1.536,1.536,0,0,1,.308-.669.668.668,0,0,0,.162-.4A.546.546,0,0,0,107.176,308.5Zm-7.756,1.183a1.971,1.971,0,0,1,.035-.525c.036-.093.081-.129.227-.155a2.751,2.751,0,0,1,.41-.019h3.874a2.536,2.536,0,0,1,.541.02s.132.027.145.227.011.312.011.312a1.917,1.917,0,0,1-.036.534c-.036.091-.083.125-.236.15a3.452,3.452,0,0,1-.425.017h-3.874a2.037,2.037,0,0,1-.529-.029c-.13-.04-.132-.219-.132-.219Zm0,1.987a1.97,1.97,0,0,1,.035-.525c.036-.093.081-.129.227-.155a2.85,2.85,0,0,1,.41-.02h3.874a2.518,2.518,0,0,1,.541.021s.132.027.145.227.011.313.011.313a1.92,1.92,0,0,1-.036.534c-.036.091-.083.125-.236.149a3.293,3.293,0,0,1-.425.017h-3.874a2.008,2.008,0,0,1-.529-.028c-.13-.041-.132-.22-.132-.22Z" transform="translate(-83.228 -307.731)" fill="#3b3938"/>
          <path id="パス_5209" data-name="パス 5209" d="M88.263,312.832c.259.03.289.126.42.183a1.828,1.828,0,0,0,.676.061,1.736,1.736,0,0,0,.814-.1.444.444,0,0,0,.171-.327,2.916,2.916,0,0,0,.02-.3v-.006a20.994,20.994,0,0,1,.051-2.8c.028-.107.067-.173.1-.273a1.074,1.074,0,0,0,.1-.411.528.528,0,0,0-.233-.347,5.651,5.651,0,0,0-.617-.374s-.253-.149-.451-.24a.612.612,0,0,0-.3-.066.388.388,0,0,0-.239.086,3.438,3.438,0,0,1-.29.251.7.7,0,0,1-.6.187h-4.26c-.344-.024-.78-.059-.923-.066l-.12,0c-.344-.02-1.381-.031-1.543-.028a.248.248,0,0,0-.191.076.306.306,0,0,0-.051.2c0,.277.165,1.128.184,1.627s.034.776.034,1.332-.007,1.318-.007,2.559c0,4.329-.164,5.685-.216,7.562v0c0,.412-.112,2.317-.105,2.461a.824.824,0,0,0,.21.535,1.613,1.613,0,0,0,1.127.454,1.806,1.806,0,0,0,.719-.205,1.145,1.145,0,0,0,.585-1.032c.009-.178-.013-.716-.013-.869v-.005c-.046-.558-.056-2.345-.056-4.034,0-1.09,0-2.141,0-2.8,0-.177,0-.9,0-1.59,0-.345,0-.684.008-.944l.007-.32.007-.138a.344.344,0,0,1,.25-.267,1.714,1.714,0,0,1,.5-.049h3.64A3.905,3.905,0,0,1,88.263,312.832Zm.257-2.822s0,.179-.132.219a2.038,2.038,0,0,1-.529.029H83.985a3.468,3.468,0,0,1-.425-.017c-.152-.025-.2-.059-.235-.15a1.917,1.917,0,0,1-.036-.534s0-.113.011-.312.145-.227.145-.227a2.532,2.532,0,0,1,.541-.02H87.86a2.765,2.765,0,0,1,.41.019c.145.026.191.062.226.155a1.925,1.925,0,0,1,.036.525Zm0,1.922s0,.179-.132.219a1.962,1.962,0,0,1-.529.029H83.985a3.475,3.475,0,0,1-.425-.017c-.152-.025-.2-.059-.235-.15a1.91,1.91,0,0,1-.036-.533s0-.114.011-.313.145-.227.145-.227a2.528,2.528,0,0,1,.541-.02H87.86a2.765,2.765,0,0,1,.41.019c.145.027.191.062.226.155a1.928,1.928,0,0,1,.036.525Z" transform="translate(-80.687 -307.747)" fill="#3b3938"/>
          <path id="パス_5210" data-name="パス 5210" d="M88.015,320.55l-.04,0,.037,0c-.2,0-.986-.056-1.126-.054a.231.231,0,0,0-.148.03c-.052.042-.026.2-.026.2s.053.235.072.367a.231.231,0,0,0,.106.185.709.709,0,0,0,.263.036c.091,0,.184.008.5-.006.236-.011.625-.02.625-.02s1.559-.057,1.937-.047Z" transform="translate(-81.598 -309.664)" fill="#3b3938"/>
          <path id="パス_5211" data-name="パス 5211" d="M88.626,317.67h0c-.2,0-.972-.053-1.038-.053a.3.3,0,0,0-.193.038c-.066.053-.03.182-.03.182s.053.236.072.368.081.176.12.191a1.074,1.074,0,0,0,.249.03c.091,0,.184.008.5-.006.236-.011.625-.02.625-.02s1.559-.057,1.937-.047Z" transform="translate(-81.696 -309.228)" fill="#3b3938"/>
        </g>
        <path id="パス_5212" data-name="パス 5212" d="M169.04,323.2a2.7,2.7,0,0,0-.695-.468,1.423,1.423,0,0,0-.613-.2c-.214-.005-.275.188-.624.407a5.394,5.394,0,0,1-1.48.149c-.374.028-.853.025-1.3.025h-7.169a1.534,1.534,0,0,1-.4-.039.3.3,0,0,1-.232-.243,3.037,3.037,0,0,1-.036-.647V310.7a.825.825,0,0,1,.081-.479c.073-.1.234-.171.592-.171h7.36a7.386,7.386,0,0,0,.8-.02.515.515,0,0,0,.257-.088.192.192,0,0,0,.067-.08.182.182,0,0,0,.013-.135.528.528,0,0,0-.2-.222,4.241,4.241,0,0,0-.5-.328,1.542,1.542,0,0,0-.613-.219c-.172.018-.2.09-.367.241a.9.9,0,0,1-.417.221c-.134.031-.782.035-.782.035-.126,0-.347-.006-.75-.006H150.583c-1.171,0-2.093,0-3.309-.054l-.013,0h0c-.045,0-.131,0-.235-.01-.287-.02-.726-.058-.857-.058a.248.248,0,0,0-.092.016.1.1,0,0,0-.054.062.352.352,0,0,0,.008.118s.065.355.084.48a.235.235,0,0,0,.117.174.226.226,0,0,0,.157.032c.034,0,.307-.025.623-.053.19-.016.333-.025.463-.036.558-.025,1.657-.066,2.986-.066H153.4a.822.822,0,0,1,.563.125c.094.087.134.251.134.545v11.722a.838.838,0,0,1-.092.508c-.079.1-.247.161-.606.161h-3.991c-.9,0-4.751-.036-5.974-.075h-.047l-.064,0c-.2-.008-.558-.032-.8-.044-.109-.006-.2-.01-.239-.01a.142.142,0,0,0-.1.027c-.039.036-.015.145-.015.145s.062.321.081.446a.237.237,0,0,0,.117.174.339.339,0,0,0,.157.032c.034,0,.311-.008.625-.032.289-.022.588-.02.588-.02l.188-.009c1.54-.026,4.256-.048,5.357-.048h18.639a7.519,7.519,0,0,0,.791-.03.893.893,0,0,0,.359-.09.177.177,0,0,0,.062-.233A.432.432,0,0,0,169.04,323.2Z" transform="translate(-89.996 -307.577)" fill="#3b3938"/>
        <g id="グループ_7023" data-name="グループ 7023" transform="translate(105.016)">
          <path id="パス_5213" data-name="パス 5213" d="M205.907,309.476a.364.364,0,0,0,.177.036c.033,0,.2-.006.516-.035s.634-.058.662-.057h0c1-.04,3.247-.059,3.946-.059h2.4c.16,0,.32.009.373.015a.519.519,0,0,1,.181.044c.061.04.059.089.024.147s-.1.136-.216.29c-.351.468-1.026,1.235-1.224,1.449h0a2.714,2.714,0,0,1-.384.378.487.487,0,0,1-.327.1.448.448,0,0,1-.123-.031c-.244-.073-.767-.257-1.275-.423a6.1,6.1,0,0,0-1.2-.315.972.972,0,0,0-.117.005.184.184,0,0,0-.093.033.1.1,0,0,0-.035.077.115.115,0,0,0,.025.075c.014.017.27.3.27.3l.29.3h0c.563.543.876.817,1.091,1.041a2.856,2.856,0,0,1,.521.749,1.047,1.047,0,0,0,.97.659,1.225,1.225,0,0,0,.5-.105.772.772,0,0,0,.451-.754,1.436,1.436,0,0,0-.487-1.079h0a.265.265,0,0,1-.088-.177.327.327,0,0,1,.111-.17,3.317,3.317,0,0,1,.364-.245h0c1.461-.937,2.2-1.405,2.615-1.645a1.566,1.566,0,0,1,.688-.279,1.447,1.447,0,0,0,.466-.128.339.339,0,0,0,.154-.168.456.456,0,0,0,.021-.283.478.478,0,0,0-.243-.3,5.387,5.387,0,0,0-.744-.308c-.238-.083-.468-.17-.577-.2a.746.746,0,0,0-.356-.036.676.676,0,0,0-.376.263.354.354,0,0,1-.2.106,1.423,1.423,0,0,1-.247.011c-.19,0-.473-.007-.9-.007h-2.173c-1.4,0-3.7-.039-4.419-.079h0c-.171,0-.944-.059-1.1-.059a.151.151,0,0,0-.1.029.19.19,0,0,0-.028.165c.01.052.088.361.107.492A.246.246,0,0,0,205.907,309.476Z" transform="translate(-204.63 -307.487)" fill="#3b3938"/>
          <path id="パス_5214" data-name="パス 5214" d="M206.194,315.261l-.059-.007h0c-.171,0-.944-.059-1.1-.059a.151.151,0,0,0-.1.028c-.061.053-.029.165-.029.165s.068.335.086.468a.253.253,0,0,0,.112.184.267.267,0,0,0,.162.032c.034,0,.245-.025.56-.055s.713-.043.713-.043.972-.024,1.348-.014Z" transform="translate(-204.512 -308.522)" fill="#3b3938"/>
          <path id="パス_5215" data-name="パス 5215" d="M219.735,320.417h0c-.171,0-.944-.059-1.1-.059a.149.149,0,0,0-.1.029c-.04.036-.028.165-.028.165s.075.342.093.474a.187.187,0,0,0,.117.162.368.368,0,0,0,.235.029c.109-.005.217-.026.533-.044s.671-.032.671-.032.956-.042,1.331-.031Z" transform="translate(-206.572 -309.304)" fill="#3b3938"/>
          <path id="パス_5216" data-name="パス 5216" d="M215.036,317.454c.042-.03.906-.662,1.14-.817a1.141,1.141,0,0,1,.6-.2,1.792,1.792,0,0,0,.54-.117.49.49,0,0,0,.321-.472.868.868,0,0,0-.6-.712h0c-.115-.05-.308-.125-.49-.186a4.057,4.057,0,0,0-.837-.2.627.627,0,0,0-.464.218h0a.894.894,0,0,1-.745.284h-4.128c-1.273,0-4.021-.06-4.273-.06l0,.015c-.187-.02-.921-.054-1.1-.054l-.064.037-.081.034,0,.1.036.143h0l.041.3.021.027,0,.017.124.1.133.049,1.579-.045c.933-.02,2.642-.02,3.859-.02.162.007.27.084.261.251a10.635,10.635,0,0,1-1.523,2.956c-.431.574-1.092,1.43-1.509,1.9a14.113,14.113,0,0,1-1.854,1.815c-.459.386-.663.533-.931.754-.146.12-.3.24-.395.308l-.17.142a.3.3,0,0,0-.071.146c0,.047,0,.085.026.123a.2.2,0,0,0,.209.051,1.923,1.923,0,0,0,.371-.156c.1-.053.493-.282.836-.513a31.356,31.356,0,0,0,3.449-2.721c.927-.849,1.551-1.521,1.7-1.678v0h0a.51.51,0,0,1,.214-.143.113.113,0,0,1,.132.093,2.636,2.636,0,0,1,.014.292c0,1.2,0,2.918.025,4.1,0,.592-.014.919-.2,1.085s-.587.225-1.4.223c-.17,0-.969-.059-1.124-.059,0,0-.109,0-.168,0a.284.284,0,0,0-.124.036.123.123,0,0,0-.048.119c.005.048.07.094.07.094a3.39,3.39,0,0,0,.556.182,4.246,4.246,0,0,1,1,.4.781.781,0,0,1,.287.3c.031.059,0,0,0,0l0,0a1.025,1.025,0,0,0,.206.268.578.578,0,0,0,.274.089,2.533,2.533,0,0,0,2.132-.906,2.277,2.277,0,0,0,.484-1.291c0-.494-.026-5.639-.026-6.625a8.566,8.566,0,0,1,.065-1.4.54.54,0,0,1,.058-.2c.042-.053.143-.046.143-.046l.507,0a3.182,3.182,0,0,1,.587.025.172.172,0,0,1,.125.055.114.114,0,0,1,.032.1,1.032,1.032,0,0,1-.1.315c-.09.216-.164.379-.255.587,0,0-.1.218-.142.314s-.092.187-.112.233a.712.712,0,0,0-.064.18.115.115,0,0,0,.059.118.25.25,0,0,0,.19-.016,2.168,2.168,0,0,0,.292-.153C214.852,317.581,214.994,317.484,215.036,317.454Z" transform="translate(-204.444 -308.455)" fill="#3b3938"/>
          <path id="パス_5217" data-name="パス 5217" d="M232.3,316.186a1.2,1.2,0,0,0-.154-.042c-.1-.016-.262-.041-.518-.083a27.316,27.316,0,0,1-4.1-1.143c-.675-.24-1.28-.481-1.713-.685a4.417,4.417,0,0,1-.51-.273,1.013,1.013,0,0,1-.112-.076.122.122,0,0,1-.052-.077c0-.039,0-.058.044-.1s.082-.078.115-.11.2-.187.375-.34.358-.308.419-.356h0a5.64,5.64,0,0,1,2.494-1.206h0a1.753,1.753,0,0,0,.245-.1.317.317,0,0,0,.138-.2.374.374,0,0,0-.021-.21c-.019-.042-.06-.1-.074-.132a.248.248,0,0,1-.025-.081c-.006-.045,0-.064.021-.076a.242.242,0,0,1,.1-.02l.291-.008h1.048a5.537,5.537,0,0,0,.734-.035.752.752,0,0,0,.184-.047.245.245,0,0,0,.159-.191c.009-.1-.077-.281-.714-.613a2.144,2.144,0,0,0-.49-.206c-.164-.042-.288.014-.445.2a.724.724,0,0,1-.387.21c-.507.1-2.492.052-3.315.051h-3.622s-.237-.012-.283-.02a.218.218,0,0,1-.124-.039c-.025-.021-.02-.066-.012-.1a.5.5,0,0,1,.036-.081,6.632,6.632,0,0,1,1.456-1.363h0a3.4,3.4,0,0,0,.446-.241.288.288,0,0,0,.113-.213.226.226,0,0,0-.114-.193,1.332,1.332,0,0,0-.3-.137h0c-.082-.032-.477-.158-.879-.277-.2-.06-.4-.118-.566-.161a2,2,0,0,0-.343-.073l-.136.024-.079.109-.008,0-.126.25-.13.271a15.749,15.749,0,0,1-2.783,4.211l0,0h0c-.041.05-.248.248-.338.33s-.194.176-.233.214a1.06,1.06,0,0,0-.2.214.141.141,0,0,0,.006.144.164.164,0,0,0,.164.032,2.306,2.306,0,0,0,.483-.23,11.078,11.078,0,0,0,1.463-1c.2-.162.394-.3.548-.4a.842.842,0,0,1,.319-.16.391.391,0,0,1,.314.163h0c.371.389.87,1.079,1.247,1.5.088.1.244.266.377.425l.171.222a.245.245,0,0,1,.061.137.222.222,0,0,1-.077.156,6.294,6.294,0,0,1-1.222.888c-.348.227-1.124.617-1.469.789-.328.165-.832.391-1.426.619-.281.108-.7.261-.885.33a3.567,3.567,0,0,0-.473.2c-.075.057-.087.105-.079.152a.128.128,0,0,0,.1.1.739.739,0,0,0,.253,0,17.382,17.382,0,0,0,5.563-2.073,3.865,3.865,0,0,1,.429-.251.769.769,0,0,1,.243-.057.841.841,0,0,1,.493.226v0a24.292,24.292,0,0,0,3.27,1.676c.646.289,1.263.551,1.74.742.238.1.441.173.594.227a1.454,1.454,0,0,0,.309.086.352.352,0,0,0,.292-.047c.134-.078.077-.273.114-.392s.139-.19.473-.319c.09-.035.282-.082.559-.164a1.787,1.787,0,0,0,.352-.135.435.435,0,0,0,.22-.2C232.351,316.266,232.356,316.209,232.3,316.186Zm-5.752-4.86a6.162,6.162,0,0,1-1.423,1.1c-.294.179-.583.339-.821.455a1.631,1.631,0,0,1-.491.182,1.255,1.255,0,0,1-.576-.278,8.328,8.328,0,0,1-1.125-1.013c-.168-.178-.378-.433-.415-.483s-.129-.193-.109-.161a.805.805,0,0,1-.063-.121.088.088,0,0,1,.025-.1c.041-.042.128-.036.2-.04s.21-.005.361-.005h4.032a1.8,1.8,0,0,1,.333.036c.137.035.188.107.165.228A.45.45,0,0,1,226.55,311.326Z" transform="translate(-206.395 -307.331)" fill="#3b3938"/>
          <path id="パス_5218" data-name="パス 5218" d="M229.267,319.745a4.819,4.819,0,0,0-.748-.255c-.215-.019-.278,0-.548.317a.511.511,0,0,1-.393.191,11.635,11.635,0,0,1-1.2.029h-.91a2.094,2.094,0,0,1-.45-.04.164.164,0,0,1-.115-.2c.012-.071.033-.154.033-.154a4.592,4.592,0,0,1,.306-.865v0l.106-.138.357-.346a.181.181,0,0,0,.059-.122c0-.076-.137-.156-.137-.156a5.911,5.911,0,0,0-1.392-.419c-.272-.058-.528-.107-.719-.141l-.229-.04-.065-.01-.034,0a.355.355,0,0,0-.23.041.208.208,0,0,0-.088.188.269.269,0,0,0,.025.089l.193.364a1.079,1.079,0,0,1,.1.473,6.213,6.213,0,0,1-.16.972h0a1.063,1.063,0,0,1-.144.394c-.077.094-.2.121-.475.121-.826,0-3.166-.059-3.316-.078h-.006c-.13,0-.381-.01-.52-.01l-.076.022-.056.089.025.068.1.087.071,0,.065.4-.07,0,.131.082.14.048c.034,0,.2-.015.373-.03s.359-.012.406-.012h0c.8-.039,1.658-.039,2.463-.039a1.274,1.274,0,0,1,.312.036c.125.037.126.113.118.168a1.47,1.47,0,0,1-.056.193,8.972,8.972,0,0,1-3.884,4.375c-.423.233-1.17.591-1.53.744a1.531,1.531,0,0,0-.175.1.16.16,0,0,0-.057.115c0,.054.065.087.117.091a1.632,1.632,0,0,0,.39-.037,7.889,7.889,0,0,0,2.362-.851A9.921,9.921,0,0,0,222.925,323a14.31,14.31,0,0,0,.9-1.258c.136-.217.273-.431.395-.6a1.164,1.164,0,0,1,.423-.4,1.392,1.392,0,0,1,.6-.082H227.1a1.164,1.164,0,0,1,.423.058.372.372,0,0,1,.249.384,12.4,12.4,0,0,1-.534,3.058v0a1.447,1.447,0,0,1-.665.919,1.487,1.487,0,0,1-.706.13,12.2,12.2,0,0,1-1.285-.1c-.355-.042-.866-.105-.866-.105a1.555,1.555,0,0,0-.244-.023.086.086,0,0,0-.081.083.124.124,0,0,0,.048.113,1.385,1.385,0,0,1,.744.609,1.622,1.622,0,0,0,.326.5,1.089,1.089,0,0,0,.591.186c.082.01.2.023.371.036.2.016.373.036.628.036a3.11,3.11,0,0,0,2.852-1.742h0a13.485,13.485,0,0,0,.865-3.467,1.5,1.5,0,0,1,.107-.387s.078-.143.121-.209.078-.105.119-.175a.339.339,0,0,0,.059-.2.363.363,0,0,0-.227-.3C229.933,320.037,229.417,319.8,229.267,319.745Z" transform="translate(-206.325 -308.853)" fill="#3b3938"/>
        </g>
        <g id="グループ_7024" data-name="グループ 7024" transform="translate(156.626 0.055)">
          <path id="パス_5219" data-name="パス 5219" d="M292.053,310.3a3,3,0,0,0-.716-.463c-.311-.132-.389-.182-.5-.172-.249.02-.263.17-.554.341a3.571,3.571,0,0,1-1.364.126c-.329.005-.985-.011-1.515-.011H282.48a1.57,1.57,0,0,1-.445-.046.34.34,0,0,1-.259-.266,2.812,2.812,0,0,1-.041-.65c0-.431.006-.632.118-.744l0,0,0,0,.082-.084.154-.145.089-.1a.289.289,0,0,0,.091-.186c0-.089-.1-.141-.1-.141a3.749,3.749,0,0,0-1.309-.29c-.529-.054-1.039-.072-1.194-.072a.86.86,0,0,0-.245.036.182.182,0,0,0-.113.176.586.586,0,0,0,.034.191l.147.384a2.961,2.961,0,0,1,.1.285,10.271,10.271,0,0,1,.158,1.2.38.38,0,0,1-.269.4,1.481,1.481,0,0,1-.5.059h-5.142c-.425,0-1.7-.11-2.089-.151-.586-.063-.919-.1-1.283-.126-1.09-.075-1.344-.108-1.468-.109a.269.269,0,0,0-.188.053.242.242,0,0,0-.076.163.571.571,0,0,0,.036.163,6.222,6.222,0,0,1,.2.776c.046.31.053.583.1,1.312a26.942,26.942,0,0,1,.048,2.835,15.9,15.9,0,0,1-1.5,6.658,16.989,16.989,0,0,1-2.265,3.263.8.8,0,0,0-.079.1c-.078.165.123.16.161.151a1.569,1.569,0,0,0,.479-.193,11.464,11.464,0,0,0,2.854-2.453,12.057,12.057,0,0,0,2.832-6.113,29.541,29.541,0,0,0,.442-4.6,1.953,1.953,0,0,1,.1-.812.411.411,0,0,1,.2-.176,1.39,1.39,0,0,1,.458-.057l17.867-.056a9.176,9.176,0,0,0,1.187-.035.41.41,0,0,0,.21-.078.23.23,0,0,0,.058-.2A.271.271,0,0,0,292.053,310.3Z" transform="translate(-265.264 -307.396)" fill="#3b3938"/>
          <path id="パス_5220" data-name="パス 5220" d="M291.683,315.233a2.955,2.955,0,0,0-1.065-.512c-.169,0-.251.08-.411.249a.954.954,0,0,1-.653.216c-.4.032-2.057.005-2.626.005h-3.181c-.378,0-.717-.214-.717-.564a7.311,7.311,0,0,1,.023-.743,1.623,1.623,0,0,1,.144-.652,3.154,3.154,0,0,1,.311-.329l.107-.114a.2.2,0,0,0,.053-.148c-.008-.089-.129-.151-.129-.151a4.9,4.9,0,0,0-1.322-.338c-.269-.045-.525-.08-.719-.107a3.163,3.163,0,0,0-.328-.04.447.447,0,0,0-.243.057.262.262,0,0,0-.109.234,1.344,1.344,0,0,0,.047.243s.053.194.08.315a19.631,19.631,0,0,1,.206,2.847c0,.362-.053,2.166-.053,2.57a1.242,1.242,0,0,1-.091.64c-.085.132-.259.211-.653.211h-1.8c-.5,0-1.626-.076-2.064-.121s-.778-.08-1.112-.107c-.248-.02-.535-.043-.637-.04s-.26,0-.288.155a2.442,2.442,0,0,0-.016.428c0,.176,0,.351,0,.351.013.388.03.632.031,1.513,0,.534-.132,3.337-.132,3.915a.539.539,0,0,0,.126.4c.116.115.316.133.667.133,1.193,0,1.441.007,1.5-.247.093-.377,1.282-.333,1.627-.333l9.928.054a1.246,1.246,0,0,1,.47.092.891.891,0,0,1,.32.256c.111.125.377.155.724.155.683,0,1.086,0,1.268-.233a1.459,1.459,0,0,0,.059-.606c0-.178-.154-3.632-.154-4.185v-.159a1.4,1.4,0,0,1,.02-.347.619.619,0,0,1,.125-.2c.054-.07.111-.147.15-.2a.3.3,0,0,0,.094-.25c-.019-.115-.128-.177-.231-.243s-.584-.294-.854-.409a2.167,2.167,0,0,0-.694-.182.884.884,0,0,0-.378.128,2.514,2.514,0,0,1-.338.16,2.343,2.343,0,0,1-.755.116h-4.239c-.379,0-.559-.076-.646-.182a.7.7,0,0,1-.1-.457c0-1.17.007-1.764.02-2.074a2.062,2.062,0,0,1,.025-.284.252.252,0,0,1,.049-.1.6.6,0,0,1,.249-.19,1.464,1.464,0,0,1,.4-.048h6.733c.424,0,.939-.014.983-.018a.782.782,0,0,0,.3-.073.23.23,0,0,0,.12-.209C291.89,315.363,291.753,315.288,291.683,315.233Zm-3.537,4.508c.38,0,.55.071.63.191a1.142,1.142,0,0,1,.087.6s0,3.64,0,3.72a.361.361,0,0,1-.194.284,1.141,1.141,0,0,1-.5.086l-10.889-.027a1.084,1.084,0,0,1-.593-.139.473.473,0,0,1-.182-.376c0-.135,0-2.081,0-2.72,0-.321.005-.545.008-.785l.007-.3a1.148,1.148,0,0,1,.062-.384.3.3,0,0,1,.246-.153c.238-.042,1.115-.006,1.322,0Z" transform="translate(-266.638 -308.094)" fill="#3b3938"/>
        </g>
      </g>
      <g id="グループ_7026" data-name="グループ 7026">
        <path id="パス_5221" data-name="パス 5221" d="M228.91,289.807l-.981-.334c-.489-.165-.507-.112-1-.278s-.512-.092-1-.257-.481-.184-.969-.35-.457-.255-.945-.42-.5-.14-.987-.306a6.555,6.555,0,0,1-2.053-.634c-.406-.136-.439-.131-.9-.287-.454-.049-2.592-.869-3.725-1.211a4.461,4.461,0,0,1-.554-.211c-.5-.181-.5-.162-1-.329s-.489-.2-.989-.367-.508-.137-1.006-.305-.479-.22-.977-.386-.5-.161-.991-.328-.5-.146-1-.312-.5-.149-1-.316-.5-.169-.993-.335-.491-.178-.986-.345-.5-.154-.995-.32-.482-.211-.978-.378-.5-.156-.99-.322-.5-.146-.994-.311-.509-.118-1-.284-.472-.237-.967-.4-.485-.191-.979-.356-.524-.068-1.017-.233-.472-.221-.963-.385-.478-.2-.968-.366-.518-.081-1.009-.246-.49-.173-.983-.339-.48-.208-.974-.374-.515-.106-1.009-.272-.487-.187-.981-.353-.495-.16-.989-.327-.465-.244-.958-.41-.494-.162-.987-.327-.5-.148-.992-.313-.5-.159-.989-.325-.5-.137-1-.3-.486-.188-.98-.354-.5-.133-1-.3a3.332,3.332,0,0,1-.949-.358,4.94,4.94,0,0,1-.706.314c-.519.173-.513.189-1.034.362s-.534.129-1.055.3-.538.122-1.059.3-.525.161-1.047.334-.474.319-1,.493-.556.075-1.079.249-.488.272-1.01.446l-1.043.346c-.521.174-.526.157-1.047.331s-.561.056-1.082.229-.515.189-1.035.362-.489.268-1.01.441-.548.092-1.07.266-.533.141-1.055.315-.5.232-1.025.406-.513.206-1.036.38-.535.137-1.058.311-.49.27-1.011.444-.574.022-1.1.2-.5.235-1.023.409-.506.22-1.028.394-.514.2-1.037.374-.563.061-1.086.236-.488.277-1.011.451-.535.135-1.058.309-.555.066-1.075.239-.495.244-1.014.417-.537.121-1.057.294-.482.287-1,.46-.554.083-1.077.256-.493.27-1.017.445-.557.074-1.08.248-.5.233-1.024.407-.5.234-1.026.407-.519.2-1.045.369-.523.178-1.047.353l-1.048.351c-.527.175-.584.007-1.11.183s-.487.285-1.012.461-.507.228-1.031.4-.581.005-1.106.18-.5.266-1.023.44-.506.238-1.034.414-.541.142-1.069.318l-.033.011h93.52l-.12-.042C229.4,289.983,229.4,289.973,228.91,289.807Z" transform="translate(-88.739 -248.186)" fill="#76706a"/>
        <path id="パス_5222" data-name="パス 5222" d="M138.75,262.616l.128-.038C138.84,262.588,138.8,262.6,138.75,262.616Z" transform="translate(-89.082 -246.375)" fill="#fff"/>
        <path id="パス_5223" data-name="パス 5223" d="M114.894,284.75c.525-.159.574,0,1.1-.161l1.051-.319c.526-.159.48-.3,1.006-.463s.52-.176,1.046-.336.556-.058,1.081-.216.5-.242,1.026-.4.557-.058,1.083-.216.517-.189,1.043-.349.522-.177,1.049-.335.515-.2,1.042-.36.52-.186,1.049-.345.532-.151,1.062-.311l1.059-.318c.529-.16.561-.055,1.09-.216s.5-.25,1.028-.41.521-.182,1.049-.34.526-.163,1.053-.322.531-.148,1.058-.308.542-.112,1.07-.272.552-.076,1.081-.236.488-.289,1.017-.449.569-.031,1.1-.191.513-.218,1.043-.378.558-.068,1.087-.227.491-.281,1.02-.44.539-.127,1.068-.287.542-.114,1.071-.273.535-.138,1.065-.3.5-.253,1.03-.413.525-.176,1.056-.336.535-.145,1.064-.305.537-.133,1.067-.294.508-.217,1.034-.376.566-.025,1.092-.184.508-.217,1.035-.376.512-.21,1.039-.37.518-.2,1.047-.361.543-.124,1.074-.284.568-.034,1.1-.193.517-.2,1.045-.359.51-.227,1.039-.387.513-.224,1.045-.384.564-.054,1.1-.216.527-.172,1.058-.332.546-.118,1.079-.278.53-.165,1.062-.327.526-.178,1.058-.339.5-.255,1.032-.415.579-.015,1.112-.176.485-.324,1.019-.485.589,0,1.114-.2a6.85,6.85,0,0,1,1.544-.675c.511-.052.367.088.878.144s.363.155.873.211.5.117,1.013.173.322.153.833.21.379.124.893.18a2.03,2.03,0,0,1,.742.19.887.887,0,0,1,.294.179c.043.03.074.1.119.127a4.6,4.6,0,0,1,.48.232c.227.1.328.144.484.2.139.037.272.059.537.147.2.068.322.106.427.138s.216.054.4.115c.452.151.491.149.882.278.28.053.6.1.843.162.325.081.561.076.929.146a3.055,3.055,0,0,0,.436.088c.339.044.694.066,1.06.092.343.025.7.02,1.062.025.347.005.7.006,1.065-.01.348-.015,1.366-.063,1.728-.1s.647-.143,1.006-.2c.344-.058.694-.14,1.049-.221s.667-.16,1.017-.261.793-.2,1.136-.324c-.507.175-.507.2-1,.367.285-.1.352-.129.753-.26.485-.158.5-.112.984-.27s.49-.141.974-.3.457-.242.939-.4.5-.119.981-.276.5-.108.983-.266.457-.239.94-.4.478-.177.961-.334.488-.15.972-.308.5-.107.988-.266.485-.162.971-.321.5-.113.986-.271.453-.255.939-.413.5-.119.982-.277.488-.148.972-.306.464-.221.95-.379.513-.076,1-.234.458-.242.945-.4.513-.075,1-.233.491-.139.977-.3.489-.141.971-.3.466-.209.948-.366.462-.222.944-.379.518-.052,1-.209.473-.2.958-.361.5-.1.992-.263.467-.217.952-.375.495-.127.98-.286.488-.152.974-.311.49-.149.979-.309.456-.254.942-.412.509-.092,1-.25.482-.178.972-.338.476-.192.964-.35.482-.177.969-.336.491-.145.978-.3.493-.148.982-.306.513-.088,1-.248.456-.255.95-.406c.277-.086.58-.186.916-.257a2.532,2.532,0,0,1,.887-.283,3.89,3.89,0,0,1,1.023.184c.48.109.418.176.9.286s.479.12.961.229.568.188,1.047.311c.231.059.317.339.524.42.108.025.164.055.365.123.489.163.495.148.983.311l.972.324c.487.163.492.147.979.311s.468.222.955.385.485.173.972.336.49.151.977.315.5.12.988.283.47.215.957.378.507.1.991.261.473.2.957.363.489.15.974.312.468.22.955.382.493.139.978.3.479.177.961.338.495.124.977.285.495.123.976.284.468.2.95.364.492.138.978.3.488.154.972.316.466.223.951.385.482.176.967.338.5.126.981.289.5.126.98.288.462.226.947.388.5.12.983.282.476.19.961.352.5.119.986.281.5.132.981.294.457.239.941.4.482.169.966.331.512.074,1,.236a2.638,2.638,0,0,1,.25.1V248.364a4.88,4.88,0,0,0-4.88-4.88H85.1a4.881,4.881,0,0,0-4.881,4.881v18.667c.108-.034.217-.067.327-.1.323-.092.653-.182.987-.277s.662-.153.995-.247l.987-.281c.326-.093.651-.2.983-.293s.661-.166.993-.261.644-.213.973-.306.668-.137,1-.23.642-.238.972-.331.7-.045,1.025-.139.618-.328.946-.422.7-.042,1.032-.136.62-.331.951-.424-.266.071.066-.024.637-.272.967-.367.647-.238.978-.332.7-.058,1.029-.151.654-.222.984-.316.648-.243.978-.336.692-.089,1.022-.182.642-.268.97-.361.654-.227.983-.32.683-.126,1.01-.218.679-.141,1-.233.638-.286.962-.378.666-.187.989-.278l.987-.283c.338-.1.662-.213.983-.3.34-.1.686-.137,1.006-.229.341-.1.649-.267.968-.358.344-.1.68-.168.993-.257.35-.1.513-.22.821-.307.36-.1.7-.157,1-.243.38-.109.689-.278.964-.356a7.851,7.851,0,0,1,1.769-.6,8.154,8.154,0,0,1,1.157.173c.53.075.19.093.721.169s.485.16,1.017.234.367.207.9.265a.741.741,0,0,1,.4.261.923.923,0,0,0,.276.179c.07.034.141.068.218.1a7.379,7.379,0,0,0,.964.376c.49.164.507.111,1,.275.255.085.378.122.507.16a2.93,2.93,0,0,1,.347.067c.3.069.644.127,1.017.185.318.049.658.111,1.026.146.324.031.668.055,1.03.07.329.014.675.022,1.034.019q.5-.006,1.034-.036c.334-.02.679-.051,1.034-.087.334-.033.675-.087,1.028-.137.334-.047.678-.092,1.029-.156.333-.06.677-.107,1.024-.182.332-.073.67-.162,1.015-.25.33-.084.737-.1,1.08-.2.092-.038.2-.08.378-.136.49-.156.519-.064,1.01-.221s.47-.217.961-.373.484-.176.973-.333.514-.084,1-.24.47-.223.961-.379.483-.182.974-.339.527-.044,1.019-.2.479-.2.972-.361.5-.115,1-.272.46-.255.951-.413.522-.059,1.012-.216.483-.185.974-.341.485-.179.976-.336.514-.089,1.006-.246.467-.241.96-.4.513-.09,1.006-.247.468-.23.961-.387.5-.132.985-.289.49-.147.979-.3.49-.154.979-.311.492-.152.982-.308.48-.2.972-.352.5-.154.989-.312.486-.173.979-.33.5-.129.992-.286.485-.182.977-.339.491-.168.986-.325.521-.072,1.015-.23.462-.251.956-.409.5-.133,1-.291.5-.127,1-.285.512-.1,1.006-.26.454-.28.947-.437.521-.079,1.017-.237.238-.076.733-.238c.19-.062.42-.149.825-.27.5-.149.608-.282,1.112-.424,0,0,.057-.023.117-.041a1.486,1.486,0,0,1,.25-.017c.483.111.5.113.978.235.277.071.535.109,1.019.216s.409.143.9.248a3.188,3.188,0,0,1,.631.174c.163.072.209.22.348.268.766.2,2.814.86,3.254,1.038.483.193.472.221.966.384s.5.132.994.3.482.189.974.351.481.182.97.344.5.125.992.286.492.152.983.314.486.176.978.338.5.122.99.283.469.221.959.383.483.184.973.345.511.092,1,.254l.976.32c.487.162.468.219.956.379s.486.172.976.333.5.13.986.29.474.2.959.359.507.1.992.256.465.217.95.376.5.109.986.268.482.178.969.34.485.168.972.33.482.181.971.343.508.1,1,.26.462.235.949.4.49.155.977.316.482.171.97.333.508.094,1,.255.493.147.978.313.468.19.944.359,1.124.363,1.6.532l1.7.606c.474.168,1.5.408,1.977.576.318.113.515.107.722.177.1.033.52.162.28.289-.16.084-.591.088-1,.21a1.262,1.262,0,0,1-.848.027,7.769,7.769,0,0,1-1.6-.44c-.459-.179-1.381-.393-1.933-.58-.489-.165-1.117-.419-1.605-.584s-.479-.2-.967-.361-.514-.08-1-.244-.48-.182-.967-.345-.468-.22-.956-.384-.512-.1-1-.26-.462-.234-.949-.4-.5-.11-.99-.275-.488-.161-.975-.325-.488-.156-.973-.32-.462-.228-.946-.392-.5-.116-.985-.28-.484-.174-.97-.339l-.97-.326c-.484-.163-.482-.167-.965-.33s-.49-.14-.972-.3-.487-.146-.968-.309-.468-.2-.95-.364-.5-.13-.98-.294-.473-.2-.958-.361-.481-.177-.967-.341l-.97-.327c-.484-.164-.493-.138-.977-.3s-.489-.148-.972-.312-.468-.209-.952-.373-.49-.146-.974-.31-.468-.211-.953-.375-.489-.153-.974-.317-.478-.184-.962-.348-.491-.139-.975-.3-2.94-.925-3.423-1.089a6.083,6.083,0,0,0-.667-.144,3.753,3.753,0,0,1-.372.145c-.487.163-.516.077-1,.24s-.483.172-.971.335-.479.181-.966.343-.477.19-.963.352-.471.206-.956.368-.5.132-.981.294-.488.156-.974.318-.512.086-1,.248-.473.2-.959.367-.463.237-.95.4-.494.148-.982.31-.483.176-.971.339-.486.165-.972.328-.52.065-1.006.227-.467.222-.954.385l-.975.322c-.488.164-.495.143-.983.306s-.486.171-.974.333-.468.224-.955.387-.516.076-1,.239-.466.219-.95.381-.484.164-.967.326-.479.18-.964.342-.517.07-1,.232-.468.224-.955.387-.485.18-.974.344l-.976.325c-.486.163-.49.154-.977.316s-.495.143-.983.3-.5.132-.992.294-.459.251-.949.415-.525.054-1.014.217-.5.15-.987.314-.451.278-.941.442-.487.171-.977.333-.529.047-1.017.21-.456.272-.947.435-.52.08-1.012.244l-.037.013c-.189.084-.393.171-.561.236a3.4,3.4,0,0,0-1.059.471.758.758,0,0,0-.189.976c.115.247.272.265.668.569a7.97,7.97,0,0,0,.955.466c.206.057.311.071.655.187.482.16.495.123.976.283s.468.2.95.365.492.138.978.3.488.154.972.316.466.223.951.385.482.175.967.338.5.126.981.289.5.126.98.288.462.226.947.387.5.12.983.283.476.189.961.352.5.119.986.281.5.131.981.294.457.238.941.4.482.169.966.33.512.075,1,.237,1.46.529,1.942.691.185.038.672.188c.2.062.331.056.44.1s.294.241.03.3c-.022.005-.348.042-.721.1a3.1,3.1,0,0,1-1.168.119,10.413,10.413,0,0,1-1.848-.636c-.423-.17-.125-.056-.554-.212-.495-.181-.5-.161-1-.329s-.489-.2-.989-.367-.507-.137-1.006-.3-.479-.22-.977-.386-.5-.162-.991-.328-.5-.146-1-.313-.5-.149-1-.316-.5-.169-.993-.335-.491-.178-.986-.344-.5-.155-.995-.321-.481-.211-.978-.378-.5-.157-.991-.322-.5-.146-.993-.312-.51-.118-1-.283-.472-.238-.967-.4-.485-.191-.98-.357-.524-.068-1.017-.233-.472-.221-.963-.385-.478-.2-.968-.365-.518-.082-1.008-.247-.49-.172-.984-.339-.48-.208-.973-.373-.515-.106-1.01-.272-.486-.187-.98-.352-.5-.161-.989-.327-.466-.244-.959-.411-.494-.161-.986-.327-.5-.148-.993-.313-.5-.159-.989-.324-.5-.138-1-.3-.486-.188-.979-.354-.5-.133-1-.3a9.912,9.912,0,0,1-.965-.335c-.057.014-.12.031-.194.056-.49.158-.5.139-.986.3s-.5.137-.989.3-.452.277-.944.435-.518.07-1.009.227-.462.245-.952.4-.52.063-1.01.22-.47.216-.96.373-.513.084-1,.242-.445.291-.934.449-.537.011-1.027.169-.471.221-.961.379-.479.194-.971.352-.5.121-1,.278-.5.129-.992.287-.484.179-.974.336-.476.2-.967.361-.5.112-1,.27-.469.223-.961.381-.513.092-1,.25-.484.185-.975.343-.5.148-.987.306-.479.2-.97.353-.52.059-1.007.216-.447.288-.934.444-.495.138-.983.3-.517.072-1.006.23-.461.255-.952.412-.5.126-1,.285-.5.135-.99.293-.474.21-.965.368-.526.053-1.017.211-.476.216-.97.375-.471.227-.963.385-.506.118-1,.277-.511.109-1.006.268-.5.15-.989.31-.5.125-1,.285h0v10.011A4.881,4.881,0,0,0,85.1,285.49h27.833c.426-.13.458-.148.948-.3C114.407,285.034,114.367,284.908,114.894,284.75Z" transform="translate(-80.218 -243.484)" fill="#76706a"/>
        <path id="パス_5224" data-name="パス 5224" d="M282.718,272.35c-.495-.18-.5-.161-1-.329s-.49-.2-.989-.367-.507-.137-1.006-.3-.479-.22-.978-.386l-.1-.032a4.1,4.1,0,0,1-.8-.264l-.093-.031c-.5-.166-.5-.146-1-.312s-.5-.149-1-.316l-.992-.334c-.5-.167-.492-.179-.987-.344s-.5-.154-.995-.321-.481-.211-.978-.378-.5-.157-.991-.322-.5-.146-.993-.311-.51-.119-1-.284-.472-.238-.967-.4c-.406-.136-.473-.177-.757-.279-.209-.064-.309-.086-.571-.171a3.166,3.166,0,0,1-.668-.14c-.491-.165-.472-.221-.963-.385-.473-.16-.479-.2-.918-.349-.1-.028-.182-.053-.306-.092a5.466,5.466,0,0,1-.753-.171c-.493-.166-.49-.173-.984-.339s-.479-.209-.973-.374-.515-.106-1.009-.272-.487-.187-.981-.353-.495-.16-.989-.327c-.473-.158-.468-.238-.9-.39a5.093,5.093,0,0,1-.568-.157,3.26,3.26,0,0,1-.431-.175l-.043-.014c-.494-.166-.5-.148-.993-.314l-.242-.08c-.072-.019-.157-.043-.265-.08-.069-.023-.126-.044-.178-.064l-.3-.1c-.495-.166-.5-.138-1-.3s-.485-.188-.979-.353c-.1-.034-.182-.059-.25-.081l-.07-.014c-.482.162-.473.2-.961.365s-.514.1-1.006.266-.483.2-.976.365-.5.138-1,.3-.482.2-.974.364-.489.178-.981.343-.49.171-.982.336-.493.162-.984.327-.5.147-.989.312-.5.154-.987.319-.506.126-1,.29-.488.18-.981.345-.464.252-.958.418-.518.1-1.012.262-.5.16-.989.325-.49.175-.983.339-.493.164-.987.329-.482.2-.974.362-.5.133-1,.3-.457.277-.95.443-.52.089-1.015.255-.5.143-.995.309-.459.269-.952.434-.493.157-.983.322-.491.162-.982.327-.5.135-.992.3-.5.146-.989.311-.51.119-1,.284-.494.173-.989.339-.5.162-.989.328-.485.188-.979.354-.494.163-.988.328-.478.223-.974.39-.493.172-.988.339-.527.074-1.022.24-.5.158-1,.324-.457.287-.952.453a1.972,1.972,0,0,1-.515.108c-.169.108-.479.221-.963.477a4.867,4.867,0,0,0-.83.388c-.317.234-.776.491-.866.693a1.191,1.191,0,0,0-.008,1.021,2.559,2.559,0,0,0,.969.9l.024.008.019.006a.213.213,0,0,0,.037.008l-.02,0c.092.031.165.056.228.079.14.035.262.063.532.153a5.168,5.168,0,0,1,.509.2,4.72,4.72,0,0,1,.636.163c.485.163.485.159.971.322.361.12.446.173.666.26l.118.039c.109.036.192.067.261.1.4.14.414.191.869.344.485.162.507.1.992.263s.488.153.973.317.5.1.988.266.483.166.967.329.455.249.939.412.488.154.973.317.5.112.989.275a2.116,2.116,0,0,1,.338.141c.111.03.233.064.446.135a5.127,5.127,0,0,1,.683.3,4.126,4.126,0,0,1,.452.129c.484.162.5.115.983.277a2.783,2.783,0,0,1,.381.154,2.5,2.5,0,0,1,.4.1,2.465,2.465,0,0,1,.538.251,4,4,0,0,1,.608.153,4.449,4.449,0,0,1,.646.288l.684.212a2.618,2.618,0,0,1,.61.129c.484.162.478.181.961.343s.492.14.977.3.494.137.979.3l.38.131.4.123c.2.062.331.055.44.1.077.031,1.314.51,1.945.81.223.076.314.109.674.229.483.162.5.1.984.266s.479.172.961.333.476.176.958.339.457.236.938.4.489.141.97.3.494.125.976.287l.07.023H279.3a4.88,4.88,0,0,0,4.88-4.881V272.856c-.332-.113-.644-.216-.9-.294A4.526,4.526,0,0,1,282.718,272.35Z" transform="translate(-100.175 -246.277)" fill="#76706a"/>
      </g>
    </g>
  </g>
</svg>
