<svg xmlns="http://www.w3.org/2000/svg" width="279.427" height="296.068" viewBox="0 0 279.427 296.068">
  <g id="circle_sp" transform="translate(-10475 687.64)">
    <g id="グループ_7115" data-name="グループ 7115">
      <g id="グループ_7108" data-name="グループ 7108" transform="translate(-3)">
        <path id="パス_5366" data-name="パス 5366" d="M68.214,0A68.214,68.214,0,1,1,0,68.214,68.214,68.214,0,0,1,68.214,0Z" transform="translate(10550 -658)" fill="#fff"/>
        <g id="グループ_7111" data-name="グループ 7111" transform="translate(0 2.927)">
          <path id="パス_5369" data-name="パス 5369" d="M-2.763,0q-.126,0-.126-.252,0-.27.126-.27h.288a3.194,3.194,0,0,0,1.422-.27.89.89,0,0,0,.54-.846V-10.26a1.786,1.786,0,0,0-.1-.729.606.606,0,0,0-.468-.252A9.776,9.776,0,0,0-2.457-11.3h-.306q-.126,0-.126-.27,0-.252.126-.252a5.682,5.682,0,0,0,2.016-.333A5.11,5.11,0,0,0,.927-13.23V-1.638q0,1.116,1.962,1.116h.27a.1.1,0,0,1,.1.063.57.57,0,0,1,.027.207Q3.285,0,3.159,0Z" transform="translate(10617.889 -613.697)" fill="#333"/>
          <path id="パス_5368" data-name="パス 5368" d="M-24.29-11.242l.119-.161a1.432,1.432,0,0,1,.133-.161.161.161,0,0,1,.112-.056.791.791,0,0,1,.329.189,3.825,3.825,0,0,1,.455.413q.21.224.21.322-.056.224-.35.224h-1.106a13.253,13.253,0,0,0-2.044.2l-.364-.714q.63.084,1.54.112h.714Zm3.08,4.69q0,1.568-.119,2.842a11.31,11.31,0,0,1-.546,2.548,6.722,6.722,0,0,1-1.281,2.268l-.21-.14a9.183,9.183,0,0,0,1.085-3.255,30.261,30.261,0,0,0,.259-4.249V-8.932a15.486,15.486,0,0,0-.154-2.464l1.12.5h4.7l.182-.28q.028-.042.084-.119a1.026,1.026,0,0,1,.1-.119.134.134,0,0,1,.1-.042.934.934,0,0,1,.35.175,4.009,4.009,0,0,1,.49.378q.224.2.224.3a.916.916,0,0,1-.56.28V-.224a2.028,2.028,0,0,1-.091.672.805.805,0,0,1-.392.42,2.482,2.482,0,0,1-.889.238,2.359,2.359,0,0,0-.1-.406.469.469,0,0,0-.182-.238A2.326,2.326,0,0,0-18.158.1V-.126q1.358.112,1.61.112a.382.382,0,0,0,.259-.07.31.31,0,0,0,.077-.238v-10.15h-5Zm3.444-2.338q.042-.056.1-.154a.657.657,0,0,1,.112-.14.159.159,0,0,1,.1-.042q.126,0,.476.343t.35.5a.3.3,0,0,1-.336.224h-1.568v1.638h.742l.224-.35q.042-.056.1-.161a.825.825,0,0,1,.112-.154.147.147,0,0,1,.1-.049q.126,0,.5.364t.371.518q-.056.224-.35.224h-1.918a14.186,14.186,0,0,0-2.1.2l-.364-.7a9.993,9.993,0,0,0,1.232.112h.56V-8.162h-.476a2.023,2.023,0,0,0-.784.2l-.364-.714a8.371,8.371,0,0,0,1.12.112h.5a12.085,12.085,0,0,0-.1-1.694q1.176.378,1.176.56,0,.056-.1.126l-.2.14v.868h.532Zm-7.9.168a5.62,5.62,0,0,0-1.316.2l-.35-.7q.77.084,1.862.112h1.484l.252-.378q.056-.07.112-.154A1.344,1.344,0,0,1-23.5-9.8a.171.171,0,0,1,.119-.07.819.819,0,0,1,.336.2,3.986,3.986,0,0,1,.462.42q.21.224.21.322-.056.21-.336.21Zm1.456,1.05q.028-.042.1-.14a.872.872,0,0,1,.126-.147.171.171,0,0,1,.112-.049q.14,0,.525.35t.385.5a.3.3,0,0,1-.336.224h-1.092a13.253,13.253,0,0,0-2.044.2l-.364-.728q.658.084,1.6.112h.756Zm0,1.792q.042-.056.112-.154a1.212,1.212,0,0,1,.119-.147.147.147,0,0,1,.1-.049q.14,0,.525.357t.385.511q-.056.21-.336.21h-1.092a13.253,13.253,0,0,0-2.044.2l-.364-.7q.672.084,1.6.112h.756Zm6.258.56q.028-.042.091-.119a.959.959,0,0,1,.112-.119.159.159,0,0,1,.1-.042q.14,0,.525.343t.385.5a.818.818,0,0,1-.532.266v1.036q.028,1.274.084,2a.7.7,0,0,1-.3.245.921.921,0,0,1-.413.119.135.135,0,0,1-.126-.084.433.433,0,0,1-.042-.2A1.632,1.632,0,0,0-18-1.582v-.252h-1.68v.266q.014.154.021.273a1.043,1.043,0,0,0,.021.175q-.028.112-.238.224a.911.911,0,0,1-.434.112.165.165,0,0,1-.14-.084.345.345,0,0,1-.056-.2q.056-.5.084-1.26v-.784a14.49,14.49,0,0,0-.154-2.38l.966.448h1.47ZM-18-2.24V-4.634h-1.68V-2.24ZM-24-4.046l.091-.133a.715.715,0,0,1,.112-.133.159.159,0,0,1,.1-.042.791.791,0,0,1,.329.189,4.213,4.213,0,0,1,.455.406q.21.217.21.315a.981.981,0,0,1-.56.266v1.106q.028,1.344.084,2.128a.737.737,0,0,1-.322.252,1.025,1.025,0,0,1-.448.126q-.168,0-.168-.28a.52.52,0,0,0,.021-.091,1.044,1.044,0,0,1,.021-.105V-.28H-25.83V.042q.042.518.056.574a.51.51,0,0,1-.266.245,1,1,0,0,1-.476.119A.165.165,0,0,1-26.656.9a.345.345,0,0,1-.056-.2q.056-.574.084-1.428V-1.6A17.114,17.114,0,0,0-26.8-4.228l1.036.476h1.568Zm-1.834.714V-.686h1.764V-3.332Zm13.65-8.3a3.444,3.444,0,0,1,1.638.623,1.206,1.206,0,0,1,.532.889.523.523,0,0,1-.126.364.414.414,0,0,1-.322.14.717.717,0,0,1-.336-.1,3.01,3.01,0,0,0-.6-.938,6.122,6.122,0,0,0-.9-.854Zm9.394.434.091-.133a.715.715,0,0,1,.112-.133.159.159,0,0,1,.105-.042q.14,0,.525.35t.385.5a.8.8,0,0,1-.5.238v1.61q.028,1.652.112,3.122a1.03,1.03,0,0,1-.336.231,1.173,1.173,0,0,1-.5.1h-.126v-.658H-7.9v.56q0,.07-.21.168a1.184,1.184,0,0,1-.5.1.182.182,0,0,1-.147-.084.318.318,0,0,1-.063-.2q.07-.728.1-1.946v-1.12A18.315,18.315,0,0,0-8.9-11.4l1.148.5h4.774Zm-.14,2.534v-1.82H-7.9v1.82Zm-9.366,5.782a.308.308,0,0,0,.182-.042.664.664,0,0,0,.14-.238q.224-.5,2.506-6.09l.266.07q-.2.56-.364,1.106-1.274,3.808-1.47,4.55a4.353,4.353,0,0,0-.2,1.2,2.227,2.227,0,0,0,.063.5q.063.273.077.329.1.434.154.777a4.757,4.757,0,0,1,.056.763,1.263,1.263,0,0,1-.2.756.647.647,0,0,1-.553.28q-.364,0-.406-.686a13.185,13.185,0,0,0,.084-1.386q0-1.19-.28-1.372a.79.79,0,0,0-.28-.14,2.77,2.77,0,0,0-.378-.07v-.308ZM-13.1-8.512a3.091,3.091,0,0,1,1.512.56,1.123,1.123,0,0,1,.49.84.53.53,0,0,1-.126.357.391.391,0,0,1-.308.147.651.651,0,0,1-.336-.112A2.523,2.523,0,0,0-12.39-7.6a4.711,4.711,0,0,0-.84-.784Zm5.208.266v1.834h4.97V-8.246ZM-2.212-.322q.056-.07.133-.189a1.108,1.108,0,0,1,.133-.175.161.161,0,0,1,.112-.056.869.869,0,0,1,.35.217,4.617,4.617,0,0,1,.49.462Q-.77.182-.77.28-.784.5-1.106.5H-7.952a14.186,14.186,0,0,0-2.1.2l-.35-.728q.77.084,1.862.112H-7.1V-2.422a18.315,18.315,0,0,0-.182-2.87q1.344.392,1.344.588,0,.07-.112.14l-.224.154V.084h1.456V-2.422A18.315,18.315,0,0,0-5-5.292q1.33.392,1.33.588,0,.07-.112.14L-4-4.41V.084h1.526ZM-1.694-4.2q.588.126.588.28,0,.056-.154.126l-.238.1A13.75,13.75,0,0,1-3.29-.77l-.2-.126.28-.756a15.434,15.434,0,0,0,.434-1.519,8.05,8.05,0,0,0,.224-1.393ZM-9.45-4.382A4.7,4.7,0,0,1-8.162-3.024a2.606,2.606,0,0,1,.406,1.288,1.1,1.1,0,0,1-.14.588.408.408,0,0,1-.35.224.6.6,0,0,1-.406-.21,4.684,4.684,0,0,0-.28-1.582,8.647,8.647,0,0,0-.7-1.568ZM6.44-9.87l.133-.175a1.859,1.859,0,0,1,.147-.175.161.161,0,0,1,.112-.056.914.914,0,0,1,.357.21,4.266,4.266,0,0,1,.5.455q.231.245.231.343-.042.224-.35.224h-4.4a14.186,14.186,0,0,0-2.1.2l-.35-.728q.77.084,1.862.112H3.822a15.725,15.725,0,0,0-.14-2.338q1.386.378,1.386.588,0,.07-.126.14L4.7-10.92v1.456H6.16Zm5.39,1.386q.042-.042.147-.168t.189-.126A.8.8,0,0,1,12.5-8.6a3.335,3.335,0,0,1,.448.4q.2.217.2.315a.828.828,0,0,1-.56.224Q12.544-3.934,12.348-2a5.372,5.372,0,0,1-.616,2.45,1.685,1.685,0,0,1-1.4.616.863.863,0,0,0-.21-.672A2.714,2.714,0,0,0,9,.028l.014-.252Q10.15-.1,10.584-.1a.861.861,0,0,0,.287-.035.564.564,0,0,0,.189-.133,4.574,4.574,0,0,0,.476-2.149q.154-1.813.224-5.369H9.8a23.587,23.587,0,0,1-.392,3.605A9.021,9.021,0,0,1,8.3-1.3,7.9,7.9,0,0,1,6.048,1.078L5.838.826A7.762,7.762,0,0,0,7.693-1.519a10.033,10.033,0,0,0,.931-2.807,23.874,23.874,0,0,0,.322-3.458H8.372a2.99,2.99,0,0,0-.952.2L7.056-8.3a11.045,11.045,0,0,0,1.288.112h.6l.014-.574q.014-.7-.035-1.512a13.075,13.075,0,0,0-.147-1.386,9.711,9.711,0,0,1,1.113.161q.315.077.315.161,0,.056-.112.126l-.238.154-.014.952q0,.658-.028,1.918h1.792ZM3.486-8.33q.532.2.532.336,0,.056-.154.1l-.252.042A9.332,9.332,0,0,1,2.534-6.391a8.778,8.778,0,0,1-1.4,1.3L.98-5.264a6.993,6.993,0,0,0,.644-.868,9.149,9.149,0,0,0,.693-1.316A5.752,5.752,0,0,0,2.73-8.764Zm1.652-.126A4.045,4.045,0,0,1,6.8-7.511,1.62,1.62,0,0,1,7.336-6.44a.621.621,0,0,1-.126.406.4.4,0,0,1-.322.154.594.594,0,0,1-.364-.126,3.429,3.429,0,0,0-.56-1.2,6.171,6.171,0,0,0-.98-1.134Zm-.532,5.7A11.872,11.872,0,0,1,2.982-.609,9.808,9.808,0,0,1,.9,1.064L.77.9a9.953,9.953,0,0,0,1.848-1.9,13.23,13.23,0,0,0,1.414-2.38,17.426,17.426,0,0,0-2-1.778l.14-.14A13.341,13.341,0,0,1,4.354-4.1,9.506,9.506,0,0,0,4.7-5.215a5.9,5.9,0,0,0,.182-1.071q1.372.434,1.372.616,0,.056-.14.1l-.266.084a12.783,12.783,0,0,1-.8,1.918A5.1,5.1,0,0,1,6.167-2.317a2.163,2.163,0,0,1,.357,1.043.648.648,0,0,1-.1.378.308.308,0,0,1-.266.14.709.709,0,0,1-.336-.112A6.5,6.5,0,0,0,4.606-2.758Zm20.9-1.96q.056-.07.147-.2T25.8-5.1a.155.155,0,0,1,.112-.063,1.054,1.054,0,0,1,.385.224,5.629,5.629,0,0,1,.567.483q.266.259.266.357-.056.224-.35.224H21.84a9.53,9.53,0,0,0,2.408,2.142,12.076,12.076,0,0,0,3.01,1.428l-.028.154a.87.87,0,0,0-.476.245A1.1,1.1,0,0,0,26.46.6a10.749,10.749,0,0,1-2.821-1.834A10,10,0,0,1,21.5-3.878h-.1v1.554q.042,1.96.1,3.038a.9.9,0,0,1-.322.259,1.119,1.119,0,0,1-.532.119.254.254,0,0,1-.182-.084.269.269,0,0,1-.084-.2q.1-1.218.126-2.716V-3.416a11.657,11.657,0,0,1-2.443,2.331,15.423,15.423,0,0,1-3.2,1.757l-.126-.2A14.614,14.614,0,0,0,17.521-1.47a13.382,13.382,0,0,0,2.163-2.408H17.262a14.186,14.186,0,0,0-2.1.2l-.364-.7q.77.084,1.862.112h3.85V-5.964H17.528v.42q0,.084-.231.189a1.154,1.154,0,0,1-.483.105.212.212,0,0,1-.168-.084.3.3,0,0,1-.07-.2q.07-.728.1-1.946V-8.6a18.315,18.315,0,0,0-.182-2.87l1.12.5h6.72l.21-.252q.042-.042.133-.154a.244.244,0,0,1,.175-.112.841.841,0,0,1,.329.161,3.409,3.409,0,0,1,.455.357q.21.2.21.294a.946.946,0,0,1-.21.147.962.962,0,0,1-.308.1v1.582q.028,1.624.112,3.08a1.068,1.068,0,0,1-.371.259,1.129,1.129,0,0,1-.483.133h-.126v-.6H21.406V-4.27H25.2Zm-5-3.976v-1.848H17.528v1.848Zm3.948,0v-1.848H21.406v1.848Zm-6.93.406V-6.37H20.51V-8.288Zm3.878,0V-6.37h3.052V-8.288ZM-8.862,12.094a3.8,3.8,0,0,1,1.232.21.766.766,0,0,1,.616.742.363.363,0,0,1-.119.287.369.369,0,0,1-.245.1.6.6,0,0,1-.49-.224,2.648,2.648,0,0,0-.455-.476,2.261,2.261,0,0,0-.6-.308,1.493,1.493,0,0,0-.21-.063.833.833,0,0,1-.161-.049.09.09,0,0,1-.063-.084Q-9.352,12.094-8.862,12.094Zm-5.18,3.332a1.411,1.411,0,0,1,1.239.567,2.7,2.7,0,0,1,.4,1.575A9.34,9.34,0,0,1-12.558,19a10.826,10.826,0,0,1-.476,1.834,3.666,3.666,0,0,1-.8,1.386,3.009,3.009,0,0,1-.518.42.919.919,0,0,1-.476.168.369.369,0,0,1-.315-.14,1.327,1.327,0,0,1-.175-.322q-.07-.182-.1-.238a4.475,4.475,0,0,0-.672-1.064.555.555,0,0,1-.154-.252q0-.028.042-.028a2.4,2.4,0,0,1,.546.308l.252.168a2.574,2.574,0,0,0,.364.238.621.621,0,0,0,.28.07q.476,0,.847-.756a7.463,7.463,0,0,0,.581-1.757,8.3,8.3,0,0,0,.21-1.631q0-1.47-.91-1.47a4.166,4.166,0,0,0-1.638.5,17.1,17.1,0,0,1-2.1,5.25,1.838,1.838,0,0,1-.392.483.644.644,0,0,1-.406.175.363.363,0,0,1-.266-.112.38.38,0,0,1-.112-.28,2.138,2.138,0,0,1,.546-1.106,11.006,11.006,0,0,0,1.932-4.06,6.6,6.6,0,0,1-1.708.6,1.144,1.144,0,0,1-.595-.182,1.662,1.662,0,0,1-.5-.455.893.893,0,0,1-.2-.511q0-.126.07-.126a.477.477,0,0,1,.175.056q.119.056.189.084a2.041,2.041,0,0,0,.812.168,3.872,3.872,0,0,0,.924-.119q.378-.1,1.022-.343a7.481,7.481,0,0,0,.2-1.526,1.627,1.627,0,0,0-.294-1.064q-.1-.112-.259-.28t-.161-.224q0-.084.119-.126a.917.917,0,0,1,.3-.042,2.039,2.039,0,0,1,.56.084,1.423,1.423,0,0,1,.462.21.557.557,0,0,1,.224.448,2.354,2.354,0,0,1-.084.448q-.07.28-.112.546-.1.728-.2,1.274A4.744,4.744,0,0,1-14.042,15.426Zm3.892-1.862q-.042-.014-.147-.042a.493.493,0,0,1-.154-.063.107.107,0,0,1-.049-.091q0-.14.448-.14a3.1,3.1,0,0,1,1.281.273.87.87,0,0,1,.609.805A.366.366,0,0,1-8.3,14.6a.473.473,0,0,1-.315.112.494.494,0,0,1-.448-.252,2.685,2.685,0,0,0-.469-.567A1.617,1.617,0,0,0-10.15,13.564ZM-11,15.3a4.01,4.01,0,0,1,1.771.42,2.579,2.579,0,0,1,1,.882,1.822,1.822,0,0,1,.308.938,1.3,1.3,0,0,1-.273.833.75.75,0,0,1-.567.343.5.5,0,0,1-.308-.1,1.955,1.955,0,0,0-.168-.119,1.269,1.269,0,0,0-.532-.2q-.336-.056-.8-.112-.2-.028-.2-.084t.168-.084q.91-.1.952-.1a1.521,1.521,0,0,0,.525-.168.358.358,0,0,0,.147-.322A1.635,1.635,0,0,0-9.6,16.2a3.308,3.308,0,0,0-1.442-.756q-.126-.028-.126-.084T-11,15.3Zm12.194.532a4.613,4.613,0,0,1,1.995.42,3.3,3.3,0,0,1,1.407,1.239,3.812,3.812,0,0,1-.049,3.92A4.448,4.448,0,0,1,2.8,22.937a8.42,8.42,0,0,1-2.954.833q-.336.042-.868.07-.2,0-.2-.1t.2-.14a7.777,7.777,0,0,0,3.745-1.365,3.518,3.518,0,0,0,1.393-2.975,2.843,2.843,0,0,0-.441-1.6A2.889,2.889,0,0,0,2.5,16.637,3.651,3.651,0,0,0,.882,16.28a2.47,2.47,0,0,0-.294.014,2.9,2.9,0,0,1,.07.616A5.648,5.648,0,0,1-.686,20.074a3.9,3.9,0,0,0,.2.644,1.8,1.8,0,0,1,.182.644.37.37,0,0,1-.112.294.373.373,0,0,1-.252.1.413.413,0,0,1-.238-.077.589.589,0,0,1-.182-.2,3.107,3.107,0,0,1-.238-.588A5.78,5.78,0,0,1-2.7,22.125a2.273,2.273,0,0,1-1.12.371,1.091,1.091,0,0,1-.931-.4,1.663,1.663,0,0,1-.3-1.029,3.586,3.586,0,0,1,.49-1.7A6.807,6.807,0,0,1-3.248,17.68a6.959,6.959,0,0,1,1.792-1.246q.1-.9.168-1.428a7.133,7.133,0,0,1-1.148.168,1.946,1.946,0,0,1-.9-.266,1.816,1.816,0,0,1-.679-.546.529.529,0,0,1-.1-.21A.1.1,0,0,1-4,14.04a.27.27,0,0,1,.14.042,2.259,2.259,0,0,0,1.134.378,5.642,5.642,0,0,0,.6-.063q.455-.063.959-.175a9.551,9.551,0,0,0,.084-1.162,1.332,1.332,0,0,0-.056-.49.781.781,0,0,0-.266-.308.868.868,0,0,0-.322-.14,1.392,1.392,0,0,0-.147-.021q-.077-.007-.077-.035,0-.14.224-.252a.944.944,0,0,1,.42-.112,1.713,1.713,0,0,1,.567.119.705.705,0,0,1,.413.287,1,1,0,0,1,.07.448,1.541,1.541,0,0,1-.014.238,4.541,4.541,0,0,0,.861.238,9.7,9.7,0,0,0,1.071.154q.406.042.406.28,0,.14-.21.308a5.124,5.124,0,0,1-.7.434,9.152,9.152,0,0,1-1.764.63q-.112.868-.154,1.316A6.161,6.161,0,0,1,1.19,15.832ZM-.49,14.054a6.7,6.7,0,0,0,.8-.28A.283.283,0,0,0,.4,13.718a.115.115,0,0,0,.049-.084q0-.1-.266-.182a3.536,3.536,0,0,1-.5-.224l-.056.308ZM.266,16.56a1.383,1.383,0,0,0-.014-.238,4.5,4.5,0,0,0-1.05.294q-.056.63-.056,1.4,0,.56.042,1.064l.168-.238A4.233,4.233,0,0,0,.266,16.56Zm-4.144,5.054a2.053,2.053,0,0,0,1.05-.462,7.568,7.568,0,0,0,1.3-1.19,9.651,9.651,0,0,1-.056-1.134q0-.966.084-1.862a8.645,8.645,0,0,0-.882.658A6.966,6.966,0,0,0-3.773,19.29a3.31,3.31,0,0,0-.539,1.652.979.979,0,0,0,.105.49A.353.353,0,0,0-3.878,21.614Zm18.424-4.368a3.758,3.758,0,0,1,1.47.294,2.675,2.675,0,0,1,1.148.91,2.5,2.5,0,0,1,.448,1.512,2.454,2.454,0,0,1-.518,1.54,3.455,3.455,0,0,1-1.337,1.043,4.079,4.079,0,0,1-1.7.371,2.677,2.677,0,0,1-1.33-.329,1,1,0,0,1-.588-.9.911.911,0,0,1,.378-.763,1.4,1.4,0,0,1,.868-.287A1.67,1.67,0,0,1,14.42,21a2.094,2.094,0,0,1,.7,1.05,3.172,3.172,0,0,0,1.162-.938,2.134,2.134,0,0,0,.462-1.33,1.823,1.823,0,0,0-.728-1.6,2.874,2.874,0,0,0-1.694-.511,2.738,2.738,0,0,0-1.652.553A6.251,6.251,0,0,0,11.13,20.1q-.07.112-.21.357a1.437,1.437,0,0,1-.266.357.412.412,0,0,1-.28.112A.439.439,0,0,1,10,20.774a.578.578,0,0,1-.119-.364,1.538,1.538,0,0,1,.329-.861q.329-.469,1-1.239t1.638-1.974q.952-1.19,1.162-1.456l.434-.546.175-.21a1.378,1.378,0,0,0,.154-.217.369.369,0,0,0,.049-.175.41.41,0,0,0-.1-.266.291.291,0,0,0-.217-.126.523.523,0,0,0-.364.238,3.92,3.92,0,0,1-.91.833,1.759,1.759,0,0,1-.952.329q-.756,0-.868-1.036l-.014-.266q0-.112.056-.112t.238.224a.521.521,0,0,0,.378.2,2.428,2.428,0,0,0,.728-.217,8.721,8.721,0,0,0,1.106-.553,1.137,1.137,0,0,1,.574-.2,1.574,1.574,0,0,1,.595.154,2.114,2.114,0,0,1,.623.406.687.687,0,0,1-.07,1.134A20.033,20.033,0,0,0,12.18,18.03,4.234,4.234,0,0,1,14.546,17.246Zm-.56,5.068a2.366,2.366,0,0,0,.322-.028,1.721,1.721,0,0,0-.357-.742.891.891,0,0,0-.721-.308.532.532,0,0,0-.378.119.381.381,0,0,0-.126.287q0,.266.4.469A1.872,1.872,0,0,0,13.986,22.314Z" transform="translate(10618.328 -581.409)" fill="#333"/>
        </g>
      </g>
      <g id="グループ_7114" data-name="グループ 7114">
        <g id="グループ_7109" data-name="グループ 7109">
          <path id="パス_5367" data-name="パス 5367" d="M68.214,0A68.214,68.214,0,1,1,0,68.214,68.214,68.214,0,0,1,68.214,0Z" transform="translate(10475 -528)" fill="#fff"/>
          <g id="グループ_7112" data-name="グループ 7112" transform="translate(0.018 2.623)">
            <path id="パス_5371" data-name="パス 5371" d="M3.015,0H-3.537l-.18-.4a11.292,11.292,0,0,1,1.278-2.52q.774-1.134,2.07-2.7A19.354,19.354,0,0,0,1.539-8.145a3.952,3.952,0,0,0,.594-2.043,2.819,2.819,0,0,0-.54-1.71A1.956,1.956,0,0,0-.1-12.636a2.418,2.418,0,0,0-1.44.423,1.242,1.242,0,0,0-.594,1.035,1.1,1.1,0,0,0,.063.4,1.644,1.644,0,0,0,.207.36,2.314,2.314,0,0,1,.189.351.968.968,0,0,1,.063.369.937.937,0,0,1-.261.693.913.913,0,0,1-.675.261A.856.856,0,0,1-3.2-9.1a1.444,1.444,0,0,1-.3-.963,2.927,2.927,0,0,1,.405-1.4,3.431,3.431,0,0,1,1.224-1.251A3.709,3.709,0,0,1,.135-13.23a3.789,3.789,0,0,1,2.088.513,2.9,2.9,0,0,1,1.125,1.278,3.951,3.951,0,0,1,.333,1.593,3.233,3.233,0,0,1-.252,1.323,3.921,3.921,0,0,1-.684,1.044Q2.313-7,1.449-6.21q-.2.2-.5.468t-.7.666a13.4,13.4,0,0,0-2.7,3.762H-.315a9.244,9.244,0,0,0,1.962-.153,1.765,1.765,0,0,0,.981-.549,4.416,4.416,0,0,0,.657-1.278q.036-.108.126-.108a1.491,1.491,0,0,1,.162.036.706.706,0,0,1,.162.072.121.121,0,0,1,.054.108l-.018.09Z" transform="translate(10543.213 -484.393)" fill="#333"/>
            <path id="パス_5370" data-name="パス 5370" d="M-16.394-8.946a1.591,1.591,0,0,0,.133-.168q.091-.126.175-.126.14,0,.546.364t.406.518a.814.814,0,0,1-.21.14,1.09,1.09,0,0,1-.294.1V-6.9q.028,1.484.084,2.366a.776.776,0,0,1-.329.259,1.044,1.044,0,0,1-.469.133h-.126V-4.83h-1.05V-.322a.23.23,0,0,0,.063.189.535.535,0,0,0,.287.049h.714l.686-.014a.264.264,0,0,0,.126-.049.366.366,0,0,0,.084-.147q.084-.322.238-1.316l.14-.84h.182l.028,2.226a.539.539,0,0,1,.238.175.434.434,0,0,1,.056.231q0,.308-.371.441a4.878,4.878,0,0,1-1.407.133h-.91a1.2,1.2,0,0,1-.791-.182.9.9,0,0,1-.189-.658V-4.83h-.924a11.2,11.2,0,0,1-.462,2.618,5.27,5.27,0,0,1-1.078,1.9,6.216,6.216,0,0,1-1.974,1.421L-22.876.9a6.175,6.175,0,0,0,1.6-1.519,5.362,5.362,0,0,0,.819-1.82,12.242,12.242,0,0,0,.3-2.387h-.714V-4.3q0,.07-.224.168a1.141,1.141,0,0,1-.462.1.193.193,0,0,1-.161-.084.318.318,0,0,1-.063-.2q.056-.546.084-1.4v-.84a16.777,16.777,0,0,0-.168-2.59l1.05.49h2.478l.168-.392a13.366,13.366,0,0,0,.483-1.442,8.192,8.192,0,0,0,.273-1.358q1.414.49,1.414.658,0,.056-.14.1l-.252.084q-.294.532-.728,1.169T-18-8.652h1.4Zm-4.7-2.674a4.184,4.184,0,0,1,1.33,1.092,1.832,1.832,0,0,1,.42,1.05.7.7,0,0,1-.126.434.386.386,0,0,1-.322.168.53.53,0,0,1-.364-.154,4.213,4.213,0,0,0-.392-1.246,9.245,9.245,0,0,0-.7-1.246Zm-2.534.364q.042-.056.1-.147a.753.753,0,0,1,.1-.133.134.134,0,0,1,.1-.042.791.791,0,0,1,.329.189,3.825,3.825,0,0,1,.455.413q.21.224.21.322a.923.923,0,0,1-.5.266V-.434a2.314,2.314,0,0,1-.084.693A.776.776,0,0,1-23.3.686,2.139,2.139,0,0,1-24.15.91a2.58,2.58,0,0,0-.1-.413.709.709,0,0,0-.168-.273A2,2,0,0,0-25.424-.14V-.364q1.2.112,1.442.112a.282.282,0,0,0,.217-.07A.329.329,0,0,0-23.7-.546V-4.074h-1.862a11.226,11.226,0,0,1-1.456,5.18L-27.23.98a13.11,13.11,0,0,0,.763-3.486q.161-1.876.161-4.578V-9.24a14.276,14.276,0,0,0-.14-2.226l1.134.518h1.5ZM-23.7-7.77v-2.758h-1.792V-7.77Zm7.224-.462h-4.4V-5.25h4.4Zm-9.016,1.148q0,1.694-.042,2.618H-23.7V-7.378h-1.792Zm23.03,3.556q.07-.084.14-.182a1.913,1.913,0,0,1,.14-.175.189.189,0,0,1,.126-.077.983.983,0,0,1,.371.217,4.661,4.661,0,0,1,.532.469q.245.252.245.35a.215.215,0,0,1-.112.168A.473.473,0,0,1-1.26-2.7H-6.412Q-4.942-.462-.7.112L-.714.266a1.088,1.088,0,0,0-.742.826A9.789,9.789,0,0,1-4.746-.28a5.812,5.812,0,0,1-2-2.422h-.308A3.849,3.849,0,0,1-7.917-1.12,5.411,5.411,0,0,1-9.772.1a17.363,17.363,0,0,1-3.318.98L-13.2.8A11.862,11.862,0,0,0-9.576-.7a4,4,0,0,0,1.554-2h-2.632a14.186,14.186,0,0,0-2.1.2l-.378-.714q.77.084,1.862.112h3.36a9.973,9.973,0,0,0,.182-1.54H-9.94v.49q0,.07-.245.189a1.127,1.127,0,0,1-.5.119.232.232,0,0,1-.175-.084.281.281,0,0,1-.077-.2q.084-1.232.112-2.506v-1.4A18.315,18.315,0,0,0-11-10.906l1.148.532h1.82a5.767,5.767,0,0,0,.245-.784,6.832,6.832,0,0,0,.147-.784q1.442.364,1.442.532,0,.07-.126.112l-.252.112-.5.476-.364.336h3.374l.224-.28q.042-.056.14-.175a.261.261,0,0,1,.182-.119.878.878,0,0,1,.343.182,4.423,4.423,0,0,1,.483.392q.224.21.224.308a1.15,1.15,0,0,1-.588.266v2.17q.028,1.736.112,3.29a1.012,1.012,0,0,1-.364.252,1.155,1.155,0,0,1-.49.126h-.126v-.686H-6.328a.462.462,0,0,1-.462.35q-.084.784-.168,1.19h4.2Zm-1.47-5.11v-1.33H-9.94v1.33ZM-9.94-6.86h6.006V-8.218H-9.94Zm6.006.406H-9.94v1.4h6.006ZM6.44-9.87l.133-.175a1.859,1.859,0,0,1,.147-.175.161.161,0,0,1,.112-.056.914.914,0,0,1,.357.21,4.266,4.266,0,0,1,.5.455q.231.245.231.343-.042.224-.35.224h-4.4a14.186,14.186,0,0,0-2.1.2l-.35-.728q.77.084,1.862.112H3.822a15.725,15.725,0,0,0-.14-2.338q1.386.378,1.386.588,0,.07-.126.14L4.7-10.92v1.456H6.16Zm5.39,1.386q.042-.042.147-.168t.189-.126A.8.8,0,0,1,12.5-8.6a3.335,3.335,0,0,1,.448.4q.2.217.2.315a.828.828,0,0,1-.56.224Q12.544-3.934,12.348-2a5.372,5.372,0,0,1-.616,2.45,1.685,1.685,0,0,1-1.4.616.863.863,0,0,0-.21-.672A2.714,2.714,0,0,0,9,.028l.014-.252Q10.15-.1,10.584-.1a.861.861,0,0,0,.287-.035.564.564,0,0,0,.189-.133,4.574,4.574,0,0,0,.476-2.149q.154-1.813.224-5.369H9.8a23.587,23.587,0,0,1-.392,3.605A9.021,9.021,0,0,1,8.3-1.3,7.9,7.9,0,0,1,6.048,1.078L5.838.826A7.762,7.762,0,0,0,7.693-1.519a10.033,10.033,0,0,0,.931-2.807,23.874,23.874,0,0,0,.322-3.458H8.372a2.99,2.99,0,0,0-.952.2L7.056-8.3a11.045,11.045,0,0,0,1.288.112h.6l.014-.574q.014-.7-.035-1.512a13.075,13.075,0,0,0-.147-1.386,9.711,9.711,0,0,1,1.113.161q.315.077.315.161,0,.056-.112.126l-.238.154-.014.952q0,.658-.028,1.918h1.792ZM3.486-8.33q.532.2.532.336,0,.056-.154.1l-.252.042A9.332,9.332,0,0,1,2.534-6.391a8.778,8.778,0,0,1-1.4,1.3L.98-5.264a6.993,6.993,0,0,0,.644-.868,9.149,9.149,0,0,0,.693-1.316A5.752,5.752,0,0,0,2.73-8.764Zm1.652-.126A4.045,4.045,0,0,1,6.8-7.511,1.62,1.62,0,0,1,7.336-6.44a.621.621,0,0,1-.126.406.4.4,0,0,1-.322.154.594.594,0,0,1-.364-.126,3.429,3.429,0,0,0-.56-1.2,6.171,6.171,0,0,0-.98-1.134Zm-.532,5.7A11.872,11.872,0,0,1,2.982-.609,9.808,9.808,0,0,1,.9,1.064L.77.9a9.953,9.953,0,0,0,1.848-1.9,13.23,13.23,0,0,0,1.414-2.38,17.426,17.426,0,0,0-2-1.778l.14-.14A13.341,13.341,0,0,1,4.354-4.1,9.506,9.506,0,0,0,4.7-5.215a5.9,5.9,0,0,0,.182-1.071q1.372.434,1.372.616,0,.056-.14.1l-.266.084a12.783,12.783,0,0,1-.8,1.918A5.1,5.1,0,0,1,6.167-2.317a2.163,2.163,0,0,1,.357,1.043.648.648,0,0,1-.1.378.308.308,0,0,1-.266.14.709.709,0,0,1-.336-.112A6.5,6.5,0,0,0,4.606-2.758Zm20.9-1.96q.056-.07.147-.2T25.8-5.1a.155.155,0,0,1,.112-.063,1.054,1.054,0,0,1,.385.224,5.629,5.629,0,0,1,.567.483q.266.259.266.357-.056.224-.35.224H21.84a9.53,9.53,0,0,0,2.408,2.142,12.076,12.076,0,0,0,3.01,1.428l-.028.154a.87.87,0,0,0-.476.245A1.1,1.1,0,0,0,26.46.6a10.749,10.749,0,0,1-2.821-1.834A10,10,0,0,1,21.5-3.878h-.1v1.554q.042,1.96.1,3.038a.9.9,0,0,1-.322.259,1.119,1.119,0,0,1-.532.119.254.254,0,0,1-.182-.084.269.269,0,0,1-.084-.2q.1-1.218.126-2.716V-3.416a11.657,11.657,0,0,1-2.443,2.331,15.423,15.423,0,0,1-3.2,1.757l-.126-.2A14.614,14.614,0,0,0,17.521-1.47a13.382,13.382,0,0,0,2.163-2.408H17.262a14.186,14.186,0,0,0-2.1.2l-.364-.7q.77.084,1.862.112h3.85V-5.964H17.528v.42q0,.084-.231.189a1.154,1.154,0,0,1-.483.105.212.212,0,0,1-.168-.084.3.3,0,0,1-.07-.2q.07-.728.1-1.946V-8.6a18.315,18.315,0,0,0-.182-2.87l1.12.5h6.72l.21-.252q.042-.042.133-.154a.244.244,0,0,1,.175-.112.841.841,0,0,1,.329.161,3.409,3.409,0,0,1,.455.357q.21.2.21.294a.946.946,0,0,1-.21.147.962.962,0,0,1-.308.1v1.582q.028,1.624.112,3.08a1.068,1.068,0,0,1-.371.259,1.129,1.129,0,0,1-.483.133h-.126v-.6H21.406V-4.27H25.2Zm-5-3.976v-1.848H17.528v1.848Zm3.948,0v-1.848H21.406v1.848Zm-6.93.406V-6.37H20.51V-8.288Zm3.878,0V-6.37h3.052V-8.288ZM-8.862,12.094a3.8,3.8,0,0,1,1.232.21.766.766,0,0,1,.616.742.363.363,0,0,1-.119.287.369.369,0,0,1-.245.1.6.6,0,0,1-.49-.224,2.648,2.648,0,0,0-.455-.476,2.261,2.261,0,0,0-.6-.308,1.493,1.493,0,0,0-.21-.063.833.833,0,0,1-.161-.049.09.09,0,0,1-.063-.084Q-9.352,12.094-8.862,12.094Zm-5.18,3.332a1.411,1.411,0,0,1,1.239.567,2.7,2.7,0,0,1,.4,1.575A9.34,9.34,0,0,1-12.558,19a10.826,10.826,0,0,1-.476,1.834,3.666,3.666,0,0,1-.8,1.386,3.009,3.009,0,0,1-.518.42.919.919,0,0,1-.476.168.369.369,0,0,1-.315-.14,1.327,1.327,0,0,1-.175-.322q-.07-.182-.1-.238a4.475,4.475,0,0,0-.672-1.064.555.555,0,0,1-.154-.252q0-.028.042-.028a2.4,2.4,0,0,1,.546.308l.252.168a2.574,2.574,0,0,0,.364.238.621.621,0,0,0,.28.07q.476,0,.847-.756a7.463,7.463,0,0,0,.581-1.757,8.3,8.3,0,0,0,.21-1.631q0-1.47-.91-1.47a4.166,4.166,0,0,0-1.638.5,17.1,17.1,0,0,1-2.1,5.25,1.838,1.838,0,0,1-.392.483.644.644,0,0,1-.406.175.363.363,0,0,1-.266-.112.38.38,0,0,1-.112-.28,2.138,2.138,0,0,1,.546-1.106,11.006,11.006,0,0,0,1.932-4.06,6.6,6.6,0,0,1-1.708.6,1.144,1.144,0,0,1-.595-.182,1.662,1.662,0,0,1-.5-.455.893.893,0,0,1-.2-.511q0-.126.07-.126a.477.477,0,0,1,.175.056q.119.056.189.084a2.041,2.041,0,0,0,.812.168,3.872,3.872,0,0,0,.924-.119q.378-.1,1.022-.343a7.481,7.481,0,0,0,.2-1.526,1.627,1.627,0,0,0-.294-1.064q-.1-.112-.259-.28t-.161-.224q0-.084.119-.126a.917.917,0,0,1,.3-.042,2.039,2.039,0,0,1,.56.084,1.423,1.423,0,0,1,.462.21.557.557,0,0,1,.224.448,2.354,2.354,0,0,1-.084.448q-.07.28-.112.546-.1.728-.2,1.274A4.744,4.744,0,0,1-14.042,15.426Zm3.892-1.862q-.042-.014-.147-.042a.493.493,0,0,1-.154-.063.107.107,0,0,1-.049-.091q0-.14.448-.14a3.1,3.1,0,0,1,1.281.273.87.87,0,0,1,.609.805A.366.366,0,0,1-8.3,14.6a.473.473,0,0,1-.315.112.494.494,0,0,1-.448-.252,2.685,2.685,0,0,0-.469-.567A1.617,1.617,0,0,0-10.15,13.564ZM-11,15.3a4.01,4.01,0,0,1,1.771.42,2.579,2.579,0,0,1,1,.882,1.822,1.822,0,0,1,.308.938,1.3,1.3,0,0,1-.273.833.75.75,0,0,1-.567.343.5.5,0,0,1-.308-.1,1.955,1.955,0,0,0-.168-.119,1.269,1.269,0,0,0-.532-.2q-.336-.056-.8-.112-.2-.028-.2-.084t.168-.084q.91-.1.952-.1a1.521,1.521,0,0,0,.525-.168.358.358,0,0,0,.147-.322A1.635,1.635,0,0,0-9.6,16.2a3.308,3.308,0,0,0-1.442-.756q-.126-.028-.126-.084T-11,15.3Zm12.194.532a4.613,4.613,0,0,1,1.995.42,3.3,3.3,0,0,1,1.407,1.239,3.812,3.812,0,0,1-.049,3.92A4.448,4.448,0,0,1,2.8,22.937a8.42,8.42,0,0,1-2.954.833q-.336.042-.868.07-.2,0-.2-.1t.2-.14a7.777,7.777,0,0,0,3.745-1.365,3.518,3.518,0,0,0,1.393-2.975,2.843,2.843,0,0,0-.441-1.6A2.889,2.889,0,0,0,2.5,16.637,3.651,3.651,0,0,0,.882,16.28a2.47,2.47,0,0,0-.294.014,2.9,2.9,0,0,1,.07.616A5.648,5.648,0,0,1-.686,20.074a3.9,3.9,0,0,0,.2.644,1.8,1.8,0,0,1,.182.644.37.37,0,0,1-.112.294.373.373,0,0,1-.252.1.413.413,0,0,1-.238-.077.589.589,0,0,1-.182-.2,3.107,3.107,0,0,1-.238-.588A5.78,5.78,0,0,1-2.7,22.125a2.273,2.273,0,0,1-1.12.371,1.091,1.091,0,0,1-.931-.4,1.663,1.663,0,0,1-.3-1.029,3.586,3.586,0,0,1,.49-1.7A6.807,6.807,0,0,1-3.248,17.68a6.959,6.959,0,0,1,1.792-1.246q.1-.9.168-1.428a7.133,7.133,0,0,1-1.148.168,1.946,1.946,0,0,1-.9-.266,1.816,1.816,0,0,1-.679-.546.529.529,0,0,1-.1-.21A.1.1,0,0,1-4,14.04a.27.27,0,0,1,.14.042,2.259,2.259,0,0,0,1.134.378,5.642,5.642,0,0,0,.6-.063q.455-.063.959-.175a9.551,9.551,0,0,0,.084-1.162,1.332,1.332,0,0,0-.056-.49.781.781,0,0,0-.266-.308.868.868,0,0,0-.322-.14,1.392,1.392,0,0,0-.147-.021q-.077-.007-.077-.035,0-.14.224-.252a.944.944,0,0,1,.42-.112,1.713,1.713,0,0,1,.567.119.705.705,0,0,1,.413.287,1,1,0,0,1,.07.448,1.541,1.541,0,0,1-.014.238,4.541,4.541,0,0,0,.861.238,9.7,9.7,0,0,0,1.071.154q.406.042.406.28,0,.14-.21.308a5.124,5.124,0,0,1-.7.434,9.152,9.152,0,0,1-1.764.63q-.112.868-.154,1.316A6.161,6.161,0,0,1,1.19,15.832ZM-.49,14.054a6.7,6.7,0,0,0,.8-.28A.283.283,0,0,0,.4,13.718a.115.115,0,0,0,.049-.084q0-.1-.266-.182a3.536,3.536,0,0,1-.5-.224l-.056.308ZM.266,16.56a1.383,1.383,0,0,0-.014-.238,4.5,4.5,0,0,0-1.05.294q-.056.63-.056,1.4,0,.56.042,1.064l.168-.238A4.233,4.233,0,0,0,.266,16.56Zm-4.144,5.054a2.053,2.053,0,0,0,1.05-.462,7.568,7.568,0,0,0,1.3-1.19,9.651,9.651,0,0,1-.056-1.134q0-.966.084-1.862a8.645,8.645,0,0,0-.882.658A6.966,6.966,0,0,0-3.773,19.29a3.31,3.31,0,0,0-.539,1.652.979.979,0,0,0,.105.49A.353.353,0,0,0-3.878,21.614Zm18.424-4.368a3.758,3.758,0,0,1,1.47.294,2.675,2.675,0,0,1,1.148.91,2.5,2.5,0,0,1,.448,1.512,2.454,2.454,0,0,1-.518,1.54,3.455,3.455,0,0,1-1.337,1.043,4.079,4.079,0,0,1-1.7.371,2.677,2.677,0,0,1-1.33-.329,1,1,0,0,1-.588-.9.911.911,0,0,1,.378-.763,1.4,1.4,0,0,1,.868-.287A1.67,1.67,0,0,1,14.42,21a2.094,2.094,0,0,1,.7,1.05,3.172,3.172,0,0,0,1.162-.938,2.134,2.134,0,0,0,.462-1.33,1.823,1.823,0,0,0-.728-1.6,2.874,2.874,0,0,0-1.694-.511,2.738,2.738,0,0,0-1.652.553A6.251,6.251,0,0,0,11.13,20.1q-.07.112-.21.357a1.437,1.437,0,0,1-.266.357.412.412,0,0,1-.28.112A.439.439,0,0,1,10,20.774a.578.578,0,0,1-.119-.364,1.538,1.538,0,0,1,.329-.861q.329-.469,1-1.239t1.638-1.974q.952-1.19,1.162-1.456l.434-.546.175-.21a1.378,1.378,0,0,0,.154-.217.369.369,0,0,0,.049-.175.41.41,0,0,0-.1-.266.291.291,0,0,0-.217-.126.523.523,0,0,0-.364.238,3.92,3.92,0,0,1-.91.833,1.759,1.759,0,0,1-.952.329q-.756,0-.868-1.036l-.014-.266q0-.112.056-.112t.238.224a.521.521,0,0,0,.378.2,2.428,2.428,0,0,0,.728-.217,8.721,8.721,0,0,0,1.106-.553,1.137,1.137,0,0,1,.574-.2,1.574,1.574,0,0,1,.595.154,2.114,2.114,0,0,1,.623.406.687.687,0,0,1-.07,1.134A20.033,20.033,0,0,0,12.18,18.03,4.234,4.234,0,0,1,14.546,17.246Zm-.56,5.068a2.366,2.366,0,0,0,.322-.028,1.721,1.721,0,0,0-.357-.742.891.891,0,0,0-.721-.308.532.532,0,0,0-.378.119.381.381,0,0,0-.126.287q0,.266.4.469A1.872,1.872,0,0,0,13.986,22.314Z" transform="translate(10543.213 -452.106)" fill="#333"/>
          </g>
        </g>
        <g id="グループ_7110" data-name="グループ 7110">
          <path id="パス_5363" data-name="パス 5363" d="M68.214,0A68.214,68.214,0,1,1,0,68.214,68.214,68.214,0,0,1,68.214,0Z" transform="translate(10618 -528)" fill="#fff"/>
          <g id="グループ_7113" data-name="グループ 7113" transform="translate(1.241 1.903)">
            <path id="パス_5365" data-name="パス 5365" d="M.459-6.912A4.656,4.656,0,0,1,2.889-5.76a2.894,2.894,0,0,1,.936,2.2,4.315,4.315,0,0,1-.369,1.683,3.438,3.438,0,0,1-1.3,1.5,4.415,4.415,0,0,1-2.5.63A3.992,3.992,0,0,1-2.358-.2,2.751,2.751,0,0,1-3.474-1.287,2.665,2.665,0,0,1-3.807-2.52a1.164,1.164,0,0,1,.279-.855.879.879,0,0,1,.639-.279,1.127,1.127,0,0,1,.684.225A.746.746,0,0,1-1.9-2.79a1.1,1.1,0,0,1-.2.522,1.885,1.885,0,0,0-.153.252.635.635,0,0,0-.063.288,1.382,1.382,0,0,0,.4.954,1.853,1.853,0,0,0,1.4.432A2.456,2.456,0,0,0,.909-.774,2.933,2.933,0,0,0,1.9-1.962a3.973,3.973,0,0,0,.36-1.728,3.078,3.078,0,0,0-.72-2.124,2.535,2.535,0,0,0-2-.81,2.934,2.934,0,0,0-.378.036,3.123,3.123,0,0,1-.432.036.548.548,0,0,1-.333-.1.326.326,0,0,1-.135-.279A.332.332,0,0,1-1.6-7.2a.516.516,0,0,1,.333-.108A1.926,1.926,0,0,1-.8-7.254a3.867,3.867,0,0,0,.45.036,2.467,2.467,0,0,0,1.458-.5,2.563,2.563,0,0,0,.7-2.16A2.876,2.876,0,0,0,1.17-12a2.066,2.066,0,0,0-1.485-.621,2.283,2.283,0,0,0-1.017.243.918.918,0,0,0-.5.909,1.51,1.51,0,0,0,.144.612.913.913,0,0,1,.126.468.773.773,0,0,1-.207.558.682.682,0,0,1-.513.216.9.9,0,0,1-.8-.351,1.344,1.344,0,0,1-.243-.783,1.93,1.93,0,0,1,.4-1.071,3.349,3.349,0,0,1,1.143-1A3.4,3.4,0,0,1-.081-13.23a3.661,3.661,0,0,1,1.827.441,3.077,3.077,0,0,1,1.2,1.17,3.136,3.136,0,0,1,.414,1.575,3.021,3.021,0,0,1-.729,2.025A3.536,3.536,0,0,1,.459-6.912Z" transform="translate(10684.574 -492.673)" fill="#333"/>
            <path id="パス_5364" data-name="パス 5364" d="M-32.2-6.552a13.879,13.879,0,0,1-1.862,2.114l-.168-.154a19.908,19.908,0,0,0,2.436-4.284,13.028,13.028,0,0,0,.546-1.512,8.962,8.962,0,0,0,.336-1.47q1.456.518,1.456.7,0,.07-.126.112l-.266.084A20.568,20.568,0,0,1-31.332-7.9l.434.168a.567.567,0,0,1-.42.238v4.914q.028,1.736.112,3.29a.907.907,0,0,1-.35.238,1.175,1.175,0,0,1-.476.112A.334.334,0,0,1-32.256.98a.252.252,0,0,1-.1-.2q.056-.826.1-1.6t.056-2.037Zm4.774.924a18.289,18.289,0,0,0,2.1-1.722,9.461,9.461,0,0,0,.98-1.05,6.838,6.838,0,0,0,.714-1.064q1.176.882,1.176,1.05,0,.056-.14.056h-.252a16.151,16.151,0,0,1-2.037,1.624A19.251,19.251,0,0,1-27.426-5.25V-.77a.49.49,0,0,0,.182.434,1.339,1.339,0,0,0,.7.126h1.624a13.058,13.058,0,0,0,1.582-.056.357.357,0,0,0,.2-.07A.556.556,0,0,0-23.016-.5,21.424,21.424,0,0,0-22.484-3h.168l.042,2.6a1.045,1.045,0,0,1,.343.189.331.331,0,0,1,.091.245.417.417,0,0,1-.252.385A2.641,2.641,0,0,1-23,.616q-.658.056-1.946.056h-1.708a3.636,3.636,0,0,1-.994-.1.825.825,0,0,1-.5-.371,1.489,1.489,0,0,1-.154-.742V-8.708a18.315,18.315,0,0,0-.182-2.87q.812.238,1.127.371t.315.231q0,.07-.126.14l-.252.154ZM-9.184-9.072q.056-.056.175-.2t.2-.14q.084,0,.343.231a4.859,4.859,0,0,1,.483.5.822.822,0,0,1,.224.364.3.3,0,0,1-.182.105,2.993,2.993,0,0,1-.336.035,9.383,9.383,0,0,1-.861.833,8.494,8.494,0,0,1-.987.749l-.14-.112a15.958,15.958,0,0,0,.8-1.652H-18.34a2.757,2.757,0,0,1-.2,1.169,1.765,1.765,0,0,1-.539.735.953.953,0,0,1-.574.224.438.438,0,0,1-.406-.21.6.6,0,0,1-.042-.21.677.677,0,0,1,.35-.56,2,2,0,0,0,.735-.973A3.086,3.086,0,0,0-18.8-9.66l.238-.014a5.922,5.922,0,0,1,.2.924h6.006l.133-.2.175-.273a11.7,11.7,0,0,0,.7-1.33,7.86,7.86,0,0,0,.476-1.3q.784.308,1.092.469t.308.245q0,.056-.14.1l-.266.07a12.411,12.411,0,0,1-.924,1.134,12.275,12.275,0,0,1-1.12,1.092H-9.45Zm-5.768-2.688a3.717,3.717,0,0,1,1.33.994A1.729,1.729,0,0,1-13.2-9.73a.79.79,0,0,1-.14.483.421.421,0,0,1-.35.189A.6.6,0,0,1-14.1-9.24a3.32,3.32,0,0,0-.315-1.253,4.989,4.989,0,0,0-.707-1.169Zm-3,.252a3.716,3.716,0,0,1,1.463.931,1.6,1.6,0,0,1,.469,1.015.649.649,0,0,1-.133.427.411.411,0,0,1-.329.161.6.6,0,0,1-.364-.14A3.571,3.571,0,0,0-17.3-10.3,5.84,5.84,0,0,0-18.1-11.41Zm6.356,4.368q.056-.056.175-.2t.2-.14q.126,0,.525.462t.4.616a.487.487,0,0,1-.21.1,2.457,2.457,0,0,1-.364.042A13.427,13.427,0,0,1-13.118-4.9l.084.014q-.042.294-.448.35v.98h3.71l.308-.434.14-.189a1.81,1.81,0,0,1,.161-.2.177.177,0,0,1,.119-.063,1.006,1.006,0,0,1,.378.231,6.186,6.186,0,0,1,.553.49q.259.259.259.357-.056.224-.35.224h-5.278V-.294a1.875,1.875,0,0,1-.112.714.911.911,0,0,1-.455.441,3.039,3.039,0,0,1-1.029.245A1.4,1.4,0,0,0-15.2.693.738.738,0,0,0-15.456.42a3.882,3.882,0,0,0-1.4-.392v-.21q1.792.126,2.114.126a.442.442,0,0,0,.273-.063.307.307,0,0,0,.077-.245V-3.136h-3.346a14.186,14.186,0,0,0-2.1.2l-.364-.728q.77.084,1.862.112h3.948a10.009,10.009,0,0,0-.1-1.554l.84.154A17.125,17.125,0,0,0-12.082-6.4h-3.4a14.186,14.186,0,0,0-2.1.2l-.378-.714q.77.084,1.862.112h4.228ZM-2.03-9.492q.672.616,1.064,1.008v.014l.252-.574a10.165,10.165,0,0,0,.441-1.428,7.745,7.745,0,0,0,.217-1.4q1.414.42,1.414.6,0,.07-.14.112l-.266.112A11.023,11.023,0,0,1,.1-8.932H4.732l.21-.308.105-.14a.805.805,0,0,1,.112-.126.159.159,0,0,1,.105-.042.8.8,0,0,1,.329.182,3.714,3.714,0,0,1,.455.4q.21.217.21.315a.827.827,0,0,1-.56.238,52.023,52.023,0,0,1-.5,5.866A6.581,6.581,0,0,1,4.284.378a1.949,1.949,0,0,1-1.638.672A.737.737,0,0,0,2.38.378,1.626,1.626,0,0,0,1.813.14,7.818,7.818,0,0,0,.938-.042L.952-.308q.56.07,1.2.133t.861.063a1,1,0,0,0,.35-.049,1.077,1.077,0,0,0,.28-.175,5.528,5.528,0,0,0,.749-2.6q.315-2.2.483-5.6H3.99A16.225,16.225,0,0,1,2.324-3.395,10.744,10.744,0,0,1-1.036.364l-.14-.182A12,12,0,0,0,1.659-3.675,16.012,16.012,0,0,0,3.024-8.54H2.016A12.345,12.345,0,0,1,.476-4.97,10.124,10.124,0,0,1-2.086-2.226l-.14-.182A10.874,10.874,0,0,0-.14-5.187,12.522,12.522,0,0,0,1.078-8.54h-1.2A7.859,7.859,0,0,1-2.184-6.1l-.182-.154A9.636,9.636,0,0,0-1.008-8.386a.366.366,0,0,1-.308.126H-2.982V-5.1l1.918-.686.07.21L-2.982-4.494v1.876q.028,1.736.112,3.29a.751.751,0,0,1-.322.28,1.009,1.009,0,0,1-.476.126A.309.309,0,0,1-3.885.994.259.259,0,0,1-3.976.8q.1-1.414.126-3.122V-4.032l-1.526.784a.514.514,0,0,1-.28.35l-.518-1.176q.7-.168,2.324-.728V-8.26H-4.914A9.375,9.375,0,0,1-5.992-5.936l-.21-.126a13.857,13.857,0,0,0,.546-1.9,10.9,10.9,0,0,0,.2-1.239,11.658,11.658,0,0,0,.077-1.281q0-.336-.014-.49a9.106,9.106,0,0,1,1.036.238q.294.1.294.182,0,.056-.112.126l-.238.126Q-4.634-9.212-4.8-8.68h.952v-.28a18.315,18.315,0,0,0-.182-2.87,8.048,8.048,0,0,1,1.078.371q.308.147.308.245,0,.07-.112.14l-.224.154v2.24h.35ZM12.95-9.94q.056-.07.161-.21t.189-.14a.8.8,0,0,1,.329.182,3.335,3.335,0,0,1,.448.4q.2.217.2.315-.056.224-.35.224H12.348v.616l.028.5q0,.21.028.63a.571.571,0,0,1-.266.217,1.116,1.116,0,0,1-.5.1.176.176,0,0,1-.154-.084.345.345,0,0,1-.056-.2q.042-.392.056-.742l.014-.35v-.7H9.954a3.6,3.6,0,0,1-.483,1.533,3.2,3.2,0,0,1-1.407,1.2l-.14-.2A3.047,3.047,0,0,0,8.9-8,5.374,5.374,0,0,0,9.142-9.66v-.77a7.653,7.653,0,0,0-.042-.84l1.12.462.084-.028a10.678,10.678,0,0,0,1.442-.483,7.55,7.55,0,0,0,1.2-.609,3.913,3.913,0,0,1,.784,1.092q0,.1-.2.07l-.322-.056a26.617,26.617,0,0,1-3.248.406v.826h2.744Zm4.326,2.814-.238.014H16.9V-9.17h-1.54A2.823,2.823,0,0,1,14.812-7.9a3.328,3.328,0,0,1-1.386.98l-.14-.21a2.738,2.738,0,0,0,1.029-1.2,4.2,4.2,0,0,0,.245-1.5v-.7a6.493,6.493,0,0,0-.042-.77l1.064.434.2-.042a14.328,14.328,0,0,0,1.449-.455,6.906,6.906,0,0,0,1.211-.567,3.834,3.834,0,0,1,.77,1.12q0,.042-.056.056a.35.35,0,0,1-.14,0l-.308-.056a25.747,25.747,0,0,1-3.3.336v.882h2.926l.266-.378q.056-.07.119-.154a1.434,1.434,0,0,1,.133-.154.193.193,0,0,1,.126-.07.856.856,0,0,1,.343.2,4.213,4.213,0,0,1,.483.427q.224.231.224.329-.042.224-.35.224h-1.9v1.806q-.014.042-.126.105a1.135,1.135,0,0,1-.28.105q.882.644.882.826,0,.084-.14.126l-.238.084V-4.48q.028,1.694.112,3.192a1.007,1.007,0,0,1-.378.252,1.225,1.225,0,0,1-.49.126h-.14V-1.5h-5.81v.462q0,.07-.238.189a1.083,1.083,0,0,1-.49.119.226.226,0,0,1-.182-.084.3.3,0,0,1-.07-.2q.07-.784.1-2.1V-4.3a18.315,18.315,0,0,0-.182-2.87l1.134.518h5.628ZM16.968-5.1V-6.244h-5.81V-5.1Zm0,1.6V-4.676h-5.81V-3.5Zm-5.81.42V-1.9h5.81V-3.08ZM13.076-.672q.462.28.462.406,0,.07-.224.07L12.992-.21a16.425,16.425,0,0,1-2.219.763,17.757,17.757,0,0,1-2.541.511L8.162.84A12.485,12.485,0,0,0,10.206.126a8.291,8.291,0,0,0,1.267-.644,5.187,5.187,0,0,0,1-.784ZM14.9-.826a16.327,16.327,0,0,1,2.695.364,4.666,4.666,0,0,1,1.463.553q.434.3.434.581a.335.335,0,0,1-.154.28.6.6,0,0,1-.364.112A.785.785,0,0,1,18.494.91,8.374,8.374,0,0,0,16.968.084a13.548,13.548,0,0,0-2.128-.7Zm9.8.91a.657.657,0,0,1-.427-.217,1.222,1.222,0,0,1-.329-.511A9.962,9.962,0,0,1,23.422-4.1a9.114,9.114,0,0,1,.14-1.68,15.366,15.366,0,0,1,.378-1.54q.1-.378.182-.742a2.861,2.861,0,0,0,.084-.63,1.648,1.648,0,0,0-.1-.546,1.281,1.281,0,0,0-.252-.448.5.5,0,0,1-.112-.21q0-.07.056-.07a.479.479,0,0,1,.224.084,2.46,2.46,0,0,1,.735.7,1.82,1.82,0,0,1,.273,1.036,1.9,1.9,0,0,1-.084.546,5.417,5.417,0,0,1-.2.546q-.112.266-.14.35a7.449,7.449,0,0,0-.434,1.19,4.436,4.436,0,0,0-.14,1.106,3.882,3.882,0,0,0,.056.679q.056.315.168.315.07,0,.238-.28l.252-.518.476-.952q.1-.154.14-.154t.042.056l-.042.168q-.182.49-.406,1.267a4.853,4.853,0,0,0-.224,1.3,10.031,10.031,0,0,0,.238,1.792,4.186,4.186,0,0,1,.07.448.352.352,0,0,1-.112.28A.357.357,0,0,1,24.7.084ZM29.764-7.8a3.757,3.757,0,0,1-1.008-.112,2.786,2.786,0,0,1-.819-.364,1.363,1.363,0,0,1-.483-.49.43.43,0,0,1-.056-.168.037.037,0,0,1,.042-.042.346.346,0,0,1,.147.07,1.272,1.272,0,0,0,.2.112A2.657,2.657,0,0,0,28.8-8.61a9.247,9.247,0,0,0,1.071-.084q.679-.084,1.127-.182a.9.9,0,0,1,.266-.056.822.822,0,0,1,.49.161.44.44,0,0,1,.224.343q0,.322-.714.476A7.089,7.089,0,0,1,29.764-7.8Zm.49,7.224a5.667,5.667,0,0,1-1.89-.287A1.867,1.867,0,0,1,27.216-2a1.17,1.17,0,0,1-.084-.252.049.049,0,0,1,.056-.056.188.188,0,0,1,.1.049q.063.049.105.077a3.282,3.282,0,0,0,1.218.588,4.118,4.118,0,0,0,.966.084,13.441,13.441,0,0,0,1.862-.168l.476-.056a.8.8,0,0,1,.525.168.475.475,0,0,1,.2.364q0,.378-.665.5A9.613,9.613,0,0,1,30.254-.574ZM-35.6,21.446a4.748,4.748,0,0,1-.63,1.988,1.6,1.6,0,0,1-1.288.56.823.823,0,0,0-.182-.616,1.763,1.763,0,0,0-.854-.322l.014-.252q.91.1,1.246.1a.87.87,0,0,0,.28-.035.542.542,0,0,0,.2-.133,2.757,2.757,0,0,0,.434-1.288h-3.3l-.084.532a.735.735,0,0,1-.392.112q-.07,0-.434-.056.308-1.806.532-3.654h-.35a1.037,1.037,0,0,0-.532.2l-.364-.714a5.3,5.3,0,0,0,.9.112h.406l.084-.77a18.1,18.1,0,0,0,.14-2.156v-.406a7.5,7.5,0,0,1-1.092,1.092l-.2-.154a9.281,9.281,0,0,0,.938-1.5,9.55,9.55,0,0,0,.56-1.484,7.04,7.04,0,0,0,.294-1.442q1.386.462,1.386.658,0,.042-.126.1l-.252.084a13.457,13.457,0,0,1-.616,1.288h2.842l.28-.406a2.016,2.016,0,0,0,.119-.168,1,1,0,0,1,.133-.168.193.193,0,0,1,.126-.07.876.876,0,0,1,.35.21,5.067,5.067,0,0,1,.5.448q.231.238.231.336-.042.224-.336.224h-4.48a9.54,9.54,0,0,1-.546.812l.952.532h2.6l.21-.28a1.59,1.59,0,0,0,.133-.168q.091-.126.175-.126.14,0,.546.357t.406.511a.918.918,0,0,1-.56.21q-.014,1.344-.084,2.436h.112l.238-.364q.028-.042.1-.154a.74.74,0,0,1,.126-.161.171.171,0,0,1,.112-.049q.126,0,.525.378t.4.532q-.056.224-.364.224h-1.26q-.112,1.694-.224,2.66h.2l.238-.364q.042-.056.112-.161a1.612,1.612,0,0,1,.119-.161.14.14,0,0,1,.1-.056q.126,0,.532.385t.406.539q-.042.224-.336.224Zm4.032-1.008a8.2,8.2,0,0,0,2.926,2.842l-.042.14a.919.919,0,0,0-.826.672,8.6,8.6,0,0,1-2.534-2.968,9.874,9.874,0,0,1-3.57,2.954l-.14-.182a10.448,10.448,0,0,0,3.332-3.542,17.98,17.98,0,0,1-1.218-4.606,8.928,8.928,0,0,1-.938,1.4l-.224-.14a13.483,13.483,0,0,0,1.022-2.716,10.742,10.742,0,0,0,.322-1.554,9.418,9.418,0,0,0,.112-1.484q1.442.336,1.442.518,0,.07-.112.112l-.224.112a20.332,20.332,0,0,1-.728,2.324h2.464l.28-.406q.042-.056.126-.175a1.433,1.433,0,0,1,.147-.182.177.177,0,0,1,.119-.063.906.906,0,0,1,.357.217,5.369,5.369,0,0,1,.511.462q.238.245.238.343a.3.3,0,0,1-.336.224h-.742a19.734,19.734,0,0,1-.644,3.136A11.149,11.149,0,0,1-31.57,20.438ZM-33.4,15.286a15.728,15.728,0,0,0,1.358,4.326,14.868,14.868,0,0,0,1.232-4.872h-2.338Q-33.222,14.922-33.4,15.286Zm-4.662,2.688q.126-1.442.2-2.534h-1.078l-.28,2.534Zm1.988,0q.042-.84.1-2.534h-1.148l-.042.658-.154,1.876Zm-2.3,3.066q.084-.658.21-1.89.014-.28.07-.77H-39.27l-.364,2.66Zm2.044,0q.126-.84.238-2.66h-1.274q-.168,1.89-.266,2.66Zm20.118-8.512a1.96,1.96,0,0,0,.126-.182,1.366,1.366,0,0,1,.119-.168.14.14,0,0,1,.1-.056.8.8,0,0,1,.336.21,3.871,3.871,0,0,1,.462.455.738.738,0,0,1,.21.343q-.042.21-.336.21h-3.92a10.366,10.366,0,0,0,.98,3.22,8.6,8.6,0,0,0,.6-1.316,5.393,5.393,0,0,0,.322-1.288q1.316.518,1.316.686,0,.056-.14.1l-.252.084a9.86,9.86,0,0,1-1.4,2.478,5.658,5.658,0,0,0,1.554,1.54.414.414,0,0,0,.21.112q.084,0,.168-.168a8.424,8.424,0,0,0,.49-1.33l.168.042-.168,1.708a1.38,1.38,0,0,1,.35.63.294.294,0,0,1-.042.154.427.427,0,0,1-.406.2,1.4,1.4,0,0,1-.553-.14,3.967,3.967,0,0,1-.623-.35,7.07,7.07,0,0,1-1.722-1.736,8.19,8.19,0,0,1-2.31,1.708l-.168-.182a8.326,8.326,0,0,0,2.086-2.114,11.152,11.152,0,0,1-1.316-4.032H-25.13v1.75a12.2,12.2,0,0,1-.35,3.031,4.656,4.656,0,0,1-1.5,2.373l-.168-.168a5.785,5.785,0,0,0,.952-2.31A16.794,16.794,0,0,0-25.97,15.1V13.788a9.943,9.943,0,0,0-.084-1.386l1.092.532h4.942q-.1-.84-.126-1.736,1.218.07,1.218.238,0,.056-.1.126l-.21.14q.014.6.084,1.232h2.688Zm-2.212-1.274a2.666,2.666,0,0,1,1.323.35.8.8,0,0,1,.427.63.422.422,0,0,1-.112.3.385.385,0,0,1-.294.119.615.615,0,0,1-.294-.084,1.9,1.9,0,0,0-.462-.63,4.18,4.18,0,0,0-.7-.546Zm-4.732,3.738a5.32,5.32,0,0,0-1.26.2l-.364-.728q.77.084,1.862.112h1.372l.252-.364.119-.161a1.4,1.4,0,0,1,.126-.154.147.147,0,0,1,.1-.049.791.791,0,0,1,.329.189,3.825,3.825,0,0,1,.455.413q.21.224.21.322-.056.224-.35.224Zm1.792.784q.042-.056.1-.14a.852.852,0,0,1,.1-.126.134.134,0,0,1,.1-.042.791.791,0,0,1,.329.189,4.213,4.213,0,0,1,.455.406q.21.217.21.315a.908.908,0,0,1-.217.147,1.044,1.044,0,0,1-.315.1v.7l.014.42q.014.476.056.882a.579.579,0,0,1-.315.238,1.2,1.2,0,0,1-.469.112h-.126v-.5h-2.044V19q0,.07-.231.175a1.094,1.094,0,0,1-.455.105.149.149,0,0,1-.133-.084.382.382,0,0,1-.049-.2q.042-.336.056-.63l.014-.294v-.6a12.252,12.252,0,0,0-.112-1.876l.98.476h1.862Zm-.084,2.3V16.49h-2.044v1.582Zm-.518,1.68a4.8,4.8,0,0,1,1.428.455,2.364,2.364,0,0,1,.805.637,1.09,1.09,0,0,1,.245.63.514.514,0,0,1-.112.343.366.366,0,0,1-.294.133.6.6,0,0,1-.28-.084,3.473,3.473,0,0,0-.777-1.071,5.718,5.718,0,0,0-1.141-.9ZM-23.59,21.5a11.394,11.394,0,0,0-.084-1.484q1.232.392,1.232.574,0,.056-.1.126l-.2.14v1.9a.186.186,0,0,0,.1.2,1.982,1.982,0,0,0,.539.042H-20.4q1.134,0,1.582-.028a.4.4,0,0,0,.189-.035.339.339,0,0,0,.119-.133,7.729,7.729,0,0,0,.378-1.456h.182l.028,1.512a.776.776,0,0,1,.308.154.285.285,0,0,1,.084.21.387.387,0,0,1-.224.35,2.348,2.348,0,0,1-.84.182q-.616.056-1.848.056H-22.2a3.732,3.732,0,0,1-.889-.077.6.6,0,0,1-.392-.266,1.163,1.163,0,0,1-.1-.553ZM-17.7,20.27a6.123,6.123,0,0,1,1.624.819,3.453,3.453,0,0,1,.91.931,1.655,1.655,0,0,1,.28.84.674.674,0,0,1-.126.427.405.405,0,0,1-.336.161.636.636,0,0,1-.364-.126,4.431,4.431,0,0,0-.805-1.519,8.238,8.238,0,0,0-1.323-1.393Zm-7.182.1a4.978,4.978,0,0,1,.07.742,2.957,2.957,0,0,1-.315,1.414,2.34,2.34,0,0,1-.735.868,1.089,1.089,0,0,1-.574.182.432.432,0,0,1-.42-.21.434.434,0,0,1-.028-.182.532.532,0,0,1,.1-.315,1.038,1.038,0,0,1,.273-.259,2.394,2.394,0,0,0,.91-.882,2.9,2.9,0,0,0,.462-1.372Zm17.822-6.706A8.469,8.469,0,0,1-8.82,14.6q-.518,1.414-1.141,3.059t-1.015,2.625a.635.635,0,0,1-.231.28.552.552,0,0,1-.315.112.279.279,0,0,1-.266-.2,1.248,1.248,0,0,1-.084-.49.694.694,0,0,1,.021-.21,1.074,1.074,0,0,1,.091-.168q.154-.28.266-.5.252-.546.616-1.2.49-.952.819-1.659a12.9,12.9,0,0,0,.567-1.435,2.6,2.6,0,0,1-.532.07,1.575,1.575,0,0,1-.952-.266,1.836,1.836,0,0,1-.546-.6.534.534,0,0,1-.1-.28q0-.084.07-.084t.2.14a1.43,1.43,0,0,0,1.008.294,3.853,3.853,0,0,0,1.092-.21,2.4,2.4,0,0,0,.056-.546,1.245,1.245,0,0,0-.182-.714.823.823,0,0,0-.315-.273q-.2-.1-.2-.147t.091-.1a.514.514,0,0,1,.217-.042,1.159,1.159,0,0,1,.392.07,1.349,1.349,0,0,1,.6.35A.783.783,0,0,1-8.414,13a1.939,1.939,0,0,1-.1.588l.252-.126q.112-.07.2-.133t.084-.119q0-.056-.126-.154a1.294,1.294,0,0,0-.161-.1q-.1-.056-.1-.1t.126-.056l.5.014A.925.925,0,0,0-7.5,12.78a1,1,0,0,1,.273-.042.426.426,0,0,1,.315.119.408.408,0,0,1,.119.3.621.621,0,0,1-.07.28A.57.57,0,0,1-7.056,13.662Zm2.87,2.044a1.334,1.334,0,0,0-1.029.434,1.866,1.866,0,0,0-.4,1.3,18.774,18.774,0,0,0,.2,2.282q.084.588.112.882a8.968,8.968,0,0,1,1.281.441,3.067,3.067,0,0,1,.875.525.853.853,0,0,1,.308.56.376.376,0,0,1-.105.266.341.341,0,0,1-.259.112.635.635,0,0,1-.287-.084q-.161-.084-.441-.266a5.719,5.719,0,0,0-1.316-.644,3.124,3.124,0,0,1,.014.35,1.373,1.373,0,0,1-.581,1.169,2.242,2.242,0,0,1-1.365.427,2.51,2.51,0,0,1-.945-.189,1.963,1.963,0,0,1-.77-.539,1.226,1.226,0,0,1-.3-.826A1.228,1.228,0,0,1-8.484,20.8a3.542,3.542,0,0,1,1.75-.4,4.081,4.081,0,0,1,.672.056q-.1-1.54-.1-2.058a6.265,6.265,0,0,1,.147-1.526,1.876,1.876,0,0,1,.609-.959,3.978,3.978,0,0,1,1.414-.693q.266-.07.266-.266a.686.686,0,0,0-.2-.406,2.469,2.469,0,0,0-.413-.392q-.084-.07-.084-.1t.1-.028A1.538,1.538,0,0,1-4,14.075a1.96,1.96,0,0,1,.364.119,3.255,3.255,0,0,1,.924.637,1.179,1.179,0,0,1,.448.805.572.572,0,0,1-.2.434.64.64,0,0,1-.448.182.617.617,0,0,1-.28-.063,2.007,2.007,0,0,1-.308-.2,2.353,2.353,0,0,0-.343-.21A.79.79,0,0,0-4.186,15.706Zm-3.192,7.028a1.2,1.2,0,0,0,1.064-.385,2.022,2.022,0,0,0,.266-1.071,5.349,5.349,0,0,0-1.12-.126,2.579,2.579,0,0,0-1.064.2.622.622,0,0,0-.434.574.657.657,0,0,0,.385.6A1.857,1.857,0,0,0-7.378,22.734Zm17.57-6.146q.042-.056.119-.154a1.04,1.04,0,0,1,.126-.14.159.159,0,0,1,.1-.042q.126,0,.546.413t.42.567a.874.874,0,0,1-.56.224,32.126,32.126,0,0,1-.4,3.976A4.027,4.027,0,0,1,9.786,23.5a2.089,2.089,0,0,1-1.61.56q0-.518-.294-.672a5.425,5.425,0,0,0-1.624-.448v-.238q2.044.2,2.352.2a1.2,1.2,0,0,0,.336-.035.674.674,0,0,0,.238-.147,3.493,3.493,0,0,0,.546-1.757q.224-1.477.336-3.633h-4.1a10.511,10.511,0,0,1-1.575,4,8.693,8.693,0,0,1-3.311,2.772l-.126-.182a9.27,9.27,0,0,0,2.513-2.541,9.865,9.865,0,0,0,1.316-3.122,20.747,20.747,0,0,0,.483-3.927H3.22a14.186,14.186,0,0,0-2.1.2l-.364-.7q.77.084,1.862.112H6.524a18.969,18.969,0,0,0-.168-2.772q1.428.392,1.428.588,0,.07-.112.14l-.238.154v1.89h3.822l.308-.434q.056-.07.147-.2t.147-.189a.155.155,0,0,1,.112-.063,1.054,1.054,0,0,1,.385.224,5.076,5.076,0,0,1,.56.483q.259.259.259.357-.056.21-.35.21h-6.5q-.112,1.526-.28,2.576H9.94Zm7.5,6.5a.657.657,0,0,1-.427-.217,1.222,1.222,0,0,1-.329-.511,9.962,9.962,0,0,1-.518-3.458,9.114,9.114,0,0,1,.14-1.68,15.366,15.366,0,0,1,.378-1.54q.1-.378.182-.742a2.861,2.861,0,0,0,.084-.63,1.648,1.648,0,0,0-.1-.546,1.281,1.281,0,0,0-.252-.448.5.5,0,0,1-.112-.21q0-.07.056-.07a.479.479,0,0,1,.224.084,2.46,2.46,0,0,1,.735.7,1.82,1.82,0,0,1,.273,1.036,1.9,1.9,0,0,1-.084.546,5.417,5.417,0,0,1-.2.546q-.112.266-.14.35a7.449,7.449,0,0,0-.434,1.19,4.436,4.436,0,0,0-.14,1.106,3.882,3.882,0,0,0,.056.679q.056.315.168.315.07,0,.238-.28l.252-.518.476-.952q.1-.154.14-.154t.042.056l-.042.168q-.182.49-.406,1.267a4.852,4.852,0,0,0-.224,1.3,10.031,10.031,0,0,0,.238,1.792,4.186,4.186,0,0,1,.07.448.352.352,0,0,1-.112.28A.357.357,0,0,1,17.7,23.084ZM22.764,15.2a3.757,3.757,0,0,1-1.008-.112,2.786,2.786,0,0,1-.819-.364,1.363,1.363,0,0,1-.483-.49.43.43,0,0,1-.056-.168.037.037,0,0,1,.042-.042.346.346,0,0,1,.147.07,1.272,1.272,0,0,0,.2.112,2.657,2.657,0,0,0,1.008.182,9.247,9.247,0,0,0,1.071-.084q.679-.084,1.127-.182a.9.9,0,0,1,.266-.056.822.822,0,0,1,.49.161.44.44,0,0,1,.224.343q0,.322-.714.476A7.089,7.089,0,0,1,22.764,15.2Zm.49,7.224a5.667,5.667,0,0,1-1.89-.287A1.867,1.867,0,0,1,20.216,21a1.17,1.17,0,0,1-.084-.252.049.049,0,0,1,.056-.056.188.188,0,0,1,.1.049q.063.049.105.077a3.282,3.282,0,0,0,1.218.588,4.118,4.118,0,0,0,.966.084,13.44,13.44,0,0,0,1.862-.168l.476-.056a.8.8,0,0,1,.525.168.475.475,0,0,1,.2.364q0,.378-.665.5A9.613,9.613,0,0,1,23.254,22.426Zm12.04-5.558a5.954,5.954,0,0,1,2.359,1.771,3.686,3.686,0,0,1,.847,2.275,2.533,2.533,0,0,1-.427,1.456,2.8,2.8,0,0,1-1.127.966,3.417,3.417,0,0,1-1.5.336,2.215,2.215,0,0,1-1.995-.875,4.07,4.07,0,0,1-.581-2.289q0-.6.014-.9a2.389,2.389,0,0,1-.791-.427.8.8,0,0,1-.3-.623q0-.812,1.414-2.072.126-.742.252-1.344a7.49,7.49,0,0,1-.889-.434,3,3,0,0,1-.609-.434l-.084-.084a.154.154,0,0,1-.056-.1.074.074,0,0,1,.084-.084,1.17,1.17,0,0,1,.2.056,5.257,5.257,0,0,0,.861.224q.525.1.637.126a8.236,8.236,0,0,0,.182-1.47,2.18,2.18,0,0,0-.154-.854,1.743,1.743,0,0,0-.336-.532.229.229,0,0,1-.084-.14q0-.1.154-.1a.983.983,0,0,1,.378.1,1.676,1.676,0,0,1,.42.266,1.212,1.212,0,0,1,.5.938,1.331,1.331,0,0,1-.056.364q-.056.2-.182.518a10.62,10.62,0,0,0-.336,1.008,6.323,6.323,0,0,1,.854.252.841.841,0,0,1,.4.322.76.76,0,0,1,.133.406.38.38,0,0,1-.112.28.408.408,0,0,1-.252.126,3.069,3.069,0,0,0-1.428.5,21.6,21.6,0,0,0-.322,2.548l.14.014a7.968,7.968,0,0,0,1.05.056,1.572,1.572,0,0,1,.616.1.385.385,0,0,1,.224.392.3.3,0,0,1-.217.322,1.618,1.618,0,0,1-.5.07,6.008,6.008,0,0,1-1.344-.168v.14a4.862,4.862,0,0,0,.413,2.226,1.655,1.655,0,0,0,1.617.784,2.313,2.313,0,0,0,1.12-.273,2.048,2.048,0,0,0,.805-.791,2.353,2.353,0,0,0,.3-1.2,3.347,3.347,0,0,0-.686-1.9,6.54,6.54,0,0,0-1.75-1.7q-.168-.112-.168-.182,0-.042.07-.042A.555.555,0,0,1,35.294,16.868Zm-1.386-1.54-.084.42-.07.308q.2-.14.364-.287t.168-.217q0-.056-.084-.1a.675.675,0,0,0-.161-.07.659.659,0,0,1-.1-.035Zm-1.61,2.94q0,.378.63.574.07-.9.224-2.016a3.251,3.251,0,0,0-.623.77A1.451,1.451,0,0,0,32.3,18.268ZM-18.592,37.18a3.905,3.905,0,0,1,1.463.266,2.421,2.421,0,0,1,1.064.8,2.085,2.085,0,0,1,.4,1.288,2.149,2.149,0,0,1-.343,1.19,2.42,2.42,0,0,1-.931.84,2.7,2.7,0,0,1-1.274.308,3.151,3.151,0,0,1-1.54-.427,5.643,5.643,0,0,1-1.5-1.267.8.8,0,0,1-.21-.336.037.037,0,0,1,.042-.042.322.322,0,0,1,.147.084q.1.084.2.154a6.435,6.435,0,0,0,1.351.686,3.877,3.877,0,0,0,1.337.28,1.943,1.943,0,0,0,1.344-.462,1.491,1.491,0,0,0,.518-1.162,1.415,1.415,0,0,0-.609-1.246,2.665,2.665,0,0,0-1.547-.42,5.6,5.6,0,0,0-1.792.322,5.981,5.981,0,0,0-1.75.938q-.392.294-1.176.994.448.784.812,1.533t.7,1.463a20.228,20.228,0,0,1,.8,1.932,4.089,4.089,0,0,1,.266,1.12.579.579,0,0,1-.154.406.525.525,0,0,1-.406.168.452.452,0,0,1-.448-.273,2.762,2.762,0,0,1-.2-.707,13.712,13.712,0,0,0-.623-2.653,17.863,17.863,0,0,0-1.169-2.6,11.337,11.337,0,0,1-1.008.861,1.188,1.188,0,0,1-.658.273,1.227,1.227,0,0,1-.749-.3,1.383,1.383,0,0,1-.5-.651.31.31,0,0,1-.014-.1q0-.056.028-.056a.215.215,0,0,1,.1.056.955.955,0,0,0,.588.168,1.065,1.065,0,0,0,.546-.147,5.217,5.217,0,0,0,.616-.441l.336-.252.266-.2q-.294-.546-.686-1.162a2.408,2.408,0,0,1-.42-1.218,1.075,1.075,0,0,1,.42-.882,1.741,1.741,0,0,1,1.12-.336,6.058,6.058,0,0,1,.966.084l.28.056a8.876,8.876,0,0,0,1.078.14q.35,0,.35-.182,0-.224-.406-.574-.028-.028-.147-.119t-.119-.147q0-.042.056-.042a1.389,1.389,0,0,1,.448.14,3.605,3.605,0,0,1,.861.553,1.009,1.009,0,0,1,.4.777.445.445,0,0,1-.21.392.793.793,0,0,1-.448.14,2.261,2.261,0,0,1-.91-.294,4.478,4.478,0,0,0-1.848-.49,1.231,1.231,0,0,0-.84.259.911.911,0,0,0-.294.721,1.978,1.978,0,0,0,.2.84,9.925,9.925,0,0,0,.581,1.036A9.843,9.843,0,0,1-18.592,37.18Zm14.826,3.444a3.065,3.065,0,0,1,.574,1.54,1.318,1.318,0,0,1-.329.819.91.91,0,0,1-.693.413.565.565,0,0,1-.392-.2,4.522,4.522,0,0,0-1.239-.749A4.126,4.126,0,0,0-7.5,42.108a2.638,2.638,0,0,0-1.575.42,1.315,1.315,0,0,0-.581,1.12,1.241,1.241,0,0,0,.518,1.064,2.66,2.66,0,0,0,1.568.378q.168,0,.9-.07a3.413,3.413,0,0,1,.434-.042.758.758,0,0,1,.532.168.5.5,0,0,1,.182.378q0,.392-.672.49a8.209,8.209,0,0,1-1.162.084,3.431,3.431,0,0,1-2.282-.658,2.046,2.046,0,0,1-.728-1.6,1.764,1.764,0,0,1,.406-1.162,2.526,2.526,0,0,1,1.057-.742,3.786,3.786,0,0,1,1.379-.252,5.9,5.9,0,0,1,1.155.1q.525.1,1.141.287a2.681,2.681,0,0,0,.574.14.371.371,0,0,0,.3-.147.571.571,0,0,0,.119-.371,1.06,1.06,0,0,0-.084-.392,7.13,7.13,0,0,0-2.45-2.968,5.98,5.98,0,0,1-1.351.5,5.063,5.063,0,0,1-1.071.147,2.908,2.908,0,0,1-1.253-.28,3.006,3.006,0,0,1-1.015-.77.5.5,0,0,1-.14-.238q0-.084.07-.084a.365.365,0,0,1,.147.063q.1.063.161.091a7.053,7.053,0,0,0,.924.406,2.626,2.626,0,0,0,.868.182A3.5,3.5,0,0,0-8.61,38.2q.56-.154,1.12-.364-.546-.364-.875-.546l-.357-.2a1.55,1.55,0,0,1-.483-.427A.815.815,0,0,1-9.38,36.2a.643.643,0,0,1,.217-.455.655.655,0,0,1,.469-.217.454.454,0,0,1,.28.084,3.9,3.9,0,0,0,1.057.511,3.766,3.766,0,0,0,1.141.189l.448-.028.35-.028q.658,0,.658.364a.979.979,0,0,1-.406.658,6.515,6.515,0,0,1-1.106.8A10.39,10.39,0,0,1-3.766,40.624Zm-4.088-3.612q.35.21.91.588a2.081,2.081,0,0,0,.6-.406.339.339,0,0,0,.084-.182q0-.084-.126-.14-.42-.2-.994-.42a2.843,2.843,0,0,0-.742-.224q-.21,0-.21.238Q-8.33,36.732-7.854,37.012ZM6.664,46.28a3.072,3.072,0,0,1-1.785-.455,2.38,2.38,0,0,1-.91-1.316,7.758,7.758,0,0,1-.259-2.191q0-1.33.182-3.122Q4,38.02,4,37.642A4.338,4.338,0,0,0,3.9,36.557a1.011,1.011,0,0,0-.469-.609q-.112-.07-.112-.154,0-.154.392-.154a1.12,1.12,0,0,1,1,.406,1.959,1.959,0,0,1,.273,1.106q0,.462-.2,2.1a27.076,27.076,0,0,0-.224,3.15,6.087,6.087,0,0,0,.217,1.841,1.594,1.594,0,0,0,.735.938,3.038,3.038,0,0,0,1.456.287q1.68,0,4.452-2.03.028-.014.133-.084a.336.336,0,0,1,.161-.07q.042,0,.042.056,0,.1-.182.28a12.513,12.513,0,0,1-2.429,1.932A4.816,4.816,0,0,1,6.664,46.28Zm12.866-.728a1.831,1.831,0,0,1-.728-.21,4.2,4.2,0,0,1-.98-.686,4.484,4.484,0,0,1-1.358-3.5,11.888,11.888,0,0,1,.154-1.722,7.554,7.554,0,0,0,.084-.84,1.509,1.509,0,0,0-.119-.609,1.619,1.619,0,0,0-.413-.539q-.084-.07-.084-.112t.056-.063a.317.317,0,0,1,.112-.021,1.477,1.477,0,0,1,.637.175,1.932,1.932,0,0,1,.609.462.882.882,0,0,1,.252.581,1.589,1.589,0,0,1-.063.413q-.063.231-.147.483-.182.588-.273,1.008a4.669,4.669,0,0,0-.091.98,3.163,3.163,0,0,0,.287,1.365,2.924,2.924,0,0,0,.672.952,1.094,1.094,0,0,0,.665.343q.168,0,.224-.294a10.911,10.911,0,0,1,.273-1.064,5.1,5.1,0,0,1,.231-.63.9.9,0,0,1,.1-.175q.056-.077.1-.077t.042.084a1.681,1.681,0,0,1-.028.238,6.816,6.816,0,0,0-.14,1.3q0,.21.014.4t.028.3a1.845,1.845,0,0,0,.154.6,1.8,1.8,0,0,1,.112.462.4.4,0,0,1-.1.287A.364.364,0,0,1,19.53,45.552Zm5.81-3.724a.52.52,0,0,1-.385-.112.876.876,0,0,1-.175-.308q-.014-.028-.245-.9a1.768,1.768,0,0,0-.9-1.211,1.889,1.889,0,0,0-.868-.168H22.6q-.126,0-.126-.084,0-.056.14-.112a1.387,1.387,0,0,1,.273-.07,2.55,2.55,0,0,1,.483-.042,2.362,2.362,0,0,1,1.694.686,2.672,2.672,0,0,1,.686.945,2.192,2.192,0,0,1,.182.721.714.714,0,0,1-.161.455A.518.518,0,0,1,25.34,41.828Z" transform="translate(10686.074 -464.004)" fill="#333"/>
          </g>
        </g>
      </g>
    </g>
    <path id="パス_5372" data-name="パス 5372" d="M11.84-11.072l.12-.16a.92.92,0,0,1,.128-.144.181.181,0,0,1,.12-.048,1.035,1.035,0,0,1,.4.216,4.848,4.848,0,0,1,.568.472q.264.256.264.368a1.166,1.166,0,0,1-.672.32v6.976Q12.8-1.088,12.9.688a1.229,1.229,0,0,1-.44.336,1.263,1.263,0,0,1-.568.16.182.182,0,0,1-.168-.1.436.436,0,0,1-.056-.224L11.728.48V.112h-7.3V.8q0,.128-.264.272a1.168,1.168,0,0,1-.568.144.363.363,0,0,1-.24-.1A.288.288,0,0,1,3.248.9q.064-.944.112-1.832t.064-2.328V-8.08a20.932,20.932,0,0,0-.208-3.28l1.328.624H6.768A9.693,9.693,0,0,0,7.1-12.152a7.309,7.309,0,0,0,.112-1.368q1.76.32,1.76.528,0,.08-.128.128l-.272.144a11.3,11.3,0,0,1-1.328,1.984h4.336Zm-.112,3.728v-2.912h-7.3v2.912Zm0,3.456V-6.88h-7.3v2.992Zm-7.3.48V-.352h7.3V-3.408Zm24.9-6.384q.064-.08.152-.216a1.267,1.267,0,0,1,.152-.2.184.184,0,0,1,.128-.064,1.078,1.078,0,0,1,.416.248,5.642,5.642,0,0,1,.592.528q.272.28.272.392-.064.256-.4.256H26.928a7.533,7.533,0,0,0,1.48,3.192A6.812,6.812,0,0,0,31.12-3.7l-.016.16a1.043,1.043,0,0,0-.568.28,1.333,1.333,0,0,0-.36.616,6.485,6.485,0,0,1-2.3-2.328,11.1,11.1,0,0,1-1.208-3.608,7.313,7.313,0,0,1-1.544,3.448,9.274,9.274,0,0,1-3.8,2.488l-.208-.272A8.509,8.509,0,0,0,24.432-5.44,7.6,7.6,0,0,0,25.76-8.848H23.776l-.112-.416a12.545,12.545,0,0,1-6.48,7.216l-.176-.208A12.213,12.213,0,0,0,20.88-5.9a15.191,15.191,0,0,0,2.192-4.952H20.336l-.16.288q-.176.336-.416.7a3.236,3.236,0,0,1,1.5.608,1.141,1.141,0,0,1,.488.832.468.468,0,0,1-.112.32.365.365,0,0,1-.288.128.617.617,0,0,1-.3-.08,2.41,2.41,0,0,0-.56-.808,5.008,5.008,0,0,0-.9-.728A12.755,12.755,0,0,1,18.448-8.1a3.427,3.427,0,0,1,1.512.776,1.378,1.378,0,0,1,.488.936.555.555,0,0,1-.12.368.387.387,0,0,1-.312.144.629.629,0,0,1-.336-.112,2.515,2.515,0,0,0-.5-.976,5.886,5.886,0,0,0-.888-.928A9.956,9.956,0,0,1,17.04-6.752l-.176-.192a13.7,13.7,0,0,0,2.128-3.248,13.64,13.64,0,0,0,.672-1.744,8.525,8.525,0,0,0,.384-1.648q1.536.512,1.536.72,0,.08-.16.128l-.3.1q-.128.368-.56,1.344h2.48l.272-.32q.064-.064.184-.2a.322.322,0,0,1,.216-.136q.144,0,.592.432t.448.608a.482.482,0,0,1-.224.152,1.744,1.744,0,0,1-.384.056q-.288.928-.448,1.376h2.128l.048-.512q.032-.64.032-1.008a15.218,15.218,0,0,0-.16-2.3q1.552.144,1.552.352,0,.032-.128.128l-.24.16-.016.5q-.032,1.6-.128,2.688h2.224Zm-1.76-2.576a3.429,3.429,0,0,1,1.456.744,1.288,1.288,0,0,1,.464.888.6.6,0,0,1-.136.4.432.432,0,0,1-.344.16.638.638,0,0,1-.384-.144,3.127,3.127,0,0,0-.472-1.016,5.035,5.035,0,0,0-.76-.9ZM27.7-2.592a7.7,7.7,0,0,1,1.856,1.064A4.258,4.258,0,0,1,30.584-.4,2.01,2.01,0,0,1,30.9.576a.735.735,0,0,1-.128.456.4.4,0,0,1-.336.168.764.764,0,0,1-.4-.144,5.948,5.948,0,0,0-.976-1.784,12.5,12.5,0,0,0-1.536-1.72Zm-8.032.032a4.963,4.963,0,0,1,.064.816,3.344,3.344,0,0,1-.416,1.728,2.746,2.746,0,0,1-.976,1.024,1.28,1.28,0,0,1-.688.224.436.436,0,0,1-.464-.256.426.426,0,0,1-.048-.192.552.552,0,0,1,.12-.336,1.036,1.036,0,0,1,.312-.272,3.02,3.02,0,0,0,1.24-1.032,3.15,3.15,0,0,0,.616-1.7Zm5.184.048a5.1,5.1,0,0,1,1.56,1.44A2.584,2.584,0,0,1,26.9.3a1.008,1.008,0,0,1-.144.568.429.429,0,0,1-.368.216A.6.6,0,0,1,25.968.88a5,5,0,0,0-.44-1.64A10.158,10.158,0,0,0,24.64-2.4Zm-2.944.08a4.8,4.8,0,0,1,1.016,1.32A2.791,2.791,0,0,1,23.248.112a1.308,1.308,0,0,1-.176.72.5.5,0,0,1-.416.272.6.6,0,0,1-.464-.256q.032-.32.032-.5a6.778,6.778,0,0,0-.152-1.384,8.843,8.843,0,0,0-.376-1.32Zm22.064-7.952.136-.184a1.637,1.637,0,0,1,.152-.184.184.184,0,0,1,.128-.064.99.99,0,0,1,.392.216,4.213,4.213,0,0,1,.544.472q.248.256.248.368-.064.256-.4.256H40.48v1.44H44.8l.336-.464q.048-.064.144-.2a1.638,1.638,0,0,1,.168-.208.2.2,0,0,1,.136-.072A1.078,1.078,0,0,1,46-8.76a5.642,5.642,0,0,1,.592.528q.272.28.272.392-.064.256-.416.256H39.936A19.681,19.681,0,0,1,37.68-5.776a1.306,1.306,0,0,1,.608.976.492.492,0,0,1-.112.336.4.4,0,0,1-.32.128.822.822,0,0,1-.256-.048,4.71,4.71,0,0,0-1.112-1.1,7.762,7.762,0,0,0-1.48-.888l.128-.192a5.763,5.763,0,0,1,2.208.576q.56-.72,1.12-1.6H35.888a16.212,16.212,0,0,0-2.4.224l-.416-.832q.88.1,2.128.128h4.256V-9.5H37.344a16.212,16.212,0,0,0-2.4.224l-.416-.816q.88.1,2.128.128h2.8v-1.424h-2.72a16.213,16.213,0,0,0-2.4.224l-.416-.816q.88.1,2.128.128h3.408a12,12,0,0,0-.1-1.632,10.264,10.264,0,0,1,1.176.408q.328.152.328.28,0,.08-.128.16l-.256.176v.608h3.728l.32-.448q.064-.08.152-.2a1.637,1.637,0,0,1,.152-.184.184.184,0,0,1,.128-.064,1.1,1.1,0,0,1,.416.232,5.394,5.394,0,0,1,.592.5q.272.264.272.376-.064.256-.416.256H40.48v1.424h3.184Zm.48,6.528a10.129,10.129,0,0,0-1.792-1.232l.144-.176a7.627,7.627,0,0,1,2.136.68,3.6,3.6,0,0,1,1.216.936,1.543,1.543,0,0,1,.376.9.557.557,0,0,1-.128.384.428.428,0,0,1-.336.144.853.853,0,0,1-.3-.08,4.65,4.65,0,0,0-.912-1.184q-2.3.208-4.384.368v1.36q.032,1.632.1,2.608a.937.937,0,0,1-.344.248,1.368,1.368,0,0,1-.6.12.266.266,0,0,1-.2-.1A.321.321,0,0,1,39.328.9q.1-1.248.128-2.528V-3.056l-4.336.3L34.3-2.7a.57.57,0,0,1-.416.32l-.576-1.28q1.648,0,4.576-.048.8-.592,1.648-1.312a11.891,11.891,0,0,0,1.2-1.176A6.555,6.555,0,0,0,41.6-7.392q1.312.688,1.312.88,0,.064-.144.1l-.288.032A14.22,14.22,0,0,1,40.8-5.056a24.685,24.685,0,0,1-2.144,1.328ZM37.792-1.808q.544.288.544.416,0,.1-.176.1h-.272a12.063,12.063,0,0,1-2.04,1.24A15.35,15.35,0,0,1,33.36.928l-.144-.24a14.893,14.893,0,0,0,1.568-.912A9.616,9.616,0,0,0,36.112-1.28a5.363,5.363,0,0,0,.944-1.136ZM41.728-2a10.337,10.337,0,0,1,2.6.64,4.354,4.354,0,0,1,1.5.928,1.4,1.4,0,0,1,.464.9.449.449,0,0,1-.128.344.494.494,0,0,1-.352.12A.682.682,0,0,1,45.568.9a7.645,7.645,0,0,0-1.72-1.448A14.776,14.776,0,0,0,41.6-1.792ZM54.08-10.192q.048-.064.136-.2a1.267,1.267,0,0,1,.152-.2.184.184,0,0,1,.128-.064,1,1,0,0,1,.4.24,5.146,5.146,0,0,1,.56.512q.256.272.256.384a.343.343,0,0,1-.384.256h-2.5v1.632a5,5,0,0,1,1.832,1.16,1.881,1.881,0,0,1,.584,1.208.678.678,0,0,1-.136.44.44.44,0,0,1-.36.168.681.681,0,0,1-.416-.16,4.157,4.157,0,0,0-.568-1.256,9.734,9.734,0,0,0-.936-1.256V-2.96Q52.864-.976,52.96.8a.858.858,0,0,1-.368.32,1.126,1.126,0,0,1-.528.144.4.4,0,0,1-.272-.1A.288.288,0,0,1,51.68.944q.064-.944.112-1.832t.064-2.328V-6.48A13.848,13.848,0,0,1,48.976-2.1L48.768-2.3A14.144,14.144,0,0,0,50.5-5.48a21.834,21.834,0,0,0,1.128-3.784h-.8a6.08,6.08,0,0,0-1.44.224l-.416-.832q.8.1,1.952.128h.928v-.48a20.931,20.931,0,0,0-.208-3.28,12.324,12.324,0,0,1,1.256.424q.344.152.344.28,0,.08-.144.16l-.272.176v2.72h.944ZM59.6-7.376a15.979,15.979,0,0,1-2.288,3.36A16.063,16.063,0,0,1,54.24-1.328l-.192-.224a16.253,16.253,0,0,0,3.04-3.48A19.126,19.126,0,0,0,59.2-9.28H58.112a11.428,11.428,0,0,0-2.016.224l-.416-.816q.88.1,2.128.128H59.6v-.464a20.931,20.931,0,0,0-.208-3.28q1.632.448,1.632.688,0,.08-.144.16l-.288.176v2.72h.64l.288-.464q.048-.064.136-.2a1.778,1.778,0,0,1,.152-.208.177.177,0,0,1,.128-.072.92.92,0,0,1,.384.24,4.937,4.937,0,0,1,.536.52q.248.28.248.392-.048.256-.384.256H60.592V-.3a2.033,2.033,0,0,1-.12.768.991.991,0,0,1-.488.48,3.052,3.052,0,0,1-1.1.256A.846.846,0,0,0,58.5.528a4.357,4.357,0,0,0-1.5-.4V-.128q1.856.144,2.192.144a.465.465,0,0,0,.328-.088.409.409,0,0,0,.088-.3Zm12.672-3.776a6.99,6.99,0,0,1,2.672.552,5.335,5.335,0,0,1,2.264,1.776,5.064,5.064,0,0,1,.92,3.128A4.743,4.743,0,0,1,76.6-1.888a7.541,7.541,0,0,1-3.264,1.7,13.628,13.628,0,0,1-2.9.392q-.224,0-.224-.08,0-.1.64-.208A9.731,9.731,0,0,0,75.3-1.92a4.623,4.623,0,0,0,1.712-3.84,4.949,4.949,0,0,0-.728-2.792,4.329,4.329,0,0,0-1.848-1.6,5.631,5.631,0,0,0-2.336-.5,3.57,3.57,0,0,0-.4.016,3.865,3.865,0,0,1,.32,1.008,5.816,5.816,0,0,1,.112,1.072,7.886,7.886,0,0,1-.576,2.72,12.555,12.555,0,0,1-1.208,2.472,7.262,7.262,0,0,1-1.312,1.584,1.813,1.813,0,0,1-1.016.536,1.447,1.447,0,0,1-1.08-.568,4.1,4.1,0,0,1-.8-1.5,6.332,6.332,0,0,1-.3-1.936,5.379,5.379,0,0,1,.912-3.08,6.109,6.109,0,0,1,2.4-2.088A6.95,6.95,0,0,1,72.272-11.152ZM71.616-9.36a4.053,4.053,0,0,0-.176-1.248,5.435,5.435,0,0,0-2.312.856,5.206,5.206,0,0,0-1.7,1.832,5.124,5.124,0,0,0-.64,2.56,4.742,4.742,0,0,0,.232,1.6,2.735,2.735,0,0,0,.52.944q.288.3.464.3a1.483,1.483,0,0,0,.952-.6,9.261,9.261,0,0,0,1.016-1.336A11.081,11.081,0,0,0,71.24-7.016,7.661,7.661,0,0,0,71.616-9.36ZM86.32-.512a2.092,2.092,0,0,1-.832-.24,4.8,4.8,0,0,1-1.12-.784,5.125,5.125,0,0,1-1.552-4A13.586,13.586,0,0,1,82.992-7.5a8.633,8.633,0,0,0,.1-.96,1.724,1.724,0,0,0-.136-.7,1.851,1.851,0,0,0-.472-.616q-.1-.08-.1-.128t.064-.072A.362.362,0,0,1,82.576-10a1.689,1.689,0,0,1,.728.2,2.208,2.208,0,0,1,.7.528,1.008,1.008,0,0,1,.288.664,1.816,1.816,0,0,1-.072.472q-.072.264-.168.552-.208.672-.312,1.152a5.337,5.337,0,0,0-.1,1.12,3.615,3.615,0,0,0,.328,1.56,3.342,3.342,0,0,0,.768,1.088,1.25,1.25,0,0,0,.76.392q.192,0,.256-.336a12.47,12.47,0,0,1,.312-1.216,5.822,5.822,0,0,1,.264-.72,1.025,1.025,0,0,1,.112-.2q.064-.088.112-.088t.048.1a1.92,1.92,0,0,1-.032.272,7.789,7.789,0,0,0-.16,1.488q0,.24.016.456t.032.344a2.109,2.109,0,0,0,.176.688,2.057,2.057,0,0,1,.128.528.462.462,0,0,1-.112.328A.416.416,0,0,1,86.32-.512Zm6.64-4.256a.594.594,0,0,1-.44-.128,1,1,0,0,1-.2-.352Q92.3-5.28,92.04-6.28a2.021,2.021,0,0,0-1.032-1.384,2.159,2.159,0,0,0-.992-.192h-.192q-.144,0-.144-.1,0-.064.16-.128a1.585,1.585,0,0,1,.312-.08,2.915,2.915,0,0,1,.552-.048,2.7,2.7,0,0,1,1.936.784,3.054,3.054,0,0,1,.784,1.08,2.505,2.505,0,0,1,.208.824.816.816,0,0,1-.184.52A.592.592,0,0,1,92.96-4.768Zm9.36,4.256a2.092,2.092,0,0,1-.832-.24,4.8,4.8,0,0,1-1.12-.784,5.125,5.125,0,0,1-1.552-4A13.586,13.586,0,0,1,98.992-7.5a8.633,8.633,0,0,0,.1-.96,1.724,1.724,0,0,0-.136-.7,1.851,1.851,0,0,0-.472-.616q-.1-.08-.1-.128t.064-.072A.362.362,0,0,1,98.576-10a1.689,1.689,0,0,1,.728.2,2.208,2.208,0,0,1,.7.528,1.008,1.008,0,0,1,.288.664,1.816,1.816,0,0,1-.072.472q-.072.264-.168.552-.208.672-.312,1.152a5.337,5.337,0,0,0-.1,1.12,3.615,3.615,0,0,0,.328,1.56,3.342,3.342,0,0,0,.768,1.088,1.25,1.25,0,0,0,.76.392q.192,0,.256-.336a12.47,12.47,0,0,1,.312-1.216,5.822,5.822,0,0,1,.264-.72,1.025,1.025,0,0,1,.112-.2q.064-.088.112-.088t.048.1a1.92,1.92,0,0,1-.032.272,7.789,7.789,0,0,0-.16,1.488q0,.24.016.456t.032.344a2.109,2.109,0,0,0,.176.688,2.057,2.057,0,0,1,.128.528.462.462,0,0,1-.112.328A.416.416,0,0,1,102.32-.512Zm6.64-4.256a.594.594,0,0,1-.44-.128,1,1,0,0,1-.2-.352q-.016-.032-.28-1.032a2.021,2.021,0,0,0-1.032-1.384,2.159,2.159,0,0,0-.992-.192h-.192q-.144,0-.144-.1,0-.064.16-.128a1.585,1.585,0,0,1,.312-.08,2.915,2.915,0,0,1,.552-.048,2.7,2.7,0,0,1,1.936.784,3.054,3.054,0,0,1,.784,1.08,2.505,2.505,0,0,1,.208.824.816.816,0,0,1-.184.52A.592.592,0,0,1,108.96-4.768Zm9.68-2.784q-.08,0-.08-.064a.266.266,0,0,1,.1-.176q.272-.272.7-.624.256-.224.464-.416t.208-.24q0-.176-.656-.288a2.949,2.949,0,0,1-1.1-.472,4.046,4.046,0,0,1-.8-.68,1.079,1.079,0,0,1-.12-.192.446.446,0,0,1-.056-.192q0-.064.032-.064l.064.016q.048.032.152.088t.3.152a4.2,4.2,0,0,0,.96.32,4.782,4.782,0,0,0,1.024.128,7.107,7.107,0,0,0,.992-.08q.576-.064.8-.064a1.064,1.064,0,0,1,.336.048,1.115,1.115,0,0,1,.464.328.786.786,0,0,1,.224.536.311.311,0,0,1-.168.288,2.326,2.326,0,0,1-.744.16,6.016,6.016,0,0,0-2.848,1.376A.5.5,0,0,1,118.64-7.552ZM120.272-.1a10.167,10.167,0,0,1-2.088-.2,3.7,3.7,0,0,1-1.528-.648,1.9,1.9,0,0,1-.736-1.584,2.369,2.369,0,0,1,.1-.736q.1-.3.192-.3.128,0,.128.3v.24a1.524,1.524,0,0,0,1.168,1.44,5.408,5.408,0,0,0,1.888.288,16.546,16.546,0,0,0,2.544-.272,10.813,10.813,0,0,1,1.216-.144,1.052,1.052,0,0,1,.632.16A.51.51,0,0,1,124-1.12q0,.448-.8.688a7.886,7.886,0,0,1-1.272.24A13.764,13.764,0,0,1,120.272-.1ZM136.72.352a5.813,5.813,0,0,1-2.648-.576,2.162,2.162,0,0,1-1.144-2.128,3.069,3.069,0,0,1,.7-2.064A7.136,7.136,0,0,1,135.3-5.84a2.583,2.583,0,0,1-.9-1.024,3.547,3.547,0,0,1-.264-1.472,8.7,8.7,0,0,1,.224-1.84,6.5,6.5,0,0,0,.176-1.36,1.741,1.741,0,0,0-.08-.576,1.123,1.123,0,0,0-.272-.416q-.112-.112-.216-.2t-.1-.12q0-.1.224-.1a1.623,1.623,0,0,1,.384.056,1.884,1.884,0,0,1,.384.136,1.394,1.394,0,0,1,.584.48,1.393,1.393,0,0,1,.168.736,2.266,2.266,0,0,1-.064.536q-.064.264-.144.5t-.112.312q-.016.048-.128.352a3.718,3.718,0,0,0-.24.7,3.857,3.857,0,0,0-.08.856,2.75,2.75,0,0,0,.152.9,2.2,2.2,0,0,0,.392.72.669.669,0,0,0,.5.28,1.494,1.494,0,0,0,.48-.112q.3-.112.608-.256a2.68,2.68,0,0,1,.848-.3,1.126,1.126,0,0,1,.6.184q.3.184.3.376a.442.442,0,0,1-.224.416,2.231,2.231,0,0,1-.7.208,9.678,9.678,0,0,0-2.752.944,2.4,2.4,0,0,0-1.328,2.32,1.815,1.815,0,0,0,.608,1.392,2.611,2.611,0,0,0,1.824.56,5.464,5.464,0,0,0,.832-.064q.416-.064.5-.08a7.07,7.07,0,0,1,1.04-.128q.9,0,.9.528,0,.368-.72.56A7.881,7.881,0,0,1,136.72.352Z" transform="translate(10543.784 -674.056)" fill="#333"/>
  </g>
</svg>
