<svg xmlns="http://www.w3.org/2000/svg" width="1056.5" height="393.076" viewBox="0 0 1056.5 393.076">
  <g id="circle_pc" transform="translate(-9077.5 762.076)">
    <g id="グループ_7126" data-name="グループ 7126">
      <g id="グループ_7124" data-name="グループ 7124">
        <path id="パス_5373" data-name="パス 5373" d="M165,0A165,165,0,1,1,0,165,165,165,0,0,1,165,0Z" transform="translate(9078 -699)" fill="#fff"/>
        <g id="グループ_7119" data-name="グループ 7119" transform="translate(4.847 3.05)">
          <path id="パス_5377" data-name="パス 5377" d="M-4.6,0q-.21,0-.21-.42,0-.45.21-.45h.48a5.324,5.324,0,0,0,2.37-.45,1.483,1.483,0,0,0,.9-1.41V-17.1a2.977,2.977,0,0,0-.165-1.215,1.01,1.01,0,0,0-.78-.42,16.294,16.294,0,0,0-2.295-.1H-4.6q-.21,0-.21-.45,0-.42.21-.42a9.469,9.469,0,0,0,3.36-.555,8.517,8.517,0,0,0,2.79-1.785V-2.73q0,1.86,3.27,1.86h.45a.164.164,0,0,1,.165.1.95.95,0,0,1,.045.345q0,.42-.21.42Z" transform="translate(9239 -574)" fill="#333"/>
          <path id="パス_5379" data-name="パス 5379" d="M-41.64-19.272l.2-.276a2.456,2.456,0,0,1,.228-.276.277.277,0,0,1,.192-.1,1.356,1.356,0,0,1,.564.324,6.557,6.557,0,0,1,.78.708q.36.384.36.552-.1.384-.6.384h-1.9a22.72,22.72,0,0,0-3.5.336l-.624-1.224q1.08.144,2.64.192h1.224Zm5.28,8.04q0,2.688-.2,4.872A19.388,19.388,0,0,1-37.5-1.992,11.523,11.523,0,0,1-39.7,1.9l-.36-.24a15.743,15.743,0,0,0,1.86-5.58,51.875,51.875,0,0,0,.444-7.284v-4.1a26.547,26.547,0,0,0-.264-4.224l1.92.864h8.064l.312-.48q.048-.072.144-.2a1.759,1.759,0,0,1,.168-.2.23.23,0,0,1,.168-.072,1.6,1.6,0,0,1,.6.3,6.873,6.873,0,0,1,.84.648q.384.348.384.516a1.57,1.57,0,0,1-.96.48v17.3A3.476,3.476,0,0,1-26.532.768a1.381,1.381,0,0,1-.672.72,4.256,4.256,0,0,1-1.524.408,4.044,4.044,0,0,0-.168-.7.8.8,0,0,0-.312-.408,3.988,3.988,0,0,0-1.92-.624V-.216q2.328.192,2.76.192a.655.655,0,0,0,.444-.12.532.532,0,0,0,.132-.408v-17.4H-36.36Zm5.9-4.008q.072-.1.18-.264a1.126,1.126,0,0,1,.192-.24.272.272,0,0,1,.18-.072q.216,0,.816.588t.6.852a.515.515,0,0,1-.576.384h-2.688v2.808h1.272l.384-.6q.072-.1.18-.276a1.414,1.414,0,0,1,.192-.264.252.252,0,0,1,.18-.084q.216,0,.852.624t.636.888q-.1.384-.6.384h-3.288a24.319,24.319,0,0,0-3.6.336l-.624-1.2a17.131,17.131,0,0,0,2.112.192h.96v-2.808h-.816a3.467,3.467,0,0,0-1.344.336l-.624-1.224a14.35,14.35,0,0,0,1.92.192h.864a20.717,20.717,0,0,0-.168-2.9q2.016.648,2.016.96,0,.1-.168.216l-.336.24v1.488h.912Zm-13.536.288a9.634,9.634,0,0,0-2.256.336l-.6-1.2q1.32.144,3.192.192h2.544l.432-.648q.1-.12.192-.264a2.305,2.305,0,0,1,.2-.264.294.294,0,0,1,.2-.12,1.4,1.4,0,0,1,.576.336,6.834,6.834,0,0,1,.792.72q.36.384.36.552-.1.36-.576.36Zm2.5,1.8q.048-.072.168-.24a1.494,1.494,0,0,1,.216-.252.293.293,0,0,1,.192-.084q.24,0,.9.6t.66.864a.515.515,0,0,1-.576.384h-1.872a22.72,22.72,0,0,0-3.5.336l-.624-1.248q1.128.144,2.736.192h1.3Zm0,3.072q.072-.1.192-.264a2.078,2.078,0,0,1,.2-.252.252.252,0,0,1,.18-.084q.24,0,.9.612t.66.876q-.1.36-.576.36h-1.872a22.72,22.72,0,0,0-3.5.336l-.624-1.2q1.152.144,2.736.192h1.3Zm10.728.96q.048-.072.156-.2a1.643,1.643,0,0,1,.192-.2.272.272,0,0,1,.18-.072q.24,0,.9.588t.66.852a1.4,1.4,0,0,1-.912.456v1.776q.048,2.184.144,3.432a1.2,1.2,0,0,1-.516.42,1.579,1.579,0,0,1-.708.2.231.231,0,0,1-.216-.144.742.742,0,0,1-.072-.336,2.8,2.8,0,0,0,.1-.36v-.432h-2.88v.456q.024.264.036.468a1.789,1.789,0,0,0,.036.3q-.048.192-.408.384a1.562,1.562,0,0,1-.744.192.282.282,0,0,1-.24-.144.592.592,0,0,1-.1-.336q.1-.864.144-2.16V-5.328a24.84,24.84,0,0,0-.264-4.08l1.656.768h2.52Zm-.1,5.28v-4.1h-2.88v4.1Zm-10.272-3.1q.048-.072.156-.228a1.225,1.225,0,0,1,.192-.228.272.272,0,0,1,.18-.072,1.356,1.356,0,0,1,.564.324,7.222,7.222,0,0,1,.78.7q.36.372.36.54a1.682,1.682,0,0,1-.96.456v1.9q.048,2.3.144,3.648a1.264,1.264,0,0,1-.552.432,1.757,1.757,0,0,1-.768.216q-.288,0-.288-.48a.892.892,0,0,0,.036-.156,1.788,1.788,0,0,1,.036-.18V-.48H-44.28V.072q.072.888.1.984a.874.874,0,0,1-.456.42,1.714,1.714,0,0,1-.816.2.282.282,0,0,1-.24-.144.592.592,0,0,1-.1-.336q.1-.984.144-2.448V-2.736a29.337,29.337,0,0,0-.288-4.512l1.776.816h2.688ZM-44.28-5.712v4.536h3.024V-5.712Zm23.4-14.232a5.9,5.9,0,0,1,2.808,1.068,2.068,2.068,0,0,1,.912,1.524.9.9,0,0,1-.216.624.709.709,0,0,1-.552.24,1.229,1.229,0,0,1-.576-.168,5.16,5.16,0,0,0-1.02-1.608,10.5,10.5,0,0,0-1.548-1.464Zm16.1.744q.048-.072.156-.228a1.225,1.225,0,0,1,.192-.228.272.272,0,0,1,.18-.072q.24,0,.9.6t.66.864a1.374,1.374,0,0,1-.864.408v2.76q.048,2.832.192,5.352a1.765,1.765,0,0,1-.576.4,2.011,2.011,0,0,1-.864.18h-.216V-10.3h-8.52v.96q0,.12-.36.288a2.03,2.03,0,0,1-.864.168.311.311,0,0,1-.252-.144.545.545,0,0,1-.108-.336q.12-1.248.168-3.336v-1.92a31.4,31.4,0,0,0-.312-4.92l1.968.864h8.184Zm-.24,4.344v-3.12h-8.52v3.12ZM-21.072-4.944a.527.527,0,0,0,.312-.072,1.139,1.139,0,0,0,.24-.408q.384-.864,4.3-10.44l.456.12q-.336.96-.624,1.9-2.184,6.528-2.52,7.8a7.461,7.461,0,0,0-.336,2.064,3.818,3.818,0,0,0,.108.852q.108.468.132.564.168.744.264,1.332a8.155,8.155,0,0,1,.1,1.308A2.165,2.165,0,0,1-19,1.368a1.109,1.109,0,0,1-.948.48q-.624,0-.7-1.176A22.6,22.6,0,0,0-20.5-1.7q0-2.04-.48-2.352a1.355,1.355,0,0,0-.48-.24,4.748,4.748,0,0,0-.648-.12v-.528Zm-1.392-9.648a5.3,5.3,0,0,1,2.592.96,1.925,1.925,0,0,1,.84,1.44.908.908,0,0,1-.216.612.67.67,0,0,1-.528.252,1.117,1.117,0,0,1-.576-.192,4.325,4.325,0,0,0-.888-1.512,8.077,8.077,0,0,0-1.44-1.344Zm8.928.456v3.144h8.52v-3.144ZM-3.792-.552q.1-.12.228-.324a1.9,1.9,0,0,1,.228-.3.277.277,0,0,1,.192-.1,1.49,1.49,0,0,1,.6.372,7.914,7.914,0,0,1,.84.792q.384.42.384.588Q-1.344.864-1.9.864H-13.632a24.319,24.319,0,0,0-3.6.336l-.6-1.248q1.32.144,3.192.192h2.472v-4.3a31.4,31.4,0,0,0-.312-4.92q2.3.672,2.3,1.008,0,.12-.192.24l-.384.264v7.7h2.5v-4.3a31.4,31.4,0,0,0-.312-4.92q2.28.672,2.28,1.008,0,.12-.192.24l-.384.264v7.7h2.616ZM-2.9-7.2q1.008.216,1.008.48,0,.1-.264.216l-.408.168A23.571,23.571,0,0,1-5.64-1.32l-.336-.216.48-1.3a26.459,26.459,0,0,0,.744-2.6,13.8,13.8,0,0,0,.384-2.388Zm-13.3-.312a8.053,8.053,0,0,1,2.208,2.328,4.467,4.467,0,0,1,.7,2.208,1.88,1.88,0,0,1-.24,1.008.7.7,0,0,1-.6.384,1.02,1.02,0,0,1-.7-.36,8.03,8.03,0,0,0-.48-2.712,14.823,14.823,0,0,0-1.2-2.688ZM11.04-16.92l.228-.3a3.188,3.188,0,0,1,.252-.3.277.277,0,0,1,.192-.1,1.566,1.566,0,0,1,.612.36,7.313,7.313,0,0,1,.864.78q.4.42.4.588-.072.384-.6.384H5.448a24.319,24.319,0,0,0-3.6.336l-.6-1.248q1.32.144,3.192.192H6.552a26.957,26.957,0,0,0-.24-4.008q2.376.648,2.376,1.008,0,.12-.216.24l-.408.264v2.5h2.5Zm9.24,2.376q.072-.072.252-.288t.324-.216a1.373,1.373,0,0,1,.564.312,5.717,5.717,0,0,1,.768.684q.348.372.348.54a1.42,1.42,0,0,1-.96.384q-.072,6.384-.408,9.7T20.112.768a2.888,2.888,0,0,1-2.4,1.056,1.48,1.48,0,0,0-.36-1.152,4.653,4.653,0,0,0-1.92-.624l.024-.432q1.944.216,2.688.216a1.476,1.476,0,0,0,.492-.06.966.966,0,0,0,.324-.228q.552-.576.816-3.684t.384-9.2H16.8a40.435,40.435,0,0,1-.672,6.18,15.465,15.465,0,0,1-1.9,4.944,13.545,13.545,0,0,1-3.864,4.068l-.36-.432a13.307,13.307,0,0,0,3.18-4.02,17.2,17.2,0,0,0,1.6-4.812,40.926,40.926,0,0,0,.552-5.928h-.984a5.125,5.125,0,0,0-1.632.336L12.1-14.232a18.933,18.933,0,0,0,2.208.192h1.032l.024-.984q.024-1.2-.06-2.592a22.415,22.415,0,0,0-.252-2.376,16.647,16.647,0,0,1,1.908.276q.54.132.54.276,0,.1-.192.216l-.408.264-.024,1.632q0,1.128-.048,3.288H19.9Zm-14.3.264q.912.336.912.576,0,.1-.264.168l-.432.072a16,16,0,0,1-1.848,2.508,15.047,15.047,0,0,1-2.4,2.22L1.68-9.024a11.989,11.989,0,0,0,1.1-1.488,15.684,15.684,0,0,0,1.188-2.256,9.86,9.86,0,0,0,.708-2.256ZM8.808-14.5a6.935,6.935,0,0,1,2.844,1.62,2.777,2.777,0,0,1,.924,1.836,1.065,1.065,0,0,1-.216.7.682.682,0,0,1-.552.264,1.019,1.019,0,0,1-.624-.216,5.878,5.878,0,0,0-.96-2.064A10.578,10.578,0,0,0,8.544-14.3ZM7.9-4.728A20.352,20.352,0,0,1,5.112-1.044,16.815,16.815,0,0,1,1.536,1.824L1.32,1.536A17.063,17.063,0,0,0,4.488-1.728a22.681,22.681,0,0,0,2.424-4.08A29.873,29.873,0,0,0,3.48-8.856l.24-.24A22.871,22.871,0,0,1,7.464-7.032a16.3,16.3,0,0,0,.6-1.908,10.119,10.119,0,0,0,.312-1.836q2.352.744,2.352,1.056,0,.1-.24.168l-.456.144A21.914,21.914,0,0,1,8.664-6.12a8.746,8.746,0,0,1,1.908,2.148,3.708,3.708,0,0,1,.612,1.788,1.111,1.111,0,0,1-.168.648.528.528,0,0,1-.456.24,1.215,1.215,0,0,1-.576-.192A11.15,11.15,0,0,0,7.9-4.728Zm35.832-3.36q.1-.12.252-.336t.252-.324a.266.266,0,0,1,.192-.108,1.807,1.807,0,0,1,.66.384,9.649,9.649,0,0,1,.972.828q.456.444.456.612-.1.384-.6.384H37.44a16.337,16.337,0,0,0,4.128,3.672,20.7,20.7,0,0,0,5.16,2.448l-.048.264a1.491,1.491,0,0,0-.816.42,1.877,1.877,0,0,0-.5.876,18.427,18.427,0,0,1-4.836-3.144,17.137,17.137,0,0,1-3.66-4.536H36.7v2.664q.072,3.36.168,5.208a1.54,1.54,0,0,1-.552.444,1.918,1.918,0,0,1-.912.2.436.436,0,0,1-.312-.144.461.461,0,0,1-.144-.336q.168-2.088.216-4.656V-5.856a19.984,19.984,0,0,1-4.188,4,26.44,26.44,0,0,1-5.484,3.012L25.272.816A25.053,25.053,0,0,0,30.036-2.52a22.941,22.941,0,0,0,3.708-4.128H29.592a24.319,24.319,0,0,0-3.6.336l-.624-1.2q1.32.144,3.192.192h6.6v-2.9H30.048v.72q0,.144-.4.324a1.979,1.979,0,0,1-.828.18.363.363,0,0,1-.288-.144.509.509,0,0,1-.12-.336q.12-1.248.168-3.336v-1.92a31.4,31.4,0,0,0-.312-4.92l1.92.864h11.52l.36-.432q.072-.072.228-.264a.419.419,0,0,1,.3-.192,1.441,1.441,0,0,1,.564.276,5.845,5.845,0,0,1,.78.612q.36.336.36.5a1.621,1.621,0,0,1-.36.252,1.649,1.649,0,0,1-.528.18v2.712q.048,2.784.192,5.28a1.83,1.83,0,0,1-.636.444,1.936,1.936,0,0,1-.828.228h-.216v-1.032H36.7v2.9h6.5ZM35.16-14.9v-3.168H30.048V-14.9Zm6.768,0v-3.168H36.7V-14.9Zm-11.88.7v3.288H35.16v-3.288Zm6.648,0v3.288h5.232v-3.288ZM-15.192,21.3a6.51,6.51,0,0,1,2.112.36,1.313,1.313,0,0,1,1.056,1.272.622.622,0,0,1-.2.492.632.632,0,0,1-.42.18,1.026,1.026,0,0,1-.84-.384,4.54,4.54,0,0,0-.78-.816,3.876,3.876,0,0,0-1.02-.528,2.559,2.559,0,0,0-.36-.108,1.429,1.429,0,0,1-.276-.084.154.154,0,0,1-.108-.144Q-16.032,21.3-15.192,21.3Zm-8.88,5.712a2.419,2.419,0,0,1,2.124.972,4.632,4.632,0,0,1,.684,2.7,16.011,16.011,0,0,1-.264,2.448,18.558,18.558,0,0,1-.816,3.144,6.285,6.285,0,0,1-1.368,2.376,5.157,5.157,0,0,1-.888.72,1.575,1.575,0,0,1-.816.288.632.632,0,0,1-.54-.24,2.275,2.275,0,0,1-.3-.552q-.12-.312-.168-.408a7.672,7.672,0,0,0-1.152-1.824.952.952,0,0,1-.264-.432q0-.048.072-.048a4.123,4.123,0,0,1,.936.528l.432.288a4.413,4.413,0,0,0,.624.408,1.065,1.065,0,0,0,.48.12q.816,0,1.452-1.3a12.793,12.793,0,0,0,1-3.012,14.234,14.234,0,0,0,.36-2.8q0-2.52-1.56-2.52a7.142,7.142,0,0,0-2.808.864,29.309,29.309,0,0,1-3.6,9,3.15,3.15,0,0,1-.672.828,1.1,1.1,0,0,1-.7.3.623.623,0,0,1-.456-.192.651.651,0,0,1-.192-.48,3.665,3.665,0,0,1,.936-1.9,18.867,18.867,0,0,0,3.312-6.96,11.314,11.314,0,0,1-2.928,1.032,1.962,1.962,0,0,1-1.02-.312,2.849,2.849,0,0,1-.852-.78,1.53,1.53,0,0,1-.336-.876q0-.216.12-.216a.819.819,0,0,1,.3.1q.2.1.324.144a3.5,3.5,0,0,0,1.392.288,6.637,6.637,0,0,0,1.584-.2q.648-.18,1.752-.588a12.825,12.825,0,0,0,.336-2.616,2.788,2.788,0,0,0-.5-1.824q-.168-.192-.444-.48t-.276-.384q0-.144.2-.216a1.571,1.571,0,0,1,.516-.072,3.5,3.5,0,0,1,.96.144,2.44,2.44,0,0,1,.792.36.954.954,0,0,1,.384.768,4.036,4.036,0,0,1-.144.768q-.12.48-.192.936-.168,1.248-.336,2.184A8.132,8.132,0,0,1-24.072,27.016Zm6.672-3.192q-.072-.024-.252-.072a.845.845,0,0,1-.264-.108A.184.184,0,0,1-18,23.488q0-.24.768-.24a5.309,5.309,0,0,1,2.2.468,1.491,1.491,0,0,1,1.044,1.38.627.627,0,0,1-.228.5.812.812,0,0,1-.54.192.847.847,0,0,1-.768-.432,4.6,4.6,0,0,0-.8-.972A2.773,2.773,0,0,0-17.4,23.824ZM-18.864,26.8a6.874,6.874,0,0,1,3.036.72,4.42,4.42,0,0,1,1.716,1.512,3.123,3.123,0,0,1,.528,1.608,2.221,2.221,0,0,1-.468,1.428,1.286,1.286,0,0,1-.972.588.86.86,0,0,1-.528-.18,3.352,3.352,0,0,0-.288-.2,2.176,2.176,0,0,0-.912-.336q-.576-.1-1.368-.192-.336-.048-.336-.144,0-.12.288-.144,1.56-.168,1.632-.168a2.607,2.607,0,0,0,.9-.288.614.614,0,0,0,.252-.552,2.8,2.8,0,0,0-1.08-2.112,5.672,5.672,0,0,0-2.472-1.3q-.216-.048-.216-.144T-18.864,26.8Zm20.9.912a7.908,7.908,0,0,1,3.42.72,5.648,5.648,0,0,1,2.412,2.124,6.535,6.535,0,0,1-.084,6.72A7.624,7.624,0,0,1,4.8,39.892,14.434,14.434,0,0,1-.264,41.32q-.576.072-1.488.12-.336,0-.336-.168,0-.192.336-.24a13.332,13.332,0,0,0,6.42-2.34,6.031,6.031,0,0,0,2.388-5.1A4.874,4.874,0,0,0,6.3,30.856a4.952,4.952,0,0,0-2.016-1.764,6.26,6.26,0,0,0-2.772-.612,4.233,4.233,0,0,0-.5.024,4.972,4.972,0,0,1,.12,1.056q0,2.3-2.3,5.424a6.687,6.687,0,0,0,.336,1.1,3.079,3.079,0,0,1,.312,1.1.634.634,0,0,1-.192.5.639.639,0,0,1-.432.168.708.708,0,0,1-.408-.132,1.009,1.009,0,0,1-.312-.348,5.327,5.327,0,0,1-.408-1.008A9.909,9.909,0,0,1-4.632,38.5a3.9,3.9,0,0,1-1.92.636,1.87,1.87,0,0,1-1.6-.684,2.85,2.85,0,0,1-.516-1.764,6.148,6.148,0,0,1,.84-2.916A11.669,11.669,0,0,1-5.568,30.88,11.931,11.931,0,0,1-2.5,28.744q.168-1.536.288-2.448a12.229,12.229,0,0,1-1.968.288,3.336,3.336,0,0,1-1.548-.456,3.112,3.112,0,0,1-1.164-.936.907.907,0,0,1-.168-.36.17.17,0,0,1,.192-.192.463.463,0,0,1,.24.072,3.873,3.873,0,0,0,1.944.648,9.672,9.672,0,0,0,1.02-.108q.78-.108,1.644-.3a16.374,16.374,0,0,0,.144-1.992,2.284,2.284,0,0,0-.1-.84,1.338,1.338,0,0,0-.456-.528,1.488,1.488,0,0,0-.552-.24,2.387,2.387,0,0,0-.252-.036q-.132-.012-.132-.06,0-.24.384-.432a1.619,1.619,0,0,1,.72-.192,2.936,2.936,0,0,1,.972.2,1.209,1.209,0,0,1,.708.492,1.724,1.724,0,0,1,.12.768A2.641,2.641,0,0,1-.48,22.5,7.784,7.784,0,0,0,1,22.912a16.63,16.63,0,0,0,1.836.264q.7.072.7.48,0,.24-.36.528a8.784,8.784,0,0,1-1.2.744,15.69,15.69,0,0,1-3.024,1.08q-.192,1.488-.264,2.256A10.562,10.562,0,0,1,2.04,27.712ZM-.84,24.664a11.491,11.491,0,0,0,1.368-.48.485.485,0,0,0,.156-.1.2.2,0,0,0,.084-.144q0-.168-.456-.312a6.062,6.062,0,0,1-.864-.384l-.1.528Zm1.3,4.3a2.372,2.372,0,0,0-.024-.408,7.711,7.711,0,0,0-1.8.5q-.1,1.08-.1,2.4,0,.96.072,1.824l.288-.408A7.257,7.257,0,0,0,.456,28.96Zm-7.1,8.664a3.52,3.52,0,0,0,1.8-.792,12.973,12.973,0,0,0,2.232-2.04,16.544,16.544,0,0,1-.1-1.944q0-1.656.144-3.192A14.82,14.82,0,0,0-4.08,30.784,11.942,11.942,0,0,0-6.468,33.64a5.674,5.674,0,0,0-.924,2.832,1.679,1.679,0,0,0,.18.84A.605.605,0,0,0-6.648,37.624Zm31.584-7.488a6.443,6.443,0,0,1,2.52.5,4.586,4.586,0,0,1,1.968,1.56,4.288,4.288,0,0,1,.768,2.592,4.207,4.207,0,0,1-.888,2.64,5.923,5.923,0,0,1-2.292,1.788,6.992,6.992,0,0,1-2.916.636,4.589,4.589,0,0,1-2.28-.564,1.719,1.719,0,0,1-1.008-1.548,1.561,1.561,0,0,1,.648-1.308,2.394,2.394,0,0,1,1.488-.492,2.862,2.862,0,0,1,1.776.624,3.59,3.59,0,0,1,1.2,1.8,5.439,5.439,0,0,0,1.992-1.608,3.658,3.658,0,0,0,.792-2.28,3.125,3.125,0,0,0-1.248-2.748,4.927,4.927,0,0,0-2.9-.876,4.694,4.694,0,0,0-2.832.948,10.715,10.715,0,0,0-2.64,3.228q-.12.192-.36.612a2.463,2.463,0,0,1-.456.612.706.706,0,0,1-.48.192.753.753,0,0,1-.636-.264.991.991,0,0,1-.2-.624,2.636,2.636,0,0,1,.564-1.476q.564-.8,1.716-2.124,1.176-1.344,2.808-3.384t1.992-2.5l.744-.936.3-.36a2.363,2.363,0,0,0,.264-.372.633.633,0,0,0,.084-.3.7.7,0,0,0-.18-.456.5.5,0,0,0-.372-.216.9.9,0,0,0-.624.408,6.721,6.721,0,0,1-1.56,1.428,3.016,3.016,0,0,1-1.632.564q-1.3,0-1.488-1.776l-.024-.456q0-.192.1-.192.072,0,.408.384a.893.893,0,0,0,.648.336,4.162,4.162,0,0,0,1.248-.372,14.951,14.951,0,0,0,1.9-.948,1.95,1.95,0,0,1,.984-.336,2.7,2.7,0,0,1,1.02.264,3.624,3.624,0,0,1,1.068.7,1.178,1.178,0,0,1-.12,1.944,34.342,34.342,0,0,0-5.9,6.1A7.259,7.259,0,0,1,24.936,30.136Zm-.96,8.688a4.055,4.055,0,0,0,.552-.048,2.951,2.951,0,0,0-.612-1.272,1.527,1.527,0,0,0-1.236-.528.912.912,0,0,0-.648.2.652.652,0,0,0-.216.492q0,.456.684.8A3.209,3.209,0,0,0,23.976,38.824Z" transform="translate(9238 -519)" fill="#333"/>
        </g>
      </g>
      <g id="グループ_7123" data-name="グループ 7123">
        <path id="パス_5374" data-name="パス 5374" d="M165,0A165,165,0,1,1,0,165,165,165,0,0,1,165,0Z" transform="translate(9441 -699)" fill="#fff"/>
        <g id="グループ_7120" data-name="グループ 7120" transform="translate(-0.321 5.146)">
          <path id="パス_5378" data-name="パス 5378" d="M5.025,0H-5.895l-.3-.66a18.82,18.82,0,0,1,2.13-4.2q1.29-1.89,3.45-4.5a32.257,32.257,0,0,0,3.18-4.215,6.587,6.587,0,0,0,.99-3.405,4.7,4.7,0,0,0-.9-2.85,3.261,3.261,0,0,0-2.82-1.23,4.029,4.029,0,0,0-2.4.7,2.07,2.07,0,0,0-.99,1.725,1.827,1.827,0,0,0,.105.66,2.74,2.74,0,0,0,.345.6,3.858,3.858,0,0,1,.315.585,1.614,1.614,0,0,1,.105.615,1.561,1.561,0,0,1-.435,1.155,1.522,1.522,0,0,1-1.125.435,1.427,1.427,0,0,1-1.1-.585,2.407,2.407,0,0,1-.495-1.6,4.879,4.879,0,0,1,.675-2.34A5.719,5.719,0,0,1-3.12-21.2,6.182,6.182,0,0,1,.225-22.05,6.315,6.315,0,0,1,3.7-21.2a4.829,4.829,0,0,1,1.875,2.13,6.584,6.584,0,0,1,.555,2.655,5.388,5.388,0,0,1-.42,2.205,6.536,6.536,0,0,1-1.14,1.74q-.72.795-2.16,2.115-.33.33-.84.78T.405-8.46a22.329,22.329,0,0,0-4.5,6.27h3.57a15.407,15.407,0,0,0,3.27-.255A2.941,2.941,0,0,0,4.38-3.36a7.359,7.359,0,0,0,1.1-2.13q.06-.18.21-.18a2.485,2.485,0,0,1,.27.06,1.176,1.176,0,0,1,.27.12.2.2,0,0,1,.09.18l-.03.15Z" transform="translate(9603 -576.096)" fill="#333"/>
          <path id="パス_5380" data-name="パス 5380" d="M-28.1-15.336a2.727,2.727,0,0,0,.228-.288q.156-.216.3-.216.24,0,.936.624t.7.888a1.4,1.4,0,0,1-.36.24,1.869,1.869,0,0,1-.5.168v2.088q.048,2.544.144,4.056a1.329,1.329,0,0,1-.564.444,1.79,1.79,0,0,1-.8.228h-.216V-8.28h-1.8V-.552a.394.394,0,0,0,.108.324.918.918,0,0,0,.492.084h1.224l1.176-.024a.452.452,0,0,0,.216-.084A.627.627,0,0,0-26.688-.5q.144-.552.408-2.256l.24-1.44h.312l.048,3.816a.925.925,0,0,1,.408.3.745.745,0,0,1,.1.4q0,.528-.636.756a8.363,8.363,0,0,1-2.412.228h-1.56A2.052,2.052,0,0,1-31.14.984a1.545,1.545,0,0,1-.324-1.128V-8.28h-1.584a19.2,19.2,0,0,1-.792,4.488A9.034,9.034,0,0,1-35.688-.54,10.657,10.657,0,0,1-39.072,1.9l-.144-.36a10.586,10.586,0,0,0,2.736-2.6,9.191,9.191,0,0,0,1.4-3.12A20.986,20.986,0,0,0-34.56-8.28h-1.224v.912q0,.12-.384.288a1.957,1.957,0,0,1-.792.168.331.331,0,0,1-.276-.144.544.544,0,0,1-.108-.336q.1-.936.144-2.4v-1.44a28.76,28.76,0,0,0-.288-4.44l1.8.84h4.248l.288-.672a22.914,22.914,0,0,0,.828-2.472,14.044,14.044,0,0,0,.468-2.328q2.424.84,2.424,1.128,0,.1-.24.168l-.432.144q-.5.912-1.248,2t-1.512,2.028h2.4Zm-8.064-4.584a7.172,7.172,0,0,1,2.28,1.872,3.141,3.141,0,0,1,.72,1.8,1.207,1.207,0,0,1-.216.744.662.662,0,0,1-.552.288.908.908,0,0,1-.624-.264,7.223,7.223,0,0,0-.672-2.136,15.849,15.849,0,0,0-1.2-2.136Zm-4.344.624q.072-.1.168-.252a1.291,1.291,0,0,1,.168-.228.23.23,0,0,1,.168-.072,1.356,1.356,0,0,1,.564.324,6.557,6.557,0,0,1,.78.708q.36.384.36.552a1.582,1.582,0,0,1-.864.456V-.744A3.967,3.967,0,0,1-39.312.444a1.33,1.33,0,0,1-.636.732A3.668,3.668,0,0,1-41.4,1.56a4.422,4.422,0,0,0-.168-.708,1.216,1.216,0,0,0-.288-.468A3.428,3.428,0,0,0-43.584-.24V-.624q2.064.192,2.472.192a.483.483,0,0,0,.372-.12.565.565,0,0,0,.108-.384V-6.984h-3.192a19.245,19.245,0,0,1-2.5,8.88l-.36-.216A22.475,22.475,0,0,0-45.372-4.3q.276-3.216.276-7.848v-3.7a24.473,24.473,0,0,0-.24-3.816l1.944.888h2.568Zm-.12,5.976v-4.728H-43.7v4.728Zm12.384-.792h-7.536V-9h7.536ZM-43.7-12.144q0,2.9-.072,4.488h3.144v-4.992H-43.7Zm39.48,6.1q.12-.144.24-.312a3.28,3.28,0,0,1,.24-.3.323.323,0,0,1,.216-.132,1.684,1.684,0,0,1,.636.372,7.991,7.991,0,0,1,.912.8q.42.432.42.6a.368.368,0,0,1-.192.288.81.81,0,0,1-.408.1h-8.832Q-8.472-.792-1.2.192l-.024.264A1.865,1.865,0,0,0-2.5,1.872,16.78,16.78,0,0,1-8.136-.48a9.963,9.963,0,0,1-3.432-4.152H-12.1A6.6,6.6,0,0,1-13.572-1.92,9.277,9.277,0,0,1-16.752.168a29.765,29.765,0,0,1-5.688,1.68l-.192-.48A20.335,20.335,0,0,0-16.416-1.2a6.857,6.857,0,0,0,2.664-3.432h-4.512a24.319,24.319,0,0,0-3.6.336l-.648-1.224q1.32.144,3.192.192h5.76a17.1,17.1,0,0,0,.312-2.64H-17.04v.84q0,.12-.42.324a1.932,1.932,0,0,1-.852.2.4.4,0,0,1-.3-.144.482.482,0,0,1-.132-.336q.144-2.112.192-4.3v-2.4a31.4,31.4,0,0,0-.312-4.92l1.968.912h3.12a9.887,9.887,0,0,0,.42-1.344,11.712,11.712,0,0,0,.252-1.344q2.472.624,2.472.912,0,.12-.216.192l-.432.192-.864.816-.624.576h5.784l.384-.48q.072-.1.24-.3a.448.448,0,0,1,.312-.2,1.5,1.5,0,0,1,.588.312,7.582,7.582,0,0,1,.828.672q.384.36.384.528a1.972,1.972,0,0,1-1.008.456v3.72q.048,2.976.192,5.64a1.736,1.736,0,0,1-.624.432,1.981,1.981,0,0,1-.84.216h-.216V-7.968h-4.1a.792.792,0,0,1-.792.6q-.144,1.344-.288,2.04h7.2Zm-2.52-8.76v-2.28h-10.3v2.28Zm-10.3,3.048h10.3v-2.328h-10.3Zm10.3.7h-10.3v2.4h10.3ZM11.04-16.92l.228-.3a3.188,3.188,0,0,1,.252-.3.277.277,0,0,1,.192-.1,1.566,1.566,0,0,1,.612.36,7.313,7.313,0,0,1,.864.78q.4.42.4.588-.072.384-.6.384H5.448a24.319,24.319,0,0,0-3.6.336l-.6-1.248q1.32.144,3.192.192H6.552a26.957,26.957,0,0,0-.24-4.008q2.376.648,2.376,1.008,0,.12-.216.24l-.408.264v2.5h2.5Zm9.24,2.376q.072-.072.252-.288t.324-.216a1.373,1.373,0,0,1,.564.312,5.717,5.717,0,0,1,.768.684q.348.372.348.54a1.42,1.42,0,0,1-.96.384q-.072,6.384-.408,9.7T20.112.768a2.888,2.888,0,0,1-2.4,1.056,1.48,1.48,0,0,0-.36-1.152,4.653,4.653,0,0,0-1.92-.624l.024-.432q1.944.216,2.688.216a1.476,1.476,0,0,0,.492-.06.966.966,0,0,0,.324-.228q.552-.576.816-3.684t.384-9.2H16.8a40.435,40.435,0,0,1-.672,6.18,15.465,15.465,0,0,1-1.9,4.944,13.545,13.545,0,0,1-3.864,4.068l-.36-.432a13.307,13.307,0,0,0,3.18-4.02,17.2,17.2,0,0,0,1.6-4.812,40.926,40.926,0,0,0,.552-5.928h-.984a5.125,5.125,0,0,0-1.632.336L12.1-14.232a18.933,18.933,0,0,0,2.208.192h1.032l.024-.984q.024-1.2-.06-2.592a22.415,22.415,0,0,0-.252-2.376,16.647,16.647,0,0,1,1.908.276q.54.132.54.276,0,.1-.192.216l-.408.264-.024,1.632q0,1.128-.048,3.288H19.9Zm-14.3.264q.912.336.912.576,0,.1-.264.168l-.432.072a16,16,0,0,1-1.848,2.508,15.047,15.047,0,0,1-2.4,2.22L1.68-9.024a11.989,11.989,0,0,0,1.1-1.488,15.684,15.684,0,0,0,1.188-2.256,9.86,9.86,0,0,0,.708-2.256ZM8.808-14.5a6.935,6.935,0,0,1,2.844,1.62,2.777,2.777,0,0,1,.924,1.836,1.065,1.065,0,0,1-.216.7.682.682,0,0,1-.552.264,1.019,1.019,0,0,1-.624-.216,5.878,5.878,0,0,0-.96-2.064A10.578,10.578,0,0,0,8.544-14.3ZM7.9-4.728A20.352,20.352,0,0,1,5.112-1.044,16.815,16.815,0,0,1,1.536,1.824L1.32,1.536A17.063,17.063,0,0,0,4.488-1.728a22.681,22.681,0,0,0,2.424-4.08A29.873,29.873,0,0,0,3.48-8.856l.24-.24A22.871,22.871,0,0,1,7.464-7.032a16.3,16.3,0,0,0,.6-1.908,10.119,10.119,0,0,0,.312-1.836q2.352.744,2.352,1.056,0,.1-.24.168l-.456.144A21.914,21.914,0,0,1,8.664-6.12a8.746,8.746,0,0,1,1.908,2.148,3.708,3.708,0,0,1,.612,1.788,1.111,1.111,0,0,1-.168.648.528.528,0,0,1-.456.24,1.215,1.215,0,0,1-.576-.192A11.15,11.15,0,0,0,7.9-4.728Zm35.832-3.36q.1-.12.252-.336t.252-.324a.266.266,0,0,1,.192-.108,1.807,1.807,0,0,1,.66.384,9.649,9.649,0,0,1,.972.828q.456.444.456.612-.1.384-.6.384H37.44a16.337,16.337,0,0,0,4.128,3.672,20.7,20.7,0,0,0,5.16,2.448l-.048.264a1.491,1.491,0,0,0-.816.42,1.877,1.877,0,0,0-.5.876,18.427,18.427,0,0,1-4.836-3.144,17.137,17.137,0,0,1-3.66-4.536H36.7v2.664q.072,3.36.168,5.208a1.54,1.54,0,0,1-.552.444,1.918,1.918,0,0,1-.912.2.436.436,0,0,1-.312-.144.461.461,0,0,1-.144-.336q.168-2.088.216-4.656V-5.856a19.984,19.984,0,0,1-4.188,4,26.44,26.44,0,0,1-5.484,3.012L25.272.816A25.053,25.053,0,0,0,30.036-2.52a22.941,22.941,0,0,0,3.708-4.128H29.592a24.319,24.319,0,0,0-3.6.336l-.624-1.2q1.32.144,3.192.192h6.6v-2.9H30.048v.72q0,.144-.4.324a1.979,1.979,0,0,1-.828.18.363.363,0,0,1-.288-.144.509.509,0,0,1-.12-.336q.12-1.248.168-3.336v-1.92a31.4,31.4,0,0,0-.312-4.92l1.92.864h11.52l.36-.432q.072-.072.228-.264a.419.419,0,0,1,.3-.192,1.441,1.441,0,0,1,.564.276,5.845,5.845,0,0,1,.78.612q.36.336.36.5a1.621,1.621,0,0,1-.36.252,1.649,1.649,0,0,1-.528.18v2.712q.048,2.784.192,5.28a1.83,1.83,0,0,1-.636.444,1.936,1.936,0,0,1-.828.228h-.216v-1.032H36.7v2.9h6.5ZM35.16-14.9v-3.168H30.048V-14.9Zm6.768,0v-3.168H36.7V-14.9Zm-11.88.7v3.288H35.16v-3.288Zm6.648,0v3.288h5.232v-3.288ZM-15.192,21.3a6.51,6.51,0,0,1,2.112.36,1.313,1.313,0,0,1,1.056,1.272.622.622,0,0,1-.2.492.632.632,0,0,1-.42.18,1.026,1.026,0,0,1-.84-.384,4.54,4.54,0,0,0-.78-.816,3.876,3.876,0,0,0-1.02-.528,2.559,2.559,0,0,0-.36-.108,1.429,1.429,0,0,1-.276-.084.154.154,0,0,1-.108-.144Q-16.032,21.3-15.192,21.3Zm-8.88,5.712a2.419,2.419,0,0,1,2.124.972,4.632,4.632,0,0,1,.684,2.7,16.011,16.011,0,0,1-.264,2.448,18.558,18.558,0,0,1-.816,3.144,6.285,6.285,0,0,1-1.368,2.376,5.157,5.157,0,0,1-.888.72,1.575,1.575,0,0,1-.816.288.632.632,0,0,1-.54-.24,2.275,2.275,0,0,1-.3-.552q-.12-.312-.168-.408a7.672,7.672,0,0,0-1.152-1.824.952.952,0,0,1-.264-.432q0-.048.072-.048a4.123,4.123,0,0,1,.936.528l.432.288a4.413,4.413,0,0,0,.624.408,1.065,1.065,0,0,0,.48.12q.816,0,1.452-1.3a12.793,12.793,0,0,0,1-3.012,14.234,14.234,0,0,0,.36-2.8q0-2.52-1.56-2.52a7.142,7.142,0,0,0-2.808.864,29.309,29.309,0,0,1-3.6,9,3.15,3.15,0,0,1-.672.828,1.1,1.1,0,0,1-.7.3.623.623,0,0,1-.456-.192.651.651,0,0,1-.192-.48,3.665,3.665,0,0,1,.936-1.9,18.867,18.867,0,0,0,3.312-6.96,11.314,11.314,0,0,1-2.928,1.032,1.962,1.962,0,0,1-1.02-.312,2.849,2.849,0,0,1-.852-.78,1.53,1.53,0,0,1-.336-.876q0-.216.12-.216a.819.819,0,0,1,.3.1q.2.1.324.144a3.5,3.5,0,0,0,1.392.288,6.637,6.637,0,0,0,1.584-.2q.648-.18,1.752-.588a12.825,12.825,0,0,0,.336-2.616,2.788,2.788,0,0,0-.5-1.824q-.168-.192-.444-.48t-.276-.384q0-.144.2-.216a1.571,1.571,0,0,1,.516-.072,3.5,3.5,0,0,1,.96.144,2.44,2.44,0,0,1,.792.36.954.954,0,0,1,.384.768,4.036,4.036,0,0,1-.144.768q-.12.48-.192.936-.168,1.248-.336,2.184A8.132,8.132,0,0,1-24.072,27.016Zm6.672-3.192q-.072-.024-.252-.072a.845.845,0,0,1-.264-.108A.184.184,0,0,1-18,23.488q0-.24.768-.24a5.309,5.309,0,0,1,2.2.468,1.491,1.491,0,0,1,1.044,1.38.627.627,0,0,1-.228.5.812.812,0,0,1-.54.192.847.847,0,0,1-.768-.432,4.6,4.6,0,0,0-.8-.972A2.773,2.773,0,0,0-17.4,23.824ZM-18.864,26.8a6.874,6.874,0,0,1,3.036.72,4.42,4.42,0,0,1,1.716,1.512,3.123,3.123,0,0,1,.528,1.608,2.221,2.221,0,0,1-.468,1.428,1.286,1.286,0,0,1-.972.588.86.86,0,0,1-.528-.18,3.352,3.352,0,0,0-.288-.2,2.176,2.176,0,0,0-.912-.336q-.576-.1-1.368-.192-.336-.048-.336-.144,0-.12.288-.144,1.56-.168,1.632-.168a2.607,2.607,0,0,0,.9-.288.614.614,0,0,0,.252-.552,2.8,2.8,0,0,0-1.08-2.112,5.672,5.672,0,0,0-2.472-1.3q-.216-.048-.216-.144T-18.864,26.8Zm20.9.912a7.908,7.908,0,0,1,3.42.72,5.648,5.648,0,0,1,2.412,2.124,6.535,6.535,0,0,1-.084,6.72A7.624,7.624,0,0,1,4.8,39.892,14.434,14.434,0,0,1-.264,41.32q-.576.072-1.488.12-.336,0-.336-.168,0-.192.336-.24a13.332,13.332,0,0,0,6.42-2.34,6.031,6.031,0,0,0,2.388-5.1A4.874,4.874,0,0,0,6.3,30.856a4.952,4.952,0,0,0-2.016-1.764,6.26,6.26,0,0,0-2.772-.612,4.233,4.233,0,0,0-.5.024,4.972,4.972,0,0,1,.12,1.056q0,2.3-2.3,5.424a6.687,6.687,0,0,0,.336,1.1,3.079,3.079,0,0,1,.312,1.1.634.634,0,0,1-.192.5.639.639,0,0,1-.432.168.708.708,0,0,1-.408-.132,1.009,1.009,0,0,1-.312-.348,5.327,5.327,0,0,1-.408-1.008A9.909,9.909,0,0,1-4.632,38.5a3.9,3.9,0,0,1-1.92.636,1.87,1.87,0,0,1-1.6-.684,2.85,2.85,0,0,1-.516-1.764,6.148,6.148,0,0,1,.84-2.916A11.669,11.669,0,0,1-5.568,30.88,11.931,11.931,0,0,1-2.5,28.744q.168-1.536.288-2.448a12.229,12.229,0,0,1-1.968.288,3.336,3.336,0,0,1-1.548-.456,3.112,3.112,0,0,1-1.164-.936.907.907,0,0,1-.168-.36.17.17,0,0,1,.192-.192.463.463,0,0,1,.24.072,3.873,3.873,0,0,0,1.944.648,9.672,9.672,0,0,0,1.02-.108q.78-.108,1.644-.3a16.374,16.374,0,0,0,.144-1.992,2.284,2.284,0,0,0-.1-.84,1.338,1.338,0,0,0-.456-.528,1.488,1.488,0,0,0-.552-.24,2.387,2.387,0,0,0-.252-.036q-.132-.012-.132-.06,0-.24.384-.432a1.619,1.619,0,0,1,.72-.192,2.936,2.936,0,0,1,.972.2,1.209,1.209,0,0,1,.708.492,1.724,1.724,0,0,1,.12.768A2.641,2.641,0,0,1-.48,22.5,7.784,7.784,0,0,0,1,22.912a16.63,16.63,0,0,0,1.836.264q.7.072.7.48,0,.24-.36.528a8.784,8.784,0,0,1-1.2.744,15.69,15.69,0,0,1-3.024,1.08q-.192,1.488-.264,2.256A10.562,10.562,0,0,1,2.04,27.712ZM-.84,24.664a11.491,11.491,0,0,0,1.368-.48.485.485,0,0,0,.156-.1.2.2,0,0,0,.084-.144q0-.168-.456-.312a6.062,6.062,0,0,1-.864-.384l-.1.528Zm1.3,4.3a2.372,2.372,0,0,0-.024-.408,7.711,7.711,0,0,0-1.8.5q-.1,1.08-.1,2.4,0,.96.072,1.824l.288-.408A7.257,7.257,0,0,0,.456,28.96Zm-7.1,8.664a3.52,3.52,0,0,0,1.8-.792,12.973,12.973,0,0,0,2.232-2.04,16.544,16.544,0,0,1-.1-1.944q0-1.656.144-3.192A14.82,14.82,0,0,0-4.08,30.784,11.942,11.942,0,0,0-6.468,33.64a5.674,5.674,0,0,0-.924,2.832,1.679,1.679,0,0,0,.18.84A.605.605,0,0,0-6.648,37.624Zm31.584-7.488a6.443,6.443,0,0,1,2.52.5,4.586,4.586,0,0,1,1.968,1.56,4.288,4.288,0,0,1,.768,2.592,4.207,4.207,0,0,1-.888,2.64,5.923,5.923,0,0,1-2.292,1.788,6.992,6.992,0,0,1-2.916.636,4.589,4.589,0,0,1-2.28-.564,1.719,1.719,0,0,1-1.008-1.548,1.561,1.561,0,0,1,.648-1.308,2.394,2.394,0,0,1,1.488-.492,2.862,2.862,0,0,1,1.776.624,3.59,3.59,0,0,1,1.2,1.8,5.439,5.439,0,0,0,1.992-1.608,3.658,3.658,0,0,0,.792-2.28,3.125,3.125,0,0,0-1.248-2.748,4.927,4.927,0,0,0-2.9-.876,4.694,4.694,0,0,0-2.832.948,10.715,10.715,0,0,0-2.64,3.228q-.12.192-.36.612a2.463,2.463,0,0,1-.456.612.706.706,0,0,1-.48.192.753.753,0,0,1-.636-.264.991.991,0,0,1-.2-.624,2.636,2.636,0,0,1,.564-1.476q.564-.8,1.716-2.124,1.176-1.344,2.808-3.384t1.992-2.5l.744-.936.3-.36a2.363,2.363,0,0,0,.264-.372.633.633,0,0,0,.084-.3.7.7,0,0,0-.18-.456.5.5,0,0,0-.372-.216.9.9,0,0,0-.624.408,6.721,6.721,0,0,1-1.56,1.428,3.016,3.016,0,0,1-1.632.564q-1.3,0-1.488-1.776l-.024-.456q0-.192.1-.192.072,0,.408.384a.893.893,0,0,0,.648.336,4.162,4.162,0,0,0,1.248-.372,14.951,14.951,0,0,0,1.9-.948,1.95,1.95,0,0,1,.984-.336,2.7,2.7,0,0,1,1.02.264,3.624,3.624,0,0,1,1.068.7,1.178,1.178,0,0,1-.12,1.944,34.342,34.342,0,0,0-5.9,6.1A7.259,7.259,0,0,1,24.936,30.136Zm-.96,8.688a4.055,4.055,0,0,0,.552-.048,2.951,2.951,0,0,0-.612-1.272,1.527,1.527,0,0,0-1.236-.528.912.912,0,0,0-.648.2.652.652,0,0,0-.216.492q0,.456.684.8A3.209,3.209,0,0,0,23.976,38.824Z" transform="translate(9606 -521.096)" fill="#333"/>
        </g>
      </g>
      <g id="グループ_7122" data-name="グループ 7122">
        <path id="パス_5375" data-name="パス 5375" d="M165,0A165,165,0,1,1,0,165,165,165,0,0,1,165,0Z" transform="translate(9804 -699)" fill="#fff"/>
        <g id="グループ_7121" data-name="グループ 7121" transform="translate(-3.971 5.146)">
          <path id="パス_5382" data-name="パス 5382" d="M.765-11.52A7.759,7.759,0,0,1,4.815-9.6a4.823,4.823,0,0,1,1.56,3.66A7.191,7.191,0,0,1,5.76-3.135,5.731,5.731,0,0,1,3.585-.63,7.359,7.359,0,0,1-.585.42,6.653,6.653,0,0,1-3.93-.33,4.585,4.585,0,0,1-5.79-2.145,4.442,4.442,0,0,1-6.345-4.2,1.94,1.94,0,0,1-5.88-5.625,1.465,1.465,0,0,1-4.815-6.09a1.878,1.878,0,0,1,1.14.375,1.243,1.243,0,0,1,.51,1.065,1.828,1.828,0,0,1-.33.87,3.141,3.141,0,0,0-.255.42,1.059,1.059,0,0,0-.105.48,2.3,2.3,0,0,0,.66,1.59,3.089,3.089,0,0,0,2.34.72,4.093,4.093,0,0,0,2.37-.72,4.888,4.888,0,0,0,1.65-1.98,6.621,6.621,0,0,0,.6-2.88,5.13,5.13,0,0,0-1.2-3.54,4.225,4.225,0,0,0-3.33-1.35,4.889,4.889,0,0,0-.63.06,5.205,5.205,0,0,1-.72.06.913.913,0,0,1-.555-.165.543.543,0,0,1-.225-.465A.554.554,0,0,1-2.67-12a.86.86,0,0,1,.555-.18,3.21,3.21,0,0,1,.78.09,6.445,6.445,0,0,0,.75.06,4.112,4.112,0,0,0,2.43-.84q1.17-.84,1.17-3.6A4.793,4.793,0,0,0,1.95-20,3.443,3.443,0,0,0-.525-21.03a3.805,3.805,0,0,0-1.7.4,1.529,1.529,0,0,0-.825,1.515,2.517,2.517,0,0,0,.24,1.02,1.521,1.521,0,0,1,.21.78,1.289,1.289,0,0,1-.345.93,1.137,1.137,0,0,1-.855.36A1.507,1.507,0,0,1-5.13-16.6a2.241,2.241,0,0,1-.405-1.305A3.217,3.217,0,0,1-4.86-19.7a5.581,5.581,0,0,1,1.9-1.665,5.665,5.665,0,0,1,2.82-.69,6.1,6.1,0,0,1,3.045.735,5.128,5.128,0,0,1,1.995,1.95A5.227,5.227,0,0,1,5.6-16.74,5.035,5.035,0,0,1,4.38-13.365,5.894,5.894,0,0,1,.765-11.52Z" transform="translate(9967.65 -576.096)" fill="#333"/>
          <path id="パス_5381" data-name="パス 5381" d="M-103.2-11.232a23.792,23.792,0,0,1-3.192,3.624l-.288-.264a34.127,34.127,0,0,0,4.176-7.344,22.334,22.334,0,0,0,.936-2.592,15.364,15.364,0,0,0,.576-2.52q2.5.888,2.5,1.2,0,.12-.216.192l-.456.144a35.258,35.258,0,0,1-2.544,5.256l.744.288a.971.971,0,0,1-.72.408v8.424q.048,2.976.192,5.64a1.555,1.555,0,0,1-.6.408,2.014,2.014,0,0,1-.816.192.573.573,0,0,1-.384-.144.432.432,0,0,1-.168-.336q.1-1.416.168-2.748t.1-3.492Zm8.184,1.584a31.353,31.353,0,0,0,3.6-2.952,16.22,16.22,0,0,0,1.68-1.8,11.722,11.722,0,0,0,1.224-1.824q2.016,1.512,2.016,1.8,0,.1-.24.1h-.432a27.686,27.686,0,0,1-3.492,2.784A33,33,0,0,1-95.016-9v7.68a.84.84,0,0,0,.312.744,2.3,2.3,0,0,0,1.2.216h2.784a22.385,22.385,0,0,0,2.712-.1.613.613,0,0,0,.348-.12.953.953,0,0,0,.2-.288,36.731,36.731,0,0,0,.912-4.272h.288l.072,4.464a1.791,1.791,0,0,1,.588.324.568.568,0,0,1,.156.42.716.716,0,0,1-.432.66,4.527,4.527,0,0,1-1.56.324q-1.128.1-3.336.1H-93.7a6.234,6.234,0,0,1-1.7-.18,1.415,1.415,0,0,1-.864-.636,2.553,2.553,0,0,1-.264-1.272V-14.928a31.4,31.4,0,0,0-.312-4.92q1.392.408,1.932.636t.54.4q0,.12-.216.24l-.432.264Zm31.272-5.9q.1-.1.3-.336t.348-.24q.144,0,.588.4a8.329,8.329,0,0,1,.828.852,1.409,1.409,0,0,1,.384.624.517.517,0,0,1-.312.18,5.131,5.131,0,0,1-.576.06,16.086,16.086,0,0,1-1.476,1.428A14.56,14.56,0,0,1-65.352-11.3l-.24-.192a27.357,27.357,0,0,0,1.368-2.832H-79.44a4.726,4.726,0,0,1-.348,2,3.026,3.026,0,0,1-.924,1.26,1.633,1.633,0,0,1-.984.384.75.75,0,0,1-.7-.36,1.028,1.028,0,0,1-.072-.36,1.161,1.161,0,0,1,.6-.96,3.429,3.429,0,0,0,1.26-1.668,5.291,5.291,0,0,0,.372-2.532l.408-.024A10.152,10.152,0,0,1-79.488-15h10.3q.1-.144.228-.348t.3-.468a20.05,20.05,0,0,0,1.2-2.28,13.474,13.474,0,0,0,.816-2.232q1.344.528,1.872.8t.528.42q0,.1-.24.168l-.456.12a21.275,21.275,0,0,1-1.584,1.944A21.042,21.042,0,0,1-68.448-15H-64.2Zm-9.888-4.608a6.372,6.372,0,0,1,2.28,1.7,2.964,2.964,0,0,1,.72,1.776,1.354,1.354,0,0,1-.24.828.722.722,0,0,1-.6.324,1.02,1.02,0,0,1-.7-.312,5.691,5.691,0,0,0-.54-2.148,8.552,8.552,0,0,0-1.212-2Zm-5.136.432a6.369,6.369,0,0,1,2.508,1.6,2.737,2.737,0,0,1,.8,1.74,1.113,1.113,0,0,1-.228.732.7.7,0,0,1-.564.276,1.022,1.022,0,0,1-.624-.24,6.121,6.121,0,0,0-.78-2.028,10.012,10.012,0,0,0-1.38-1.908Zm10.9,7.488q.1-.1.3-.336t.348-.24q.216,0,.9.792t.684,1.056A.835.835,0,0,1-66-10.8a4.212,4.212,0,0,1-.624.072A23.018,23.018,0,0,1-70.488-8.4l.144.024q-.072.5-.768.6V-6.1h6.36l.528-.744.24-.324a3.1,3.1,0,0,1,.276-.336.3.3,0,0,1,.2-.108,1.724,1.724,0,0,1,.648.4,10.6,10.6,0,0,1,.948.84q.444.444.444.612-.1.384-.6.384h-9.048V-.5A3.214,3.214,0,0,1-71.3.72a1.561,1.561,0,0,1-.78.756,5.209,5.209,0,0,1-1.764.42,2.391,2.391,0,0,0-.216-.708A1.265,1.265,0,0,0-74.5.72,6.655,6.655,0,0,0-76.9.048v-.36q3.072.216,3.624.216A.758.758,0,0,0-72.8-.2a.527.527,0,0,0,.132-.42V-5.376h-5.736a24.319,24.319,0,0,0-3.6.336l-.624-1.248q1.32.144,3.192.192h6.768A17.158,17.158,0,0,0-72.84-8.76l1.44.264a29.358,29.358,0,0,0,2.688-2.472h-5.832a24.319,24.319,0,0,0-3.6.336l-.648-1.224q1.32.144,3.192.192h7.248Zm16.392-4.032q1.152,1.056,1.824,1.728v.024l.432-.984a17.426,17.426,0,0,0,.756-2.448,13.277,13.277,0,0,0,.372-2.4q2.424.72,2.424,1.032,0,.12-.24.192l-.456.192a18.9,18.9,0,0,1-1.464,3.624h7.944l.36-.528.18-.24a1.381,1.381,0,0,1,.192-.216.272.272,0,0,1,.18-.072,1.373,1.373,0,0,1,.564.312,6.366,6.366,0,0,1,.78.684q.36.372.36.54a1.417,1.417,0,0,1-.96.408A89.182,89.182,0,0,1-39.1-4.368q-.624,3.96-1.56,5.016A3.342,3.342,0,0,1-43.464,1.8,1.263,1.263,0,0,0-43.92.648,2.787,2.787,0,0,0-44.892.24a13.4,13.4,0,0,0-1.5-.312l.024-.456q.96.12,2.052.228t1.476.108a1.709,1.709,0,0,0,.6-.084,1.846,1.846,0,0,0,.48-.3q.744-.7,1.284-4.464t.828-9.6H-41.16a27.814,27.814,0,0,1-2.856,8.82A18.419,18.419,0,0,1-49.776.624l-.24-.312A20.576,20.576,0,0,0-45.156-6.3a27.45,27.45,0,0,0,2.34-8.34h-1.728a21.163,21.163,0,0,1-2.64,6.12,17.355,17.355,0,0,1-4.392,4.7l-.24-.312A18.641,18.641,0,0,0-48.24-8.892a21.466,21.466,0,0,0,2.088-5.748h-2.064a13.473,13.473,0,0,1-3.528,4.176l-.312-.264a16.52,16.52,0,0,0,2.328-3.648.627.627,0,0,1-.528.216h-2.856v5.424l3.288-1.176.12.36L-53.112-7.7v3.216q.048,2.976.192,5.64a1.287,1.287,0,0,1-.552.48,1.73,1.73,0,0,1-.816.216A.53.53,0,0,1-54.66,1.7a.444.444,0,0,1-.156-.336q.168-2.424.216-5.352V-6.912l-2.616,1.344a.881.881,0,0,1-.48.6l-.888-2.016q1.2-.288,3.984-1.248V-14.16h-1.824a16.071,16.071,0,0,1-1.848,3.984l-.36-.216a23.755,23.755,0,0,0,.936-3.264,18.694,18.694,0,0,0,.348-2.124,19.984,19.984,0,0,0,.132-2.2q0-.576-.024-.84a15.609,15.609,0,0,1,1.776.408q.5.168.5.312,0,.1-.192.216l-.408.216q-.384,1.872-.672,2.784H-54.6v-.48a31.4,31.4,0,0,0-.312-4.92,13.8,13.8,0,0,1,1.848.636q.528.252.528.42,0,.12-.192.24l-.384.264v3.84h.6Zm25.68-.768q.1-.12.276-.36t.324-.24a1.373,1.373,0,0,1,.564.312,5.717,5.717,0,0,1,.768.684q.348.372.348.54-.1.384-.6.384h-2.712v1.056l.048.864q0,.36.048,1.08a.979.979,0,0,1-.456.372,1.914,1.914,0,0,1-.864.18.3.3,0,0,1-.264-.144.592.592,0,0,1-.1-.336q.072-.672.1-1.272l.024-.6v-1.2h-2.64a6.179,6.179,0,0,1-.828,2.628,5.481,5.481,0,0,1-2.412,2.052l-.24-.336a5.224,5.224,0,0,0,1.68-2.34,9.212,9.212,0,0,0,.408-2.844v-1.32a13.119,13.119,0,0,0-.072-1.44l1.92.792.144-.048a18.306,18.306,0,0,0,2.472-.828A12.943,12.943,0,0,0-25.8-20.448a6.707,6.707,0,0,1,1.344,1.872q0,.168-.336.12l-.552-.1a45.629,45.629,0,0,1-5.568.7v1.416h4.7Zm7.416,4.824-.408.024h-.24V-15.72h-2.64a4.839,4.839,0,0,1-.936,2.184,5.7,5.7,0,0,1-2.376,1.68l-.24-.36A4.694,4.694,0,0,0-23.46-14.28a7.2,7.2,0,0,0,.42-2.568v-1.2a11.13,11.13,0,0,0-.072-1.32l1.824.744.336-.072a24.562,24.562,0,0,0,2.484-.78,11.838,11.838,0,0,0,2.076-.972,6.572,6.572,0,0,1,1.32,1.92q0,.072-.1.1a.6.6,0,0,1-.24,0l-.528-.1a44.139,44.139,0,0,1-5.664.576v1.512h5.016l.456-.648q.1-.12.2-.264a2.459,2.459,0,0,1,.228-.264.331.331,0,0,1,.216-.12,1.467,1.467,0,0,1,.588.336,7.222,7.222,0,0,1,.828.732q.384.4.384.564-.072.384-.6.384h-3.264v3.1q-.024.072-.216.18a1.947,1.947,0,0,1-.48.18q1.512,1.1,1.512,1.416,0,.144-.24.216l-.408.144V-7.68q.048,2.9.192,5.472a1.727,1.727,0,0,1-.648.432,2.1,2.1,0,0,1-.84.216h-.24V-2.568h-9.96v.792q0,.12-.408.324a1.857,1.857,0,0,1-.84.2.387.387,0,0,1-.312-.144.509.509,0,0,1-.12-.336q.12-1.344.168-3.6v-2.04a31.4,31.4,0,0,0-.312-4.92l1.944.888H-19.1Zm-.528,3.48V-10.7h-9.96v1.968Zm0,2.736V-8.016h-9.96V-6Zm-9.96.72v2.016h9.96V-5.28Zm3.288,4.128q.792.48.792.7,0,.12-.384.12l-.552-.024a28.158,28.158,0,0,1-3.8,1.308,30.441,30.441,0,0,1-4.356.876l-.12-.384A21.4,21.4,0,0,0-30.5.216a14.213,14.213,0,0,0,2.172-1.1,8.893,8.893,0,0,0,1.716-1.344Zm3.12-.264a27.989,27.989,0,0,1,4.62.624,8,8,0,0,1,2.508.948q.744.516.744,1a.575.575,0,0,1-.264.48,1.032,1.032,0,0,1-.624.192A1.345,1.345,0,0,1-16.3,1.56,14.355,14.355,0,0,0-18.912.144a23.226,23.226,0,0,0-3.648-1.2Zm16.8,1.56A1.126,1.126,0,0,1-6.4-.228,2.1,2.1,0,0,1-6.96-1.1a17.077,17.077,0,0,1-.888-5.928,15.623,15.623,0,0,1,.24-2.88,26.342,26.342,0,0,1,.648-2.64q.168-.648.312-1.272A4.9,4.9,0,0,0-6.5-14.9a2.824,2.824,0,0,0-.168-.936,2.2,2.2,0,0,0-.432-.768.856.856,0,0,1-.192-.36q0-.12.1-.12a.821.821,0,0,1,.384.144,4.218,4.218,0,0,1,1.26,1.2,3.119,3.119,0,0,1,.468,1.776,3.249,3.249,0,0,1-.144.936,9.287,9.287,0,0,1-.336.936q-.192.456-.24.6a12.77,12.77,0,0,0-.744,2.04,7.6,7.6,0,0,0-.24,1.9A6.655,6.655,0,0,0-6.7-6.4q.1.54.288.54.12,0,.408-.48l.432-.888.816-1.632q.168-.264.24-.264t.072.1l-.072.288q-.312.84-.7,2.172a8.319,8.319,0,0,0-.384,2.22,17.2,17.2,0,0,0,.408,3.072,7.175,7.175,0,0,1,.12.768.6.6,0,0,1-.192.48A.611.611,0,0,1-5.664.144ZM3.024-13.368A6.441,6.441,0,0,1,1.3-13.56a4.776,4.776,0,0,1-1.4-.624,2.337,2.337,0,0,1-.828-.84.737.737,0,0,1-.1-.288.064.064,0,0,1,.072-.072.593.593,0,0,1,.252.12,2.181,2.181,0,0,0,.348.192,4.555,4.555,0,0,0,1.728.312A15.851,15.851,0,0,0,3.2-14.9q1.164-.144,1.932-.312a1.544,1.544,0,0,1,.456-.1,1.409,1.409,0,0,1,.84.276.755.755,0,0,1,.384.588q0,.552-1.224.816A12.152,12.152,0,0,1,3.024-13.368ZM3.864-.984a9.715,9.715,0,0,1-3.24-.492A3.2,3.2,0,0,1-1.344-3.432a2.005,2.005,0,0,1-.144-.432.085.085,0,0,1,.1-.1.322.322,0,0,1,.18.084q.108.084.18.132A5.626,5.626,0,0,0,1.056-2.736a7.059,7.059,0,0,0,1.656.144A23.041,23.041,0,0,0,5.9-2.88l.816-.1a1.365,1.365,0,0,1,.9.288.815.815,0,0,1,.348.624q0,.648-1.14.864A16.48,16.48,0,0,1,3.864-.984Zm19.1-1.68A8.14,8.14,0,0,1,21.888.744a2.748,2.748,0,0,1-2.208.96A1.411,1.411,0,0,0,19.368.648,3.023,3.023,0,0,0,17.9.1l.024-.432q1.56.168,2.136.168a1.492,1.492,0,0,0,.48-.06.929.929,0,0,0,.336-.228,4.727,4.727,0,0,0,.744-2.208H15.96l-.144.912a1.259,1.259,0,0,1-.672.192q-.12,0-.744-.1.528-3.1.912-6.264h-.6a1.777,1.777,0,0,0-.912.336l-.624-1.224a9.092,9.092,0,0,0,1.536.192h.7l.144-1.32a31.035,31.035,0,0,0,.24-3.7v-.7a12.864,12.864,0,0,1-1.872,1.872l-.336-.264a15.91,15.91,0,0,0,1.608-2.568,16.371,16.371,0,0,0,.96-2.544,12.068,12.068,0,0,0,.5-2.472q2.376.792,2.376,1.128,0,.072-.216.168l-.432.144a23.068,23.068,0,0,1-1.056,2.208H22.2l.48-.7a3.456,3.456,0,0,0,.2-.288,1.723,1.723,0,0,1,.228-.288.331.331,0,0,1,.216-.12,1.5,1.5,0,0,1,.6.36,8.686,8.686,0,0,1,.852.768q.4.408.4.576-.072.384-.576.384H16.92a16.355,16.355,0,0,1-.936,1.392l1.632.912H22.08l.36-.48a2.726,2.726,0,0,0,.228-.288q.156-.216.3-.216.24,0,.936.612t.7.876a1.573,1.573,0,0,1-.96.36q-.024,2.3-.144,4.176h.192L24.1-9.24q.048-.072.168-.264a1.269,1.269,0,0,1,.216-.276.293.293,0,0,1,.192-.084q.216,0,.9.648t.684.912q-.1.384-.624.384h-2.16q-.192,2.9-.384,4.56h.336l.408-.624q.072-.1.192-.276a2.763,2.763,0,0,1,.2-.276.24.24,0,0,1,.18-.1q.216,0,.912.66t.7.924q-.072.384-.576.384ZM29.88-4.392A14.054,14.054,0,0,0,34.9.48l-.072.24a1.576,1.576,0,0,0-1.416,1.152,14.74,14.74,0,0,1-4.344-5.088,16.926,16.926,0,0,1-6.12,5.064l-.24-.312a17.911,17.911,0,0,0,5.712-6.072,30.822,30.822,0,0,1-2.088-7.9,15.305,15.305,0,0,1-1.608,2.4l-.384-.24a23.114,23.114,0,0,0,1.752-4.656,18.415,18.415,0,0,0,.552-2.664,16.146,16.146,0,0,0,.192-2.544q2.472.576,2.472.888,0,.12-.192.192l-.384.192A34.856,34.856,0,0,1,27.48-14.88H31.7l.48-.7q.072-.1.216-.3a2.457,2.457,0,0,1,.252-.312.3.3,0,0,1,.2-.108,1.553,1.553,0,0,1,.612.372,9.2,9.2,0,0,1,.876.792q.408.42.408.588a.515.515,0,0,1-.576.384H32.9a33.83,33.83,0,0,1-1.1,5.376A19.113,19.113,0,0,1,29.88-4.392Zm-3.144-8.832a26.963,26.963,0,0,0,2.328,7.416,25.487,25.487,0,0,0,2.112-8.352H27.168Q27.048-13.848,26.736-13.224ZM18.744-8.616q.216-2.472.336-4.344H17.232l-.48,4.344Zm3.408,0q.072-1.44.168-4.344H20.352l-.072,1.128-.264,3.216ZM18.216-3.36q.144-1.128.36-3.24.024-.48.12-1.32H16.68l-.624,4.56Zm3.5,0q.216-1.44.408-4.56H19.944q-.288,3.24-.456,4.56ZM56.208-17.952a3.359,3.359,0,0,0,.216-.312,2.341,2.341,0,0,1,.2-.288.24.24,0,0,1,.18-.1,1.38,1.38,0,0,1,.576.36,6.636,6.636,0,0,1,.792.78,1.265,1.265,0,0,1,.36.588q-.072.36-.576.36H51.24a17.77,17.77,0,0,0,1.68,5.52A14.736,14.736,0,0,0,53.952-13.3,9.245,9.245,0,0,0,54.5-15.5q2.256.888,2.256,1.176,0,.1-.24.168l-.432.144a16.9,16.9,0,0,1-2.4,4.248,9.7,9.7,0,0,0,2.664,2.64.71.71,0,0,0,.36.192q.144,0,.288-.288a14.441,14.441,0,0,0,.84-2.28l.288.072L57.84-6.5a2.366,2.366,0,0,1,.6,1.08.5.5,0,0,1-.072.264.732.732,0,0,1-.7.336,2.391,2.391,0,0,1-.948-.24,6.8,6.8,0,0,1-1.068-.6A12.12,12.12,0,0,1,52.7-8.64a14.04,14.04,0,0,1-3.96,2.928l-.288-.312a14.273,14.273,0,0,0,3.576-3.624,19.118,19.118,0,0,1-2.256-6.912H40.92v3a20.922,20.922,0,0,1-.6,5.2A7.982,7.982,0,0,1,37.752-4.3l-.288-.288A9.917,9.917,0,0,0,39.1-8.544a28.789,28.789,0,0,0,.384-4.992v-2.256a17.045,17.045,0,0,0-.144-2.376l1.872.912H49.68q-.168-1.44-.216-2.976,2.088.12,2.088.408,0,.1-.168.216l-.36.24q.024,1.032.144,2.112h4.608Zm-3.792-2.184a4.57,4.57,0,0,1,2.268.6,1.377,1.377,0,0,1,.732,1.08.723.723,0,0,1-.192.516.66.66,0,0,1-.5.2,1.055,1.055,0,0,1-.5-.144,3.259,3.259,0,0,0-.792-1.08,7.166,7.166,0,0,0-1.2-.936ZM44.3-13.728a9.12,9.12,0,0,0-2.16.336L41.52-14.64q1.32.144,3.192.192h2.352l.432-.624.2-.276a2.406,2.406,0,0,1,.216-.264.252.252,0,0,1,.18-.084,1.356,1.356,0,0,1,.564.324,6.557,6.557,0,0,1,.78.708q.36.384.36.552-.1.384-.6.384Zm3.072,1.344q.072-.1.168-.24a1.46,1.46,0,0,1,.168-.216.23.23,0,0,1,.168-.072,1.356,1.356,0,0,1,.564.324,7.222,7.222,0,0,1,.78.7q.36.372.36.54a1.557,1.557,0,0,1-.372.252,1.79,1.79,0,0,1-.54.18v1.2L48.7-9q.024.816.1,1.512a.993.993,0,0,1-.54.408,2.052,2.052,0,0,1-.8.192h-.216v-.864h-3.5v.888q0,.12-.4.3a1.875,1.875,0,0,1-.78.18.255.255,0,0,1-.228-.144.655.655,0,0,1-.084-.336q.072-.576.1-1.08l.024-.5V-9.48a21,21,0,0,0-.192-3.216l1.68.816H47.04Zm-.144,3.936V-11.16h-3.5v2.712Zm-.888,2.88a8.237,8.237,0,0,1,2.448.78A4.052,4.052,0,0,1,50.172-3.7a1.868,1.868,0,0,1,.42,1.08.882.882,0,0,1-.192.588.627.627,0,0,1-.5.228,1.02,1.02,0,0,1-.48-.144A5.953,5.953,0,0,0,48.084-3.78a9.8,9.8,0,0,0-1.956-1.548Zm-2.784,3a19.533,19.533,0,0,0-.144-2.544q2.112.672,2.112.984,0,.1-.168.216l-.336.24V-.408a.32.32,0,0,0,.18.336A3.4,3.4,0,0,0,46.128,0h2.9q1.944,0,2.712-.048a.686.686,0,0,0,.324-.06.58.58,0,0,0,.2-.228,13.25,13.25,0,0,0,.648-2.5h.312L53.28-.24a1.33,1.33,0,0,1,.528.264.488.488,0,0,1,.144.36.664.664,0,0,1-.384.6,4.025,4.025,0,0,1-1.44.312q-1.056.1-3.168.1H45.936a6.4,6.4,0,0,1-1.524-.132A1.021,1.021,0,0,1,43.74.8a1.993,1.993,0,0,1-.18-.948Zm10.1-2.112a10.5,10.5,0,0,1,2.784,1.4,5.919,5.919,0,0,1,1.56,1.6,2.838,2.838,0,0,1,.48,1.44,1.155,1.155,0,0,1-.216.732A.694.694,0,0,1,57.7.768a1.091,1.091,0,0,1-.624-.216,7.6,7.6,0,0,0-1.38-2.6A14.122,14.122,0,0,0,53.424-4.44Zm-12.312.168a8.534,8.534,0,0,1,.12,1.272,5.069,5.069,0,0,1-.54,2.424A4.011,4.011,0,0,1,39.672.672a1.867,1.867,0,0,1-.984.312.741.741,0,0,1-.72-.36A.744.744,0,0,1,37.92.312a.912.912,0,0,1,.18-.54,1.779,1.779,0,0,1,.468-.444,4.1,4.1,0,0,0,1.56-1.512,4.968,4.968,0,0,0,.792-2.352ZM71.9-16.008A14.518,14.518,0,0,1,68.88-14.4q-.888,2.424-1.956,5.244t-1.74,4.5a1.089,1.089,0,0,1-.4.48.947.947,0,0,1-.54.192.479.479,0,0,1-.456-.336,2.139,2.139,0,0,1-.144-.84,1.189,1.189,0,0,1,.036-.36,1.842,1.842,0,0,1,.156-.288q.264-.48.456-.864.432-.936,1.056-2.064.84-1.632,1.4-2.844a22.115,22.115,0,0,0,.972-2.46,4.46,4.46,0,0,1-.912.12,2.7,2.7,0,0,1-1.632-.456,3.147,3.147,0,0,1-.936-1.032.915.915,0,0,1-.168-.48q0-.144.12-.144.1,0,.336.24a2.451,2.451,0,0,0,1.728.5,6.605,6.605,0,0,0,1.872-.36,4.108,4.108,0,0,0,.1-.936,2.134,2.134,0,0,0-.312-1.224,1.411,1.411,0,0,0-.54-.468q-.348-.18-.348-.252,0-.1.156-.168a.882.882,0,0,1,.372-.072,1.987,1.987,0,0,1,.672.12,2.312,2.312,0,0,1,1.032.6,1.343,1.343,0,0,1,.312.912,3.324,3.324,0,0,1-.168,1.008l.432-.216q.192-.12.336-.228t.144-.2q0-.1-.216-.264a2.218,2.218,0,0,0-.276-.168q-.18-.1-.18-.168,0-.1.216-.1l.864.024a1.587,1.587,0,0,0,.42-.072,1.711,1.711,0,0,1,.468-.072.73.73,0,0,1,.54.2.7.7,0,0,1,.2.516,1.065,1.065,0,0,1-.12.48A.978.978,0,0,1,71.9-16.008Zm4.92,3.5a2.287,2.287,0,0,0-1.764.744,3.2,3.2,0,0,0-.684,2.232,32.184,32.184,0,0,0,.336,3.912q.144,1.008.192,1.512a15.373,15.373,0,0,1,2.2.756,5.257,5.257,0,0,1,1.5.9,1.462,1.462,0,0,1,.528.96.644.644,0,0,1-.18.456A.584.584,0,0,1,78.5-.84a1.088,1.088,0,0,1-.492-.144q-.276-.144-.756-.456A9.8,9.8,0,0,0,75-2.544a5.356,5.356,0,0,1,.024.6,2.353,2.353,0,0,1-1,2,3.844,3.844,0,0,1-2.34.732,4.3,4.3,0,0,1-1.62-.324,3.365,3.365,0,0,1-1.32-.924,2.1,2.1,0,0,1-.516-1.416A2.106,2.106,0,0,1,69.456-3.78a6.071,6.071,0,0,1,3-.684,7,7,0,0,1,1.152.1Q73.44-7.008,73.44-7.9a10.74,10.74,0,0,1,.252-2.616,3.215,3.215,0,0,1,1.044-1.644,6.819,6.819,0,0,1,2.424-1.188q.456-.12.456-.456a1.176,1.176,0,0,0-.348-.7,4.233,4.233,0,0,0-.708-.672q-.144-.12-.144-.168t.168-.048a2.637,2.637,0,0,1,.552.084,3.36,3.36,0,0,1,.624.2A5.58,5.58,0,0,1,79.344-14a2.021,2.021,0,0,1,.768,1.38.981.981,0,0,1-.336.744,1.1,1.1,0,0,1-.768.312,1.058,1.058,0,0,1-.48-.108A3.441,3.441,0,0,1,78-12.024a4.033,4.033,0,0,0-.588-.36A1.354,1.354,0,0,0,76.824-12.5ZM71.352-.456a2.051,2.051,0,0,0,1.824-.66,3.466,3.466,0,0,0,.456-1.836,9.17,9.17,0,0,0-1.92-.216,4.422,4.422,0,0,0-1.824.336,1.066,1.066,0,0,0-.744.984A1.125,1.125,0,0,0,69.8-.816,3.184,3.184,0,0,0,71.352-.456Zm30.12-10.536q.072-.1.2-.264a1.783,1.783,0,0,1,.216-.24.272.272,0,0,1,.18-.072q.216,0,.936.708t.72.972a1.5,1.5,0,0,1-.96.384,55.075,55.075,0,0,1-.684,6.816Q101.592.1,100.776.864a3.582,3.582,0,0,1-2.76.96q0-.888-.5-1.152A9.3,9.3,0,0,0,94.728-.1V-.5q3.5.336,4.032.336a2.064,2.064,0,0,0,.576-.06,1.156,1.156,0,0,0,.408-.252q.552-.48.936-3.012t.576-6.228H94.224a18.019,18.019,0,0,1-2.7,6.864A14.9,14.9,0,0,1,85.848,1.9l-.216-.312A15.892,15.892,0,0,0,89.94-2.772,16.912,16.912,0,0,0,92.2-8.124a35.566,35.566,0,0,0,.828-6.732h-3.5a24.319,24.319,0,0,0-3.6.336l-.624-1.2q1.32.144,3.192.192h6.7A32.52,32.52,0,0,0,94.9-20.28q2.448.672,2.448,1.008,0,.12-.192.24l-.408.264v3.24H103.3l.528-.744q.1-.12.252-.336t.252-.324a.266.266,0,0,1,.192-.108,1.807,1.807,0,0,1,.66.384,8.7,8.7,0,0,1,.96.828q.444.444.444.612-.1.36-.6.36H94.848q-.192,2.616-.48,4.416h6.672ZM-65.664,40.144a1.126,1.126,0,0,1-.732-.372,2.1,2.1,0,0,1-.564-.876,17.077,17.077,0,0,1-.888-5.928,15.624,15.624,0,0,1,.24-2.88,26.344,26.344,0,0,1,.648-2.64q.168-.648.312-1.272A4.9,4.9,0,0,0-66.5,25.1a2.824,2.824,0,0,0-.168-.936,2.2,2.2,0,0,0-.432-.768.856.856,0,0,1-.192-.36q0-.12.1-.12a.821.821,0,0,1,.384.144,4.218,4.218,0,0,1,1.26,1.2,3.119,3.119,0,0,1,.468,1.776,3.249,3.249,0,0,1-.144.936,9.287,9.287,0,0,1-.336.936q-.192.456-.24.6a12.77,12.77,0,0,0-.744,2.04,7.6,7.6,0,0,0-.24,1.9,6.655,6.655,0,0,0,.1,1.164q.1.54.288.54.12,0,.408-.48l.432-.888.816-1.632q.168-.264.24-.264t.072.1l-.072.288q-.312.84-.7,2.172a8.318,8.318,0,0,0-.384,2.22,17.2,17.2,0,0,0,.408,3.072,7.177,7.177,0,0,1,.12.768.6.6,0,0,1-.192.48A.611.611,0,0,1-65.664,40.144Zm8.688-13.512A6.441,6.441,0,0,1-58.7,26.44a4.776,4.776,0,0,1-1.4-.624,2.337,2.337,0,0,1-.828-.84.737.737,0,0,1-.1-.288.064.064,0,0,1,.072-.072.593.593,0,0,1,.252.12,2.181,2.181,0,0,0,.348.192,4.555,4.555,0,0,0,1.728.312A15.851,15.851,0,0,0-56.8,25.1q1.164-.144,1.932-.312a1.544,1.544,0,0,1,.456-.1,1.409,1.409,0,0,1,.84.276.755.755,0,0,1,.384.588q0,.552-1.224.816A12.152,12.152,0,0,1-56.976,26.632Zm.84,12.384a9.715,9.715,0,0,1-3.24-.492,3.2,3.2,0,0,1-1.968-1.956,2.005,2.005,0,0,1-.144-.432.085.085,0,0,1,.1-.1.323.323,0,0,1,.18.084q.108.084.18.132a5.626,5.626,0,0,0,2.088,1.008,7.059,7.059,0,0,0,1.656.144A23.041,23.041,0,0,0-54.1,37.12l.816-.1a1.365,1.365,0,0,1,.9.288.815.815,0,0,1,.348.624q0,.648-1.14.864A16.48,16.48,0,0,1-56.136,39.016Zm20.64-9.528a10.206,10.206,0,0,1,4.044,3.036A6.319,6.319,0,0,1-30,36.424a4.342,4.342,0,0,1-.732,2.5,4.8,4.8,0,0,1-1.932,1.656,5.858,5.858,0,0,1-2.568.576,3.8,3.8,0,0,1-3.42-1.5,6.977,6.977,0,0,1-1-3.924q0-1.032.024-1.536a4.1,4.1,0,0,1-1.356-.732,1.363,1.363,0,0,1-.516-1.068q0-1.392,2.424-3.552.216-1.272.432-2.3a12.84,12.84,0,0,1-1.524-.744,5.151,5.151,0,0,1-1.044-.744l-.144-.144a.263.263,0,0,1-.1-.168.127.127,0,0,1,.144-.144,2.006,2.006,0,0,1,.336.1,9.011,9.011,0,0,0,1.476.384q.9.168,1.092.216a14.118,14.118,0,0,0,.312-2.52,3.737,3.737,0,0,0-.264-1.464,2.987,2.987,0,0,0-.576-.912.393.393,0,0,1-.144-.24q0-.168.264-.168a1.684,1.684,0,0,1,.648.168,2.874,2.874,0,0,1,.72.456,2.078,2.078,0,0,1,.864,1.608,2.281,2.281,0,0,1-.1.624q-.1.336-.312.888a18.207,18.207,0,0,0-.576,1.728,10.84,10.84,0,0,1,1.464.432,1.442,1.442,0,0,1,.684.552,1.3,1.3,0,0,1,.228.7.651.651,0,0,1-.192.48.7.7,0,0,1-.432.216,5.262,5.262,0,0,0-2.448.864,37.027,37.027,0,0,0-.552,4.368l.24.024a13.657,13.657,0,0,0,1.8.1,2.7,2.7,0,0,1,1.056.168.659.659,0,0,1,.384.672.519.519,0,0,1-.372.552,2.774,2.774,0,0,1-.852.12,10.3,10.3,0,0,1-2.3-.288v.24a8.334,8.334,0,0,0,.708,3.816,2.836,2.836,0,0,0,2.772,1.344,3.965,3.965,0,0,0,1.92-.468,3.511,3.511,0,0,0,1.38-1.356,4.034,4.034,0,0,0,.516-2.064,5.737,5.737,0,0,0-1.176-3.252,11.212,11.212,0,0,0-3-2.916q-.288-.192-.288-.312,0-.072.12-.072A.952.952,0,0,1-35.5,29.488Zm-2.376-2.64-.144.72-.12.528q.336-.24.624-.492t.288-.372q0-.1-.144-.18a1.156,1.156,0,0,0-.276-.12,1.13,1.13,0,0,1-.18-.06Zm-2.76,5.04q0,.648,1.08.984.12-1.536.384-3.456a5.573,5.573,0,0,0-1.068,1.32A2.488,2.488,0,0,0-40.632,31.888Zm32.76-7.008a6.694,6.694,0,0,1,2.508.456A4.15,4.15,0,0,1-3.54,26.7a3.575,3.575,0,0,1,.684,2.208,3.685,3.685,0,0,1-.588,2.04,4.149,4.149,0,0,1-1.6,1.44,4.636,4.636,0,0,1-2.184.528,5.4,5.4,0,0,1-2.64-.732,9.674,9.674,0,0,1-2.568-2.172,1.38,1.38,0,0,1-.36-.576.064.064,0,0,1,.072-.072.552.552,0,0,1,.252.144q.18.144.348.264A11.031,11.031,0,0,0-9.8,30.952a6.646,6.646,0,0,0,2.292.48,3.331,3.331,0,0,0,2.3-.792,2.556,2.556,0,0,0,.888-1.992,2.426,2.426,0,0,0-1.044-2.136,4.568,4.568,0,0,0-2.652-.72,9.607,9.607,0,0,0-3.072.552,10.253,10.253,0,0,0-3,1.608q-.672.5-2.016,1.7.768,1.344,1.392,2.628t1.2,2.508A34.676,34.676,0,0,1-12.144,38.1a7.01,7.01,0,0,1,.456,1.92.993.993,0,0,1-.264.7.9.9,0,0,1-.7.288.775.775,0,0,1-.768-.468,4.735,4.735,0,0,1-.336-1.212A23.506,23.506,0,0,0-14.82,34.78a30.623,30.623,0,0,0-2-4.452A19.433,19.433,0,0,1-18.552,31.8a2.037,2.037,0,0,1-1.128.468,2.1,2.1,0,0,1-1.284-.516,2.37,2.37,0,0,1-.852-1.116.532.532,0,0,1-.024-.168q0-.1.048-.1a.368.368,0,0,1,.168.1,1.638,1.638,0,0,0,1.008.288,1.825,1.825,0,0,0,.936-.252,8.944,8.944,0,0,0,1.056-.756l.576-.432.456-.336q-.5-.936-1.176-1.992a4.129,4.129,0,0,1-.72-2.088,1.843,1.843,0,0,1,.72-1.512,2.985,2.985,0,0,1,1.92-.576,10.383,10.383,0,0,1,1.656.144l.48.1a15.215,15.215,0,0,0,1.848.24q.6,0,.6-.312,0-.384-.7-.984-.048-.048-.252-.2t-.2-.252q0-.072.1-.072a2.381,2.381,0,0,1,.768.24,6.18,6.18,0,0,1,1.476.948,1.729,1.729,0,0,1,.684,1.332.763.763,0,0,1-.36.672,1.36,1.36,0,0,1-.768.24,3.877,3.877,0,0,1-1.56-.5,7.677,7.677,0,0,0-3.168-.84,2.111,2.111,0,0,0-1.44.444,1.561,1.561,0,0,0-.5,1.236,3.391,3.391,0,0,0,.348,1.44,17.015,17.015,0,0,0,1,1.776Q-11.616,24.88-7.872,24.88Zm25.416,5.9a5.255,5.255,0,0,1,.984,2.64,2.26,2.26,0,0,1-.564,1.4,1.56,1.56,0,0,1-1.188.708A.968.968,0,0,1,16.1,35.2a7.753,7.753,0,0,0-2.124-1.284,7.074,7.074,0,0,0-2.844-.588,4.522,4.522,0,0,0-2.7.72,2.255,2.255,0,0,0-1,1.92,2.127,2.127,0,0,0,.888,1.824,4.56,4.56,0,0,0,2.688.648q.288,0,1.536-.12a5.851,5.851,0,0,1,.744-.072,1.3,1.3,0,0,1,.912.288.865.865,0,0,1,.312.648q0,.672-1.152.84a14.072,14.072,0,0,1-1.992.144A5.882,5.882,0,0,1,7.464,39.04,3.507,3.507,0,0,1,6.216,36.3a3.024,3.024,0,0,1,.7-1.992A4.33,4.33,0,0,1,8.724,33.04a6.491,6.491,0,0,1,2.364-.432,10.114,10.114,0,0,1,1.98.18q.9.18,1.956.492a4.6,4.6,0,0,0,.984.24.636.636,0,0,0,.516-.252.978.978,0,0,0,.2-.636,1.817,1.817,0,0,0-.144-.672,12.223,12.223,0,0,0-4.2-5.088,10.252,10.252,0,0,1-2.316.852,8.679,8.679,0,0,1-1.836.252,4.985,4.985,0,0,1-2.148-.48,5.153,5.153,0,0,1-1.74-1.32.865.865,0,0,1-.24-.408q0-.144.12-.144a.626.626,0,0,1,.252.108q.18.108.276.156a12.091,12.091,0,0,0,1.584.7,4.5,4.5,0,0,0,1.488.312,6.007,6.007,0,0,0,1.416-.264q.96-.264,1.92-.624-.936-.624-1.5-.936t-.612-.336A2.657,2.657,0,0,1,8.22,24a1.4,1.4,0,0,1-.3-.8,1.1,1.1,0,0,1,.372-.78,1.124,1.124,0,0,1,.8-.372.778.778,0,0,1,.48.144,6.685,6.685,0,0,0,1.812.876,6.456,6.456,0,0,0,1.956.324l.768-.048.6-.048q1.128,0,1.128.624a1.678,1.678,0,0,1-.7,1.128,11.169,11.169,0,0,1-1.9,1.368A17.811,17.811,0,0,1,17.544,30.784Zm-7.008-6.192q.6.36,1.56,1.008a3.568,3.568,0,0,0,1.032-.7.581.581,0,0,0,.144-.312q0-.144-.216-.24-.72-.336-1.7-.72a4.874,4.874,0,0,0-1.272-.384q-.36,0-.36.408Q9.72,24.112,10.536,24.592ZM35.424,40.48a5.266,5.266,0,0,1-3.06-.78,4.08,4.08,0,0,1-1.56-2.256,13.3,13.3,0,0,1-.444-3.756q0-2.28.312-5.352.192-2.016.192-2.664a7.436,7.436,0,0,0-.18-1.86,1.733,1.733,0,0,0-.8-1.044q-.192-.12-.192-.264,0-.264.672-.264a1.92,1.92,0,0,1,1.716.7,3.358,3.358,0,0,1,.468,1.9q0,.792-.336,3.6a46.416,46.416,0,0,0-.384,5.4,10.434,10.434,0,0,0,.372,3.156,2.732,2.732,0,0,0,1.26,1.608,5.208,5.208,0,0,0,2.5.492q2.88,0,7.632-3.48.048-.024.228-.144a.577.577,0,0,1,.276-.12q.072,0,.072.1,0,.168-.312.48a21.451,21.451,0,0,1-4.164,3.312A8.255,8.255,0,0,1,35.424,40.48ZM57.48,39.232a3.138,3.138,0,0,1-1.248-.36,7.2,7.2,0,0,1-1.68-1.176,7.688,7.688,0,0,1-2.328-6,20.38,20.38,0,0,1,.264-2.952,12.951,12.951,0,0,0,.144-1.44,2.586,2.586,0,0,0-.2-1.044,2.776,2.776,0,0,0-.708-.924q-.144-.12-.144-.192t.1-.108A.544.544,0,0,1,51.864,25a2.533,2.533,0,0,1,1.092.3A3.312,3.312,0,0,1,54,26.092a1.512,1.512,0,0,1,.432,1,2.724,2.724,0,0,1-.108.708q-.108.4-.252.828-.312,1.008-.468,1.728a8,8,0,0,0-.156,1.68,5.422,5.422,0,0,0,.492,2.34A5.012,5.012,0,0,0,55.092,36a1.875,1.875,0,0,0,1.14.588q.288,0,.384-.5a18.7,18.7,0,0,1,.468-1.824,8.734,8.734,0,0,1,.4-1.08,1.538,1.538,0,0,1,.168-.3q.1-.132.168-.132t.072.144a2.88,2.88,0,0,1-.048.408,11.684,11.684,0,0,0-.24,2.232q0,.36.024.684t.048.516a3.163,3.163,0,0,0,.264,1.032,3.085,3.085,0,0,1,.192.792.693.693,0,0,1-.168.492A.624.624,0,0,1,57.48,39.232Zm9.96-6.384a.891.891,0,0,1-.66-.192,1.5,1.5,0,0,1-.3-.528q-.024-.048-.42-1.548A3.031,3.031,0,0,0,64.512,28.5a3.238,3.238,0,0,0-1.488-.288h-.288q-.216,0-.216-.144,0-.1.24-.192a2.377,2.377,0,0,1,.468-.12,4.372,4.372,0,0,1,.828-.072,4.049,4.049,0,0,1,2.9,1.176,4.581,4.581,0,0,1,1.176,1.62,3.757,3.757,0,0,1,.312,1.236,1.224,1.224,0,0,1-.276.78A.888.888,0,0,1,67.44,32.848Z" transform="translate(9972.65 -521.096)" fill="#333"/>
        </g>
      </g>
    </g>
    <g id="グループ_7125" data-name="グループ 7125">
      <path id="パス_5376" data-name="パス 5376" d="M14.8-13.84l.15-.2a1.15,1.15,0,0,1,.16-.18.227.227,0,0,1,.15-.06,1.293,1.293,0,0,1,.5.27,6.06,6.06,0,0,1,.71.59q.33.32.33.46a1.458,1.458,0,0,1-.84.4v8.72q.04,2.48.16,4.7a1.537,1.537,0,0,1-.55.42,1.579,1.579,0,0,1-.71.2.228.228,0,0,1-.21-.12.546.546,0,0,1-.07-.28L14.66.6V.14H5.54V1q0,.16-.33.34a1.46,1.46,0,0,1-.71.18.453.453,0,0,1-.3-.12.36.36,0,0,1-.14-.28q.08-1.18.14-2.29t.08-2.91V-10.1a26.164,26.164,0,0,0-.26-4.1l1.66.78H8.46a12.116,12.116,0,0,0,.42-1.77,9.137,9.137,0,0,0,.14-1.71q2.2.4,2.2.66,0,.1-.16.16l-.34.18a14.123,14.123,0,0,1-1.66,2.48h5.42Zm-.14,4.66v-3.64H5.54v3.64Zm0,4.32V-8.6H5.54v3.74Zm-9.12.6V-.44h9.12V-4.26Zm31.12-7.98q.08-.1.19-.27a1.584,1.584,0,0,1,.19-.25.23.23,0,0,1,.16-.08,1.348,1.348,0,0,1,.52.31,7.052,7.052,0,0,1,.74.66q.34.35.34.49-.08.32-.5.32H33.66a9.416,9.416,0,0,0,1.85,3.99A8.515,8.515,0,0,0,38.9-4.62l-.02.2a1.3,1.3,0,0,0-.71.35,1.666,1.666,0,0,0-.45.77,8.106,8.106,0,0,1-2.87-2.91,13.873,13.873,0,0,1-1.51-4.51,9.141,9.141,0,0,1-1.93,4.31A11.593,11.593,0,0,1,26.66-3.3l-.26-.34A10.636,10.636,0,0,0,30.54-6.8a9.5,9.5,0,0,0,1.66-4.26H29.72l-.14-.52a15.681,15.681,0,0,1-8.1,9.02l-.22-.26A15.266,15.266,0,0,0,26.1-7.37a18.989,18.989,0,0,0,2.74-6.19H25.42l-.2.36q-.22.42-.52.88a4.045,4.045,0,0,1,1.87.76,1.427,1.427,0,0,1,.61,1.04.586.586,0,0,1-.14.4.457.457,0,0,1-.36.16.771.771,0,0,1-.38-.1,3.013,3.013,0,0,0-.7-1.01,6.26,6.26,0,0,0-1.12-.91,15.943,15.943,0,0,1-1.42,1.86,4.284,4.284,0,0,1,1.89.97,1.722,1.722,0,0,1,.61,1.17.694.694,0,0,1-.15.46.484.484,0,0,1-.39.18.787.787,0,0,1-.42-.14,3.144,3.144,0,0,0-.63-1.22,7.358,7.358,0,0,0-1.11-1.16A12.444,12.444,0,0,1,21.3-8.44l-.22-.24a17.126,17.126,0,0,0,2.66-4.06,17.05,17.05,0,0,0,.84-2.18,10.656,10.656,0,0,0,.48-2.06q1.92.64,1.92.9,0,.1-.2.16l-.38.12q-.16.46-.7,1.68h3.1l.34-.4q.08-.08.23-.25a.4.4,0,0,1,.27-.17q.18,0,.74.54t.56.76a.6.6,0,0,1-.28.19,2.18,2.18,0,0,1-.48.07q-.36,1.16-.56,1.72h2.66l.06-.64q.04-.8.04-1.26a19.024,19.024,0,0,0-.2-2.88q1.94.18,1.94.44,0,.04-.16.16l-.3.2-.02.62q-.04,2-.16,3.36h2.78Zm-2.2-3.22a4.287,4.287,0,0,1,1.82.93,1.61,1.61,0,0,1,.58,1.11.745.745,0,0,1-.17.5.54.54,0,0,1-.43.2.8.8,0,0,1-.48-.18,3.909,3.909,0,0,0-.59-1.27,6.294,6.294,0,0,0-.95-1.13Zm.16,12.22a9.624,9.624,0,0,1,2.32,1.33A5.322,5.322,0,0,1,38.23-.5,2.512,2.512,0,0,1,38.62.72a.919.919,0,0,1-.16.57.5.5,0,0,1-.42.21.955.955,0,0,1-.5-.18A7.435,7.435,0,0,0,36.32-.91,15.627,15.627,0,0,0,34.4-3.06ZM24.58-3.2a6.2,6.2,0,0,1,.08,1.02,4.18,4.18,0,0,1-.52,2.16,3.433,3.433,0,0,1-1.22,1.28,1.6,1.6,0,0,1-.86.28.545.545,0,0,1-.58-.32.533.533,0,0,1-.06-.24.69.69,0,0,1,.15-.42,1.3,1.3,0,0,1,.39-.34,3.774,3.774,0,0,0,1.55-1.29,3.937,3.937,0,0,0,.77-2.13Zm6.48.06a6.375,6.375,0,0,1,1.95,1.8A3.23,3.23,0,0,1,33.62.38a1.259,1.259,0,0,1-.18.71.536.536,0,0,1-.46.27.749.749,0,0,1-.52-.26,6.253,6.253,0,0,0-.55-2.05A12.7,12.7,0,0,0,30.8-3Zm-3.68.1a6,6,0,0,1,1.27,1.65A3.489,3.489,0,0,1,29.06.14a1.635,1.635,0,0,1-.22.9.624.624,0,0,1-.52.34.745.745,0,0,1-.58-.32q.04-.4.04-.62a8.473,8.473,0,0,0-.19-1.73,11.053,11.053,0,0,0-.47-1.65Zm27.58-9.94.17-.23a2.046,2.046,0,0,1,.19-.23.231.231,0,0,1,.16-.08,1.237,1.237,0,0,1,.49.27,5.266,5.266,0,0,1,.68.59q.31.32.31.46-.08.32-.5.32H50.6v1.8H56l.42-.58q.06-.08.18-.25a2.047,2.047,0,0,1,.21-.26.252.252,0,0,1,.17-.09,1.348,1.348,0,0,1,.52.31,7.052,7.052,0,0,1,.74.66q.34.35.34.49-.08.32-.52.32H49.92A24.6,24.6,0,0,1,47.1-7.22,1.632,1.632,0,0,1,47.86-6a.615.615,0,0,1-.14.42.5.5,0,0,1-.4.16A1.027,1.027,0,0,1,47-5.48a5.887,5.887,0,0,0-1.39-1.37,9.7,9.7,0,0,0-1.85-1.11l.16-.24a7.2,7.2,0,0,1,2.76.72q.7-.9,1.4-2H44.86a20.266,20.266,0,0,0-3,.28l-.52-1.04q1.1.12,2.66.16h5.32v-1.8H46.68a20.266,20.266,0,0,0-3,.28l-.52-1.02q1.1.12,2.66.16h3.5v-1.78h-3.4a20.266,20.266,0,0,0-3,.28l-.52-1.02q1.1.12,2.66.16h4.26a15,15,0,0,0-.12-2.04,12.831,12.831,0,0,1,1.47.51q.41.19.41.35,0,.1-.16.2l-.32.22v.76h4.66l.4-.56q.08-.1.19-.25a2.046,2.046,0,0,1,.19-.23.23.23,0,0,1,.16-.08,1.375,1.375,0,0,1,.52.29,6.742,6.742,0,0,1,.74.62q.34.33.34.47-.08.32-.52.32H50.6v1.78h3.98Zm.6,8.16a12.662,12.662,0,0,0-2.24-1.54l.18-.22a9.534,9.534,0,0,1,2.67.85,4.494,4.494,0,0,1,1.52,1.17,1.928,1.928,0,0,1,.47,1.12.7.7,0,0,1-.16.48.535.535,0,0,1-.42.18,1.067,1.067,0,0,1-.38-.1,5.812,5.812,0,0,0-1.14-1.48q-2.88.26-5.48.46v1.7q.04,2.04.12,3.26a1.171,1.171,0,0,1-.43.31,1.71,1.71,0,0,1-.75.15.332.332,0,0,1-.25-.12.4.4,0,0,1-.11-.28q.12-1.56.16-3.16V-3.82l-5.42.38-1.02.06a.713.713,0,0,1-.52.4l-.72-1.6q2.06,0,5.72-.06,1-.74,2.06-1.64a14.864,14.864,0,0,0,1.5-1.47A8.194,8.194,0,0,0,52-9.24q1.64.86,1.64,1.1,0,.08-.18.12l-.36.04A17.775,17.775,0,0,1,51-6.32a30.855,30.855,0,0,1-2.68,1.66ZM47.24-2.26q.68.36.68.52,0,.12-.22.12h-.34A15.079,15.079,0,0,1,44.81-.07,19.188,19.188,0,0,1,41.7,1.16l-.18-.3A18.616,18.616,0,0,0,43.48-.28,12.02,12.02,0,0,0,45.14-1.6a6.7,6.7,0,0,0,1.18-1.42Zm4.92-.24a12.921,12.921,0,0,1,3.25.8A5.443,5.443,0,0,1,57.28-.54,1.752,1.752,0,0,1,57.86.58a.561.561,0,0,1-.16.43.618.618,0,0,1-.44.15.852.852,0,0,1-.3-.04A9.556,9.556,0,0,0,54.81-.69,18.47,18.47,0,0,0,52-2.24ZM67.6-12.74q.06-.08.17-.25a1.583,1.583,0,0,1,.19-.25.231.231,0,0,1,.16-.08,1.252,1.252,0,0,1,.5.3,6.433,6.433,0,0,1,.7.64q.32.34.32.48a.429.429,0,0,1-.48.32H66.04v2.04a6.247,6.247,0,0,1,2.29,1.45,2.351,2.351,0,0,1,.73,1.51.847.847,0,0,1-.17.55.55.55,0,0,1-.45.21.851.851,0,0,1-.52-.2,5.2,5.2,0,0,0-.71-1.57,12.166,12.166,0,0,0-1.17-1.57V-3.7q.04,2.48.16,4.7a1.073,1.073,0,0,1-.46.4,1.407,1.407,0,0,1-.66.18.5.5,0,0,1-.34-.12.36.36,0,0,1-.14-.28q.08-1.18.14-2.29t.08-2.91V-8.1a17.31,17.31,0,0,1-3.6,5.48l-.26-.26a17.68,17.68,0,0,0,2.17-3.97,27.293,27.293,0,0,0,1.41-4.73h-1a7.6,7.6,0,0,0-1.8.28l-.52-1.04q1,.12,2.44.16h1.16v-.6a26.165,26.165,0,0,0-.26-4.1,15.406,15.406,0,0,1,1.57.53q.43.19.43.35,0,.1-.18.2l-.34.22v3.4h1.18Zm6.9,3.52a19.974,19.974,0,0,1-2.86,4.2A20.078,20.078,0,0,1,67.8-1.66l-.24-.28a20.317,20.317,0,0,0,3.8-4.35A23.908,23.908,0,0,0,74-11.6H72.64a14.285,14.285,0,0,0-2.52.28l-.52-1.02q1.1.12,2.66.16H74.5v-.58a26.165,26.165,0,0,0-.26-4.1q2.04.56,2.04.86,0,.1-.18.2l-.36.22v3.4h.8l.36-.58q.06-.08.17-.25a2.222,2.222,0,0,1,.19-.26.222.222,0,0,1,.16-.09,1.15,1.15,0,0,1,.48.3,6.171,6.171,0,0,1,.67.65q.31.35.31.49-.06.32-.48.32H75.74V-.38a2.541,2.541,0,0,1-.15.96,1.239,1.239,0,0,1-.61.6,3.815,3.815,0,0,1-1.38.32,1.058,1.058,0,0,0-.48-.84,5.447,5.447,0,0,0-1.88-.5V-.16q2.32.18,2.74.18a.581.581,0,0,0,.41-.11.511.511,0,0,0,.11-.37Zm15.84-4.72a8.738,8.738,0,0,1,3.34.69,6.669,6.669,0,0,1,2.83,2.22,6.33,6.33,0,0,1,1.15,3.91,5.929,5.929,0,0,1-1.91,4.76A9.426,9.426,0,0,1,91.67-.23a17.035,17.035,0,0,1-3.63.49q-.28,0-.28-.1,0-.12.8-.26a12.163,12.163,0,0,0,5.56-2.3,5.778,5.778,0,0,0,2.14-4.8,6.186,6.186,0,0,0-.91-3.49,5.412,5.412,0,0,0-2.31-2,7.039,7.039,0,0,0-2.92-.63,4.463,4.463,0,0,0-.5.02,4.831,4.831,0,0,1,.4,1.26,7.271,7.271,0,0,1,.14,1.34,9.857,9.857,0,0,1-.72,3.4,15.694,15.694,0,0,1-1.51,3.09,9.078,9.078,0,0,1-1.64,1.98,2.266,2.266,0,0,1-1.27.67,1.809,1.809,0,0,1-1.35-.71,5.127,5.127,0,0,1-1-1.87,7.915,7.915,0,0,1-.37-2.42,6.724,6.724,0,0,1,1.14-3.85,7.636,7.636,0,0,1,3-2.61A8.687,8.687,0,0,1,90.34-13.94Zm-.82,2.24a5.066,5.066,0,0,0-.22-1.56,6.794,6.794,0,0,0-2.89,1.07A6.507,6.507,0,0,0,84.28-9.9a6.405,6.405,0,0,0-.8,3.2,5.928,5.928,0,0,0,.29,2,3.419,3.419,0,0,0,.65,1.18q.36.38.58.38a1.854,1.854,0,0,0,1.19-.75,11.576,11.576,0,0,0,1.27-1.67,13.851,13.851,0,0,0,1.59-3.21A9.576,9.576,0,0,0,89.52-11.7ZM107.9-.64a2.615,2.615,0,0,1-1.04-.3,6,6,0,0,1-1.4-.98,6.406,6.406,0,0,1-1.94-5,16.983,16.983,0,0,1,.22-2.46,10.792,10.792,0,0,0,.12-1.2,2.155,2.155,0,0,0-.17-.87,2.314,2.314,0,0,0-.59-.77q-.12-.1-.12-.16t.08-.09a.453.453,0,0,1,.16-.03,2.111,2.111,0,0,1,.91.25,2.76,2.76,0,0,1,.87.66,1.26,1.26,0,0,1,.36.83,2.27,2.27,0,0,1-.09.59q-.09.33-.21.69-.26.84-.39,1.44a6.671,6.671,0,0,0-.13,1.4,4.519,4.519,0,0,0,.41,1.95,4.177,4.177,0,0,0,.96,1.36,1.563,1.563,0,0,0,.95.49q.24,0,.32-.42a15.588,15.588,0,0,1,.39-1.52,7.278,7.278,0,0,1,.33-.9,1.281,1.281,0,0,1,.14-.25q.08-.11.14-.11t.06.12a2.4,2.4,0,0,1-.04.34,9.737,9.737,0,0,0-.2,1.86q0,.3.02.57t.04.43a2.636,2.636,0,0,0,.22.86,2.571,2.571,0,0,1,.16.66.577.577,0,0,1-.14.41A.52.52,0,0,1,107.9-.64Zm8.3-5.32a.742.742,0,0,1-.55-.16,1.251,1.251,0,0,1-.25-.44q-.02-.04-.35-1.29a2.526,2.526,0,0,0-1.29-1.73,2.7,2.7,0,0,0-1.24-.24h-.24q-.18,0-.18-.12,0-.08.2-.16a1.98,1.98,0,0,1,.39-.1,3.644,3.644,0,0,1,.69-.06,3.374,3.374,0,0,1,2.42.98,3.818,3.818,0,0,1,.98,1.35,3.131,3.131,0,0,1,.26,1.03,1.02,1.02,0,0,1-.23.65A.74.74,0,0,1,116.2-5.96ZM127.9-.64a2.615,2.615,0,0,1-1.04-.3,6,6,0,0,1-1.4-.98,6.406,6.406,0,0,1-1.94-5,16.983,16.983,0,0,1,.22-2.46,10.792,10.792,0,0,0,.12-1.2,2.155,2.155,0,0,0-.17-.87,2.314,2.314,0,0,0-.59-.77q-.12-.1-.12-.16t.08-.09a.453.453,0,0,1,.16-.03,2.111,2.111,0,0,1,.91.25,2.76,2.76,0,0,1,.87.66,1.26,1.26,0,0,1,.36.83,2.27,2.27,0,0,1-.09.59q-.09.33-.21.69-.26.84-.39,1.44a6.671,6.671,0,0,0-.13,1.4,4.519,4.519,0,0,0,.41,1.95,4.177,4.177,0,0,0,.96,1.36,1.563,1.563,0,0,0,.95.49q.24,0,.32-.42a15.588,15.588,0,0,1,.39-1.52,7.278,7.278,0,0,1,.33-.9,1.282,1.282,0,0,1,.14-.25q.08-.11.14-.11t.06.12a2.4,2.4,0,0,1-.04.34,9.737,9.737,0,0,0-.2,1.86q0,.3.02.57t.04.43a2.636,2.636,0,0,0,.22.86,2.571,2.571,0,0,1,.16.66.577.577,0,0,1-.14.41A.52.52,0,0,1,127.9-.64Zm8.3-5.32a.742.742,0,0,1-.55-.16,1.252,1.252,0,0,1-.25-.44q-.02-.04-.35-1.29a2.526,2.526,0,0,0-1.29-1.73,2.7,2.7,0,0,0-1.24-.24h-.24q-.18,0-.18-.12,0-.08.2-.16a1.981,1.981,0,0,1,.39-.1,3.644,3.644,0,0,1,.69-.06,3.374,3.374,0,0,1,2.42.98,3.818,3.818,0,0,1,.98,1.35,3.131,3.131,0,0,1,.26,1.03,1.02,1.02,0,0,1-.23.65A.74.74,0,0,1,136.2-5.96Zm12.1-3.48q-.1,0-.1-.08a.333.333,0,0,1,.12-.22q.34-.34.88-.78.32-.28.58-.52t.26-.3q0-.22-.82-.36a3.686,3.686,0,0,1-1.38-.59,5.057,5.057,0,0,1-1-.85,1.35,1.35,0,0,1-.15-.24.558.558,0,0,1-.07-.24q0-.08.04-.08l.08.02q.06.04.19.11t.37.19a5.256,5.256,0,0,0,1.2.4,5.978,5.978,0,0,0,1.28.16,8.884,8.884,0,0,0,1.24-.1q.72-.08,1-.08a1.33,1.33,0,0,1,.42.06,1.394,1.394,0,0,1,.58.41.983.983,0,0,1,.28.67.389.389,0,0,1-.21.36,2.907,2.907,0,0,1-.93.2,7.519,7.519,0,0,0-3.56,1.72A.627.627,0,0,1,148.3-9.44Zm2.04,9.32a12.708,12.708,0,0,1-2.61-.25,4.623,4.623,0,0,1-1.91-.81,2.376,2.376,0,0,1-.92-1.98,2.961,2.961,0,0,1,.12-.92q.12-.38.24-.38.16,0,.16.38v.3a1.9,1.9,0,0,0,1.46,1.8,6.759,6.759,0,0,0,2.36.36,20.683,20.683,0,0,0,3.18-.34,13.516,13.516,0,0,1,1.52-.18,1.315,1.315,0,0,1,.79.2.637.637,0,0,1,.27.54q0,.56-1,.86a9.858,9.858,0,0,1-1.59.3A17.2,17.2,0,0,1,150.34-.12ZM170.9.44a7.266,7.266,0,0,1-3.31-.72,2.7,2.7,0,0,1-1.43-2.66,3.836,3.836,0,0,1,.87-2.58,8.919,8.919,0,0,1,2.09-1.78,3.229,3.229,0,0,1-1.13-1.28,4.433,4.433,0,0,1-.33-1.84,10.876,10.876,0,0,1,.28-2.3,8.126,8.126,0,0,0,.22-1.7,2.176,2.176,0,0,0-.1-.72,1.4,1.4,0,0,0-.34-.52q-.14-.14-.27-.25t-.13-.15q0-.12.28-.12a2.028,2.028,0,0,1,.48.07,2.355,2.355,0,0,1,.48.17,1.742,1.742,0,0,1,.73.6,1.741,1.741,0,0,1,.21.92,2.834,2.834,0,0,1-.08.67q-.08.33-.18.62t-.14.39q-.02.06-.16.44a4.648,4.648,0,0,0-.3.87,4.821,4.821,0,0,0-.1,1.07,3.437,3.437,0,0,0,.19,1.13,2.746,2.746,0,0,0,.49.9.836.836,0,0,0,.62.35,1.868,1.868,0,0,0,.6-.14q.38-.14.76-.32a3.35,3.35,0,0,1,1.06-.38,1.407,1.407,0,0,1,.75.23q.37.23.37.47a.553.553,0,0,1-.28.52,2.789,2.789,0,0,1-.88.26,12.1,12.1,0,0,0-3.44,1.18,3.006,3.006,0,0,0-1.66,2.9,2.269,2.269,0,0,0,.76,1.74,3.264,3.264,0,0,0,2.28.7A6.83,6.83,0,0,0,171.2-.9q.52-.08.62-.1a8.837,8.837,0,0,1,1.3-.16q1.12,0,1.12.66,0,.46-.9.7A9.852,9.852,0,0,1,170.9.44Z" transform="translate(9518 -745.096)" fill="#333"/>
      <g id="グループ_7118" data-name="グループ 7118" transform="translate(8758 -3396.606)">
        <line id="線_53" data-name="線 53" x2="407.5" transform="translate(968.5 2643.508)" fill="none" stroke="#707070" stroke-width="1"/>
        <path id="パス_5232" data-name="パス 5232" d="M9764,2654.083v8.984" transform="translate(-8796 -15.067)" fill="none" stroke="#707070" stroke-width="1"/>
        <path id="パス_5233" data-name="パス 5233" d="M9764,2654.083v8.984" transform="translate(-8388.5 -15.067)" fill="none" stroke="#707070" stroke-width="1"/>
      </g>
      <g id="グループ_7117" data-name="グループ 7117" transform="translate(8110 -3396.606)">
        <line id="線_53-2" data-name="線 53" x2="407.5" transform="translate(968.5 2643.508)" fill="none" stroke="#707070" stroke-width="1"/>
        <path id="パス_5232-2" data-name="パス 5232" d="M9764,2654.083v8.984" transform="translate(-8796 -15.067)" fill="none" stroke="#707070" stroke-width="1"/>
        <path id="パス_5233-2" data-name="パス 5233" d="M9764,2654.083v8.984" transform="translate(-8388.5 -15.067)" fill="none" stroke="#707070" stroke-width="1"/>
      </g>
    </g>
  </g>
</svg>
